/* XPM */
static xpm_row_t cursor_grabbing[] = {
/* columns rows colors chars-per-pixel */
"64 64 96 2 ",
"   c #00222F",
".  c #002633",
"X  c #012A36",
"o  c #002E39",
"O  c #0B2F3A",
"+  c #01303B",
"@  c #09343E",
"#  c #12363F",
"$  c #0C3740",
"%  c #0D3942",
"&  c #123640",
"*  c #143C45",
"=  c #183F47",
"-  c #173F48",
";  c #183F48",
":  c #144047",
">  c #164148",
",  c #1B444B",
"<  c #1F494F",
"1  c #21474E",
"2  c #21494F",
"3  c #244B51",
"4  c #294F54",
"5  c #2C5156",
"6  c #2E5458",
"7  c #32565A",
"8  c #35595D",
"9  c #395B5E",
"0  c #3B5E60",
"q  c #3D6163",
"w  c #436566",
"e  c #486767",
"r  c #456768",
"t  c #486769",
"y  c #466969",
"u  c #4B6C6B",
"i  c #516F6E",
"p  c #4F706F",
"a  c #50716F",
"s  c #547472",
"d  c #597775",
"f  c #5B7976",
"g  c #5E7B79",
"h  c #627E7B",
"j  c #65817D",
"k  c #69847F",
"l  c #6B8681",
"z  c #6E8883",
"x  c #728C86",
"c  c #768E88",
"v  c #788F88",
"b  c #779089",
"n  c #7B938C",
"m  c #81978F",
"M  c #81988F",
"N  c #819790",
"B  c #849A92",
"V  c #8A9E95",
"C  c #8CA097",
"Z  c #8EA298",
"A  c #92A59B",
"S  c #96A99E",
"D  c #98AA9F",
"F  c #9CADA2",
"G  c #9FB0A3",
"H  c #A2B2A6",
"J  c #A6B6A8",
"K  c #A8B7AA",
"L  c #ACBAAC",
"P  c #B1BEAF",
"I  c #B2BFB0",
"U  c #B5C2B2",
"Y  c #BAC6B5",
"T  c #BDC8B7",
"R  c #BFC9B9",
"E  c #C3CDBB",
"W  c #C7D0BE",
"Q  c #C9D1BF",
"!  c #CCD4C1",
"~  c #D0D7C4",
"^  c #D3DAC6",
"/  c #D7DDC8",
"(  c #D9DECA",
")  c #DDE2CC",
"_  c #E1E5CF",
"`  c #E3E7D1",
"'  c #E6E9D2",
"]  c #EBEDD6",
"[  c #EEEFD8",
"{  c #EEF0D7",
"}  c #EFF0D8",
"|  c #F2F2DA",
" . c #F8F7DE",
".. c #F9F8DF",
"X. c #FBFBE1",
"o. c None",
/* pixels */
"o.o.o.o.o.o.o.o.o.o.o.o.o.o.o.o.o.o.o.X X X X X X X X X X o.o.o.o.o.o.o.o.o.o.o.o.o.o.o.o.o.o.o.o.o.o.o.o.o.o.o.o.o.o.o.o.o.o.o.",
"o.o.o.o.o.o.o.o.o.o.o.o.o.o.o.o.o.o.o.= = = = = = = = = = o.o.o.o.o.o.o.o.o.o.o.o.o.o.o.o.o.o.o.o.o.o.o.o.o.o.o.o.o.o.o.o.o.o.o.",
"o.o.o.o.o.o.o.o.o.o.o.o.o.o.o.o.o.o.5 0 r u u u u u u r q 5 o.o.o.o.o.o.o.o.o.o.o.o.o.o.o.o.o.o.o.o.o.o.o.o.o.o.o.o.o.o.o.o.o.o.",
"o.o.o.o.o.o.o.o.o.o.o.o.o.o.o.o.o.; 0 k V S F F F F S V j q = X . X X . X o.o.o.o.o.o.o.o.o.o.o.o.o.o.o.o.o.o.o.o.o.o.o.o.o.o.o.",
"o.o.o.o.o.o.o.o.o.o.o.o.o.o.o.o.X * w N U ^ ( ^ / / ^ U N w > @ @ = > > > = o.o.o.o.o.o.o.o.o.o.o.o.o.o.o.o.o.o.o.o.o.o.o.o.o.o.",
"o.o.o.o.o.o.o.o.o.o.o.o.o.o.o.o.O > e C Q } .. . ...| ! Z y , : 4 q u u u w 8 o.o.o.o.o.o.o.o.o.o.o.o.o.o.o.o.o.o.o.o.o.o.o.o.o.",
"o.o.o.o.o.o.o.o.o.o.o.o.o.o.o.o.O * r C !  ..... ...| ! C y 3 6 f N D F A n s 5 @ . . . X . X o.o.o.o.o.o.o.o.o.o.o.o.o.o.o.o.o.",
"o.o.o.o.o.o.o.o.o.o.o.o.o.o.o.o.X > w C Q {  . . . .[ Q V w 5 r M Y ^ ( Q H l 6 $ @ & = - ; : : o.o.o.o.o.o.o.o.o.o.o.o.o.o.o.o.",
"o.o.o.o.o.o.o.o.o.o.o.o.o.o.o.. O * e C Q [ | | |  .{ Q B w 5 p D ^  .X.' U x 7 : , 6 w y y r q 6 o.o.o.o.o.o.o.o.o.o.o.o.o.o.o.",
"o.o.o.o.o.o.o.o.o.o.o.o.o.o.o X o * w C Q [  .} |  .[ Q B w 5 p D / ..X.] U z 7 2 q k C S S B l w , o.o.o.o.o.o.o.o.o.o.o.o.o.o.",
"o.o.o.o.o.o.o.o.o.o.o.o.o.o o X O * e Z ! }  . .|  .[ Q Z a q f F )  .X.' U z 7 6 d D W ^ ^ Y C u , O o.o.o.o.o.o.o.o.o.o.o.o.o.",
"o.o.o.o.o.o.o.o.o.o.o.o.o.o o . . # e Z ~ }  .| | | } ^ J b l n I ) |  ._ U k 7 7 k U `  . ./ D s 1 X . o.o.o.o.o.o.o.o.o.o.o.o.",
"o.o.o.o.o.o.o.o.o.o.o.o.o.+ o X . * e Z ~ |  . .| | { _ W L K U ! ' |  .` U k 7 7 k U ] X...) F s , O . . . . . o.o.o.o.o.o.o.o.",
"o.o.o.o.o.o.o.o.o.o.o.o.o.o o o @ 1 i V E _ [ { | | { ' ) ! ! ! ) ] |  .` U c w w c Y ] .. ./ F s > O @ * * * * * * o.o.o.o.o.o.",
"o.o.o.o.o.o.o.o.o.o.o.o.o.o @ : 4 w h M D Y ^ ` { | | ' ~ R Y R / ] | | ' E Z k k Z W ' ..| / D i 1 % , 8 q w q 0 7 o.o.o.o.o.o.",
"o.o.o.o.o.o.o.o.o.o.o.o.o.o : 7 h n M c k m K ~ [  .| ( U C n A Y ) |  .{ / T J J T / {  .| ^ D i 3 3 u x V A V b f 6 * o.o.o.o.",
"o.o.o.o.o.o.o.o.o.o.o.o.o.o , q n F A z a g A ! ] X.} ^ F l s x J ) } | } ` / W Q ^ ` {  .| / F d 0 e v L ! ~ W J x 9 & o.o.o.o.",
"o.o.o.o.o.o.o.o.o.o.o.o.. O - q x Z C z f z F ! ' X.} ^ G z j b L ) |  .} ) ! T R ! ) {  .} ) L v h x H ~ | X.] E m 0 * . o.o.o.",
"o.o.o.o.o.o.o.o.o X . X . X % < q f z n V F R ( } X.} _ R G F K W ` |  .] ! H B B H Q ] | | ' ! L H L ! '  .X.| E m 0 * . o.o.o.",
"o.o.o.o.o.o.o.o o $ $ $ $ o $ % < 0 f B L ! ( ' } | } ] _ ^ ~ ^ ) ] |  .` T B f g B R '  .| ' ) ! W ! ( ] | X.] E v 0 & . o.o.o.",
"o.o.o.o.o.o.X o % , 6 5 3 : : : 4 q g n G R ^ ' } } | } } } } } } } | | ' R C j j B E ' | | ] ) ! Y E ^ '  . .' E n 9 & . o.o.o.",
"o.o.o.o.o.X . O : q l l p 4 : 6 s c n c c V P / } | | } | } X.| | | | | ] ~ U S S U ^ ]  .| ) R S N A I ( | X.] T v 9 # . o.o.o.",
"o.o.o.o.o + + * 8 l Z A z 0 3 q c F Z z s g F E ] | | } | | | | } } | | ] ` ) ! Q ) ` {  .| ) L x d l F ~ | X.' E m w 1 O o.o.o.",
"o.o.o.o + % , 7 p b A C l 8 < q z C V z d l F ! ] | | | [ | } | | { | { { { { { { { { | | } / L x g z H ^ | X.] Q D h q 5 o.o.o.",
"o.o.o.X $ < y l n n b j q < : < r g c b n G R ) [ } | | | } | | } } } } | | |  .| | | | | | _ E H A D E _ }  .[ ( E D m d 7 * . ",
"o.o.o.X % 6 j Z G B d 8 > % % % < 0 f B J ! ( ' } } | } } | } } | } } } } } | } | | | } | } ] ) ~ Q ~ ( ' } } { ' _ Q P n w * X ",
"o.o.o.X % 6 j C F n d q < : $ : 3 q g n J R ( ' } } | | } } } } } | } } } } } | } | | } } | } { { [ ] [ { { [ | | | { W V r * . ",
"o o o X + : q f x b b l y < : 4 a l b b n Z Y ) | X.| } } } } | | } } | | | } } | } } } } } } |  .|  .| | { [ | |  .| ~ A w * X ",
"o + o o + $ , 7 a b A Z l 0 3 q b F A l d j A E ' } } } } } } } } } } | | } | } } | } } } } } { { | | | | [ { } }  .} ! Z w = X ",
"+ o o X + $ , 7 s n F Z l 8 3 q x Z A l s d n G R / ` } | } } | } X.| | | } | | | } } | | } | | | } | | } | } |  . .[ Q C w = . ",
"o o o o @ , q j b n b j q < > 3 y l c b b b z c V L ~ ' | } } } } } } | | } | | | } } | } | | { | { | { | { | | }  .[ Q C w * X ",
"+ o o X $ 6 j Z F n f 0 , % % : 3 q g B G A z s g C R ' X.} | } } } } | } } | } | } | } | { { { | | | | } | { } | | [ Q C w * X ",
"o o X o $ 6 j Z D M f 9 , % @ % < q g C F S z f g C R ' | | X.} | } } } } | | } | } } } } } } } | } | | | [ } | |  .} ! Z w = X ",
"+ o o X @ < y j m m v h w , = 3 y l b b b b b b C P ^ ] X.X.} } | | } } | } } | } | | } } } } | | X.| | } [ [ } |  .| ! A w * X ",
"o o o o + $ > 6 i v S A k q 5 w c S Z l a d b G T ^ ' ] ] ] ] ] } } } } } | | | } } } } } } } ] ] ] } { [ | | } | | ] W Z w * . ",
"o + + o + o O $ 4 h C D m d u g B F A l a d b G R / ' ' _ ! ! ^ _ ] | | | } | | | | | } | } ] _ ! ! ! ) ] | | [ ] ) Q L b 0 = X ",
"+ o + o o X X O * 9 h v n n n n n n b b z x b n F Y / ) R G A G ! ' } X.| | | X.X.[ } | } } _ R G Z F R ` | X.] ( T F v d 8 * X ",
"+ + + + o o o o @ > 6 u x A G C l a j n F Z z d g Z Y ! G z g c G / { } | } { ] ] ] } } X.} ) L c f z G ! [ X.] Q D h q 4 o.o.o.",
"o + + + + o o + @ : 5 u z S G C j s f N F F x s d b F G V g a h Z U ^ ` ' ` ) ! ! ^ ' } X.[ ) L c s f N P ^ ' ` E B w ; O o.o.o.",
"+ + + + o o X + : 8 a k n n n n x z c n n n b x x x b b c x z z b n G ! ) ^ U S F P ( [ X.} ` R F b z z n F E / E m 9 &   o.o.o.",
"+ + + + o X X $ 3 d N S N j s j V F Z l d g n S F x d s z V F B l s x G ! Y Z g h V R ` X.[ ' ) Q L V j s l F E I m 9 *   o.o.o.",
"+ + o + o o X @ 3 f Z F V g p j V F A l a d b F F n s a l Z F V l u j C J G b s s x G ! ) ' ] _ ~ U Z j i g N H D l 7 % . o.o.o.",
"+ + + + o X X @ , w l n n b z x b n n b z z b n n n z z c b n b x l z c n b c z z z c Z U / ) ^ L A n x x x v n k e 3 $ X o.o.o.",
"o.o.o.+ o o o o % > 6 u x Z D C j d j n F Z c f d c Z F n l f l B F C l s f c A F c g g n Y ! L n g h m S A c i 7 , $ + X o.o.o.",
"o.o.o.+ o + o o o @ $ 4 d C G Z l s g B G F c s a c F G B f i j C G S l p s n F F c s p z F K F j s g B G A h 7 * + + o o.o.o.o.",
"o.o.o.+ + o + o X X O * 9 j n N x l z b n n b l z c n n v x z x n n n b l x n n n c z l z b n b x z b n m k w , O . X o o.o.o.o.",
"o.o.o.+ + + + o o X X @ > 6 y l C F C l f g b S F c g d z V F B l s l n F Z x f g c Z F n g s g N F Z x i 7 > @ o X o.o.o.o.o.o.",
"o.o.o.o.+ + + + o o o o O $ 3 a n F S l p d n F F n d i z A F V l p f n F S x s s z F F V f a l Z G C f 4 * @ o o X o.o.o.o.o.o.",
"o.o.o.o.+ + + + o o + o X X * 7 h v B v z z n V V n x l x n B n z l x v N N x l l c N N b z l c N N j 0 = X X X o + o.o.o.o.o.o.",
"o.o.o.o.o.o.+ o + + o o X X @ * 4 w h V S A x f d x Z S N h d l B F V z f h n S A n g f z C D V l u 7 > @ o X o o + o.o.o.o.o.o.",
"o.o.o.o.o.o.o.+ + + o + o o o O $ 1 r n F A h 0 0 h Z G B h i h V H A l i f n F G n d p z S H B i 4 @ @ o o o o + o.o.o.o.o.o.o.",
"o.o.o.o.o.o.o.+ + + + o o o X X X $ 6 d x l w 1 1 w x N N x l x B V B x l z v V V n l l b B n h 7 # o . X + + + o o.o.o.o.o.o.o.",
"o.o.o.o.o.o.o.o.o.+ + + + + o o X $ * 3 0 8 , * & , 0 i x V S N l d j n S V v h g c A S M k w 5 * @ X X + + + o.o.o.o.o.o.o.o.o.",
"o.o.o.o.o.o.o.o.o.o.+ + + o o o o o $ $ % % $ o o O & 6 h A F N p 0 t c D Z h 0 0 h A F m e 1 & O o o X X + o.o.o.o.o.o.o.o.o.o.",
"o.o.o.o.o.o.o.o.o.o.o.+ + o o o o o o o X X o o X X o ; q l v h 0 , 6 d v x r 1 1 w x c h 4 $ X X X + + + o.o.o.o.o.o.o.o.o.o.o.",
"o.o.o.o.o.o.o.o.o.o.o.o.+ + + + o o o X o X o o o X o $ 1 8 0 7 ; % ; 5 0 8 1 * * 3 8 0 7 * + o X + + + o.o.o.o.o.o.o.o.o.o.o.o.",
"o.o.o.o.o.o.o.o.o.o.o.o.o.+ + + + o o o o o o o $ X X $ $ $ * $ $ o $ $ % % $ $ + @ * * $ @ o o o + + o.o.o.o.o.o.o.o.o.o.o.o.o.",
"o.o.o.o.o.o.o.o.o.o.o.o.o.o.o + o o o + + o + o X X $ X X $ X X X o o X X X X X o o X X X o o o o o o.o.o.o.o.o.o.o.o.o.o.o.o.o.",
"o.o.o.o.o.o.o.o.o.o.o.o.o.o.o.+ + + + + + + + o $ X $ . X X . X o o o o X X o o o o X o o o o o + o.o.o.o.o.o.o.o.o.o.o.o.o.o.o.",
"o.o.o.o.o.o.o.o.o.o.o.o.o.o.o.o.+ + + + + + + + X $ X $ X $ $ X o o o o o X $ o o o o o o o o o o.o.o.o.o.o.o.o.o.o.o.o.o.o.o.o.",
"o.o.o.o.o.o.o.o.o.o.o.o.o.o.o.o.o.$ o o o o X $ $ X X $ X X $ X X $ X X $ X o o o o + o o + o o.o.o.o.o.o.o.o.o.o.o.o.o.o.o.o.o.",
"o.o.o.o.o.o.o.o.o.o.o.o.o.o.o.o.o.o.o.o.o.o.$ X X $ $ X $ X X $ $ X $ $ X $ X $ + + o.o.o.o.o.o.o.o.o.o.o.o.o.o.o.o.o.o.o.o.o.o.",
"o.o.o.o.o.o.o.o.o.o.o.o.o.o.o.o.o.o.o.o.o.o.X $ X $ X $ X $ X $ X $ $ X $ X $ X + + o.o.o.o.o.o.o.o.o.o.o.o.o.o.o.o.o.o.o.o.o.o.",
"o.o.o.o.o.o.o.o.o.o.o.o.o.o.o.o.o.o.o.o.o.o.$ X $ X $ X $ X $ X $ X X $ X $ X $ + + o.o.o.o.o.o.o.o.o.o.o.o.o.o.o.o.o.o.o.o.o.o."
};
