/* XPM */
static char *cursor_default[] = {
/* columns rows colors chars-per-pixel */
"64 64 90 1 ",
"  c #012633",
". c #012B37",
"X c #002E39",
"o c #01303B",
"O c #0A343E",
"+ c #12363F",
"@ c #073540",
"# c #0B3640",
"$ c #0E3A43",
"% c #133740",
"& c #143D45",
"* c #193D46",
"= c #164047",
"- c #164149",
"; c #1C444B",
": c #21454C",
"> c #23494F",
", c #264D52",
"< c #294E54",
"1 c #2C5156",
"2 c #2E5458",
"3 c #305257",
"4 c #32555A",
"5 c #355A5D",
"6 c #395C5E",
"7 c #3B5E61",
"8 c #3E6163",
"9 c #436465",
"0 c #456768",
"q c #496768",
"w c #476869",
"e c #4C6C6C",
"r c #516E6E",
"t c #4F706F",
"y c #52706F",
"u c #557472",
"i c #597775",
"p c #5B7977",
"a c #5E7B79",
"s c #627E7B",
"d c #65817D",
"f c #69837F",
"g c #6B8681",
"h c #6E8983",
"j c #728B86",
"k c #768E88",
"l c #798F89",
"z c #779089",
"x c #7B928B",
"c c #80978F",
"v c #81988F",
"b c #849A92",
"n c #899E95",
"m c #8CA097",
"M c #8EA298",
"N c #92A59B",
"B c #96A99E",
"V c #99AA9F",
"C c #9CADA1",
"Z c #9FB0A3",
"A c #A2B2A5",
"S c #A6B5A8",
"D c #A9B7A9",
"F c #ACBAAC",
"G c #B1BEAF",
"H c #B2BFB0",
"J c #B5C2B2",
"K c #B9C5B5",
"L c #BDC9B7",
"P c #BFC9B8",
"I c #C3CDBB",
"U c #C7D1BE",
"Y c #C8D1BE",
"T c #CCD4C1",
"R c #D0D7C4",
"E c #D3DAC6",
"W c #D6DDC8",
"Q c #D9DEC9",
"! c #DDE2CC",
"~ c #E1E4CF",
"^ c #E3E6D0",
"/ c #E6E9D2",
"( c #EBEDD6",
") c #EEEFD8",
"_ c #EEF0D7",
"` c #EFF0D8",
"' c #F2F3DA",
"] c #F8F7DE",
"[ c #F9F8DF",
"{ c None",
/* pixels */
"{{{{{..................X...................X....{{{{{{{{{{{{{{{{",
"{{{{{,,,<<<,,<<,,,,,,1,>1>>1<<<<,<<<<<,<,,,,<<,>{{{{{{{{{{{{{{{{",
"{{{{1ujxxxxxxxlxzxxzxxxxzxxzzzzxzxzxxxzzzxzzxxjs7{{{{{{{{{{{{{{{",
"{{{O5kHTTTYYYYYYTTYTYYYRYRYYEYYYYYYYYYYYTTTTTRLMq*{{{{{{{{{{{{{{",
"{{{%6bR'['''''''''''']]]]']]']''''''['''''']]]~At* {{{{{{{{{{{{{",
"{{{O6bR'[''''']'''']''''']']''']']''''']''''']^Ae* {{{{{{{{{{{{{",
"{{{O5bT'[''`''''''`_/WTR^/!YY!_''`'__'''''''']!Ae*.{{{{{{{{{{{{{",
"{{{#5bT''''```''`''_RZbBUEJmmJ!'[`__''__`'`'''!Ze= {{{{{{{{{{{{{",
"{{{#7bE`]'``''``'''_PbudAJMaiMI/__``''''''''']!Ze* {{{{{{{{{{{{{",
"{{ O7bE'''`````'`''_YBgdxbxddxBJ!_]]''''']'']]^Ae* {{{{{{{{{{{{{",
"XX @2bR`'''`'``''`'_^RFmsuhMNfilJ!``______''''!Ze= {{{{{{{{{{{{{",
"XX.@,gZT/'''````````'_!FhihNny10xJUPLLLLLLLLPLJbw&{{{{{{{{{{{{{{",
"XX.o$4pmU('''```````''_RDnkde,&;8pdddddddsddddau5{{{{{{{{{{{{{{{",
"XXXX@-7gAT()`''`'''`''`_!Imu1&oO&-;;;;;;;;;;;;;;{{{{{{{{{{{{{{{{",
"XXXo&7tgxCK!'''''''```_']!Jkq:O. ...............{{{{{{{{{{{{{{{{",
"X..O<dMndpbI('``_(```'_''(!LNr:.....X..X...X..X.{{{{{{{{{{{{{{{{",
"XX.O<dNnjphCP!/!TIR^)')'`''(Ibe,+o..o.o.XXXXXXXX{{{{{{{{{{{{{{{{",
"XXXo&4uhxxzgxJRPmzCR)]'))'''~INs1O..oXoooXXoXoXX{{{{{{{{{{{{{{{{",
"XXXX@-7aCZxupMHZgtjHW/)''`''`(RCi,Oo.XXooooooooo{{{{{{{{{{{{{{{{",
"XX.o&7ijxxxhgkxxhgjxCU/''`))'')INs5&...ooXXoooo{{{{{{{{{{{{{{{{{",
".X.O1sMmgugBBgtgnCzigBR(''`'`''/RDf4+XX.XXoooo{{{{{{{{{{{{{{{{{{",
"X..@<gMngphNNhignCxaizAU!)''``'''WAs4*O..oXoX{{{{{{{{{{{{{{{{{{{",
"XXXo$2tgxMzggzmxhgznxhgxL/''')'''/EDl8&..{{{{{{{{{{{{{{{{{{{{{{{",
"XXX@@-7sNZxppxZxe7aBChtgCT^(''`'''(~Gj6;{{{{{{{{{{{{{{{{{{{{{{{{",
"XX.X-7pjxxzjjxki,-7gcxjhlnHQ''')''''WDxi4{{{{{{{{{{{{{{{{{{{{{{{",
"XX.@,gNmgugCCj8,$@$,rxCnsucP/`'`_'''(QIMr:{{{{{{{{{{{{{{{{{{{{{{",
"XX.@,gmngphMBkt2&XXX<sNngihNKE('''_`''~Jxe4{{{{{{{{{{{{{{{{{{{{{",
"XX.X$1wgxmxggxxg7$..&1ehnMlsjDQ'''_'''`WKNs3+{{{{{{{{{{{{{{{{{{{",
"XXXX@;7aNZxppxCx7&..X@;qnCciinKW/''''`'_/YMy<*{{{{{{{{{{{{{{{{{{",
"XX.X;8dzxxkkzxjt<@XX..O<ukxkjhxCY('''`'''~KMs9*{{{{{{{{{{{{{{{{{",
"X..O1gBmgthBCk8,$XXX..X$;7hCBhuhDW`'```'')~YAs3%{{{{{{{{{{{{{{{{",
"XX.O,abbgpjMMku5&@XXXXX..*rcMjpdvDY~'''`''])RNa7,{{{{{{{{{{{{{{{",
"XXXX$<0gnNxaabmh5#X.XoXXX#:7svNbfdMY_'''_'''~YSx9*{{{{{{{{{{{{{{",
"XXXX@-7dMCbupxCx8$..XXXXX.X&4lVndyhSY/)''_`'_)QDs6:{{{{{{{{{{{{{",
"XXXo;0gzxkjxxxge,@XXXoXXXX..;9fxxxjjmL~''')'''_TAlr,{{{{{{{{{{{{",
"XX.@1hBmgtgCCj9,$oXXooooXXXX.*1imCcuiMY/)'`'`''/QHc8;{{{{{{{{{{{",
"XX.O<pnngphmmku5-OXXXoooXXoXX.O6hmbddkNJQ_''``'''!Fkq2{{{{{{{{{{",
"XXXX$<9dnCxasvMj7$.{{oooooXo.Xo*1tjNMhaxJ~''`_'''(WJMy>{{{{{{{{{",
"XoXXXX*wxCbpibBx8&.{{{oooooXXXXXO,iNBhusNLW(''`''''/Ixq<{{{{{{{{",
"oXXX..O,thxxvxfe,O.{{{{XooooXXX..$2ijbxkhxSW''''''['!Jms6+{{{{{{",
"oooXXXXO=6fBBf6=ooX{{{{{oooXoXXX.X#:0xZNsulJ!_`(~~/__^YNi<%{{{{{",
"oooXoXX..=qlk0=.XX{{{{{{{ooooooXXX..>ivbhshbDT~EJDK!'[(Ibs8{{{{{",
"XooooXXX.O;23;O..{{{{{{{{{oooooXoX.o#>9dMBxihZUJxdbU('`~YAg6+{{{",
"ooooooXXXooOOoX.{{{{{{{{{{{oooooXXXXX.&0vCxpaxZMduhCU~(~YDly6<{{",
"oooooXoXoX...XXX{{{{{{{{{{{{oooooXoX..o:wdxncjdhxxxgvJWIBkzxky;.",
"XoooooooXoXXXXoo{{{{{{{{{{{{{oXoooXoXXXO&5fNBjyaMCxupNJZgujCNi;.",
"ooooooooXXoXXXXX{{{{{{{{{{{{{{ooooXXXXX..*9jbxfhvbxhfzvxhgzxh8*X",
"ooooXooooooooooo{{{{{{{{{{{{{{{{ooooooX..o=4yvVMdujNNhudnBbu5-OX",
"oooooooooXoooooo{{{{{{{{{{{{{{{{ooooooXXXX.+4fBndihBNhudnCbu4-@X",
"{{oooooooooXoo{{{{{{{{{{{{{{{{{{{{oooXooXX..*4ikbnxdgxnxhgkch9&.",
"{{{oooooooooo{{{{{{{{{{{{{{{{{{{{{{ooooXXXXX.#>rmAbiubCMsyjCNa;X",
"{{{{Xooooooo{{{{{{{{{{{{{{{{{{{{{{{{XooXXooX..O1axxhjxnxjhlblu;.",
"{{{{{{{{{{{{{{{{{{{{{{{{{{{{{{{{{{{{{ooooooXXXX$,9hBBgusnVxu7,{{",
"{{{{{{{{{{{{{{{{{{{{{{{{{{{{{{{{{{{{{{ooooooXXXXo;ynbe<8knf1#{{{",
"{{{{{{{{{{{{{{{{{{{{{{{{{{{{{{{{{{{{{{{ooooXXXXX.O199,&;6q5*.{{{",
"{{{{{{{{{{{{{{{{{{{{{{{{{{{{{{{{{{{{{{{{oooooXXX.OO$$OoO$%@OX{{{",
"{{{{{{{{{{{{{{{{{{{{{{{{{{{{{{{{{{{{{{{{{oooXoXoXX....XX..XXX{{{",
"{{{{{{{{{{{{{{{{{{{{{{{{{{{{{{{{{{{{{{{{{{ooooooXXXXXXXXXXXXX{{{",
"{{{{{{{{{{{{{{{{{{{{{{{{{{{{{{{{{{{{{{{{{{{ooooooXXXXXoXXXXXX{{{",
"{{{{{{{{{{{{{{{{{{{{{{{{{{{{{{{{{{{{{{{{{{{{{ooXoXoXXXXXXXX{{{{{",
"{{{{{{{{{{{{{{{{{{{{{{{{{{{{{{{{{{{{{{{{{{{{{oooooooooooooo{{{{{",
"{{{{{{{{{{{{{{{{{{{{{{{{{{{{{{{{{{{{{{{{{{{{{{{oooooooooo{{{{{{{",
"{{{{{{{{{{{{{{{{{{{{{{{{{{{{{{{{{{{{{{{{{{{{{{{{ooXoXooo{{{{{{{{",
"{{{{{{{{{{{{{{{{{{{{{{{{{{{{{{{{{{{{{{{{{{{{{{{{oooooooo{{{{{{{{"
};
