/* XPM */
static char *cursor_grab[] = {
/* columns rows colors chars-per-pixel */
"64 64 90 1 ",
"  c #012633",
". c #012A36",
"X c #012E39",
"o c #082F39",
"O c #01303B",
"+ c #0A333D",
"@ c #0D3640",
"# c #0D3942",
"$ c #143C45",
"% c #193E46",
"& c #1A3F48",
"* c #164047",
"= c #174048",
"- c #1C444B",
"; c #21464E",
": c #22484F",
"> c #254B51",
", c #294E53",
"< c #2C5256",
"1 c #2E5458",
"2 c #315659",
"3 c #34595C",
"4 c #395B5E",
"5 c #3B5E61",
"6 c #3E6163",
"7 c #426465",
"8 c #456768",
"9 c #466869",
"0 c #4B6C6C",
"q c #506F6F",
"w c #4F706F",
"e c #51706F",
"r c #557472",
"t c #597774",
"y c #5B7976",
"u c #5E7B78",
"i c #607B77",
"p c #627E7B",
"a c #65817D",
"s c #68837F",
"d c #6B8581",
"f c #6E8883",
"g c #728B86",
"h c #768F88",
"j c #788E88",
"k c #779089",
"l c #7B938C",
"z c #80978F",
"x c #81988F",
"c c #819790",
"v c #849A92",
"b c #899E95",
"n c #8CA097",
"m c #8EA298",
"M c #92A59B",
"N c #96A99E",
"B c #98AA9F",
"V c #9BADA1",
"C c #A2B2A6",
"Z c #A6B5A8",
"A c #A8B6A9",
"S c #ADBBAC",
"D c #B1BEAF",
"F c #B2BFB1",
"G c #B6C2B2",
"H c #BBC6B6",
"J c #BDC8B7",
"K c #BFC9B8",
"L c #C3CCBB",
"P c #C7D0BE",
"I c #C8D1BE",
"U c #CDD4C2",
"Y c #D0D7C4",
"T c #D3DAC6",
"R c #D6DDC8",
"E c #D9DECA",
"W c #DEE2CD",
"Q c #E1E5CF",
"! c #E3E6D0",
"~ c #E6E9D2",
"^ c #EBEDD6",
"/ c #EFEFD8",
"( c #EEF0D7",
") c #EFF0D8",
"_ c #F2F2DA",
"` c #F8F7DE",
"' c #F7F8DE",
"] c #F9F8DF",
"[ c #FBFAE0",
"{ c None",
/* pixels */
"{{{{{{{{{{{{{{{{{{{{{{{{{{{{{{{X.XXo{{{{{{{{{{{{{{{{{{{{{{{{{{{{",
"{{{{{{{{{{{{{{{{{{{{{{{{{{{{{{,<<2<<>{{{{{{{{{{{{{{{{{{{{{{{{{{{",
"{{{{{{{{{{{{{{{{{{...{{{{{{{{,whbmbf8-{{{{{{{{{{{{{{{{{{{{{{{{{{",
"{{{{{{{{{{{{{{{{{;;:;;{{{{{{X<dSR!YCt;X{{{{{{{{{{{{{{{{{{{{{{{{{",
"{{{{{{{{{{{{{{{;6uggdu6-{{{{o<gJ_[~Dy;X{{{{{{{{{{{{{{{{{{{{{{{{{",
"{{{{{{{{{{{{{{+>yVLYLVy>o{{{X,fH)[~St;.{{{{{{$$$$${{{{{{{{{{{{{{",
"{{{{{{{{{{{{{{o>uG)[^Gp>o {.X,fH/[~St;X{{{{{50wr093{{{{{{{{{{{{{",
"{{{{{{{{{{{{{{o>dH^[^Fa>X ..o,gH/[QSy;o{{{+<uNGGSx0-{{{{{{{{{{{{",
"{{{{{{{{{{{{{ o>pG/[^Fa;o.X.O>gH/[!Sy;.{{{+2fH/`ECt&.{{{{{{{{{{{",
"{{{{{{{{{{{{X.o>aG^]^Fa;X...O,fH^[QSy-.{{{+2gL_[~Ct;.{{{{{{{{{{{",
"{{{{{{{{{{{X..X>aG/]~Fp;o...+,gJ/[~St;X{{ +<gL_[QCt-.{{{{{{{{{{{",
"{{{{{{{{{{{OX.o>pH~]^Fp>X.X.X,fH/]~Sy;....+<gL)[QCt;.{{{{{{{{{{{",
"{{{{{{{{{{{XX.o>aG^]^Da;o...o,fJ/]~Dy-X...+<gL)[QCe-.{{{{{{{{{{{",
"{{{{{{{{{{{OX.X>aG^]~Dp;....X,fJ/]~Sy-X.. o,gL_]QCt-.{{{{{{{{{{{",
"{{{{{{{{{{{X..o>aG^]^Gs<+X..X,gH/]~Sy-o.XX@3jL_[QCt-.{{{@@@@@{{{",
"{{{{{{{{{{{XX.X>aH/]/Lmt1*O.o,fH/]~Sy-..+*4pBY_[QCt- .{3799861{{",
"{{{{{{{{{{{OX.+>pG^`)!UZg5$ X,gH/]QDy& o%7zDY!_`QZt- .:tbASCvr-.",
"{{{{{{{{{{{XX.X-0VLW^__RVq$ .,gH/]~Sy; o;iSQ__~EJmq% .,dG~)WAu-.",
"{{{{{{{{{{{{{XX#>9lSE[[!Zr% .,gH/]~Dy;. ;pF/]/IVge3$ o,fH/[^Dd-.",
"{{{{{{{{{{{{{{XX@$5gDW^WZr% .,gH/]~Dy& o;sF^]/Lj4%+{{.,sG/[~Su-.",
"{{{{{{{{{{{{{{XX.X$5dVUYZt% .,gH/]~Dy& .;dF^]^Fp>.   .:sF^[^Su;.",
"{{{{{{{{{{{{{{XXXXO=1pVGVe$ .,gH/]~Di& .;pF^]^Fp>o .O$2gJ^[!Su-X",
"{{{{{{{{{{{{{{XXXX#,8dcvs4@ X,fH/]~Di&  ;pF~]^Ls:o +-4aVU)[!Sp;.",
"{{{{{{{{{{{{{{XX.+>ybmg0<&oXX,fH/]QDi;o.;pF^]^Fp:. %7zGY~_[!Sp-.",
"{{{{{{{{{{{{{{XX.@:ynmgw661-#,fH^`~Lz9;+:iF~]^Fp;o &rAE`_^THbr&.",
"{{{{.XXXX.{{{{XXXX#,6dlVCVny<1fH^`/WLMi2<iD^]^Fi;o -yS~[)UVd02{{",
"{{{,-=@@$>,{{{XXXX@=1rlSUTUNuwlK^`)/^YBaqjL^]^Lz6%o-tA![/Lh5&{{{",
".-0dd6-;8dd9;{{.X@=6dkllVLWUZVHR^___'(IAVDI^`^TFvq,;rA![/Hf,o{{{",
".-wbmf68gVb0-X{{{@,dnmfrfSRWUUT!(___)(WIII~/_/^!IMi7pD~[^Jf<o{{{",
"X$5dllgglju5$X{{{X-9flkgmJTUZZJE(____~IDAFR^___`^LBzNL~[^Jf<+{{{",
"XO$,wkVVh0,$@X{{{X#-5rlSUWTZdunL^____WSgivL~`___/QILUW^`/Hf<+{{{",
"X@-5tkMMhr2=X..{XX#:6ylZLWEGkdNL^'___QDlpvL^____^ELFLE^]^Jf<+{{{",
"X$8hmliplbj7%o...O>rlnfalGWTJGUW()___^TLGLE^____!GvdxL~]/Hf<+{{{",
"X*0cNlyyzBMa5;@..o>umMftanGYW~))())_((^~^^^)___`!FlyjG~]/Hf<+{{{",
"X@,0dlcvhdgcly<+ .#1wflvkdgVU)'))))))))____))___~USVSY~`/Hf<+{{{",
"XXo$3dBBgrpbVvt,-->>3yvVnawfCY!)_)_()_)_____)))))^QWQ^_`^Hf<+{{{",
"XX.X%5sllhgllzjhggffdhklkgffkmGW)`_))_(__)___^__)__'___`/Hg<+{{{",
"XX.XX$>0lVMarpmFLUULGNdranVvtrlHQ)))_)_)__^___)^)))'_)__~Hf<+{{{",
"XXXXX.+>tcvgpdcZPQQUAnfudxnldufnAIQ)_))_^__^_)_))))))__`^Hd<+{{{",
"OOOOXX.#-5pbBcspbLLNsalNnsyfmMkusBT)___)____)__^')))))_`/Hf<+{{{",
"OOOXXXXXX$5gNvstgMBjyilBmdtdmNkusBY)___)__))_)____))))/'/Jf<+{{{",
"{{OXOXXX.+$3rgbblppgbbgpflnlaafmSI~))_)_))_)^)_____/)/_'/Jg<+{{{",
"{{{OOXXXXXX@;rcBvtrlBMgeuvVvywfVLE^_______)__/~RTTQ/__/QIZa<+{{{",
"{{{{XOXOXX..@>0dlllhgglllkkglkkknGW''________^UCvBL~]_WGms8;{{{{",
"{{{{{OXOOXX.O#>8fVVgryxVmdwdmVkyyvJQ^(^QWQ^__^KlysBI^/UMq,%{{{{{",
"{{{{{{OOXXXX@:8phvvhdflvlfdfvvkdsgbAUWUSCGR_`/UVjsjMGRPx4+{{{{{{",
"{{{{{{OOXX.X$8lMcytlNmfravVvutgNMgrsZLZgylHQ__~YGbptlDHz4o{{{{{{",
"{{{{{{XOXXXX=6hmvpylMngydvNlaykmmjuaxMxaydmDUQQUAbsyfbby,+{{{{{{",
"{{{{{{{{OXXX@=3rjMmhyplMvdydnmluulmmdydvMladBILmsslNbp7:$O{{{{{{",
"{{{{{{{{XXXXX.+>tbBhyilVmdrdmVkyykVmdrabVlyykVVgtavBj6%..X{{{{{{",
"{{{{{{{{OXOXX..#>0dlvvgdflvlfdllvhdflvlgdglvksdkvxku7-O..{{{{{{{",
"{{{{{{{{{OOXXXXX@$5gVMfrabCvurgNNgryvVbpefMVkryvVne<@OXX{{{{{{{{",
"{{{{{{{{{{XOXXOX.X&7dllhhlllhggllkfkkllggkklkgkljy3+..XX{{{{{{{{",
"{{{{{{{{{{{XXOXXXX@#,qcVby0ymVlttlVMaramVvurgNNd6-+O.OXX{{{{{{{{",
"{{{{{{{{{{{{XOXOXX..+,yld5>5gblddlmvgafvmldalnj8=o..OOO{{{{{{{{{",
"{{{{{{{{{{{{{OOOXXX.o$><,$@$<0lMmgtuvNvaydmNle2&+..OO{{{{{{{{{{{",
"{{{{{{{{{{{{{{OOXXOXXOX@@XXXo>yvvt<5fbg7<0zbp,+X.XXO{{{{{{{{{{{{",
"{{{{{{{{{{{{{{{{OXXOXXXX..X.X#,56<$=374-$>67<$XXXOO{{{{{{{{{{{{{",
"{{{{{{{{{{{{{{{{{OXOXXXXXXX.XX@@@@XO@#@XO+@#+OXXXO{{{{{{{{{{{{{{",
"{{{{{{{{{{{{{{{{{{OOOXOXXX@XXXXX.XXX..X.XX..XXXXX{{{{{{{{{{{{{{{",
"{{{{{{{{{{{{{{{{{{{OXXXXXXXXX@.XXXXXXXXXXXXXXXO{{{{{{{{{{{{{{{{{",
"{{{{{{{{{{{{{{{{{{{{{@X@@X@XXXXXXXXXXXOXOXXXOX{{{{{{{{{{{{{{{{{{",
"{{{{{{{{{{{{{{{{{{{{{{{{{XXXXXX@X@X@XXOOOX{{{{{{{{{{{{{{{{{{{{{{",
"{{{{{{{{{{{{{{{{{{{{{{{{{XX@@XXXXXXX@X@XOO{{{{{{{{{{{{{{{{{{{{{{"
};
