/* XPM */
#pragma once

static xpm_row_t number1_20[] = {
/* columns rows colors chars-per-pixel */
"20 32 42 1 ",
"  c #050505",
". c #060606",
"X c #070707",
"o c #080808",
"O c #090909",
"+ c #0A0A0A",
"@ c #0B0B0B",
"# c #101010",
"$ c #131313",
"% c #1F1F1F",
"& c #212121",
"* c #272727",
"= c #282828",
"- c #2C2C2C",
"; c #2F2F2F",
": c #3D3D3D",
"> c #525252",
", c #686868",
"< c #828282",
"1 c #878787",
"2 c #929292",
"3 c #989898",
"4 c #999999",
"5 c #A0A0A0",
"6 c #A5A5A5",
"7 c #A6A6A6",
"8 c #B1B1B1",
"9 c #C8C8C8",
"0 c #DFDFDF",
"q c #E5E5E5",
"w c #E6E6E6",
"e c #E8E8E8",
"r c #EEEEEE",
"t c #F4F4F4",
"y c #F5F5F5",
"u c #F7F7F7",
"i c #F8F8F8",
"p c #F9F9F9",
"a c #FCFCFC",
"s c #FDFDFD",
"d c #FEFEFE",
"f c #FFFFFF",
/* pixels */
"ssssssssss5.+.&qssss",
"ssssssssss5+++&qssss",
"ssssssssss3.+.&qssss",
"sssssssss0*.+.&qssss",
"ssssssssu,.++.&qssss",
"sssssssr:+++++&qssss",
"ssssssu<.++++.&qssss",
"sssssu>@.++++.&qssss",
"sssss7+++++++.&qssss",
"sssss5.+++.++.&qssss",
"sssss5.+++++++&qssss",
"sssss4.++@+++.&qssss",
"sssss5.+#1-++.&qssss",
"sssss5#%9s2.++&qssss",
"sssss78use;.+.&qssss",
"sssssppsss2++.&qssss",
"sssssssssq-.+.&qssss",
"sssssssssq&.++&qssss",
"ssssssssse-.+.&qssss",
"ssssssssss2.+.&qssss",
"sssssssssq-.+.&qssss",
"ssssssssse-++.&qssss",
"ssssssssss2.++&qssss",
"sssssssssq*.+.&qssss",
"ssssssssse-.+.&qssss",
"ssssssssss2.++&qssss",
"ssssssssse-.+.&qssss",
"sssssssssq*..+&qssss",
"ssssssssss2.++&qssss",
"sssssssssq-+++&qssss",
"ssssssssse*++.&qssss",
"ssssssssss3.+.&qssss"
};
