/* XPM */
static xpm_row_t number2_20[] = {
/* columns rows colors chars-per-pixel */
"20 32 80 1 ",
"  c #040404",
". c #050505",
"X c #060606",
"o c #070707",
"O c #080808",
"+ c #090909",
"@ c #0A0A0A",
"# c #0B0B0B",
"$ c #0C0C0C",
"% c #0E0E0E",
"& c #0F0F0F",
"* c #101010",
"= c #111111",
"- c #121212",
"; c #131313",
": c #161616",
"> c #171717",
", c #181818",
"< c #1F1F1F",
"1 c #262626",
"2 c #272727",
"3 c #2B2B2B",
"4 c #313131",
"5 c #343434",
"6 c #383838",
"7 c #393939",
"8 c #3B3B3B",
"9 c #474747",
"0 c #4A4A4A",
"q c #4E4E4E",
"w c #505050",
"e c #545454",
"r c #5F5F5F",
"t c #666666",
"y c #676767",
"u c #686868",
"i c #6B6B6B",
"p c #797979",
"a c #7A7A7A",
"s c #808080",
"d c #818181",
"f c #868686",
"g c #878787",
"h c #8F8F8F",
"j c #939393",
"k c #999999",
"l c #9A9A9A",
"z c #A1A1A1",
"x c #A5A5A5",
"c c #ADADAD",
"v c #AEAEAE",
"b c #B2B2B2",
"n c #B6B6B6",
"m c #B9B9B9",
"M c #BFBFBF",
"N c #C1C1C1",
"B c #C4C4C4",
"V c #C8C8C8",
"C c #D9D9D9",
"Z c #DADADA",
"A c #E1E1E1",
"S c #E6E6E6",
"D c #E8E8E8",
"F c #E9E9E9",
"G c #EAEAEA",
"H c #EDEDED",
"J c #EEEEEE",
"K c #EFEFEF",
"L c #F1F1F1",
"P c #F2F2F2",
"I c #F3F3F3",
"U c #F4F4F4",
"Y c #F5F5F5",
"T c #F6F6F6",
"R c #F7F7F7",
"E c #F8F8F8",
"W c #F9F9F9",
"Q c #FAFAFA",
"! c #FBFBFB",
"~ c #FCFCFC",
/* pixels */
"RRRRRREp +++=NKRRRRR",
"RRRRRRB>+++++=3CRRRR",
"RRRREl=+++++++XtRERR",
"RRREA2+++++++++&bERR",
"RRREC<+++++++++X8KRR",
"RRRRtX+++++++++X4SER",
"RR~m&++++=>>&+++XfEE",
"RR~n+++++lKKpX++Xd~E",
"RREn+++X9LREdX++Xd~R",
"RR~m&++X0RE~dX++ d~E",
"RRERt=>=eRR~aX++ a~E",
"RRRRKFFFKREEpX++XdER",
"RRRRRRRRRREV,+++Xf~R",
"RRRRRRRRRRLqX++X4FRR",
"RRRRRRRRR~z++++X8LRR",
"RRRRRRRRRLjX+++=bERR",
"RRRRRRRERt&+++ tRERR",
"RRRRRRREb&+++X iERRR",
"RRRRRREF8X+++X2CERRR",
"RRRRRREdXX++++lERRRR",
"RRRRREV,++++&qLERRRR",
"RRRRRLqX+++XpLRRRRRR",
"RRRREl+++++&f~RRRRRR",
"RRREA3+++++zLRLRRKRR",
"RRREC<X+++X8SclLMh~R",
"RRERtX+++++&>==>&d~R",
"RREm=+++++++X+++Xa~E",
"RR~n++++++++++++XdER",
"RREv++++++++++++Xa~E",
"RRL8X+++++++++++Xd~E",
"RRK5X+++++++++++Xd~E",
"RRK5X++++++++++X d~E"
};
