/* XPM */
static xpm_row_t number3_20[] = {
/* columns rows colors chars-per-pixel */
"20 32 75 1 ",
"  c #080808",
". c #090909",
"X c #0A0A0A",
"o c #0B0B0B",
"O c #0C0C0C",
"+ c #0D0D0D",
"@ c #0E0E0E",
"# c #0F0F0F",
"$ c #111111",
"% c #131313",
"& c #141414",
"* c #151515",
"= c #161616",
"- c #171717",
"; c #181818",
": c #191919",
"> c #1A1A1A",
", c #1C1C1C",
"< c #212121",
"1 c #222222",
"2 c #292929",
"3 c #2A2A2A",
"4 c #2E2E2E",
"5 c #343434",
"6 c #373737",
"7 c #3E3E3E",
"8 c #414141",
"9 c #454545",
"0 c #484848",
"q c #494949",
"w c #505050",
"e c #535353",
"r c #545454",
"t c #616161",
"y c #686868",
"u c #696969",
"i c #6C6C6C",
"p c #7A7A7A",
"a c #7B7B7B",
"s c #808080",
"d c #818181",
"f c #828282",
"g c #878787",
"h c #9A9A9A",
"j c #AEAEAE",
"k c #B2B2B2",
"l c #B9B9B9",
"z c #BDBDBD",
"x c #C1C1C1",
"c c #C3C3C3",
"v c #C4C4C4",
"b c #CBCBCB",
"n c #CECECE",
"m c #D1D1D1",
"M c #D4D4D4",
"N c #D9D9D9",
"B c #E6E6E6",
"V c #E7E7E7",
"C c #E8E8E8",
"Z c #E9E9E9",
"A c #EAEAEA",
"S c #EBEBEB",
"D c #ECECEC",
"F c #EDEDED",
"G c #EEEEEE",
"H c #EFEFEF",
"J c #F0F0F0",
"K c #F3F3F3",
"L c #F4F4F4",
"P c #F5F5F5",
"I c #F6F6F6",
"U c #F7F7F7",
"Y c #F8F8F8",
"T c #F9F9F9",
"R c #FAFAFA",
/* pixels */
"PPPPPPJpoo# pGJPPPPP",
"PPPPPJe#o#o##eSPPPPP",
"PPPPYh###oo#o#4NPPPP",
"PPPPN2oooo#o#oouYPPP",
"PPPYioo#o#o#oo#rPPPP",
"PPPPt #o#o#o###%kYPP",
"PPYl%oo#%::%o##o9GPP",
"PPPj##o eBB9ooo#kYPP",
"PPGq##o*vYProo##jYPP",
"PPPGu***bYYz%ooo9GPP",
"PPPPGGv2bPSqo#o#jYPP",
"PPPPPPJSJM4%oo#%lYPP",
"PPPPPPPYk,#oo#otPPPP",
"PPPPPPJG7##o#ooiYPPP",
"PPPPPPPG6oo#oo<bPPPP",
"PPPPPPPS6o#o#ooyPPPP",
"PPPPPPPS6o###oo%kYPP",
"PPPPPPPG8*:*o#oo7GPP",
"PPPPPPPPSBGx*##o6SPP",
"PPPPPPPPPPYb:oo#ogYP",
"PPPPJJSSJYPYao#o aRP",
"PPPSfa*<bYPYao#oofYP",
"PPG8#%#*bYPYpoo#ofYP",
"PPS6oo#:vYYb:o#o aYY",
"PPG7oo# qSSx*#o##gYP",
"PPYj###o%*::o#oo5BYP",
"PPYl%oo#o#o###oo7GPP",
"PPPPy #o#o#ooo#%kPPP",
"PPPPN2##o#o###ouPPPP",
"PPPPPh#oo##ooo2NPPPP",
"PPPPPJe##oo#%*hYPPPP",
"PPPPPJGp o# pGJPPPPP"
};
