/* XPM */
static xpm_row_t number4_20[] = {
/* columns rows colors chars-per-pixel */
"20 32 75 1 ",
"  c #030303",
". c #040404",
"X c #050505",
"o c #060606",
"O c #070707",
"+ c #080808",
"@ c #090909",
"# c #0A0A0A",
"$ c #0E0E0E",
"% c #0F0F0F",
"& c #101010",
"* c #111111",
"= c #121212",
"- c #131313",
"; c #141414",
": c #151515",
"> c #161616",
", c #171717",
"< c #191919",
"1 c #1C1C1C",
"2 c #1D1D1D",
"3 c #1E1E1E",
"4 c #202020",
"5 c #222222",
"6 c #272727",
"7 c #2A2A2A",
"8 c #333333",
"9 c #383838",
"0 c #3A3A3A",
"q c #3E3E3E",
"w c #464646",
"e c #4D4D4D",
"r c #515151",
"t c #5E5E5E",
"y c #656565",
"u c #6A6A6A",
"i c #717171",
"p c #797979",
"a c #7F7F7F",
"s c #808080",
"d c #868686",
"f c #898989",
"g c #939393",
"h c #9A9A9A",
"j c #9C9C9C",
"k c #9F9F9F",
"l c #A1A1A1",
"z c #A6A6A6",
"x c #AEAEAE",
"c c #B2B2B2",
"v c #B9B9B9",
"b c #BABABA",
"n c #C7C7C7",
"m c #CCCCCC",
"M c #D2D2D2",
"N c #D3D3D3",
"B c #D8D8D8",
"V c #DFDFDF",
"C c #E1E1E1",
"Z c #E8E8E8",
"A c #EAEAEA",
"S c #EBEBEB",
"D c #ECECEC",
"F c #EEEEEE",
"G c #EFEFEF",
"H c #F0F0F0",
"J c #F1F1F1",
"K c #F2F2F2",
"L c #F6F6F6",
"P c #F7F7F7",
"I c #F8F8F8",
"U c #F9F9F9",
"Y c #FAFAFA",
"T c #FBFBFB",
"R c #FCFCFC",
/* pixels */
"PPPPPPPPPPGwoo3BTPPP",
"PPPPPPPPPTh++ooiTPPP",
"PPPPPPPPPC7o+o3BPPPP",
"PPPPPPPPTB3o+o5VPPPP",
"PPPPPPPPTuoo+o3BTPPP",
"PPPPPPPPPt o++oiTPPP",
"PPPPPPPTc%+++o3BPPPP",
"PPPPPPPZ9o+++o3BPPPP",
"PPPPPPTd +++++oiTPPP",
"PPPPPPTp o+++o3MPPPP",
"PPPPPTn:++++++oiTPPP",
"PPPPPPro+++++o3BPPPP",
"PPPPPHwo+++++o3BTPPP",
"PPPPTh++++%+++oiTPPP",
"PPPPC6o++7ao+o3BPPPP",
"PPPTB3o+ohko+o5VPPPP",
"PPPPyo+o+zlo+o3BTPPP",
"PPTb%++oePho++oiTPPP",
"PPTx+++*bHgo+o3mZGPP",
"PPG9o+++::*++++:*dTP",
"PPG8oo++++++++++ dTP",
"PPG8o+++++++++++ aTP",
"PPG8oo++++++++++ aTP",
"PPG8o+++++++++++ aTP",
"PPG8o+++*+++++++oaRP",
"PPGq*::5f<*o+++:*dRP",
"PPPZZZZZHGgo++3MZHPP",
"PPPPTPPTPRh +o5VTPPP",
"PPPPPPPPPRko+o3BPPPP",
"PPPPPPPPPRho+ooiTPPP",
"PPPPPPPPPRho++3BTPPP",
"PPPPPPPPPTko+o3VPPPP"
};
