/* XPM */
static xpm_row_t number5_20[] = {
/* columns rows colors chars-per-pixel */
"20 32 96 2 ",
"   c #060606",
".  c #070707",
"X  c #080808",
"o  c #090909",
"O  c #0A0A0A",
"+  c #0B0B0B",
"@  c #0C0C0C",
"#  c #0D0D0D",
"$  c #0F0F0F",
"%  c #111111",
"&  c #121212",
"*  c #131313",
"=  c gray8",
"-  c #151515",
";  c #161616",
":  c #181818",
">  c #191919",
",  c #1A1A1A",
"<  c #1F1F1F",
"1  c #202020",
"2  c #212121",
"3  c #222222",
"4  c #272727",
"5  c #292929",
"6  c #2C2C2C",
"7  c #2D2D2D",
"8  c #313131",
"9  c #323232",
"0  c #353535",
"q  c #3C3C3C",
"w  c #404040",
"e  c #4E4E4E",
"r  c #515151",
"t  c #5A5A5A",
"y  c #5F5F5F",
"u  c #626262",
"i  c #646464",
"p  c gray40",
"a  c #676767",
"s  c #6B6B6B",
"d  c #727272",
"f  c #787878",
"g  c #7A7A7A",
"h  c #7D7D7D",
"j  c #7F7F7F",
"k  c #808080",
"l  c #838383",
"z  c #848484",
"x  c #858585",
"c  c #868686",
"v  c #878787",
"b  c #949494",
"n  c #959595",
"m  c #989898",
"M  c gray60",
"N  c #9B9B9B",
"B  c #9E9E9E",
"V  c #ACACAC",
"C  c #ADADAD",
"Z  c #B4B4B4",
"A  c #B8B8B8",
"S  c #BBBBBB",
"D  c #BFBFBF",
"F  c #C3C3C3",
"G  c #C5C5C5",
"H  c #C6C6C6",
"J  c #CACACA",
"K  c #CCCCCC",
"L  c #CDCDCD",
"P  c #CFCFCF",
"I  c #D6D6D6",
"U  c #D7D7D7",
"Y  c #D8D8D8",
"T  c #DDDDDD",
"R  c #DEDEDE",
"E  c #E5E5E5",
"W  c #E6E6E6",
"Q  c #E7E7E7",
"!  c #E8E8E8",
"~  c #E9E9E9",
"^  c #EAEAEA",
"/  c #EBEBEB",
"(  c #ECECEC",
")  c #EDEDED",
"_  c #EEEEEE",
"`  c #EFEFEF",
"'  c #F0F0F0",
"]  c #F1F1F1",
"[  c #F2F2F2",
"{  c #F3F3F3",
"}  c #F4F4F4",
"|  c #F5F5F5",
" . c #F6F6F6",
".. c #F7F7F7",
"X. c #F8F8F8",
"o. c #F9F9F9",
/* pixels */
"} } } } o.N o o o # o # o # # # V o.} } ",
"} } } } o.N o # # o # o # o o . q ^ } } ",
"} } } } o.b o o o # o # o # o o q ^ } } ",
"} } } } R 5 o # # o # o # o # # V o.} } ",
"} } } } R 2 o # o # o # # o # o V o.} } ",
"} } } o.T 2 o o # o # o o # o o q _ } } ",
"} } } } I 2 o # # # % % % % # # w ^ } } ",
"} } } } d o # o o 7 v x k h y u _ { } } ",
"} } } } P < o o o b _ ^ _ _ ^ _ } } } } ",
"} } } o.s . o # o m N V _ ^ { } } } } } ",
"} } } o.u . o # o % - - - r E { } } } } ",
"} } } { y . # o # # o # o # 5 T } } } } ",
"} } o.S - o o # # o o # o # . p } } } } ",
"} } } { t . # o o # # o # o # % S } } } ",
"} } o.Z % o # # # o # # o # o o V } } } ",
"} } o.Z # o # o # : : # # o # o q _ } } ",
"} } } S % o o . r E E e o # # o 0 E } } ",
"} } } } s - : < H o.} J : o o o o x o.} ",
"} } } } ^ E E ^ { { } } f o o # . k o.} ",
"} } } } } } } } } } } o.h . # o . k o.} ",
"} } } } } { _ ^ { } } o.k . o # . h o.} ",
"} } } ^ _ m x 5 J } } o.h . # o . k o.} ",
"} } ^ w - - % - J o.} o.f . # o . k o.} ",
"} { _ 0 o o # % H } } P < o o # o x o.} ",
"} } _ q o # o o e ^ _ F % # o o 8 E } } ",
"} } o.V # o # o # 8 k - # o o o q _ } } ",
"} } o.Z % o o # # # % # o # o # V o.} } ",
"} } } { p . # o o # o o # o # % Z o.} } ",
"} } } } T 5 o o o # o # # o . p } } } } ",
"} } } } } m # # # o # o o # 7 I } } } } ",
"} } } } } _ r # o # # o o e ^ { } } } } ",
"} } } } } } _ f . # o # % F o.} } } } } "
};
