/* XPM */
#pragma once
static xpm_row_t number6_20[] = {
/* columns rows colors chars-per-pixel */
"20 32 2 1 ",
"  c #ffffff",
". c None",
/* pixels */
"........     .......",
".......        .....",
"......         .....",
"......          ....",
".....           ....",
"....             ...",
"....             ...",
"....     ...     ...",
"....     ...     ...",
"...      ....   ....",
"....     .. ........",
"...           ......",
"...            .....",
"...             ....",
"...             ....",
"...              ...",
"...              ...",
"...      ...     ...",
"...      ...      ..",
"...      ....    ...",
"...     .....     ..",
"...      ...     ...",
"....     ....    ...",
"....     ...      ..",
"....     ...     ...",
"....             ...",
"....             ...",
".....           ....",
".....           ....",
"......         .....",
".......       ......",
"........     ......."
};
