/* XPM */
static xpm_row_t number6_20[] = {
/* columns rows colors chars-per-pixel */
"20 32 87 1 ",
"  c #060606",
". c #070707",
"X c #080808",
"o c #090909",
"O c #0A0A0A",
"+ c #0B0B0B",
"@ c #0C0C0C",
"# c #0D0D0D",
"$ c #0E0E0E",
"% c #0F0F0F",
"& c #101010",
"* c #111111",
"= c #121212",
"- c #131313",
"; c #141414",
": c #161616",
"> c #171717",
", c #181818",
"< c #191919",
"1 c #1A1A1A",
"2 c #1B1B1B",
"3 c #1F1F1F",
"4 c #212121",
"5 c #272727",
"6 c #2C2C2C",
"7 c #2E2E2E",
"8 c #323232",
"9 c #333333",
"0 c #353535",
"q c #3C3C3C",
"w c #434343",
"e c #474747",
"r c #484848",
"t c #4B4B4B",
"y c #4F4F4F",
"u c #515151",
"i c #525252",
"p c #606060",
"a c #666666",
"s c #676767",
"d c #686868",
"f c #6B6B6B",
"g c #6D6D6D",
"h c #7A7A7A",
"j c #808080",
"k c #838383",
"l c #868686",
"z c #878787",
"x c #8C8C8C",
"c c #939393",
"v c #989898",
"b c #9A9A9A",
"n c #9C9C9C",
"m c #A0A0A0",
"M c #A7A7A7",
"N c #AEAEAE",
"B c #B1B1B1",
"V c #B5B5B5",
"C c #B9B9B9",
"Z c #BDBDBD",
"A c #BFBFBF",
"S c #C0C0C0",
"D c #C3C3C3",
"F c #C6C6C6",
"G c #C7C7C7",
"H c #CECECE",
"J c #D7D7D7",
"K c #D8D8D8",
"L c #D9D9D9",
"P c #DFDFDF",
"I c #E6E6E6",
"U c #E8E8E8",
"Y c #E9E9E9",
"T c #EAEAEA",
"R c #ECECEC",
"E c #EDEDED",
"W c #EFEFEF",
"Q c #F0F0F0",
"! c #F2F2F2",
"~ c #F3F3F3",
"^ c #F4F4F4",
"/ c #F5F5F5",
"( c #F6F6F6",
") c #F7F7F7",
"_ c #F8F8F8",
"` c #F9F9F9",
"' c #FAFAFA",
/* pixels */
"///////P9+++-AQ/////",
"//////F3@++++-bQ////",
"/////Wy.++++++@g`///",
"////`b@+++++++.p////",
"////K5++++++++@@B`//",
"///`f.+++++++@++qW//",
"////i.+++->>@++.0T//",
"//`Z>++++bWA>+++9I//",
"//`N+++.eW/H3-+@>x`/",
"//Ww.++.t/QQzk>aTW//",
"///M+++.eWnkkWTW////",
"//Wq++++@,--@yTQ////",
"//W9.++++++++@6J////",
"//T0++++++++@@.f////",
"//W0.++++++++++@B///",
"//T0.+++++-@++++qW//",
"//T0.++++@au.++.0W//",
"//W0.+++@b/F,+++9I//",
"//W9+++.tW``h.+++z`/",
"//T0.++.uQ/'h.++.h`/",
"//T0.++-A//`j.++.j'/",
"//Wq+++.u//`j.++.j'/",
"///N@++.tQ/`h.++.j'/",
"//`V+++++m``h.++.h'/",
"//`Z@++++cWS,++++k`/",
"////p.+++-,>@+++9T//",
"///`f.+++++++++.qW//",
"////J4+++++++++-B`//",
"////P6@++++++++aQ///",
"/////Ty.++++++5K////",
"/////`F3@++++-b`////",
"//////QP9.++-A//////"
};
