/* XPM */
#pragma once

static xpm_row_t number7_20[] = {
/* columns rows colors chars-per-pixel */
"20 32 63 1 ",
"  c #020202",
". c #030303",
"X c #040404",
"o c #050505",
"O c #060606",
"+ c #070707",
"@ c #080808",
"# c #0C0C0C",
"$ c #0D0D0D",
"% c #0E0E0E",
"& c #101010",
"* c #121212",
"= c #151515",
"- c #171717",
"; c #242424",
": c #303030",
"> c #333333",
", c #373737",
"< c #3A3A3A",
"1 c #424242",
"2 c #464646",
"3 c #494949",
"4 c #515151",
"5 c #595959",
"6 c #5E5E5E",
"7 c #5F5F5F",
"8 c #6B6B6B",
"9 c #7A7A7A",
"0 c #808080",
"q c #838383",
"w c #868686",
"e c #959595",
"r c #999999",
"t c #9A9A9A",
"y c #9D9D9D",
"u c #A2A2A2",
"i c #A7A7A7",
"p c #AFAFAF",
"a c #B0B0B0",
"s c #B3B3B3",
"d c #B7B7B7",
"f c #BABABA",
"g c #BEBEBE",
"h c #C6C6C6",
"j c #CDCDCD",
"k c #D0D0D0",
"l c #DCDCDC",
"z c #E9E9E9",
"x c #EAEAEA",
"c c #EDEDED",
"v c #EEEEEE",
"b c #F0F0F0",
"n c #F2F2F2",
"m c #F3F3F3",
"M c #F4F4F4",
"N c #F5F5F5",
"B c #F8F8F8",
"V c #F9F9F9",
"C c #FAFAFA",
"Z c #FBFBFB",
"A c #FCFCFC",
"S c #FDFDFD",
"D c #FEFEFE",
/* pixels */
"VVb>X@@XX@@X@@@XX0SV",
"VVb>XX@@@@@@X@@@.0SV",
"VVb>XX@XX@X@@X@XX0SV",
"VVb>X@@@@@@@@@@@.0SV",
"VVb>X@@XX@@@@X@X.0SV",
"VVb>X@@@@@@X@@@@XwSV",
"VVb<%=%%&&&@@X@X<xVV",
"VVSarv900urX@@X%aSVV",
"VVVNNVbbNVyX@@.6VVVV",
"VVVVVVVVVSeX@@.8SVVV",
"VVVVVVVVSl;XXX;lVVVV",
"VVVVVVVVS8X@@@ySVVVV",
"VVVVVVVVV6.XX2bVVVVV",
"VVVVVVVSf%@@.3VVVVVV",
"VVVVVVVSpX@@.4VVVVVV",
"VVVVVVVb<.@X&hVVVVVV",
"VVVVVVVx>X@X=kSVVVVV",
"VVVVVVSwXX@.9SVVVVVV",
"VVVVVVS0.X@.0SVVVVVV",
"VVVVVVS9X@@XwSVVVVVV",
"VVVVVSj=X@X>xVVVVVVV",
"VVVVVSj&@@.>bVVVVVVV",
"VVVVVSh&@@X<bVVVVVVV",
"VVVVVV4XX@XpSVVVVVVV",
"VVVVVV3.@@@dSVVVVVVV",
"VVVVVV3.X@@fSVVVVVVV",
"VVVVVV3.@@@dSVVVVVVV",
"VVVVVN3.X@@dSVVVVVVV",
"VVVVVb2XX@%fSVVVVVVV",
"VVVVSi%X@.5NVVVVVVVV",
"VVVVVv1XXX&gSVVVVVVV",
"VVVVSi@X..8VVVVVVVVV"
};
