/* XPM */
#pragma once

static xpm_row_t number8_20[] = {
/* columns rows colors chars-per-pixel */
"20 32 73 1 ",
"  c #050505",
". c #060606",
"X c #070707",
"o c #090909",
"O c #0A0A0A",
"+ c #0B0B0B",
"@ c #0C0C0C",
"# c #0E0E0E",
"$ c #101010",
"% c #111111",
"& c #121212",
"* c #131313",
"= c #171717",
"- c #191919",
"; c #202020",
": c #212121",
"> c #262626",
", c #282828",
"< c #2B2B2B",
"1 c #2D2D2D",
"2 c #303030",
"3 c #323232",
"4 c #343434",
"5 c #3B3B3B",
"6 c #434343",
"7 c #474747",
"8 c #4A4A4A",
"9 c #4E4E4E",
"0 c #505050",
"q c #515151",
"w c #525252",
"e c #595959",
"r c #5F5F5F",
"t c #646464",
"y c #666666",
"u c #6B6B6B",
"i c #787878",
"p c #797979",
"a c #838383",
"s c #989898",
"d c #999999",
"f c #ADADAD",
"g c #B5B5B5",
"h c #B8B8B8",
"j c #BCBCBC",
"k c #C0C0C0",
"l c #C2C2C2",
"z c #C3C3C3",
"x c #C4C4C4",
"c c #CBCBCB",
"v c #CDCDCD",
"b c #D7D7D7",
"n c #D8D8D8",
"m c #D9D9D9",
"M c #DEDEDE",
"N c #DFDFDF",
"B c #E3E3E3",
"V c #E8E8E8",
"C c #E9E9E9",
"Z c #EBEBEB",
"A c #ECECEC",
"S c #EDEDED",
"D c #EEEEEE",
"F c #EFEFEF",
"G c #F2F2F2",
"H c #F3F3F3",
"J c #F4F4F4",
"K c #F5F5F5",
"L c #F6F6F6",
"P c #F7F7F7",
"I c #F8F8F8",
"U c #F9F9F9",
"Y c #FAFAFA",
/* pixels */
"KKKKKKIp.OO.iDKKKKKK",
"KKKKKHl-OOOO#9VKKKKK",
"KKKKId&OOOOOO#,mKKKK",
"KKKKN,OOOOOOOO.uIKKK",
"KKKKb;OOOOOOOO.rKKKK",
"KKKIu.OOO#&OOOO&hIKK",
"KKKIt OOO2a*OOOOgIIK",
"KKKKt.O.8VHj&OOOgIKK",
"KKKIt O.8HKv&OO#gIKK",
"KKKIt.O 8HIl&OOOgIKK",
"KKKIt.O.6VD9.OO#hYKK",
"KKKIu.OO#2a#OO.tKIKK",
"KKKKm,OOO#&OOOOuIKKK",
"KKKKIdOOOOOOOO-bKKKK",
"KKKKKB6.OOOOO.;NIKKK",
"KKKKB,#OOOOOOO;bKKKK",
"KKKKm-OOOOOOOO.tKKKK",
"KKKIu.OOO&-#OOO&hIKK",
"KKKKt.OOOdD9.OOOfIKK",
"KKIh#OO.9DIx&OO.5DKK",
"KKIg#OO&jKIv-OO.4DKK",
"KKIgOOO.eKKIp.O.2DKK",
"KKYgOOO&jKKIp.OO4DKK",
"KIYg#OO.wKIv-OO.4DKK",
"KKIh&OO.6VHl&OO.5DKK",
"KKKKr.OO#2a*OOOOfIKK",
"KKKIt.OOOO&OOOOOgIKK",
"KKKIu.OOOOOOOOO&hIKK",
"KKKKb>OOOOOOOOOtKKKK",
"KKKKIdOOOOOOO#,mKKKK",
"KKKKKDw&#OOO.9VKKKKK",
"KKKKKKVN2OOO&xIKKKKK"
};
