/* XPM */
static xpm_row_t number9_20[] = {
/* columns rows colors chars-per-pixel */
"20 32 71 1 ",
"  c #060606",
". c #070707",
"X c #080808",
"o c #0A0A0A",
"O c #0B0B0B",
"+ c #0C0C0C",
"@ c #0D0D0D",
"# c #0F0F0F",
"$ c #111111",
"% c #121212",
"& c #131313",
"* c #141414",
"= c #161616",
"- c #181818",
"; c #191919",
": c #1A1A1A",
"> c #1C1C1C",
", c #1E1E1E",
"< c #202020",
"1 c #212121",
"2 c #272727",
"3 c #292929",
"4 c #2E2E2E",
"5 c #333333",
"6 c #353535",
"7 c #3C3C3C",
"8 c #484848",
"9 c #4B4B4B",
"0 c #4F4F4F",
"q c #515151",
"w c #525252",
"e c #606060",
"r c #656565",
"t c #666666",
"y c #6B6B6B",
"u c #797979",
"i c #7A7A7A",
"p c #808080",
"a c #848484",
"s c #959595",
"d c #9A9A9A",
"f c #A1A1A1",
"g c #ABABAB",
"h c #AEAEAE",
"j c #B5B5B5",
"k c #B9B9B9",
"l c #BCBCBC",
"z c #C2C2C2",
"x c #C3C3C3",
"c c #C4C4C4",
"v c #C6C6C6",
"b c #CBCBCB",
"n c #D7D7D7",
"m c #D9D9D9",
"M c #DFDFDF",
"N c #E0E0E0",
"B c #E7E7E7",
"V c #E8E8E8",
"C c #E9E9E9",
"Z c #ECECEC",
"A c #EDEDED",
"S c #EFEFEF",
"D c #F1F1F1",
"F c #F3F3F3",
"G c #F4F4F4",
"H c #F5F5F5",
"J c #F6F6F6",
"K c #F7F7F7",
"L c #F8F8F8",
"P c #F9F9F9",
"I c #FAFAFA",
/* pixels */
"HHHHHHHi OO iHHHHHHH",
"HHHHHLb:OOOO:cFHHHHH",
"HHHHFV0 OOOO@$dLHHHH",
"HHHHM4@OOOOOOO3NHHHH",
"HHHHn1OOOOOOOO1nHHHH",
"HHHLy OOOOOOOO tHHHH",
"HHLHw OO@::@OOO$kLLH",
"HHLl=O@ 8BB8 OOOjLHH",
"HHLjOOO 0FHq O@@jLHH",
"HHIj@OO qHLc$OOOjLHH",
"HHIjOOO$cLLb=OOO7ZHH",
"HHIj@OO=bLLb$OO 6VHH",
"HHLj@@O$cLLb=OOO6ZHH",
"HHLjO@OOqHLc$OO 6ZHH",
"HHLk$@@ 8BB0 OOO6ZHH",
"HHLHw@OO@::@O@O 6ZHH",
"HHHHy OOOOOOOOOO6ZHH",
"HHHHm2OOOOOOOOO 6ZHH",
"HHHHLdOOOOOOOOOO6ZHH",
"HHHHHF0OOOOOOOO 6ZHH",
"HHHHHLc1$$$=@OO 6ZHH",
"HHHHHHVNgpax$OOO7ZHH",
"HHHFVVq,xFFc=OO@jLHH",
"HHLl,=@ qHHq OO@jLHH",
"HHHHe O 8VB8 O@$kLHH",
"HHHLt OO@=:@OO@wHHHH",
"HHHLt OOOOOOOO yLHHH",
"HHHLy OOOOOOOO3mHHHH",
"HHHHn2OOOOOOOOsLHHHH",
"HHHHLdOOOOOOO=fLHHHH",
"HHHHHFq@OOO@,xFHHHHH",
"HHHHHHZi OO5NFHHHHHH"
};
