/* XPM */
static char *Chess_nlt45[] = {
/* columns rows colors chars-per-pixel */
"45 45 31 1 ",
"  c black",
". c #080808",
"X c #101010",
"o c #191919",
"O c #212121",
"+ c #292929",
"@ c #313131",
"# c #3A3A3A",
"$ c #424242",
"% c #525252",
"& c #5A5A5A",
"* c #636363",
"= c #737373",
"- c #7B7B7B",
"; c #848484",
": c #8C8C8C",
"> c #949494",
", c #9C9C9C",
"< c #A5A5A5",
"1 c #ADADAD",
"2 c #B5B5B5",
"3 c #BDBDBD",
"4 c #C5C5C5",
"5 c #CECECE",
"6 c #D6D6D6",
"7 c #DEDEDE",
"8 c #E6E6E6",
"9 c #EFEFEF",
"0 c #F7F7F7",
"q c white",
"w c None",
/* pixels */
"wwwwwwwwwwwwwwwwwwwwwwwwwwwwwwwwwwwwwwwwwwwww",
"wwwwwwwwwwwwwwwwwwwwwwwwwwwwwwwwwwwwwwwwwwwww",
"wwwwwwwwwwwwwwwwwwwwwwwwwwwwwwwwwwwwwwwwwwwww",
"wwwwwwwwwwwwwwwwwwwwwwwwwwwwwwwwwwwwwwwwwwwww",
"wwwwwwwwwwwwwwwwwwwwwwwwwwwwwwwwwwwwwwwwwwwww",
"wwwwwwwwwwwwwwwwwwwwwwwwwwwwwwwwwwwwwwwwwwwww",
"wwwwwwwwwwwwwwwwwwwwwwwwwwwwwwwwwwwwwwwwwwwww",
"wwwwwwwwwwwwww.wwwwww wwwwwwwwwwwwwwwwwwwwwww",
"wwwwwwwwwwwww   www. X wwwwwwwwwwwwwwwwwwwwww",
"wwwwwwwwwwwww .  ww +, wwwwwwwwwwwwwwwwwwwwww",
"wwwwwwwwwwwww. 5    72   .wwwwwwwwwwwwwwwwwww",
"wwwwwwwwwwwwww 3>&&>q8&+    .wwwwwwwwwwwwwwww",
"wwwwwwwwwwwww  9qqqqqqqq07,O  .wwwwwwwwwwwwww",
"wwwwwwwwwwwww ;qqqqqqqqqqqq05+  wwwwwwwwwwwww",
"wwwwwwwwwwww o2 ,qqqqqqqqqqqq0,  wwwwwwwwwwww",
"wwwwwwwwwww  5  #qqqqqqqqqqqqqq3  wwwwwwwwwww",
"wwwwwwwwwww >=  1qqqqqqqqqqqqqqq2 .wwwwwwwwww",
"wwwwwwwwww  0# +0qqqqqqqqqqqqqqqq= wwwwwwwwww",
"wwwwwwwww. 3q7,0qqqqqqq4 4qqqqqqq0  wwwwwwwww",
"wwwwwwwww @0qqqqqqqqqqq< 5qqqqqqqq< wwwwwwwww",
"wwwwwwww. 5qqqqqqqqqqq0X 9qqqqqqqq0  wwwwwwww",
"wwwwwwww %qqqqqqqqqqqq; #qqqqqqqqqq; wwwwwwww",
"wwwwwww. 7qqqqqqqqqqq<  *qqqqqqqqqq7 .wwwwwww",
"wwwwwww &qqqqqqqqqqq<   -qqqqqqqqqq0  wwwwwww",
"wwwwww. 6qqqqqqqqq0:  w >qqqqqqqqqqq* wwwwwww",
"wwwwww @= =qqqqqq9%  ww 3qqqqqqqqqqq1 wwwwwww",
"wwwwww <. .qqqqq5  .ww. 8qqqqqqqqqqq7 .wwwwww",
"wwwwww >5%5qqqq,  wwww +qqqqqqqqqqqq0 .wwwwww",
"wwwwww %qq= :0-  wwww. 2qqqqqqqqqqqq0  wwwwww",
"wwwwww  50O $, .wwwww +0qqqqqqqqqqqqq@ wwwwww",
"wwwwwww     2  wwwww  7qqqqqqqqqqqqqq& wwwwww",
"wwwwwwww...   wwwww  3qqqqqqqqqqqqqqq; wwwwww",
"wwwwwwwwwww.wwwwww  2qqqqqqqqqqqqqqqq> wwwwww",
"wwwwwwwwwwwwwwwww  3qqqqqqqqqqqqqqqqq1 wwwwww",
"wwwwwwwwwwwwwwww. 2qqqqqqqqqqqqqqqqqq2 wwwwww",
"wwwwwwwwwwwwwwww -qqqqqqqqqqqqqqqqqqq3 wwwwww",
"wwwwwwwwwwwwwww  9qqqqqqqqqqqqqqqqqqq3 wwwwww",
"wwwwwwwwwwwwwww &qqqqqqqqqqqqqqqqqqqq4 wwwwww",
"wwwwwwwwwwwwwww <qqqqqqqqqqqqqqqqqqqq3 wwwwww",
"wwwwwwwwwwwwwww                        wwwwww",
"wwwwwwwwwwwwwww........................wwwwww",
"wwwwwwwwwwwwwwwwwwwwwwwwwwwwwwwwwwwwwwwwwwwww",
"wwwwwwwwwwwwwwwwwwwwwwwwwwwwwwwwwwwwwwwwwwwww",
"wwwwwwwwwwwwwwwwwwwwwwwwwwwwwwwwwwwwwwwwwwwww",
"wwwwwwwwwwwwwwwwwwwwwwwwwwwwwwwwwwwwwwwwwwwww"
};
