/* XPM */
static xpm_row_t Chess_blt45[] = {
/* columns rows colors chars-per-pixel */
"45 45 27 1 ",
"  c None",
". c #080808",
"X c #101010",
"o c #191919",
"O c #212121",
"+ c #292929",
"@ c #4A4A4A",
"# c #636363",
"$ c #6B6B6B",
"% c #737373",
"& c #7B7B7B",
"* c #848484",
"= c #8C8C8C",
"- c #949494",
"; c #9C9C9C",
": c #A5A5A5",
"> c #ADADAD",
", c #B5B5B5",
"< c #C5C5C5",
"1 c #CECECE",
"2 c #D6D6D6",
"3 c #DEDEDE",
"4 c #E6E6E6",
"5 c #EFEFEF",
"6 c #F7F7F7",
"7 c #ffffff",
"8 c None",
/* pixels */
"888888888888888888888888888888888888888888888",
"888888888888888888888888888888888888888888888",
"888888888888888888888888888888888888888888888",
"888888888888888888888888888888888888888888888",
"888888888888888888888888888888888888888888888",
"888888888888888888888888888888888888888888888",
"888888888888888888888    88888888888888888888",
"88888888888888888888  &&  8888888888888888888",
"88888888888888888888 -77- 8888888888888888888",
"88888888888888888888 ;77; 8888888888888888888",
"88888888888888888888  ,,  8888888888888888888",
"888888888888888888888    88888888888888888888",
"8888888888888888888.  ++  .888888888888888888",
"888888888888888888  @2772@  88888888888888888",
"88888888888888888  ,777777,  8888888888888888",
"8888888888888888  2777447772  888888888888888",
"888888888888888  37777  77773  88888888888888",
"88888888888888. ,77777  77777, .8888888888888",
"88888888888888 O6773++  ++3776O 8888888888888",
"88888888888888 :7771      1777: 8888888888888",
"8888888888888. 4777777  7777774 .888888888888",
"8888888888888. 5777777  7777775 .888888888888",
"8888888888888. 4777777<<7777774 .888888888888",
"88888888888888 >77777777777777> 8888888888888",
"88888888888888 X67777777777776X 8888888888888",
"888888888888888 @577777777775@ 88888888888888",
"888888888888888.  X++++++++X  .88888888888888",
"8888888888888888.            .888888888888888",
"8888888888888888 $6777777776$ 888888888888888",
"888888888888888 X677777777776X 88888888888888",
"888888888888888 o++++++++++++o 88888888888888",
"88888888888888                  8888888888888",
"888888888888888 17777777777771 88888888888888",
"888888888888888  @>36777763>@  88888888888888",
"8888888888888888.            .888888888888888",
"8888888888888888888..    ..888888888888888888",
"888888888.           +,,+           .88888888",
"8888888.  +#%&*=-:,25744752,:-=*&%#+  .888888",
"888888  &1;&$#$%&&&$@    @$&&&%$#$&;1&  88888",
"888888                ..                88888",
"8888888..8888888888888888888888888888..888888",
"888888888888888888888888888888888888888888888",
"888888888888888888888888888888888888888888888",
"888888888888888888888888888888888888888888888",
"888888888888888888888888888888888888888888888"
};
