/* XPM */
static char *Chess_qlt45[] = {
/* columns rows colors chars-per-pixel */
"45 45 33 1 ",
"  c black",
". c #080808",
"X c #101010",
"o c #191919",
"O c #212121",
"+ c #292929",
"@ c #313131",
"# c #3A3A3A",
"$ c #424242",
"% c #4A4A4A",
"& c #525252",
"* c #5A5A5A",
"= c #636363",
"- c #6B6B6B",
"; c #737373",
": c #7B7B7B",
"> c #848484",
", c #8C8C8C",
"< c #949494",
"1 c #9C9C9C",
"2 c #A5A5A5",
"3 c #ADADAD",
"4 c #B5B5B5",
"5 c #BDBDBD",
"6 c #C5C5C5",
"7 c #CECECE",
"8 c #D6D6D6",
"9 c #DEDEDE",
"0 c #E6E6E6",
"q c #EFEFEF",
"w c #F7F7F7",
"e c white",
"r c None",
/* pixels */
"rrrrrrrrrrrrrrrrrrrrrrrrrrrrrrrrrrrrrrrrrrrrr",
"rrrrrrrrrrrrrrrrrrrrrrrrrrrrrrrrrrrrrrrrrrrrr",
"rrrrrrrrrrrrrrrrrrrrrrrrrrrrrrrrrrrrrrrrrrrrr",
"rrrrrrrrrrrrrrrrrrrrrrrrrrrrrrrrrrrrrrrrrrrrr",
"rrrrrrrrrrrrrrrrrrrrrrrrrrrrrrrrrrrrrrrrrrrrr",
"rrrrrrrrrrrrrrrrrrrrrrrrrrrrrrrrrrrrrrrrrrrrr",
"rrrrrrrrrrrrrrrrrrrrr    rrrrrrrrrrrrrrrrrrrr",
"rrrrrrrrrrrrr   rrrr. ,, .rrrr   rrrrrrrrrrrr",
"rrrrrrrrrrrr O4O rrr  ww  rrr O4O rrrrrrrrrrr",
"rrrrrrrrrrrr 4e4 rrr. ,, .rrr 4e4 rrrrrrrrrrr",
"rrrrr   rrrr O4O rrrr    rrrr O4O rrrr   rrrr",
"rrrr O4O rrrr   rrrrrr  rrrrrr   rrrr O4O rrr",
"rrrr 4e4 rrrrr  rrrrrr  rrrrrr  rrrrr 4e4 rrr",
"rrrr O4O rrrrr  rrrrrr  rrrrrr  rrrrr O4O rrr",
"rrrrr    rrrrr   rrrr.  .rrrr   rrrrr    rrrr",
"rrrrrr   rrrrr : rrrr .. rrrr : rrrrr   rrrrr",
"rrrrrrr  .rrrr > .rrr == rrr. > rrrr.  rrrrrr",
"rrrrrrr $ rrrr ,+ rrr 22 rrr +, rrrr $ rrrrrr",
"rrrrrrr +  rrr ,3 rrr 88 rrr 3, rrr  + rrrrrr",
"rrrrrrr. 2 .rr <q  r. ww .r  q< rr. 2 .rrrrrr",
"rrrrrrr. 9@ rr 1e= r oeeo r =e1 rr @9 .rrrrrr",
"rrrrrrrr 49  r 2e7 . ;ee; . 7e2 r  94 rrrrrrr",
"rrrrrrrr :e< . 3ew   4ee4   we3 . <e: rrrrrrr",
"rrrrrrrr +ewO  3ee<  9ee9  <ee3  Owe+ rrrrrrr",
"rrrrrrrr. we8  252,  =**=  :<32  8ew .rrrrrrr",
"rrrrrrrr. %o                      X# .rrrrrrr",
"rrrrrrrrr    O&:<356788887653<:&O    rrrrrrrr",
"rrrrrrrrr *qeeeeeeeeeeeeeeeeeeeeeeq* rrrrrrrr",
"rrrrrrrrr. :eeeeeeeeeqqqqeeeeeeeee: .rrrrrrrr",
"rrrrrrrrrr. -*+                +*- .rrrrrrrrr",
"rrrrrrrrrrr     o#%*=----=*%#o     rrrrrrrrrr",
"rrrrrrrrrrrr ;eeeeeeeeeeeeeeeeee; rrrrrrrrrrr",
"rrrrrrrrrrrr *0853<>:;--;:><3580* rrrrrrrrrrr",
"rrrrrrrrrrrr                      rrrrrrrrrrr",
"rrrrrrrrrrr  #;1478900qq0098741;#  rrrrrrrrrr",
"rrrrrrrrrrr 4eeeeeeeeeeeeeeeeeeee4 rrrrrrrrrr",
"rrrrrrrrrrr 5eeeeeeeeeeeeeeeeeeee5 rrrrrrrrrr",
"rrrrrrrrrr .weeeeeeeeeeeeeeeeeeeew. rrrrrrrrr",
"rrrrrrrrrr  #-<3679900qq0099763<-#  rrrrrrrrr",
"rrrrrrrrrrr                        rrrrrrrrrr",
"rrrrrrrrrrrrrrrrrrr........rrrrrrrrrrrrrrrrrr",
"rrrrrrrrrrrrrrrrrrrrrrrrrrrrrrrrrrrrrrrrrrrrr",
"rrrrrrrrrrrrrrrrrrrrrrrrrrrrrrrrrrrrrrrrrrrrr",
"rrrrrrrrrrrrrrrrrrrrrrrrrrrrrrrrrrrrrrrrrrrrr",
"rrrrrrrrrrrrrrrrrrrrrrrrrrrrrrrrrrrrrrrrrrrrr"
};
