/* XPM */
static char *Chess_rlt45[] = {
/* columns rows colors chars-per-pixel */
"45 45 16 1 ",
"  c black",
". c #080808",
"X c #212121",
"o c #313131",
"O c #3A3A3A",
"+ c #525252",
"@ c #5A5A5A",
"# c #636363",
"$ c #7B7B7B",
"% c #848484",
"& c #A5A5A5",
"* c #BDBDBD",
"= c #E6E6E6",
"- c #F7F7F7",
"; c white",
": c None",
/* pixels */
":::::::::::::::::::::::::::::::::::::::::::::",
":::::::::::::::::::::::::::::::::::::::::::::",
":::::::::::::::::::::::::::::::::::::::::::::",
":::::::::::::::::::::::::::::::::::::::::::::",
":::::::::::::::::::::::::::::::::::::::::::::",
":::::::::::::::::::::::::::::::::::::::::::::",
":::::::::::::::::::::::::::::::::::::::::::::",
":::::::::::::::::::::::::::::::::::::::::::::",
":::::::::::::::::::::::::::::::::::::::::::::",
":::::::::::     ::::      ::::     ::::::::::",
"::::::::::: @@@ :::: @@@@ :::: @@@ ::::::::::",
"::::::::::: *;*      *;;*      *;* ::::::::::",
"::::::::::: *;=@@@@@@=;;=@@@@@@=;* ::::::::::",
"::::::::::: *;;;;;;;;;;;;;;;;;;;;* ::::::::::",
"::::::::::                          :::::::::",
":::::::::::  O@@@@@@@@@@@@@@@@@@O  ::::::::::",
"::::::::::::  &;;;;;;;;;;;;;;;;&  :::::::::::",
":::::::::::::  #$$$$$$$$$$$$$$#  ::::::::::::",
":::::::::::::: *;;;;;;;;;;;;;;* :::::::::::::",
":::::::::::::: *;;;;;;;;;;;;;;* :::::::::::::",
":::::::::::::: *;;;;;;;;;;;;;;* :::::::::::::",
":::::::::::::: *;;;;;;;;;;;;;;* :::::::::::::",
":::::::::::::: *;;;;;;;;;;;;;;* :::::::::::::",
":::::::::::::: *;;;;;;;;;;;;;;* :::::::::::::",
":::::::::::::: *;;;;;;;;;;;;;;* :::::::::::::",
":::::::::::::: *;;;;;;;;;;;;;;* :::::::::::::",
":::::::::::::: *;;;;;;;;;;;;;;* :::::::::::::",
":::::::::::::: *;;;;;;;;;;;;;;* :::::::::::::",
":::::::::::::: *;;;;;;;;;;;;;;* :::::::::::::",
":::::::::::::: $%%%%%%%%%%%%%%$ :::::::::::::",
":::::::::::::. *;;;;;;;;;;;;;;* .::::::::::::",
"::::::::::::: o-;;;;;;;;;;;;;;-o ::::::::::::",
"::::::::::::                      :::::::::::",
":::::::::::: XXXXXXXXXXXXXXXXXXXX :::::::::::",
":::::::::::: *;;;;;;;;;;;;;;;;;;* :::::::::::",
":::::::::::: *;;;;;;;;;;;;;;;;;;* :::::::::::",
":::::::::                            ::::::::",
"::::::::: @+XXXXXXXXXXXXXXXXXXXXXX+@ ::::::::",
"::::::::: *;;;;;;;;;;;;;;;;;;;;;;;;* ::::::::",
":::::::::                            ::::::::",
":::::::::............................::::::::",
":::::::::::::::::::::::::::::::::::::::::::::",
":::::::::::::::::::::::::::::::::::::::::::::",
":::::::::::::::::::::::::::::::::::::::::::::",
":::::::::::::::::::::::::::::::::::::::::::::"
};
