/* XPM */
static char *Chess_plt45[] = {
/* columns rows colors chars-per-pixel */
"45 45 21 1 ",
"  c black",
". c #080808",
"X c #292929",
"o c #313131",
"O c #525252",
"+ c #636363",
"@ c #737373",
"# c #7B7B7B",
"$ c #848484",
"% c #949494",
"& c #9C9C9C",
"* c #A5A5A5",
"= c #ADADAD",
"- c #B5B5B5",
"; c #C5C5C5",
": c #D6D6D6",
"> c #DEDEDE",
", c #EFEFEF",
"< c #F7F7F7",
"1 c white",
"2 c None",
/* pixels */
"222222222222222222222222222222222222222222222",
"222222222222222222222222222222222222222222222",
"222222222222222222222222222222222222222222222",
"222222222222222222222222222222222222222222222",
"222222222222222222222222222222222222222222222",
"222222222222222222222222222222222222222222222",
"222222222222222222222222222222222222222222222",
"222222222222222222222222222222222222222222222",
"222222222222222222222222222222222222222222222",
"22222222222222222222.    .2222222222222222222",
"2222222222222222222. X&&X .222222222222222222",
"2222222222222222222 +<11<+ 222222222222222222",
"222222222222222222. ,1111, .22222222222222222",
"222222222222222222  <1111<  22222222222222222",
"222222222222222222. ,1111, .22222222222222222",
"2222222222222222222 $1111$ 222222222222222222",
"222222222222222222  =1111=  22222222222222222",
"22222222222222222  :111111:  2222222222222222",
"2222222222222222. ;11111111; .222222222222222",
"2222222222222222 X1111111111X 222222222222222",
"2222222222222222 %1111111111% 222222222222222",
"2222222222222222 -1111111111- 222222222222222",
"2222222222222222 &1111111111& 222222222222222",
"2222222222222222 o1111111111o 222222222222222",
"2222222222222222. ;11111111; .222222222222222",
"22222222222222222  >111111>  2222222222222222",
"22222222222222222. X111111X .2222222222222222",
"2222222222222222  +:111111:+  222222222222222",
"222222222222222  ;1111111111;  22222222222222",
"22222222222222  :111111111111:  2222222222222",
"2222222222222. ;11111111111111; .222222222222",
"2222222222222 @1111111111111111@ 222222222222",
"222222222222  ,1111111111111111,  22222222222",
"222222222222 #111111111111111111# 22222222222",
"22222222222. :111111111111111111: .2222222222",
"22222222222  <111111111111111111<  2222222222",
"22222222222 O11111111111111111111O 2222222222",
"22222222222 $11111111111111111111$ 2222222222",
"22222222222 *11111111111111111111* 2222222222",
"22222222222                        2222222222",
"22222222222                        2222222222",
"222222222222222222222222222222222222222222222",
"222222222222222222222222222222222222222222222",
"222222222222222222222222222222222222222222222",
"222222222222222222222222222222222222222222222"
};
