/* XPM */
static char *Chess_klt45[] = {
/* columns rows colors chars-per-pixel */
"45 45 31 1 ",
"  c black",
". c #080808",
"X c #101010",
"o c #191919",
"O c #212121",
"+ c #292929",
"@ c #313131",
"# c #3A3A3A",
"$ c #424242",
"% c #525252",
"& c #5A5A5A",
"* c #636363",
"= c #6B6B6B",
"- c #737373",
"; c #7B7B7B",
": c #848484",
"> c #8C8C8C",
", c #949494",
"< c #9C9C9C",
"1 c #A5A5A5",
"2 c #ADADAD",
"3 c #B5B5B5",
"4 c #BDBDBD",
"5 c #C5C5C5",
"6 c #CECECE",
"7 c #D6D6D6",
"8 c #E6E6E6",
"9 c #EFEFEF",
"0 c #F7F7F7",
"q c white",
"w c None",
/* pixels */
"wwwwwwwwwwwwwwwwwwwwwwwwwwwwwwwwwwwwwwwwwwwww",
"wwwwwwwwwwwwwwwwwwwwwwwwwwwwwwwwwwwwwwwwwwwww",
"wwwwwwwwwwwwwwwwwwwwwwwwwwwwwwwwwwwwwwwwwwwww",
"wwwwwwwwwwwwwwwwwwwwwwwwwwwwwwwwwwwwwwwwwwwww",
"wwwwwwwwwwwwwwwwwwwwwwwwwwwwwwwwwwwwwwwwwwwww",
"wwwwwwwwwwwwwwwwwwwwwwwwwwwwwwwwwwwwwwwwwwwww",
"wwwwwwwwwwwwwwwwwwwwww  wwwwwwwwwwwwwwwwwwwww",
"wwwwwwwwwwwwwwwwwwwwww  wwwwwwwwwwwwwwwwwwwww",
"wwwwwwwwwwwwwwwwwwww      wwwwwwwwwwwwwwwwwww",
"wwwwwwwwwwwwwwwwwwwwww  wwwwwwwwwwwwwwwwwwwww",
"wwwwwwwwwwwwwwwwwwwwww  wwwwwwwwwwwwwwwwwwwww",
"wwwwwwwwwwwwwwwwwwwwww  wwwwwwwwwwwwwwwwwwwww",
"wwwwwwwwwwwwwwwwwwwww    wwwwwwwwwwwwwwwwwwww",
"wwwwwwwwwwwwwwwwwwww  ::  wwwwwwwwwwwwwwwwwww",
"wwwwwwwwwwwwwwwwwww. 5qq5 .wwwwwwwwwwwwwwwwww",
"wwwwwwwwwwwwwwwwwww +qqqq+ wwwwwwwwwwwwwwwwww",
"wwwwwwwwww       ww ;qqqq; ww       wwwwwwwww",
"wwwwwwww   :452*    %qqqq%    *254:   wwwwwww",
"wwwwwww  >0qqqqq9,   0qq0   ,9qqqqq0>  wwwwww",
"wwwwww. 1qqqqqqqqq7  <qq<  7qqqqqqqqq1 .wwwww",
"wwwwww @qqqqqqqqqqq8  77  8qqqqqqqqqqq@ wwwww",
"wwwwww <qqqqqqqqqqqq6 ++ 6qqqqqqqqqqqq< wwwww",
"wwwwww 5qqqqqqqqqqqqq=  =qqqqqqqqqqqqq5 wwwww",
"wwwwww 1qqqqqqqqqqqqq8  8qqqqqqqqqqqqq1 wwwww",
"wwwwww +0qqqqqqqqqqqqq  qqqqqqqqqqqqq0+ wwwww",
"wwwwww. 4qqqqqqqqqqqqq  qqqqqqqqqqqqq4 .wwwww",
"wwwwwww  7qqqqqqqqqqqq  qqqqqqqqqqqq7  wwwwww",
"wwwwwwww  6qqqqqq073,;  ;,370qqqqqq6  wwwwwww",
"wwwwwwwww  <0q8,O            O,8q0<  wwwwwwww",
"wwwwwwwwww  +$   #>47888874>#   $+  wwwwwwwww",
"wwwwwwwwwww.  $40qqqq0990qqqq04$  .wwwwwwwwww",
"wwwwwwwwwwww  q06>#        #>60q  wwwwwwwwwww",
"wwwwwwwwwwww  *     #&==&#     *  wwwwwwwwwww",
"wwwwwwwwwwww   X,70qqqqqqqq07,X   wwwwwwwwwww",
"wwwwwwwwwwww  7qq073,;--;,370qq7  wwwwwwwwwww",
"wwwwwwwwwwww  8,O            O,8  wwwwwwwwwww",
"wwwwwwwwwwww     #>47888874>#     wwwwwwwwwww",
"wwwwwwwwwwww  o20qqqqqqqqqqqq02o  wwwwwwwwwww",
"wwwwwwwwwwwww   +<70qqqqqq07<+   wwwwwwwwwwww",
"wwwwwwwwwwwwwww.     O@@O     .wwwwwwwwwwwwww",
"wwwwwwwwwwwwwwwwwww.      .wwwwwwwwwwwwwwwwww",
"wwwwwwwwwwwwwwwwwwwwwwwwwwwwwwwwwwwwwwwwwwwww",
"wwwwwwwwwwwwwwwwwwwwwwwwwwwwwwwwwwwwwwwwwwwww",
"wwwwwwwwwwwwwwwwwwwwwwwwwwwwwwwwwwwwwwwwwwwww",
"wwwwwwwwwwwwwwwwwwwwwwwwwwwwwwwwwwwwwwwwwwwww"
};
