/* XPM */
static xpm_row_t clockXPM150[] = {
/* columns rows colors chars-per-pixel */
"150 85 34 1 ",
"  c #000000",
". c #0A0A0A",
"X c #121212",
"o c #1C1C1C",
"O c #232323",
"+ c #2C2C2C",
"@ c #313131",
"# c #3C3C3C",
"$ c #444444",
"% c #4E4E4E",
"& c #545454",
"* c #5B5B5B",
"= c #636363",
"- c #6D6D6D",
"; c #727272",
": c #7D7D7D",
"> c #807F80",
", c #848484",
"< c #8C8C8C",
"1 c #959595",
"2 c #9B9B9B",
"3 c #A1A1A1",
"4 c #ADADAD",
"5 c #B4B4B4",
"6 c #BDBDBD",
"7 c #C3C3C3",
"8 c #CACACA",
"9 c #D4D4D4",
"0 c #DCDCDC",
"q c #E3E3E3",
"w c #EEEEEE",
"e c #F3F3F3",
"r c #F8F7F8",
"t c #FFFFFF",
/* pixels */
"tttttttttttttttttttttttttttttttttttttttttttttttttttttttttttttttttttttttttttttttttttttttttttttttttttttttttttttttttttttttttttttttttttttttttttttttttttttt",
"tttttttttttttttttttttttttttttttttttttttttttttttttttttttttttttttttttttttttttttttttttttttttttttttttttttttttttttttttttttttttttttttttttttttttttttttttttttt",
"ttttttttttttttttttttttttttttttttttttttttttw000000000000000000000000000000000000000000000000000000000000000wrtttttttttttttttttttttttttttttttttttttttttt",
"ttttttttttttttttttttttttttttttttttttttttr3$+++++++++++++++++++++++++++++++++++++++++++++++++++++++++++++@+#2rttttttttttttttttttttttttttttttttttttttttt",
"tttttttttttttttttttttttttttttttttttttttt8#                                                                 O7ttttttttttttttttttttttttttttttttttttttttt",
"tttttttttttttttttttttttttttttttttttttttt4X                                                                 .3ttttttttttttttttttttttttttttttttttttttttt",
"tttttttttttttttttttttttttttttttttttttttt8=&**&***&**&**&*&&**&*&**&**&***&&*&**&*&&**&*&*&***&*&*&&****&*&**7ttttttttttttttttttttttttttttttttttttttttt",
"tttttttttttttttttttttttrtrrtrrtrrtrrtrtrrwwwwwwwwwwwwwwwwwwwwwwwwwwwwwwwwwewwwwwwwwwwwwwwwwwwwwwwwwwwwwwwwwwrrtrrtrrrtrrtrrtrrtttttttttttttttttttttttt",
"tttttttttttttttttte951,;-----;--------;--;---;---;--;--;-;--;--;-;---;----;--;---;--;-;--;---;---;--;--;-;-----;-;-----------;:159wrtttttttttttttttttt",
"tttttttttttttttr81&+X.                                                                                                         .XO&<8etttttttttttttttt",
"tttttttttttttr7;+.                                                                                                                 .+-6rtttttttttttttt",
"tttttttttttt0,+                                                                                                                       O;0ttttttttttttt",
"ttttttttttt6$.       XooOOOOOOOOOOOOOOOOOOOOOOOOOOOOOOOOOOOOOOOOOOOOOOOOOOOOOOOOOOOOOOOOOOOOOOOOOOOOOOOOOOOOOOOOOOOOOOOOOOOOOOo.        #5rttttttttttt",
"tttttttttr3+      o$;25788788788788888788887788888788878787888788878788888788887788888788878788888788878787888788788788888788752:$o      O2etttttttttt",
"ttttttttr2O     o=50rtttttttttttttttttttttttttttttttttttttttttttttttttttttttttttttttttttttttttttttttttttttttttttttttttttttttttttrq5-O     o1ettttttttt",
"tttttttr4o    .&6etttttttttttttttttttttttttttttttttttttttttttttttttttttttttttttttttttttttttttttttttttttttttttttttttttttttttttttttttr7*X    o2rtttttttt",
"ttttttt6@    o,qtttttttttttttttttttttttttttttttttttttttttttttttttttttttttttttttttttttttttttttttttttttttttttttttttttttttttttttttttttttw<o    O6tttttttt",
"ttttttq&    o1etttttttttttttttttttttttttttttttttttttttttttttttttttttttttttttttttttttttttttttttttttttttttttttttttttttttttttttttttttttttr3O    $9ttttttt",
"tttttr<.   X1rttttttttttttt93323333333333332333333333333333333333333333333333333333333233333333333333333333333333333333238tttttttttttttr3o    :rtttttt",
"ttttt8+   .:etttttttttttttr,. .... . ... ..... .. ...  .. ...  . ...... .. . ... .... .... . .... ...  .. ...  ....  ... ;rtttttttttttttr<.   O7tttttt",
"ttttr:    %0ttttttttttttttr>                                                                                             -rttttttttttttttw&    ;rttttt",
"tttt9#   o5ttttttw525qttttt>                                                                                             -rttttttttttttttt6O   O8ttttt",
"tttt2X   *wtttttq;X X=0tttt:                                                                                             ;rttttttttttttttte-   .<ttttt",
"ttte=   X3tttttt3X   .<tttr>                                                                                             -rtttttttttttttttt5o   &wtttt",
"ttt0#   #0tttttr;     =wttt:                                                                                             ;ettttttttttttttttq$   +9tttt",
"ttt7o   =rtttttr,     -ettr>                                                                                             -rttttttttttttttttr;   X5tttt",
"ttt3.   <ttttttt7@   O5tttr>                                                                                             -rttttttttttttttttt3.  .2tttt",
"ttt1   X4tttttttr6&#%4rtttt:              .. ..       .. .. . .....             .. .... ..            . ...              ;rttttttttttttttttt6X   ,rttt",
"ttr<.  o6tttttttttwqwtttttr>           .*,<,<,<;O    O:<<,<<<<,<<,,$.           #,,<,<,<<<<*.       O;<,,,<,&.           -rttttttttttttttttt7o   :rttt",
"ttt,   o6tttttttttttttttttt>          .=qttttttr3O   X,wttttrttttr5;$           O1rttttttrtq;.     o2rttttttq-.          -rttttttttttttttttt9o   ;rttt",
"ttr,   o6tttttttttrrttttttr>          O3rttttttt0*X   X,wtttttttt5:8=            o,wtttttttt6@.   .&9tttttttt4@          ;rttttttttttttttttt9o   ;rttt",
"ttt,   o6tttttttt9<-,8ttttt:        .=4;6ttttttq,12O   X,wtttttr5;9e=             X;qtttttt8:4;. O11,qtttttt7:4-.        -rttttttttttttttttt8O   ;rttt",
"ttr,   o6ttttttt9&.  $8tttr,        $0t6-244444:<wt1X   X:444441:8tr=              .=444453;5tq=X<re1:444443;6tq&        ;ettttttttttttttttt9o   ;rttt",
"ttt,   o6ttttttt1.    :rttr:        :ttt2oXXXXX&wtt9+     XXXXXO4ttr=                .XXX.o1ttt2+7ttq&X.XXXX2ttt<        -rttttttttttttttttt8O   ;rttt",
"ttt,   o6ttttttr;     =wttt:        :rtt4X     =rtt9+          o7ttr=                     .3ttt1O7ttr=     .4ttt<.       -rttttttttttttttttt9o   :rttt",
"ttr,   o7ttttttt<.    :rttr>        :ttt4X     =rtt8+          O7ttr-                     X3ttt1+7tte=     X4ttt<.       ;rttttttttttttttttt8o   ;rttt",
"ttr,   o6ttttttt9%   #8tttt:        :ttt4X     =rtt9+          O7ttr=   #:,:*.            X2ttt2+7ttr=     .4ttt<        -rttttttttttttttttt8O   ;rttt",
"ttt,   o6tttttttt9,*:8ttttr>        :ttt5X     =rtt9+          O7ttr=   :rtt5X            X3ttt1+7ttr*     .4ttt<        -rttttttttttttttttt9o   ;rttt",
"ttr,   o7tttttttttrertttttr>       .:ttt2X     *wtt9+          o5ttr=   :ttt5o       ..   X1ttt1+6ttw*     .3ttt<.       ;rttttttttttttttttt8O   :rttt",
"ttt,   o6tttttttttttttttttt:        :rw2#      X;8t9+           $4wr=   ;wwr4X     X*222221:3qt2+7t9;X      @2wt<        -rttttttttttttttttt8O   ;rttt",
"ttr,   o6tttttttttttttttttr>        ;7=X         #26+            o-8*   @*=*$.    #2wtrttttq1,6<+43#         X*7,.       ;ettttttttttttttttt8O   ;rttt",
"ttt,   o6tttttttttttttttttt>        ##            X$o              #@            $7tttttttttr4*#o$o            @#        -rttttttttttttttttt8o   ;rttt",
"ttt,   o6tttttttttttttttttr>        &;O          X%:O            .+:$   ...X.    O;8rtttttrw6,,=O;&X          O-*.       -rttttttttttttttttt9o   ;rttt",
"ttt,   o7tttttttttttttttttr,        :r8;O      X&3w8+           +:9e-   &333;X     +;222221,,7e1+7w4%X      O;7r<        ;rttttttttttttttttt8O   ;rttt",
"ttr,   o6tttttttttttttttttr>        ;ttr1X     %0tt9+          o3rtr=   :ttt5X       .....X<ett1+6tt0%     .1ett<.       -rttttttttttttttttt9o   :rttt",
"ttt,   o6tttttttttttttttttt>       .:ttt4X     =rtt9+          O7ttr=   :ttt5o            X3ttt2+7ttr=     X4ttt<        -rttttttttttttttttt8O   ;rttt",
"ttt,   o7tttttttttttttttttr>        ;ttt4X     =rtt9+          O7ttr-   -90q2X            X3ttt1+7ttr=     .4ttt<.       ;rttttttttttttttttt9o   ;rttt",
"ttr,   o6tttttttttttttttttr>        :ttt4X     =rtt9+          o7ttr=   o###+             .3ttt1O7ttr*     .4ttt<        -rttttttttttttttttt8o   ;tttt",
"ttr,   o6tttttttttttttttttr>       .:ttt4X     =rtt9+          O7ttr=                     X3ttt2+7ttr=     .4ttt<.       ;ettttttttttttttttt9o   ;rttt",
"ttt,   o6tttttttttttttttttt:        :rtt4X     =rtt9+          O7ttr=                     .3ttt1+7ttr*     .4ttt<        -rttttttttttttttttt8O   ;rttt",
"ttr,   o6tttttttttttttttttr>        ;rte,######&9tt8O          O6ttr=               X######,wtt<O6tt9&######,etr,        -rttttttttttttttttt9o   :rttt",
"ttt,   o6tttttttttttttttttt>        +5e2:9qqqqq3;9q-.           =0tr=              O2qqqqq9<1e7#.*q0;20qqqq9>1w7#        ;rttttttttttttttttt8o   ;rttt",
"ttt,   o6tttttttttttttttttr>         #-:0ttttttr4;*.            .=qr=             #4rttttttw<;$  .&;3rttttttq,;#         -rttttttttttttttttt8O   ;tttt",
"ttt,   o6tttttttttttttttttt:          X2rttttttt0%                =0=            #6rtttttttt5o     $0tttttttt4o          -rttttttttttttttttt9o   ;rttt",
"ttr,   o6tttttttttttttttttr:           #5wwwwqw0-.                .=%           #5qwwqwwwww6$      .-9wwqwww6#           ;rttttttttttttttttt8o   ;rttt",
"ttt<   X5tttttttttttttttttr,            O$$$$$$#.                  ..           +$$$$$$$$$$O         #$$$$$$O            -rttttttttttttttttt7o   :rttt",
"ttt2   X3tttttttttttttttttr,                                                                                             ;ettttttttttttttttt5.  .<tttt",
"ttt4X   ,tttttttttttttttttr:                                                                                             -rttttttttttttttttt1.  .3tttt",
"ttt8+   &wttttttttttttttttt:                                                                                             -rttttttttttttttttr=   o6tttt",
"tttq$   O9ttttttttttttttttr>                                                                                             ;rtttttttttttttttt0@   #0tttt",
"tttr:   .1ttttttttttttttttt:                                                                                             -rtttttttttttttttt2X   =rtttt",
"tttt5o   #0tttttttttttttttr>                                                                                             -rtttttttttttttttq%   .4ttttt",
"ttttq$   .<rttttttttttttttr:                                                                                             ;rttttttttttttttt2X   #qttttt",
"ttttt2X   @7ttttttttttttttt:                                                                                             -rtttttttttttttt8#   .<rttttt",
"tttttq%    &0tttttttttttttr1@@@@@@@@@@@@@@@@@@@@@@@@@@@@@@@@@@@@@@+@@@@@@@@@@@@@@@@@@@@@@@@@@@@@@@@@@@@@@@@@@@@@@@@@@@@@@<rtttttttttttttq*    $0tttttt",
"tttttt4o   .=0tttttttttttttw999999999999999999999999999999999999999999999999999999999999999999999999999999999999999999999qtttttttttttttq;.   o2ttttttt",
"tttttte;.   .=0tttttttttttttttttttttttttttttttttttttttttttttttttttttttttttttttttttttttttttttttttttttttttttttttttttttttttttttttttttttttq-.    -wttttttt",
"tttttttq*     $6rtttttttttttttttttttttttttttttttttttttttttttttttttttttttttttttttttttttttttttttttttttttttttttttttttttttttttttttttttttr6&     $0tttttttt",
"tttttttt9$     O:8rtttttttttttttttttttttttttttttttttttttttttttttttttttttttttttttttttttttttttttttttttttttttttttttttttttttttttttttttr9,+     #7ttttttttt",
"ttttttttt8$      +;50erttrrttrtrtrrtttrttrrttrtrtrrtttrttrrttrtrrttttrtrtrtrtrrtrttrtrttrttttrtrtrtrtrrtrttrtrttrttttrtrttrttrreq6:@      #7tttttttttt",
"tttttttttt9*X      X#&;<1<<11<<11<<11<<11<<11<<11<<11<<11<<11<<1<1<1<<<1<<<11<<11<<1<<1<<1<1<<<1<<<11<<11<<1<<1<<1<1<<<1<<1<<<:*#X      .&8ttttttttttt",
"tttttttttttq,O           .  .    .   .   .  .    .   .   .  .    .   .. . .  .   .  .    .   .. . .  .   .  .    .   .. . .            o:0tttttttttttt",
"ttttttttttttr6*X                                                                                                                     X&5ettttttttttttt",
"ttttttttttttttw5=+.                                                                                                               .O=4wttttttttttttttt",
"tttttttttttttttte81=$+OXXXXXXXXXXXXXXXXXXXXXXXXXXXXXXXXXXXXXXXXXXXXXXXXXXXXXXXXXXXXXXXXXXXXXXXXXXXXXXXXXXXXXXXXXXXXXXXXXXXXXXXo+$=17wttttttttttttttttt",
"tttttttttttttttttttrq97655555555555555555555555555555555555555555555555555555555555555555555555555555555555555555555555555555669qetttttttttttttttttttt",
"tttttttttttttttttttttttttteeewewwewewewwewweewewwewewewwewweewewwewwewwewewewewwewwewewewewwewwewwewewewwwewewewwewwewwewewttttttttttttttttttttttttttt",
"tttttttttttttttttttttttttq:&**********************************************************************************************;qtttttttttttttttttttttttttt",
"tttttttttttttttttttttttttw&                                                                                               $qtttttttttttttttttttttttttt",
"tttttttttttttttttttttttttr,                                                                                               ;rtttttttttttttttttttttttttt",
"tttttttttttttttttttttttttt5.                                                                                             .2ttttttttttttttttttttttttttt",
"tttttttttttttttttttttttttt0=%%%%%%%%%%%%%%%%%%%%%%%%%%%%%%%%%%%%%%%%%%%%%%%%%%%%%%%%%%%%%%%%%%%%%%%%%%%%%%%%%%%%%%%%%%%%%=9ttttttttttttttttttttttttttt",
"tttttttttttttttttttttttttttrewweweewewweewewweewewweewewweewewweeewwweewewweewewewewweewewweewewewewewewewewewewweewewwewetttttttttttttttttttttttttttt",
"tttttttttttttttttttttttttttttttttttttttttttttttttttttttttttttttttttttttttttttttttttttttttttttttttttttttttttttttttttttttttttttttttttttttttttttttttttttt",
"tttttttttttttttttttttttttttttttttttttttttttttttttttttttttttttttttttttttttttttttttttttttttttttttttttttttttttttttttttttttttttttttttttttttttttttttttttttt"
};
