/* XPM */
static char *bdd560[] = {
/* width height ncolors chars_per_pixel */
"54 54 162 2",
/* colors */
"AA c #FFFFFFFFFFFF",
"BA c #FEFEFEFEFEFE",
"CA c #FCFCFCFCFCFC",
"DA c #F4F4F4F4F4F4",
"EA c #F3F3F3F3F3F3",
"FA c #F2F2F2F2F2F2",
"GA c #EEEEEEEEEEEE",
"HA c #E8E8E8E8E8E8",
"IA c #E0E0E0E0E0E0",
"JA c #D3D3D3D3D3D3",
"KA c #D0D0D0D0D0D0",
"LA c #C4C4C4C4C4C4",
"MA c #BFBFBFBFBFBF",
"NA c #B9B9B9B9B9B9",
"OA c #B3B3B3B3B3B3",
"PA c #AEAEAEAEAEAE",
"AB c #ADADADADADAD",
"BB c #ABABABABABAB",
"CB c #A8A8A8A8A8A8",
"DB c #A1A1A1A1A1A1",
"EB c #9F9F9F9F9F9F",
"FB c #9D9D9D9D9D9D",
"GB c #9B9B9B9B9B9B",
"HB c #9A9A9A9A9A9A",
"IB c #999999999999",
"JB c #979797979797",
"KB c #959595959595",
"LB c #949494949494",
"MB c #8F8F8F8F8F8F",
"NB c #8E8E8E8E8E8E",
"OB c #8C8C8C8C8C8C",
"PB c #8B8B8B8B8B8B",
"AC c #8A8A8A8A8A8A",
"BC c #888888888888",
"CC c #858585858585",
"DC c #848484848484",
"EC c #808080808080",
"FC c #7F7F7F7F7F7F",
"GC c #7E7E7E7E7E7E",
"HC c #7C7C7C7C7C7C",
"IC c #7B7B7B7B7B7B",
"JC c #7A7A7A7A7A7A",
"KC c #787878787878",
"LC c #777777777777",
"MC c #767676767676",
"NC c #757575757575",
"OC c #747474747474",
"PC c #737373737373",
"AD c #727272727272",
"BD c #717171717171",
"CD c #707070707070",
"DD c #6F6F6F6F6F6F",
"ED c #6D6D6D6D6D6D",
"FD c #6C6C6C6C6C6C",
"GD c #6B6B6B6B6B6B",
"HD c #6A6A6A6A6A6A",
"ID c #696969696969",
"JD c #686868686868",
"KD c #676767676767",
"LD c #666666666666",
"MD c #656565656565",
"ND c #646464646464",
"OD c #636363636363",
"PD c #626262626262",
"AE c #616161616161",
"BE c #606060606060",
"CE c #5F5F5F5F5F5F",
"DE c #5E5E5E5E5E5E",
"EE c #5D5D5D5D5D5D",
"FE c #5C5C5C5C5C5C",
"GE c #5B5B5B5B5B5B",
"HE c #5A5A5A5A5A5A",
"IE c #595959595959",
"JE c #585858585858",
"KE c #575757575757",
"LE c #565656565656",
"ME c #555555555555",
"NE c #545454545454",
"OE c #535353535353",
"PE c #525252525252",
"AF c #515151515151",
"BF c #505050505050",
"CF c #4F4F4F4F4F4F",
"DF c #4E4E4E4E4E4E",
"EF c #4D4D4D4D4D4D",
"FF c #4C4C4C4C4C4C",
"GF c #4B4B4B4B4B4B",
"HF c #4A4A4A4A4A4A",
"IF c #494949494949",
"JF c #484848484848",
"KF c #474747474747",
"LF c #464646464646",
"MF c #454545454545",
"NF c #444444444444",
"OF c #434343434343",
"PF c #424242424242",
"AG c #414141414141",
"BG c #404040404040",
"CG c #3F3F3F3F3F3F",
"DG c #3E3E3E3E3E3E",
"EG c #3D3D3D3D3D3D",
"FG c #3C3C3C3C3C3C",
"GG c #3B3B3B3B3B3B",
"HG c #3A3A3A3A3A3A",
"IG c #393939393939",
"JG c #383838383838",
"KG c #373737373737",
"LG c #363636363636",
"MG c #353535353535",
"NG c #343434343434",
"OG c #333333333333",
"PG c #323232323232",
"AH c #313131313131",
"BH c #303030303030",
"CH c #2F2F2F2F2F2F",
"DH c #2E2E2E2E2E2E",
"EH c #2D2D2D2D2D2D",
"FH c #2C2C2C2C2C2C",
"GH c #2B2B2B2B2B2B",
"HH c #2A2A2A2A2A2A",
"IH c #292929292929",
"JH c #282828282828",
"KH c #272727272727",
"LH c #262626262626",
"MH c #252525252525",
"NH c #242424242424",
"OH c #232323232323",
"PH c #222222222222",
"AI c #212121212121",
"BI c #202020202020",
"CI c #1F1F1F1F1F1F",
"DI c #1E1E1E1E1E1E",
"EI c #1D1D1D1D1D1D",
"FI c #1C1C1C1C1C1C",
"GI c #1B1B1B1B1B1B",
"HI c #1A1A1A1A1A1A",
"II c #191919191919",
"JI c #181818181818",
"KI c #171717171717",
"LI c #161616161616",
"MI c #151515151515",
"NI c #141414141414",
"OI c #131313131313",
"PI c #121212121212",
"AJ c #111111111111",
"BJ c #101010101010",
"CJ c #0F0F0F0F0F0F",
"DJ c #0E0E0E0E0E0E",
"EJ c #0D0D0D0D0D0D",
"FJ c #0C0C0C0C0C0C",
"GJ c #0B0B0B0B0B0B",
"HJ c #0A0A0A0A0A0A",
"IJ c #090909090909",
"JJ c #080808080808",
"KJ c #070707070707",
"LJ c #060606060606",
"MJ c #050505050505",
"NJ c #040404040404",
"OJ c #030303030303",
"PJ c #020202020202",
"AK c #010101010101",
"BK c #000000000000",
/* pixels */
"FFMFFFPEAFAFPENEBFDFAFEFGFDFPEPEGFAGIGOGNGLGLGGGPFCGKGNGNGIGAGAGFGGGEGPFEFOEOEAFBFEFEFEFAFKEGEKEPEAFPEAFHFDF",
"AGLHOHCIIIIIJIMIAJCJCJFJFJDJPIOIAJOIJIGIEICIDIIILIMIMIPIAJEJGJIJJJJJKJKJKJMJNJPJPJPJAKPJPJPJOJOJNJLJIJDJOIFG",
"DGDIHILIOIOIPIAJCJDJEJFJEJBJMIMIMIMIKIKIHIDIDIIIMIJIHIIILIMIPIGJKJKJJJKJKJLJOJOJPJPJPJPJPJPJOJOJOJNJKJGJAJCG",
"GGHIOIDJDJCJDJCJDJDJFJEJBJPINIJIKIMILIMIKIFIFIDIPHFHPGPGFHMHEIPIHJJJJJKJKJLJNJOJOJOJPJPJPJPJPJPJOJMJLJJJEJCG",
"OGPIEJHJHJFJDJCJEJFJEJBJPIOINIJIKILIIIIILIJIDIEHPFAFKFKFOELFNGCIAJHJJJKJKJKJLJOJOJOJOJPJPJAKAKPJOJMJLJJJHJHG",
"JHEJHJIJKJIJHJGJGJGJDJBJPIOIOINIKIJIIILINIKIJHKFEGLJBKBKKJPFCFBHFIAJFJGJHJJJMJNJNJMJMJNJOJAKPJPJNJLJJJHJGJIG",
"NHHJJJKJMJMJKJKJJJHJFJDJCJOIOIOIJIEIHIMIOIFIJGOFAKBKBKBKBKAKGFNFKHKIBJBJFJIJKJMJLJLJKJLJNJNJNJNJMJKJIJGJFJEG",
"IHKJLJMJNJMJKJKJIJIJHJGJEJAJOIMIGIFIFIJIMIBINFPHBKBKBKBKBKBKLHOEEHGIOIAJEJFJFJHJHJHJIJJJJJKJMJMJKJIJHJHJHJCG",
"BHMJMJMJMJLJLJLJKJJJKJJJHJDJOILIHIFICIGILIPHKFGIBKBKBKBKBKBKCIJEPGDIMIOIPICJBJAJBJDJEJGJEJEJGJHJIJHJHJIJIJCG",
"MGNJLJKJLJMJNJNJMJMJNJMJJJGJAJJIIIGICIGIJIAIPFBHBKBKBKBKBKBKKGOEAHAIGIIIHIJIKIIIKIPIAJBJBJOINIOIBJEJGJHJHJGG",
"OGNJMJMJMJNJOJPJOJOJOJNJKJIJBJJIKIHIEIHIJIOHAGFDDHBKBKBKBKAHPCFFAHMHOHOHLHMHPHBIGIIILIMILIIIHIDIFIKIAJDJDJMG",
"PGMJNJNJMJNJOJOJPJPJOJOJMJIJBJKIJILIJIGIBIDHFFJCDCIJBKBKHJBCGCNEIGCHEHFHBHAHGHLHBIBIEIGIDICIBILHNHDIIIMIAJAH",
"OGMJOJOJNJNJOJNJNJOJPJOJNJJJDJMIJILIKIBIOGHFKDCGOJBKBKBKBKOJOFDDNEOFGGMGNGPGBHJHOHAIPHBIAIOHNHJHKHAIDIKIPIEH",
"AHNJOJOJNJNJNJMJNJNJNJNJNJKJGJOIJIHIOHMGAFAEIIBKBKBKBKBKBKBKBKFIGDPDDFPFKGCHIHPHDIDIDICIDIEIDILHMHBIEIHIPICH",
"NGMJNJOJNJNJMJKJLJMJMJNJMJLJGJOIFIJHDGHEFFKJBKBKBKBKBKBKBKBKBKBKIJKEJDCFHGFHAICIFIHIJIIIIIKIKIFIAICIGIKIOIPG",
"IGLJLJNJLJLJKJHJJJLJLJMJMJKJEJKIKHAGODHGBKBKBKBKBKBKBKBKBKBKBKBKBKAKBGHDIFCHPHDIFIKIOIOIOIPIOIOIJIFIJIOIOING",
"HGLJKJKJIJJJIJHJJJMJLJLJLJJJBJBIFGBEIHBKBKBKBKBKBKBKBKBKBKBKBKBKBKBKBKDHNDPFGHBIHIKIMICJDJCJAJBJOINIPIAJBJLG",
"DGKJHJFJEJFJGJHJJJKJKJLJKJGJHILGGEMHBKBKBKBKBKBKBKBKBKBKBKBKBKBKBKBKBKBKIHAEAGKHHIJINICJEJEJDJCJCJCJCJDJBJHG",
"LFHJCJPIBJBJCJFJIJJJJJKJIJOIGHMEDHBKBKBKBKBKBKBKBKBKBKBKBKBKBKBKBKBKBKBKBKNGEELGBIIINIBJCJEJGJFJFJCJEJDJAJDG",
"IFDJOINIMILINICJGJIJKJKJFJDIOFMFBKBKBKBKBKBKBKBKBKJHEBEBJHBKBKBKBKBKBKBKBKBKFFFFFHDIKINIPIDJEJFJGJDJCJBJOIOF",
"DFMIMIKIGIFIJIPIDJHJKJKJPIBHNEKJBKBKBKBKBKBKBKBKBKBGAAAABGBKBKBKBKBKBKBKBKBKIJFEFGNHFIHIMICJDJEJEJEJBJOIOIHF",
"OEJIGIEIBICIGIKIAJGJKJHJEIMFAHBKBKBKBKBKBKBKBKBKBKBGAAAABGBKBKBKBKBKBKBKBKBKBKMGDFEHBIDIKIAJCJBJCJBJAJPIAJEF",
"LEHIEIPHOHKHMHDILIEJJJDJIHKEJJBKBKBKBKBKBKBKBKPAHAGAAAAAGAHAPABKBKBKBKBKBKBKBKHJCEKGMHCILIAJBJCJCJPIOIPIPIME",
"GEDIAIOHMHHHGHAILIDJHJOINGJFBKBKBKBKBKBKBKBKBKMAAAAAAAAAAAAAMABKBKBKBKBKBKBKBKBKCFPFKHEILIOIAJDJBJAJLIKIKICE",
"FECIBIOHOHIHLHFIOIGJHJKIFGKGBKBKBKBKBKBKBKBKBKEFLDOBAAAAOBLDEFBKBKBKBKBKBKBKBKBKFGHFJHGIJILIOIPIAJPILIHIFIOD",
"GECIDIBIOHMHAIGIAJGJGJIICGCHBKBKBKBKBKBKBKBKBKBKBKBGAAAABGBKBKBKBKBKBKBKBKBKBKBKOGIFKHHIHIHIGIGIKIMIKIEIBIBE",
"JEDIEIEIBICIFIJIAJFJFJIIEGMGBKBKBKBKBKBKBKBKBKBKBKBGAAAABGBKBKBKBKBKBKBKBKBKBKBKIGMFOHHIHIBIMHAIEIEIGIAILHJE",
"KEHIGIIIJIJIKIMIPIDJEJMIMGKFBKBKBKBKBKBKBKBKBKBKBKBGAAAABGBKBKBKBKBKBKBKBKBKBKBKFFDGDIKIGINHKHLHBIDIMHEHEHPE",
"OENILIKINIMIMIPICJHJHJBJIHLEGJBKBKBKBKBKBKBKBKBKBKDHNANADHBKBKBKBKBKBKBKBKBKBKFJHEAHGIJIBIKHHHFHKHKHCHNGBHGF",
"FFEJCJBJPININIAJFJJJLJGJEIPFGGBKBKBKBKBKBKBKBKBKBKBKBKBKBKBKBKBKBKBKBKBKBKBKBKGGNFOHKIHIMHIHHHPGIGLGGGKGDHJF",
"DGGJHJGJBJMILIBJFJIJLJJJNICHIEAJBKBKBKBKBKBKBKBKBKBKBKBKBKBKBKBKBKBKBKBKBKBKAJKEBHIIJIDILHLHJHLGNFMFBGIGEHLF",
"NGLJKJJJFJPIOICJFJIJLJLJFJDIAGLENJBKBKBKBKMJPGEEICMBJBJBNBJCEEPGMJBKBKBKBKNJAFEGCIMIHIPHKHKHIHMGMFGFOFJGEHDG",
"FHOJNJLJIJEJDJEJFJHJJJLJJJPIGHMEFFBKBKLHPADAAAAAAAAAAAAAAAAAAAAADAABNHBKBKLFIFLHKIMIHIBIJHGHGHPGHGBGDGJGDHIG",
"GHPJOJOJMJJJHJEJDJDJEJHJIJDJDIDGLDAGBKKJJABAFALADBACECECPBDBLAEABAKAKJBKGGMEDHJIOINILIJIPHIHEHFHFHEHPGNGFHKG",
"KHOJPJOJMJMJJJFJBJPIPICJDJAJGIBHBFFCKHBKBHGGNJBKBKBKBKBKBKBKBKNJFGDHBKLHCDFGDIAJBJOIMILIEINHKHLHNHOHFHAHGHBH",
"CIPJOJMJMJKJKJHJBJOINIMILILIEIEHNFPCLHBKBKBKBKBKBKBKBKBKBKBKBKBKBKBKBKLHLDPGKIDJDJBJNIKIIIEIEIDIDIAIFHBHHHIH",
"EIPJNJMJKJJJIJHJDJNIIIEIDICIAIGHMFPCHJBKNDACPBPBPBPBPBPBPBPBPBPBACODBKGJIDNGIIEJFJAJNILILIJIHIKIHIOHJHHHJHAI",
"GINJNJMJKJIJHJEJBJNIJIDIOHNHNHEHFFDEBKOJIACABAAAAAAAAAAAAAAAAABACAIAPJBKHEBGDIAJEJPININIMIJIGIIIFIAIOHOHMHDI",
"GINJNJNJLJIJEJAJPIOIMIHINHMHKHNGNELGBKBIKBGBFBEBEBEBEBEBEBEBEBFBHBLBCIBKMGGFIHKIPILINIMIJIGICIBIBIBICIAIOHFI",
"AIOJNJLJJJEJCJPIOINILIFIPHOHJHIGPEIJBKBKBKBKBKBKBKBKBKBKBKBKBKBKBKBKBKBKIJGFBHPHCICIFIGIDINHIHLHLHKHPHAICIEI",
"MHNJMJJJFJBJPILIJIDINHGHEHCHOGBGKFEGFFLEBEBFBKBKBKBKBKBKBKBKBKBKCFFECFNFLGBGGGNGLGOGBHDHCHMGLGAHCHBHKHPHEIEI",
"MHJJIJFJDJOIJIAIEHIGKFCFPEOEMEEEFDECJBCBOAEHBKBKBKBKBKBKBKBKBKBKDHBBIBCCADAEJEOEMEKELEOEPEDFKFBGGGPGJHPHDIDI",
"FHEJPINILIHILHFGOEJEFFAFPEPEOEKEFEPDNDIEEIBKBKBKBKBKBJDJBKBKBKBKBKDIPEHEJENEAFAFOEKELELEDDOCLDAFPFJGBHJHOHPH",
"PGOIKIKIFIJHAGJENHBKBKBKBKBKBKBKBKBKBKBKBKBKBKBKBKBKEGGGBKBKBKBKBKBKBKBKBKBKBKBKBKBKBKBKAKCHKCKDGFDGOGCHHHLH",
"JGLILIIIMHAGLEFJBKBKBKBKBKBKBKBKBKBKBKBKBKBKBKBKBKAKKCMCBKBKBKBKBKBKBKBKBKBKBKBKBKBKBKBKBKBKBJCDPDIFLGDHJHJH",
"OFOINIEIOGEECIBKBKBKBKBKBKBKBKBKBKBKBKBKBKBKBKBKBKNGNCMCOGBKBKBKBKBKBKBKBKBKBKBKBKBKBKBKBKBKBKLHKCJEEGAHHHHH",
"GFAJLIOHAGFEBKBKBKBKBKBKBKBKBKBKBKBKBKBKBKBKBKBKMHAEDFAFMDNHBKBKBKBKBKBKBKBKBKBKBKBKBKBKBKBKBKBKFDAENFMGAHFH",
"HFLIFIIHJFBGBKBKBKBKBKBKBKBKBKBKBKBKBKBKBKBKJJPFDECGDHPGNFCEBGKJBKBKBKBKBKBKBKBKBKBKBKBKBKBKBKBKHFAELFHGOGPG",
"JFOHNHHHPFEHBKBKBKBKBKBKBKBKBKBKBKBKBKMJFICGAEDFIGKHEIEILHKGBFCEFGHINJBKBKBKBKBKBKBKBKBKBKBKBKBKMGLECGLGPGHG",
"LFHHHHGHJGGFCEFDMCKCADCDCDBDADLCHCJCADEDCEDFHGHHAIGILIOIMIEIHHHGHFKEBEPDMDLDMDKDKDNDNDMDJDFDEDKDJEIFIGAHCHCG",
"LFIHFHEHAHMGDGLFGFEFHFIFMFIFHFHFDFFFPFFGNGGHPHDIGIJINICJBJPILIFIPHJHDHBHPGOGPGMGLGPGPGNGKGFGBGPFPFGGKGAHIHNF",
"KFLHHHGHHHIHHHBHAHDHKGMGDHAHBHCHBHFHKHOHAICIFIEIFIKIOIBJDJDJEJEJDJBJNINILILILIIIHIKILIKIGICIOHIHCHCHBHIHAIJF",
"JFMHLHMHMHLHNHIHJHOHFHFHKHKHMHPHBICIDICICIFIDIDIEIJINIPIDJGJIJKJKJIJIJJJHJGJFJEJDJDJFJFJEJAJKIEIBIPHPHFIKIHF",
"AFMFOFKFPEGEFEHEDEBEBEODODBEKEGFJFNFCGOFOFEGHGFGPFAGAGOFPFOFLFMFOFCGHGIGOGNGIGGGGGFGFGFGDGEGJGCHIHIHAHHGPFKE"};
