/* XPM */
static char *bdl560[] = {
/* width height ncolors chars_per_pixel */
"54 54 81 2",
/* colors */
"AA c #FFFFFFFFFFFF",
"BA c #F3F3F3F3F3F3",
"CA c #F2F2F2F2F2F2",
"DA c #F1F1F1F1F1F1",
"EA c #F0F0F0F0F0F0",
"FA c #EFEFEFEFEFEF",
"GA c #EEEEEEEEEEEE",
"HA c #EDEDEDEDEDED",
"IA c #ECECECECECEC",
"JA c #EBEBEBEBEBEB",
"KA c #EAEAEAEAEAEA",
"LA c #E9E9E9E9E9E9",
"MA c #E8E8E8E8E8E8",
"NA c #E7E7E7E7E7E7",
"OA c #E6E6E6E6E6E6",
"PA c #E5E5E5E5E5E5",
"AB c #E4E4E4E4E4E4",
"BB c #E3E3E3E3E3E3",
"CB c #E2E2E2E2E2E2",
"DB c #E1E1E1E1E1E1",
"EB c #E0E0E0E0E0E0",
"FB c #DFDFDFDFDFDF",
"GB c #DEDEDEDEDEDE",
"HB c #DDDDDDDDDDDD",
"IB c #DCDCDCDCDCDC",
"JB c #DBDBDBDBDBDB",
"KB c #DADADADADADA",
"LB c #D9D9D9D9D9D9",
"MB c #D8D8D8D8D8D8",
"NB c #D7D7D7D7D7D7",
"OB c #D6D6D6D6D6D6",
"PB c #D5D5D5D5D5D5",
"AC c #D4D4D4D4D4D4",
"BC c #D3D3D3D3D3D3",
"CC c #D2D2D2D2D2D2",
"DC c #D1D1D1D1D1D1",
"EC c #D0D0D0D0D0D0",
"FC c #CFCFCFCFCFCF",
"GC c #CECECECECECE",
"HC c #CDCDCDCDCDCD",
"IC c #CCCCCCCCCCCC",
"JC c #CBCBCBCBCBCB",
"KC c #CACACACACACA",
"LC c #C9C9C9C9C9C9",
"MC c #C7C7C7C7C7C7",
"NC c #C6C6C6C6C6C6",
"OC c #C5C5C5C5C5C5",
"PC c #C3C3C3C3C3C3",
"AD c #C2C2C2C2C2C2",
"BD c #BFBFBFBFBFBF",
"CD c #BDBDBDBDBDBD",
"DD c #BCBCBCBCBCBC",
"ED c #B9B9B9B9B9B9",
"FD c #B8B8B8B8B8B8",
"GD c #B7B7B7B7B7B7",
"HD c #B5B5B5B5B5B5",
"ID c #B4B4B4B4B4B4",
"JD c #B2B2B2B2B2B2",
"KD c #AFAFAFAFAFAF",
"LD c #A5A5A5A5A5A5",
"MD c #9F9F9F9F9F9F",
"ND c #969696969696",
"OD c #8F8F8F8F8F8F",
"PD c #878787878787",
"AE c #7F7F7F7F7F7F",
"BE c #787878787878",
"CE c #6F6F6F6F6F6F",
"DE c #686868686868",
"EE c #5F5F5F5F5F5F",
"FE c #595959595959",
"GE c #4F4F4F4F4F4F",
"HE c #4A4A4A4A4A4A",
"IE c #3F3F3F3F3F3F",
"JE c #3B3B3B3B3B3B",
"KE c #2F2F2F2F2F2F",
"LE c #2C2C2C2C2C2C",
"ME c #1F1F1F1F1F1F",
"NE c #1D1D1D1D1D1D",
"OE c #0F0F0F0F0F0F",
"PE c #0E0E0E0E0E0E",
"AF c #000000000000",
/* pixels */
"JBMBMBOBACACPBACCCBCDCGCJCGCGCFCCCBCCCOBKBHBCBPAOAOAABGBIBIBKBNBBCCCECFCECDCDCPBLBJBJBJBGBEBBBBBABPANAKAIAKA",
"FBEAEAEAEAEAEAEAEAEAEAEAEAEAEAEAEAEAEAEAEAEAEAEAEAEAEAEAEAEAEAEAEAEAEAEAEAEAEAEAEAEAEAEAEAEAEAEAEAEAEAEAEALA",
"EBEAEAEAEAEAEAEAEAEAEAEAEAEAEAEAEAEAEAEAEAEAEAEAEAEAEAEAEAEAEAEAEAEAEAEAEAEAEAEAEAEAEAEAEAEAEAEAEAEAEAEAEAMA",
"BBEAEAEAEAEAEAEAEAEAEAEAEAEAEAEAEAEAEAEAEAEAEAEAEAEAEAEAEAEAEAEAEAEAEAEAEAEAEAEAEAEAEAEAEAEAEAEAEAEAEAEAEANA",
"PAEAEAEAEAEAEAEAEAEAEAEAEAEAEAEAEAEAEAEAEAEAEAEAEAHAICICHAEAEAEAEAEAEAEAEAEAEAEAEAEAEAEAEAEAEAEAEAEAEAEAEAOA",
"PAEAEAEAEAEAEAEAEAEAEAEAEAEAEAEAEAEAEAEAEAEAEACALDNEAFAFNEKDEAEAEAEAEAEAEAEAEAEAEAEAEAEAEAEAEAEAEAEAEAEAEANA",
"ABEAEAEAEAEAEAEAEAEAEAEAEAEAEAEAEAEAEAEAEAEAEAFDAFAFAFAFAFAFCDEAEAEAEAEAEAEAEAEAEAEAEAEAEAEAEAEAEAEAEAEAEAOA",
"ABEAEAEAEAEAEAEAEAEAEAEAEAEAEAEAEAEAEAEAEAEACAGEAFAFAFAFAFAFFEEAEAEAEAEAEAEAEAEAEAEAEAEAEAEAEAEAEAEAEAEAEAAB",
"BBEAEAEAEAEAEAEAEAEAEAEAEAEAEAEAEAEAEAEAEAEAEAIEAFAFAFAFAFAFJEEAEAEAEAEAEAEAEAEAEAEAEAEAEAEAEAEAEAEAEAEAEADB",
"CBEAEAEAEAEAEAEAEAEAEAEAEAEAEAEAEAEAEAEAEAEAFADEAFAFAFAFAFAFDEEAEAEAEAEAEAEAEAEAEAEAEAEAEAEAEAEAEAEAEAEAEAFB",
"BBEAEAEAEAEAEAEAEAEAEAEAEAEAEAEAEAEAEAEAEAEAEAHBKEAFAFAFAFJEDBEAEAEAEAEAEAEAEAEAEAEAEAEAEAEAEAEAEAEAEAEAEAFB",
"BBEAEAEAEAEAEAEAEAEAEAEAEAEAEAEAEAEAEAEAEAEAEAEAJCPEAFAFPEJCEAEAEAEAEAEAEAEAEAEAEAEAEAEAEAEAEAEAEAEAEAEAEAJB",
"CBEAEAEAEAEAEAEAEAEAEAEAEAEAEAEAEAEAEAEAEAEAHAPDPEAFAFAFAFPEPDGAEAEAEAEAEAEAEAEAEAEAEAEAEAEAEAEAEAEAEAEAEAOB",
"DBEAEAEAEAEAEAEAEAEAEAEAEAEAEAEAEAEAEAEAEAHBIEAFAFAFAFAFAFAFAFIEFBEAEAEAEAEAEAEAEAEAEAEAEAEAEAEAEAEAEAEAEAAC",
"EBEAEAEAEAEAEAEAEAEAEAEAEAEAEAEAEAEAEAEAJDOEAFAFAFAFAFAFAFAFAFAFNEIDEAEAEAEAEAEAEAEAEAEAEAEAEAEAEAEAEAEAEABC",
"FBEAEAEAEAEAEAEAEAEAEAEAEAEAEAEAEAEACAPDAFAFAFAFAFAFAFAFAFAFAFAFAFAFODEAEAEAEAEAEAEAEAEAEAEAEAEAEAEAEAEAEAAC",
"FBEAEAEAEAEAEAEAEAEAEAEAEAEAEAEAEAGADEAFAFAFAFAFAFAFAFAFAFAFAFAFAFAFAFCEGAEAEAEAEAEAEAEAEAEAEAEAEAEAEAEAEAPB",
"GBEAEAEAEAEAEAEAEAEAEAEAEAEAEAEAGAEEAFAFAFAFAFAFAFAFAFAFAFAFAFAFAFAFAFAFDEEAEAEAEAEAEAEAEAEAEAEAEAEAEAEAEALB",
"HBEAEAEAEAEAEAEAEAEAEAEAEAEAEAEACEAFAFAFAFAFAFAFAFAFAFAFAFAFAFAFAFAFAFAFAFAEGAEAEAEAEAEAEAEAEAEAEAEAEAEAEAGB",
"IBEAEAEAEAEAEAEAEAEAEAEAEAEACALDAFAFAFAFAFAFAFAFAFMEPDPDMEAFAFAFAFAFAFAFAFAFKDEAEAEAEAEAEAEAEAEAEAEAEAEAEADB",
"LBEAEAEAEAEAEAEAEAEAEAEAEAEAEBNEAFAFAFAFAFAFAFAFAFIEAAAAIEAFAFAFAFAFAFAFAFAFNEDBEAEAEAEAEAEAEAEAEAEAEAEAEADB",
"OBEAEAEAEAEAEAEAEAEAEAEAEAFABEAFAFAFAFAFAFAFAFAFAFIEAAAAIEAFAFAFAFAFAFAFAFAFAFBEEAEAEAEAEAEAEAEAEAEAEAEAEABB",
"BCEAEAEAEAEAEAEAEAEAEAEAEAIAOEAFAFAFAFAFAFAFAFMDCCGBAAAAGBCCMDAFAFAFAFAFAFAFAFNEIAEAEAEAEAEAEAEAEAEAEAEAEAAB",
"GCEAEAEAEAEAEAEAEAEAEAEAEAHDAFAFAFAFAFAFAFAFAFBDAAAAAAAAAAAABDAFAFAFAFAFAFAFAFAFHDEAEAEAEAEAEAEAEAEAEAEAEAPA",
"MCEAEAEAEAEAEAEAEAEAEAEAEAAEAFAFAFAFAFAFAFAFAFEEAEMDAAAAMDAEEEAFAFAFAFAFAFAFAFAFAEDAEAEAEAEAEAEAEAEAEAEAEAOA",
"PCEAEAEAEAEAEAEAEAEAEAEAFACEAFAFAFAFAFAFAFAFAFAFAFIEAAAAIEAFAFAFAFAFAFAFAFAFAFAFCEEAEAEAEAEAEAEAEAEAEAEAEANA",
"ADEAEAEAEAEAEAEAEAEAEAEAEABEAFAFAFAFAFAFAFAFAFAFAFIEAAAAIEAFAFAFAFAFAFAFAFAFAFAFBEEAEAEAEAEAEAEAEAEAEAEAEAPA",
"OCEAEAEAEAEAEAEAEAEAEAEAFALDAFAFAFAFAFAFAFAFAFAFAFIEAAAAIEAFAFAFAFAFAFAFAFAFAFAFLDEAEAEAEAEAEAEAEAEAEAEAEANA",
"KCEAEAEAEAEAEAEAEAEAEAEAEAOAOEAFAFAFAFAFAFAFAFAFAFJEGCDCKEAFAFAFAFAFAFAFAFAFAFOEJAEAEAEAEAEAEAEAEAEAEAEAEANA",
"HCEAEAEAEAEAEAEAEAEAEAEAEADABEAFAFAFAFAFAFAFAFAFAFAFAFAFAFAFAFAFAFAFAFAFAFAFAFAEEAEAEAEAEAEAEAEAEAEAEAEAEANA",
"CCEAEAEAEAEAEAEAEAEAEAEAEAEABBNEAFAFAFAFAFAFAFAFAFAFAFAFAFAFAFAFAFAFAFAFAFAFNEDBEAEAEAEAEAEAEAEAEAEAEAEAEAMA",
"PBEAEAEAEAEAEAEAEAEAEAEAEAEAEAKDAFAFAFAFAFAFNEHEDEBEAEAEBEEEHENEAFAFAFAFAFAFKDEAEAEAEAEAEAEAEAEAEAEAEAEAEALA",
"NBEAEAEAEAEAEAEAEAEAEAEAEAEAEAEAPDAFAFMENDCBAAAAAAAAAAAAAAAAAAAAEBNDMEAFAFPDCAEAEAEAEAEAEAEAEAEAEAEAEAEAEAKA",
"MBEAEAEAEAEAEAEAEAEAEAEAEAEAEAEAGAEEAFOECBAAAAKBFDMDNDNDMDEDKBAAAADBOEAFEEDAEAEAEAEAEAEAEAEAEAEAEAEAEAEAEAKA",
"KBEAEAEAEAEAEAEAEAEAEAEAEAEAEAEAEAIAKEAFIEGEOEAFAFAFAFAFAFAFAFOEFEJEAFKEEAEAEAEAEAEAEAEAEAEAEAEAEAEAEAEAEAMA",
"JBEAEAEAEAEAEAEAEAEAEAEAEAEAEAEAEADAIEAFAFAFAFAFAFAFAFAFAFAFAFAFAFAFAFHEEAEAEAEAEAEAEAEAEAEAEAEAEAEAEAEAEAMA",
"KBEAEAEAEAEAEAEAEAEAEAEAEAEAEAEAEAFAOEAFFEBECEBEBECEBEBEBECEBEBECEFEAFOEBAEAEAEAEAEAEAEAEAEAEAEAEAEAEAEAEANA",
"KBEAEAEAEAEAEAEAEAEAEAEAEAEAEAEAEANCAFAFBBAAAAAAAAAAAAAAAAAAAAAAAAPAAFAFLCEAEAEAEAEAEAEAEAEAEAEAEAEAEAEAEAMA",
"MBEAEAEAEAEAEAEAEAEAEAEAEAEAEAEAEABEAFLEGDEDEDEDFDEDEDFDFDEDFDFDEDEDLEAFBEDAEAEAEAEAEAEAEAEAEAEAEAEAEAEAEALA",
"LBEAEAEAEAEAEAEAEAEAEAEAEAEAEAEAPANEAFAFAFAFAFAFAFAFAFAFAFAFAFAFAFAFAFAFNELAEAEAEAEAEAEAEAEAEAEAEAEAEAEAEAMA",
"LBEAEAEAEAEAEAEAEAEAEAEAEAEAEAEADDEEEEEEEEHEAFAFAFAFAFAFAFAFAFAFHEEEEEEEEEBDEAEAEAEAEAEAEAEAEAEAEAEAEAEAEANA",
"OBEAEAEAEAEAEAEAEAEAEAEAEAEAEAEAEAEADADAHAIEAFAFAFAFAFAFAFAFAFAFHEIADADADAEAEAEAEAEAEAEAEAEAEAEAEAEAEAEAEAMA",
"PBEAEAEAEAEAEAEAEADBFDIDIDIDIDIDIDJDLDODJEAFAFAFAFAFPEPEAFAFAFAFAFJEODLDIDIDIDIDIDIDIDFDCBEAEAEAEAEAEAEAEAOA",
"OBEAEAEAEAEAEACBDEAFAFAFAFAFAFAFAFAFAFAFAFAFAFAFAFAFIEJEAFAFAFAFAFAFAFAFAFAFAFAFAFAFAFAFPEDEPAEAEAEAEAEAEACB",
"PBEAEAEAEAEANBMEAFAFAFAFAFAFAFAFAFAFAFAFAFAFAFAFAFAFKDLDAFAFAFAFAFAFAFAFAFAFAFAFAFAFAFAFAFAFLENBEAEAEAEAEAHB",
"CCEAEAEAEAEAHEAFAFAFAFAFAFAFAFAFAFAFAFAFAFAFAFAFAFGEGAFAGEAFAFAFAFAFAFAFAFAFAFAFAFAFAFAFAFAFAFGEEAEAEAEAEALB",
"CCEAEAEAEABCAFAFAFAFAFAFAFAFAFAFAFAFAFAFAFAFAFAFJEPAEAEADBKEAFAFAFAFAFAFAFAFAFAFAFAFAFAFAFAFAFAFPBEAEAEAEANB",
"NBEAEAEAFANDAFAFAFAFAFAFAFAFAFAFAFAFAFAFAFAFAFBELAEAEAEAEAKABEAFAFAFAFAFAFAFAFAFAFAFAFAFAFAFAFAFNDEAEAEAEAOB",
"IBEAEAEAEABEAFAFAFAFAFAFAFAFAFAFAFAFAFAFNEDECCFAEAEAEAEAEAEAFACCDENEAFAFAFAFAFAFAFAFAFAFAFAFAFAFBEEAEAEAEAAC",
"FBEAEAEAEADBPBOBNBOBOBOBOBOBPBPBPBOBOBCBEAEAEAEAEAEAEAEAEAEAEAEAFAGADBOBPBPBPBPBPBPBPBPBPBPBPBOBCBEAEAEAEAAC",
"GBEAEAEAEAEAEAEAEAEAEAEAEAEAEAEAEAEAEAEAEAEAEAEAEAEAEAEAEAEAEAEAEAEAEAEAEAEAEAEAEAEAEAEAEAEAEAEAEAEAEAEAEAMB",
"LBEAEAEAEAEAEAEAEAEAEAEAEAEAEAEAEAEAEAEAEAEAEAEAEAEAEAEAEAEAEAEAEAEAEAEAEAEAEAEAEAEAEAEAEAEAEAEAEAEAEAEAEAIB",
"NBEAEAEAEAEAEAEAEAEAEAEAEAEAEAEAEAEAEAEAEAEAEAEAEAEAEAEAEAEAEAEAEAEAEAEAEAEAEAEAEAEAEAEAEAEAEAEAEAEAEAEAEAEB",
"NBLBLBOBACECFCECCCCCDCGCICFCDCDCDCDCBCMBGBCBOAOAOAOAOAPAABBBABBBFBJBMBMBLBLBOBNBMBMBMBLBIBGBGBFBGBFBFBCBOAPA"};
