/* XPM */
static char *bld560[] = {
/* width height ncolors chars_per_pixel */
"54 54 204 2",
/* colors */
"AA c #FFFFFFFFFFFF",
"BA c #FEFEFEFEFEFE",
"CA c #FDFDFDFDFDFD",
"DA c #FCFCFCFCFCFC",
"EA c #FBFBFBFBFBFB",
"FA c #FAFAFAFAFAFA",
"GA c #F9F9F9F9F9F9",
"HA c #F8F8F8F8F8F8",
"IA c #F7F7F7F7F7F7",
"JA c #F6F6F6F6F6F6",
"KA c #F5F5F5F5F5F5",
"LA c #F4F4F4F4F4F4",
"MA c #F3F3F3F3F3F3",
"NA c #F2F2F2F2F2F2",
"OA c #F1F1F1F1F1F1",
"PA c #F0F0F0F0F0F0",
"AB c #EFEFEFEFEFEF",
"BB c #EEEEEEEEEEEE",
"CB c #EDEDEDEDEDED",
"DB c #ECECECECECEC",
"EB c #E9E9E9E9E9E9",
"FB c #E4E4E4E4E4E4",
"GB c #E3E3E3E3E3E3",
"HB c #E2E2E2E2E2E2",
"IB c #E1E1E1E1E1E1",
"JB c #DFDFDFDFDFDF",
"KB c #DEDEDEDEDEDE",
"LB c #D8D8D8D8D8D8",
"MB c #D6D6D6D6D6D6",
"NB c #D5D5D5D5D5D5",
"OB c #D4D4D4D4D4D4",
"PB c #D3D3D3D3D3D3",
"AC c #D2D2D2D2D2D2",
"BC c #CFCFCFCFCFCF",
"CC c #CDCDCDCDCDCD",
"DC c #CBCBCBCBCBCB",
"EC c #C9C9C9C9C9C9",
"FC c #C8C8C8C8C8C8",
"GC c #C5C5C5C5C5C5",
"HC c #C4C4C4C4C4C4",
"IC c #BEBEBEBEBEBE",
"JC c #BDBDBDBDBDBD",
"KC c #BCBCBCBCBCBC",
"LC c #BBBBBBBBBBBB",
"MC c #BABABABABABA",
"NC c #B9B9B9B9B9B9",
"OC c #B8B8B8B8B8B8",
"PC c #B6B6B6B6B6B6",
"AD c #B3B3B3B3B3B3",
"BD c #B2B2B2B2B2B2",
"CD c #B0B0B0B0B0B0",
"DD c #ACACACACACAC",
"ED c #ABABABABABAB",
"FD c #AAAAAAAAAAAA",
"GD c #A8A8A8A8A8A8",
"HD c #A7A7A7A7A7A7",
"ID c #A5A5A5A5A5A5",
"JD c #A4A4A4A4A4A4",
"KD c #9D9D9D9D9D9D",
"LD c #9B9B9B9B9B9B",
"MD c #999999999999",
"ND c #989898989898",
"OD c #979797979797",
"PD c #969696969696",
"AE c #959595959595",
"BE c #949494949494",
"CE c #939393939393",
"DE c #919191919191",
"EE c #8F8F8F8F8F8F",
"FE c #8E8E8E8E8E8E",
"GE c #8B8B8B8B8B8B",
"HE c #898989898989",
"IE c #888888888888",
"JE c #868686868686",
"KE c #858585858585",
"LE c #848484848484",
"ME c #838383838383",
"NE c #808080808080",
"OE c #7F7F7F7F7F7F",
"PE c #7E7E7E7E7E7E",
"AF c #7C7C7C7C7C7C",
"BF c #7B7B7B7B7B7B",
"CF c #7A7A7A7A7A7A",
"DF c #787878787878",
"EF c #777777777777",
"FF c #767676767676",
"GF c #757575757575",
"HF c #747474747474",
"IF c #737373737373",
"JF c #727272727272",
"KF c #717171717171",
"LF c #707070707070",
"MF c #6F6F6F6F6F6F",
"NF c #6E6E6E6E6E6E",
"OF c #6D6D6D6D6D6D",
"PF c #6C6C6C6C6C6C",
"AG c #6B6B6B6B6B6B",
"BG c #6A6A6A6A6A6A",
"CG c #696969696969",
"DG c #686868686868",
"EG c #676767676767",
"FG c #666666666666",
"GG c #656565656565",
"HG c #646464646464",
"IG c #636363636363",
"JG c #626262626262",
"KG c #616161616161",
"LG c #606060606060",
"MG c #5F5F5F5F5F5F",
"NG c #5E5E5E5E5E5E",
"OG c #5D5D5D5D5D5D",
"PG c #5C5C5C5C5C5C",
"AH c #5B5B5B5B5B5B",
"BH c #5A5A5A5A5A5A",
"CH c #595959595959",
"DH c #585858585858",
"EH c #575757575757",
"FH c #565656565656",
"GH c #555555555555",
"HH c #545454545454",
"IH c #535353535353",
"JH c #525252525252",
"KH c #515151515151",
"LH c #505050505050",
"MH c #4F4F4F4F4F4F",
"NH c #4E4E4E4E4E4E",
"OH c #4D4D4D4D4D4D",
"PH c #4C4C4C4C4C4C",
"AI c #4B4B4B4B4B4B",
"BI c #4A4A4A4A4A4A",
"CI c #494949494949",
"DI c #484848484848",
"EI c #474747474747",
"FI c #464646464646",
"GI c #454545454545",
"HI c #444444444444",
"II c #434343434343",
"JI c #424242424242",
"KI c #414141414141",
"LI c #404040404040",
"MI c #3F3F3F3F3F3F",
"NI c #3E3E3E3E3E3E",
"OI c #3D3D3D3D3D3D",
"PI c #3C3C3C3C3C3C",
"AJ c #3B3B3B3B3B3B",
"BJ c #3A3A3A3A3A3A",
"CJ c #393939393939",
"DJ c #383838383838",
"EJ c #373737373737",
"FJ c #363636363636",
"GJ c #353535353535",
"HJ c #343434343434",
"IJ c #333333333333",
"JJ c #323232323232",
"KJ c #313131313131",
"LJ c #303030303030",
"MJ c #2F2F2F2F2F2F",
"NJ c #2E2E2E2E2E2E",
"OJ c #2D2D2D2D2D2D",
"PJ c #2C2C2C2C2C2C",
"AK c #2B2B2B2B2B2B",
"BK c #2A2A2A2A2A2A",
"CK c #292929292929",
"DK c #282828282828",
"EK c #272727272727",
"FK c #262626262626",
"GK c #252525252525",
"HK c #242424242424",
"IK c #232323232323",
"JK c #222222222222",
"KK c #212121212121",
"LK c #202020202020",
"MK c #1F1F1F1F1F1F",
"NK c #1E1E1E1E1E1E",
"OK c #1D1D1D1D1D1D",
"PK c #1C1C1C1C1C1C",
"AL c #1B1B1B1B1B1B",
"BL c #1A1A1A1A1A1A",
"CL c #191919191919",
"DL c #181818181818",
"EL c #171717171717",
"FL c #161616161616",
"GL c #151515151515",
"HL c #141414141414",
"IL c #131313131313",
"JL c #121212121212",
"KL c #111111111111",
"LL c #101010101010",
"ML c #0F0F0F0F0F0F",
"NL c #0E0E0E0E0E0E",
"OL c #0D0D0D0D0D0D",
"PL c #0C0C0C0C0C0C",
"AM c #0B0B0B0B0B0B",
"BM c #0A0A0A0A0A0A",
"CM c #090909090909",
"DM c #080808080808",
"EM c #070707070707",
"FM c #060606060606",
"GM c #050505050505",
"HM c #040404040404",
"IM c #030303030303",
"JM c #020202020202",
"KM c #010101010101",
"LM c #000000000000",
/* pixels */
"PHGIPHJHKHKHJHHHLHNHKHOHAINHJHJHAIKICJIJHJFJFJAJJIMIEJHJHJCJKIKIPIAJOIJIOHIHIHKHLHOHOHOHKHEHAHEHJHKHJHKHBINH",
"KIFKIKMKCLCLDLGLKLMLMLPLPLNLJLILKLILDLALOKMKNKCLFLGLGLJLKLOLAMCMDMDMEMEMEMGMHMJMJMJMKMJMJMJMIMIMHMFMCMNLILPI",
"NINKBLFLILILJLKLMLNLOLPLOLLLGLGLGLGLELELBLNKNKCLGLDLBLCLFLGLJLAMEMEMDMEMEMFMIMIMJMJMJMJMJMJMIMIMIMHMEMAMKLMI",
"AJBLILNLNLMLNLMLNLNLPLOLLLJLHLDLELGLFLGLELPKPKNKJKPJJJJJPJGKOKJLBMDMDMEMEMFMHMIMIMIMJMJMJMJMJMJMIMGMFMDMOLMI",
"IJJLOLBMBMPLNLMLOLPLOLLLJLILHLDLELFLCLCLFLDLNKOJJIKHEIEIIHFIHJMKKLBMDMEMEMEMFMIMIMIMIMJMJMKMKMJMIMGMFMDMBMBJ",
"DKOLBMCMEMCMBMAMAMAMNLLLJLILILHLELDLCLFLHLELDKEIOIFMLMLMEMJIMHLJPKKLPLAMBMDMGMHMHMGMGMHMIMKMJMJMHMFMDMBMAMCJ",
"HKBMDMEMGMGMEMEMDMBMPLNLMLILILILDLOKBLGLILPKDJIIKMJMNJNJJMKMAIHIEKELLLLLPLCMEMGMFMFMEMFMHMHMHMHMGMEMCMAMPLOI",
"CKEMFMGMHMGMEMEMCMCMBMAMOLKLILGLALPKPKDLGLLKHIJKLMFFBBBBJFLMFKIHOJALILKLOLPLPLBMBMBMCMDMDMEMGMGMEMCMBMBMBMMI",
"LJGMGMGMGMFMFMFMEMDMEMDMBMNLILFLBLPKMKALFLJKEIALLMODJAJAAELMMKDHJJNKGLILJLMLLLKLLLNLOLAMOLOLAMBMCMBMBMCMCMMI",
"GJHMFMEMFMGMHMHMGMGMHMGMDMAMKLDLCLALMKALDLKKJILJLMLIBCBCPILMEJIHKJKKALCLBLDLELCLELJLKLLLLLILHLILLLOLAMBMBMAJ",
"IJHMGMGMGMHMIMJMIMIMIMHMEMCMLLDLELBLOKBLDLIKKIPFNJLMLMLMLMKJIFPHKJGKIKIKFKGKJKLKALCLFLGLFLCLBLNKPKELKLNLNLGJ",
"JJGMHMHMGMHMIMIMJMJMIMIMGMCMLLELDLFLDLALLKNJPHCFLECMLMLMBMIEPEHHCJMJOJPJLJKJAKFKLKLKOKALNKMKLKFKHKNKCLGLKLKJ",
"IJGMIMIMHMHMIMHMHMIMJMIMHMDMNLGLDLFLELLKIJBIEGMIIMJMHGIGJMIMIIMFHHIIAJGJHJJJLJDKIKKKJKLKKKIKHKDKEKKKNKELJLOJ",
"KJHMIMIMHMHMHMGMHMHMHMHMHMEMAMILDLBLIKGJKHKGCLLMELBDGAGACDGLLMPKAGJGNHJIEJMJCKJKNKNKNKMKNKOKNKFKGKLKOKBLJLMJ",
"HJGMHMIMHMHMGMEMFMGMGMHMGMFMAMILPKDKNIBHPHEMLMJHJBGACACAGAKBLHLMCMEHDGMHBJPJKKMKPKBLDLCLCLELELPKKKMKALELILJJ",
"CJFMFMHMFMFMEMBMDMFMFMGMGMEMOLELEKKIIGBJLMIMHELAEABAAAAABAEAKAJEJMKMLIBGCIMJJKNKPKELILILILJLILILDLPKDLILILHJ",
"BJFMEMEMCMDMCMBMDMGMFMFMFMDMLLLKPILGCKLMAMFDJADAAAAAAAAAAAAADAIAHDBMLMNJHGJIAKLKBLELGLMLNLMLKLLLILHLJLKLLLFJ",
"NIEMBMPLOLPLAMBMDMEMEMFMEMAMBLFJAHGKLMJLJCGACAAAAAAAAAAAAAAAAACAGAMCLLLMCKKGKIEKBLDLHLMLOLOLNLMLMLMLMLNLLLBJ",
"FIBMMLJLLLLLMLPLCMDMDMEMCMILAKGHNJLMJLFCFABAAAAAAAAAAAAAAAAAAAAABAGAHCLLLMHJOGFJLKCLHLLLMLOLAMPLPLMLOLNLKLNI",
"CINLILHLGLFLHLMLAMCMEMEMPLNKIIGILMEMKCFABAAAAAAAAAACCHCHACAAAAAAAABAGAOCGMLMPHPHPJNKELHLJLNLOLPLAMNLMLLLILII",
"NHGLGLELALPKDLJLNLBMEMEMJLLJHHEMLMGEGABAAAAAAAAAAANCLMLMNCAAAAAAAAAABAGAJELMCMPGPIHKPKBLGLMLNLOLOLOLLLILILBI",
"IHDLALOKLKMKALELKLAMEMBMOKGIKJLMCJKACAAAAAAAAAAAAANCLMLMNCAAAAAAAAAAAACALAGJLMGJNHOJLKNKELKLMLLLMLLLKLJLKLOH",
"FHBLOKJKIKEKGKNKFLOLDMNLCKEHDMLMICEAAAAAAAAAAAEIKLPLLMLMPLKLEIAAAAAAAAAAEALCLMBMMGEJGKMKFLKLLLMLMLJLILJLJLGH",
"AHNKKKIKGKBKAKKKFLNLBMILHJDILMNJKABAAAAAAAAAAACJLMLMLMLMLMLMCJAAAAAAAAAABAKAPJLMMHJIEKOKFLILKLNLLLKLFLELELMG",
"PGMKLKIKIKCKFKPKILAMBMELPIEJLMHGGAAAAAAAAAAAAAEDCEAGLMLMAGCEEDAAAAAAAAAAAAHALGLMPIBIDKALDLFLILJLKLJLFLBLPKIG",
"AHMKNKLKIKGKKKALKLAMAMCLMIMJLMKFGAAAAAAAAAAAAAAAAANCLMLMNCAAAAAAAAAAAAAAAAGANFLMIJCIEKBLBLBLALALELGLELOKLKLG",
"DHNKOKOKLKMKPKDLKLPLPLCLOIGJLMEHHAAAAAAAAAAAAAAAAANCLMLMNCAAAAAAAAAAAAAAAAHAJHLMCJGIIKBLBLLKGKKKOKOKALKKFKDH",
"EHBLALCLDLDLELGLJLNLOLGLGJEILMALMACAAAAAAAAAAAAAAANCLMLMNCAAAAAAAAAAAAAACAOAELLMPHNINKELALHKEKFKLKNKGKOJOJJH",
"IHHLFLELHLGLGLJLMLBMBMLLCKFHAMLMJDFAAAAAAAAAAAAAAADCLILIDCAAAAAAAAAAAABAFAKDLMPLBHKJALDLLKEKBKPJEKEKMJHJLJAI",
"PHOLMLLLJLHLHLKLPLDMFMAMOKJIAJLMLKDBCAAAAAAAAAAAAAAAAAAAAAAAAAAAAAAAAADAEBOKLMAJHIIKELBLGKCKBKJJCJFJAJEJNJDI",
"NIAMBMAMLLGLFLLLPLCMFMDMHLMJCHKLLMNFHACAAAAAAAAAAAAAAAAAAAAAAAAAAAAACAIACGLMKLEHLJCLDLNKFKFKDKFJHIGILICJOJFI",
"HJFMEMDMPLJLILMLPLCMFMFMPLNKKIFHHMKMODFABABAIBJCIDAEDEDEPDIDICHBAABAGACEKMHMKHOIMKGLBLJKEKEKCKGJGIAIIIDJOJNI",
"PJIMHMFMCMOLNLOLPLBMDMFMDMJLAKGHPHLMJMGFFHHLLMLMLMLMLMLMLMLMLMLMGLEHIFJMLMFICIFKELGLBLLKDKAKAKJJBJLINIDJNJCJ",
"AKJMIMIMGMDMBMOLNLNLOLBMCMNLNKNIFGKILMLMLMLMDLHIKGIFCFCFIFLGIIELLMLMLMLMAJGHNJDLILHLFLDLJKCKOJPJPJOJJJHJPJEJ",
"EKIMJMIMGMGMDMPLLLJLJLMLNLKLALLJLHOEEKLMKGLBAAAAAAAAAAAAAAAAAAAAMBMGLMFKLFPINKKLLLILGLFLOKHKEKFKHKIKPJKJAKLJ",
"MKJMIMGMGMEMEMBMLLILHLGLFLFLOKOJHIIFFKLMCDCAAAAAAAAAAAAAAAAAAAAACAEDLMFKFGJJELNLNLLLHLELCLOKOKNKNKKKPJLJBKCK",
"OKJMHMGMEMDMCMBMNLHLCLOKNKMKKKAKGIIFBMLMPBBAAAAAAAAAAAAAAAAAAAAACACCLMAMCGHJCLOLPLKLHLFLFLDLBLELBLIKDKBKDKKK",
"ALHMHMGMEMCMBMOLLLHLDLNKIKHKHKOJPHNGLMHLMADABAAAAAAAAAAAAAAAAABADAOALLLMBHLINKKLOLJLHLHLGLDLALCLPKKKIKIKGKNK",
"ALHMHMHMFMCMOLKLJLILGLBLHKGKEKHJHHFJLMBKEEAEODNDMDMDMDMDMDMDNDPDBEFEEKLMGJAICKELJLFLHLGLDLALMKLKLKLKMKKKIKPK",
"KKIMHMFMDMOLMLJLILHLFLPKJKIKDKCJJHCMLMLMLMLMLMLMLMLMLMLMLMLMLMLMLMLMLMLMCMAILJJKMKMKPKALNKHKCKFKFKEKJKKKMKOK",
"GKHMGMDMPLLLJLFLDLNKHKAKOJMJIJLIEIOIPHFHLGLHLMILOEFJLMLMEJPEJLLMMHPGMHHIFJLIAJHJFJIJLJNJMJGJFJKJMJLJEKJKOKOK",
"GKDMCMPLNLILDLKKOJCJEIMHJHIHGHOGPFNEODGDADOJLMBFDADHLMLMPGEADFLMNJEDMDKEJFKGDHIHGHEHFHIHJHNHEILIAJJJDKJKNKNK",
"PJOLJLHLFLBLFKPIIHDHPHKHJHJHIHEHPGJGHGCHOKLMJKABJAMKLLNLHKJACBLKLMNKJHBHDHHHKHKHIHEHFHFHMFHFFGKHJIDJLJDKIKJK",
"JJILELELPKDKKIDHHKLMLMLMLMLMLMLMLMLMLMLMLMOKDCJAIDLMOIAJLMDDJAECPKLMLMLMLMLMLMLMLMLMLMLMKMMJDFEGAINIIJMJBKFK",
"DJFLFLCLGKKIFHPLLMDLHHPGPGPGPGPGOGNGBGKEPCNAJAGCHLKMDFFFLMELECJAPAADMECGOGPGPGPGPGPGPGHHELLMLLLFJGCIFJNJDKDK",
"IIILHLOKIJOGMKLMAJFBKAHAHAHAHAGAGAGAFAFAGAKANDAMLMHJGFFFIJLMPLLDKAHAGAGAHAHAHAHAHAHAHAJAGBDJLMFKDFDHOIKJBKBK",
"AIKLFLIKKIPGLMHLNBOALAKAKAKAKAJAJAJAKAPACDOILMLMGKKGNHKHGGHKLMLMMICDBBLALALALALALAKAKALAOAOBILLMPFKGHIGJKJPJ",
"BIFLPKCKDILILMHMMLLLLLLLLLLLLLLLLLLLLLEMLMLMDMJINGMINJJJHIMGLIEMLMLMEMLLLLLLLLLLLLLLLLLLLLMLGMLMBIKGFIBJIJJJ",
"DIIKHKBKJIOJLMLMLMLMLMLMLMLMLMLMLMLMLMGMPKMIKGNHCJEKOKOKFKEJLHMGPIBLHMLMLMLMLMLMLMLMLMLMLMLMLMLMGJFHMIFJJJBJ",
"FIBKBKAKDJAIMGPFFFDFJFLFLFKFJFEFAFCFJFOFMGNHBJBKKKALFLILGLOKBKBJBIEHLGJGGGFGGGEGEGHGHGGGDGPFOFEGDHCICJKJMJMI",
"FICKPJOJKJGJNIFIAIOHBICIGICIBIBINHPHJIPIHJAKJKNKALDLHLMLLLJLFLPKJKDKNJLJJJIJJJGJFJJJJJHJEJPILIJIJIAJEJKJCKHI",
"EIFKBKAKBKCKBKLJKJNJEJGJNJKJLJMJLJPJEKIKKKMKPKOKPKELILLLNLNLOLOLNLLLHLHLFLFLFLCLBLELFLELALMKIKCKMJMJLJCKKKDI",
"DIGKFKGKGKFKHKCKDKIKPJPJEKEKGKJKLKMKNKMKMKPKNKNKOKDLHLJLNLAMCMEMEMCMCMDMBMAMPLOLNLNLPLPLOLKLELOKLKJKJKPKELBI",
"KHGIIIEIJHAHPGBHNGLGLGIGIGLGEHAIDIHIMIIIIIOIBJPIJIKIKIIIJIIIFIGIIIMIBJCJIJHJCJAJAJPIPIPINIOIDJMJCKCKKJBJJIEH"};
