/* XPM */
static char *bll560[] = {
/* width height ncolors chars_per_pixel */
"54 54 85 2",
/* colors */
"AA c #FFFFFFFFFFFF",
"BA c #F4F4F4F4F4F4",
"CA c #F3F3F3F3F3F3",
"DA c #F2F2F2F2F2F2",
"EA c #F1F1F1F1F1F1",
"FA c #F0F0F0F0F0F0",
"GA c #EFEFEFEFEFEF",
"HA c #EEEEEEEEEEEE",
"IA c #EDEDEDEDEDED",
"JA c #ECECECECECEC",
"KA c #EAEAEAEAEAEA",
"LA c #E9E9E9E9E9E9",
"MA c #E8E8E8E8E8E8",
"NA c #E7E7E7E7E7E7",
"OA c #E6E6E6E6E6E6",
"PA c #E5E5E5E5E5E5",
"AB c #E4E4E4E4E4E4",
"BB c #E3E3E3E3E3E3",
"CB c #E2E2E2E2E2E2",
"DB c #E1E1E1E1E1E1",
"EB c #E0E0E0E0E0E0",
"FB c #DFDFDFDFDFDF",
"GB c #DEDEDEDEDEDE",
"HB c #DDDDDDDDDDDD",
"IB c #DCDCDCDCDCDC",
"JB c #DBDBDBDBDBDB",
"KB c #DADADADADADA",
"LB c #D9D9D9D9D9D9",
"MB c #D8D8D8D8D8D8",
"NB c #D7D7D7D7D7D7",
"OB c #D6D6D6D6D6D6",
"PB c #D5D5D5D5D5D5",
"AC c #D4D4D4D4D4D4",
"BC c #D3D3D3D3D3D3",
"CC c #D2D2D2D2D2D2",
"DC c #D1D1D1D1D1D1",
"EC c #D0D0D0D0D0D0",
"FC c #CFCFCFCFCFCF",
"GC c #CECECECECECE",
"HC c #CDCDCDCDCDCD",
"IC c #CCCCCCCCCCCC",
"JC c #CBCBCBCBCBCB",
"KC c #CACACACACACA",
"LC c #C9C9C9C9C9C9",
"MC c #C7C7C7C7C7C7",
"NC c #C5C5C5C5C5C5",
"OC c #C4C4C4C4C4C4",
"PC c #C3C3C3C3C3C3",
"AD c #C2C2C2C2C2C2",
"BD c #C0C0C0C0C0C0",
"CD c #BFBFBFBFBFBF",
"DD c #BEBEBEBEBEBE",
"ED c #BDBDBDBDBDBD",
"FD c #BCBCBCBCBCBC",
"GD c #BBBBBBBBBBBB",
"HD c #BABABABABABA",
"ID c #B9B9B9B9B9B9",
"JD c #B8B8B8B8B8B8",
"KD c #B5B5B5B5B5B5",
"LD c #B4B4B4B4B4B4",
"MD c #B3B3B3B3B3B3",
"ND c #B2B2B2B2B2B2",
"OD c #AFAFAFAFAFAF",
"PD c #A5A5A5A5A5A5",
"AE c #9F9F9F9F9F9F",
"BE c #969696969696",
"CE c #8F8F8F8F8F8F",
"DE c #878787878787",
"EE c #7F7F7F7F7F7F",
"FE c #787878787878",
"GE c #6F6F6F6F6F6F",
"HE c #686868686868",
"IE c #5F5F5F5F5F5F",
"JE c #595959595959",
"KE c #4F4F4F4F4F4F",
"LE c #4A4A4A4A4A4A",
"ME c #3F3F3F3F3F3F",
"NE c #3B3B3B3B3B3B",
"OE c #2F2F2F2F2F2F",
"PE c #2C2C2C2C2C2C",
"AF c #1F1F1F1F1F1F",
"BF c #1D1D1D1D1D1D",
"CF c #0F0F0F0F0F0F",
"DF c #0E0E0E0E0E0E",
"EF c #000000000000",
/* pixels */
"JBMBMBOBACACPBACCCBCDCGCJCGCGCFCCCBCCCOBKBHBCBPAOAOAABGBIBIBKBNBBCCCECFCECDCDCPBLBJBJBJBGBEBBBBBABPANAKAJAKA",
"FBFAFAFAFAFAFAFAFAFAFAFAFAFAFAFAFAFAFAFAFAFAFAFAFAFAFAFAFAFAFAFAFAFAFAFAFAFAFAFAFAFAFAFAFAFAFAFAFAFAFAFAFALA",
"EBFAFAFAFAFAFAFAFAFAFAFAFAFAFAFAFAFAFAFAFAFAFAFAFAFAFAFAFAFAFAFAFAFAFAFAFAFAFAFAFAFAFAFAFAFAFAFAFAFAFAFAFAMA",
"BBFAFAFAFAFAFAFAFAFAFAFAFAFAFAFAFAFAFAFAFAFAFAFAFAFAFAFAFAFAFAFAFAFAFAFAFAFAFAFAFAFAFAFAFAFAFAFAFAFAFAFAFANA",
"PAFAFAFAFAFAFAFAFAFAFAFAFAFAFAFAFAFAFAFAFAFAFAFAFAIAICICIAFAFAFAFAFAFAFAFAFAFAFAFAFAFAFAFAFAFAFAFAFAFAFAFAOA",
"PAFAFAFAFAFAFAFAFAFAFAFAFAFAFAFAFAFAFAFAFAFAFADAPDBFEFEFBFODFAFAFAFAFAFAFAFAFAFAFAFAFAFAFAFAFAFAFAFAFAFAFANA",
"ABFAFAFAFAFAFAFAFAFAFAFAFAFAFAFAFAFAFAFAFAFAFAJDEFEFBFBFEFEFEDFAFAFAFAFAFAFAFAFAFAFAFAFAFAFAFAFAFAFAFAFAFAOA",
"ABFAFAFAFAFAFAFAFAFAFAFAFAFAFAFAFAFAFAFAFAFADAKEEFFEAAAAGEEFJEFAFAFAFAFAFAFAFAFAFAFAFAFAFAFAFAFAFAFAFAFAFAAB",
"BBFAFAFAFAFAFAFAFAFAFAFAFAFAFAFAFAFAFAFAFAFAFAMEEFPDAAAAPDEFNEEAFAFAFAFAFAFAFAFAFAFAFAFAFAFAFAFAFAFAFAFAFADB",
"CBFAFAFAFAFAFAFAFAFAFAFAFAFAFAFAFAFAFAFAFAFAGAHEEFJEFAFAKEEFHEFAFAFAFAFAFAFAFAFAFAFAFAFAFAFAFAFAFAFAFAFAFAFB",
"BBFAFAFAFAFAFAFAFAFAFAFAFAFAFAFAFAFAFAFAFAFAFAHBOEEFEFEFEFNEDBFAFAFAFAFAFAFAFAFAFAFAFAFAFAFAFAFAFAFAFAFAFAFB",
"BBFAFAFAFAFAFAFAFAFAFAFAFAFAFAFAFAFAFAFAFAFAFAFALCDFEFEFDFJCFAFAFAFAFAFAFAFAFAFAFAFAFAFAFAFAFAFAFAFAFAFAFAJB",
"CBFAFAFAFAFAFAFAFAFAFAFAFAFAFAFAFAFAFAFAFAFAIADEDFEFKEKEEFDFDEHAFAFAFAFAFAFAFAFAFAFAFAFAFAFAFAFAFAFAFAFAFAOB",
"DBFAFAFAFAFAFAFAFAFAFAFAFAFAFAFAFAFAFAFAFAHBMEEFDFPDAAAAAEDFEFMEFBFAFAFAFAFAFAFAFAFAFAFAFAFAFAFAFAFAFAFAFAAC",
"EBFAFAFAFAFAFAFAFAFAFAFAFAFAFAFAFAFAFAFANDCFEFLEIBAAAAAAAAHBMEEFBFLDFAFAFAFAFAFAFAFAFAFAFAFAFAFAFAFAFAFAFABC",
"FBFAFAFAFAFAFAFAFAFAFAFAFAFAFAFAFAFADADEEFEFFEAAAAAAAAAAAAAAAAFEEFEFCEFAFAFAFAFAFAFAFAFAFAFAFAFAFAFAFAFAFAAC",
"FBFAFAFAFAFAFAFAFAFAFAFAFAFAFAFAFAHAHEEFDFAEAAAAAAAAAAAAAAAAAAAAAEEFEFGEHAFAFAFAFAFAFAFAFAFAFAFAFAFAFAFAFAPB",
"GBFAFAFAFAFAFAFAFAFAFAFAFAFAFAFAHAIEEFDFKDAAAAAAAAAAAAAAAAAAAAAAAAKDDFEFHEFAFAFAFAFAFAFAFAFAFAFAFAFAFAFAFALB",
"HBFAFAFAFAFAFAFAFAFAFAFAFAFAFAFAGEEFDFBDAAAAAAAAAAAAAAAAAAAAAAAAAAAAEDDFEFEEHAFAFAFAFAFAFAFAFAFAFAFAFAFAFAGB",
"IBFAFAFAFAFAFAFAFAFAFAFAFAFAHAODEFEFKDAAAAAAAAAAAANBFEGELBAAAAAAAAAAAAODEFEFODFAFAFAFAFAFAFAFAFAFAFAFAFAFADB",
"LBFAFAFAFAFAFAFAFAFAFAFAFAFAEBCFEFDEAAAAAAAAAAAAAAIDEFEFHDAAAAAAAAAAAAAAEEEFBFDBFAFAFAFAFAFAFAFAFAFAFAFAFADB",
"OBFAFAFAFAFAFAFAFAFAFAFAFAFAFEEFOEAAAAAAAAAAAAAAAAIDEFEFJDAAAAAAAAAAAAAAAAOEEFFEFAFAFAFAFAFAFAFAFAFAFAFAFABB",
"BCFAFAFAFAFAFAFAFAFAFAFAFAJABFEFBDAAAAAAAAAAAAJEPEBFEFEFBFPEJEAAAAAAAAAAAAJDEFBFJAFAFAFAFAFAFAFAFAFAFAFAFAAB",
"GCFAFAFAFAFAFAFAFAFAFAFAFAMDEFPEAAAAAAAAAAAAAANEEFEFEFEFEFEFNEAAAAAAAAAAAAAAPEEFKDFAFAFAFAFAFAFAFAFAFAFAFAPA",
"MCFAFAFAFAFAFAFAFAFAFAFAFAEEEFHEAAAAAAAAAAAAAABEFEJEEFEFJEFEBEAAAAAAAAAAAAAAIEEFEEEAFAFAFAFAFAFAFAFAFAFAFAOA",
"PCFAFAFAFAFAFAFAFAFAFAFAHAGEEFFEAAAAAAAAAAAAAAAAAAIDEFEFIDAAAAAAAAAAAAAAAAAAFEEFGEFAFAFAFAFAFAFAFAFAFAFAFANA",
"ADFAFAFAFAFAFAFAFAFAFAFAFAFEEFIEAAAAAAAAAAAAAAAAAAIDEFEFIDAAAAAAAAAAAAAAAAAAJEEFFEEAFAFAFAFAFAFAFAFAFAFAFAPA",
"NCFAFAFAFAFAFAFAFAFAFAFAGAPDEFPEAAAAAAAAAAAAAAAAAAIDEFEFJDAAAAAAAAAAAAAAAAAAAFEFPDFAFAFAFAFAFAFAFAFAFAFAFANA",
"KCFAFAFAFAFAFAFAFAFAFAFAFAOACFEFHDAAAAAAAAAAAAAAAANCPEPEPCAAAAAAAAAAAAAAAAMDEFCFJAFAFAFAFAFAFAFAFAFAFAFAFANA",
"HCFAFAFAFAFAFAFAFAFAFAFAFAFAFEEFPEAAAAAAAAAAAAAAAAAAAAAAAAAAAAAAAAAAAAAABAPEEFEEFAFAFAFAFAFAFAFAFAFAFAFAFANA",
"CCFAFAFAFAFAFAFAFAFAFAFAFAFABBBFEFDEAAAAAAAAAAAAAAAAAAAAAAAAAAAAAAAAAAAAEEEFBFDBFAFAFAFAFAFAFAFAFAFAFAFAFAMA",
"PBFAFAFAFAFAFAFAFAFAFAFAFAFAFAODEFEFMDAAAAAABAACGDODPDPDODEDPBBAAAAAAAODDFEFODFAFAFAFAFAFAFAFAFAFAFAFAFAFALA",
"NBFAFAFAFAFAFAFAFAFAFAFAFAFAFAFADEEFEFBEGEPEEFEFEFEFEFEFEFEFEFEFOEGEBEEFEFDEFAFAFAFAFAFAFAFAFAFAFAFAFAFAFAKA",
"MBFAFAFAFAFAFAFAFAFAFAFAFAFAFAFAGAIEEFEFEFEFDFOELEJEHEIEJELEPEDFEFEFEFEFIEEAFAFAFAFAFAFAFAFAFAFAFAFAFAFAFAKA",
"KBFAFAFAFAFAFAFAFAFAFAFAFAFAFAFAFAIAOEEFJEDDBAAAAAAAAAAAAAAAAACACDKEEFOEGAFAFAFAFAFAFAFAFAFAFAFAFAFAFAFAFAMA",
"JBFAFAFAFAFAFAFAFAFAFAFAFAFAFAFAFAEAMEEFNDAAAAAAAAAAAAAAAAAAAAAAAANDEFLEFAFAFAFAFAFAFAFAFAFAFAFAFAFAFAFAFAMA",
"KBFAFAFAFAFAFAFAFAFAFAFAFAFAFAFAFAGACFEFMBAAAAAAAAAAAAAAAAAAAAAAAAECEFCFCAFAFAFAFAFAFAFAFAFAFAFAFAFAFAFAFANA",
"KBFAFAFAFAFAFAFAFAFAFAFAFAFAFAFAFANCEFCFAAAAAAAAAAAAAAAAAAAAAAAAAAAACFEFLCFAFAFAFAFAFAFAFAFAFAFAFAFAFAFAFAMA",
"MBFAFAFAFAFAFAFAFAFAFAFAFAFAFAFAFAFEEFOELDMDMDMDMDMDMDMDMDMDMDMDNDNDOEEFEEHAFAFAFAFAFAFAFAFAFAFAFAFAFAFAFALA",
"LBFAFAFAFAFAFAFAFAFAFAFAFAFAFAFAOABFEFEFEFEFEFEFEFEFEFEFEFEFEFEFEFEFEFEFBFLAFAFAFAFAFAFAFAFAFAFAFAFAFAFAFAMA",
"LBFAFAFAFAFAFAFAFAFAFAFAFAFAFAFAFDIEIEIEIELEEFDFHEPEEFEFPEHEDFEFLEIEIEIEIEDDFAFAFAFAFAFAFAFAFAFAFAFAFAFAFANA",
"OBFAFAFAFAFAFAFAFAFAFAFAFAFAFAFAFAFAEADAIAMEEFGEAAIEEFEFIEAAGEEFLEJADAEAEAFAFAFAFAFAFAFAFAFAFAFAFAFAFAFAFAMA",
"PBFAFAFAFAFAFAFAFADBJDLDLDLDLDLDLDNDPDCENEEFBFIAAAAFCFDFPEAAJABFEFNECEPDLDLDLDLDLDLDLDJDCBFAFAFAFAFAFAFAFAOA",
"OBFAFAFAFAFAFACBHEEFEFEFEFEFEFEFEFEFEFEFEFCFADAABDEFMEMEEFOCAADDCFEFEFEFEFEFEFEFEFEFEFEFDFHEPAFAFAFAFAFAFACB",
"PBFAFAFAFAFANBAFEFCFLELELELELELELEKEJEFEPDGAAAEBAFEFODPDEFAFPAAAHAPDFEJELELELELELELELEMEDFEFPENBFAFAFAFAFAHB",
"CCFAFAFAFAFALEEFOELAAAAAAAAAAAAAAAAAAAAAAAAAEDCFEFKEGAGAKEEFBFFDAAAAAAAAAAAAAAAAAAAAAAAAABOEEFKEFAFAFAFAFALB",
"CCFAFAFAFABCEFCFNAAAAAAAAAAAAAAAAAAAAAAACCJEEFEFNEOAFAFADBOEEFEFIEBCAAAAAAAAAAAAAAAAAAAAAAFBCFEFPBFAFAFAFANB",
"NBFAFAFAGABEEFDFPEPEPEPEPEPEPEPEPEPEPEBFEFEFEFFEKAFAFAFAFAKAFEEFEFEFBFPEPEPEPEPEPEPEPEPEPEPEDFEFBEFAFAFAFAOB",
"IBFAFAFAFAFEEFEFEFEFEFEFEFEFEFEFEFEFEFEFBFHEACFAFAFAFAFAFAFAHACCHEBFEFEFEFEFEFEFEFEFEFEFEFEFEFEFFEFAFAFAFAAC",
"FBFAFAFAFADBPBPBPBPBPBPBPBPBPBPBPBPBPBDBFAFAFAFAFAFAFAFAFAFAFAFAGAHADBPBPBPBPBPBPBPBPBPBPBPBPBOBCBFAFAFAFAAC",
"GBFAFAFAFAFAFAFAFAFAFAFAFAFAFAFAFAFAFAFAFAFAFAFAFAFAFAFAFAFAFAFAFAFAFAFAFAFAFAFAFAFAFAFAFAFAFAFAFAFAFAFAFAMB",
"LBFAFAFAFAFAFAFAFAFAFAFAFAFAFAFAFAFAFAFAFAFAFAFAFAFAFAFAFAFAFAFAFAFAFAFAFAFAFAFAFAFAFAFAFAFAFAFAFAFAFAFAFAIB",
"NBFAFAFAFAFAFAFAFAFAFAFAFAFAFAFAFAFAFAFAFAFAFAFAFAFAFAFAFAFAFAFAFAFAFAFAFAFAFAFAFAFAFAFAFAFAFAFAFAFAFAFAFAEB",
"NBLBLBOBACECFCECCCCCDCGCICFCDCDCDCDCBCMBGBCBOAOAOAOAOAPAABBBABBBFBJBMBMBLBLBOBNBMBMBMBLBIBGBGBFBGBFBFBCBOAPA"};
