/* XPM */
static char *dsq560[] = {
/* width height ncolors chars_per_pixel */
"54 54 94 2",
/* colors */
"AA c #636363636363",
"BA c #606060606060",
"CA c #5F5F5F5F5F5F",
"DA c #5E5E5E5E5E5E",
"EA c #5C5C5C5C5C5C",
"FA c #5B5B5B5B5B5B",
"GA c #5A5A5A5A5A5A",
"HA c #585858585858",
"IA c #575757575757",
"JA c #565656565656",
"KA c #555555555555",
"LA c #545454545454",
"MA c #535353535353",
"NA c #525252525252",
"OA c #515151515151",
"PA c #505050505050",
"AB c #4E4E4E4E4E4E",
"BB c #4D4D4D4D4D4D",
"CB c #4C4C4C4C4C4C",
"DB c #4B4B4B4B4B4B",
"EB c #4A4A4A4A4A4A",
"FB c #494949494949",
"GB c #484848484848",
"HB c #474747474747",
"IB c #464646464646",
"JB c #454545454545",
"KB c #444444444444",
"LB c #434343434343",
"MB c #424242424242",
"NB c #414141414141",
"OB c #404040404040",
"PB c #3F3F3F3F3F3F",
"AC c #3E3E3E3E3E3E",
"BC c #3D3D3D3D3D3D",
"CC c #3C3C3C3C3C3C",
"DC c #3B3B3B3B3B3B",
"EC c #3A3A3A3A3A3A",
"FC c #393939393939",
"GC c #383838383838",
"HC c #373737373737",
"IC c #363636363636",
"JC c #353535353535",
"KC c #343434343434",
"LC c #333333333333",
"MC c #323232323232",
"NC c #313131313131",
"OC c #303030303030",
"PC c #2F2F2F2F2F2F",
"AD c #2E2E2E2E2E2E",
"BD c #2D2D2D2D2D2D",
"CD c #2C2C2C2C2C2C",
"DD c #2B2B2B2B2B2B",
"ED c #2A2A2A2A2A2A",
"FD c #292929292929",
"GD c #282828282828",
"HD c #272727272727",
"ID c #262626262626",
"JD c #252525252525",
"KD c #242424242424",
"LD c #232323232323",
"MD c #222222222222",
"ND c #212121212121",
"OD c #202020202020",
"PD c #1F1F1F1F1F1F",
"AE c #1E1E1E1E1E1E",
"BE c #1D1D1D1D1D1D",
"CE c #1C1C1C1C1C1C",
"DE c #1B1B1B1B1B1B",
"EE c #1A1A1A1A1A1A",
"FE c #191919191919",
"GE c #181818181818",
"HE c #171717171717",
"IE c #161616161616",
"JE c #151515151515",
"KE c #141414141414",
"LE c #131313131313",
"ME c #121212121212",
"NE c #111111111111",
"OE c #101010101010",
"PE c #0F0F0F0F0F0F",
"AF c #0E0E0E0E0E0E",
"BF c #0D0D0D0D0D0D",
"CF c #0C0C0C0C0C0C",
"DF c #0B0B0B0B0B0B",
"EF c #0A0A0A0A0A0A",
"FF c #090909090909",
"GF c #080808080808",
"HF c #070707070707",
"IF c #060606060606",
"JF c #050505050505",
"KF c #040404040404",
"LF c #030303030303",
"MF c #020202020202",
"NF c #010101010101",
/* pixels */
"CBJBCBNAOAOANALAPAABOABBDBABNANADBNBFCLCKCICICDCMBPBHCKCKCFCNBNBCCDCBCMBBBMAMAOAPABBBBBBOAIAFAIANAOANAOAEBAB",
"NBIDLDPDFEFEGEJENEPEPECFCFAFMELENELEGEDEBEPDAEFEIELELENEPEBFDFFFGFGFHFHFHFJFKFMFMFMFNFMFMFMFLFLFKFIFFFAFLECC",
"ACAEEEIELELEMENEPEAFBFCFBFOEJEJEJEJEHEHEEEAEBEIEPEAFAFBFBFPEPEEFHFHFGFHFHFIFLFLFMFMFMFMFMFMFLFLFLFKFHFDFNEPB",
"DCEELEAFAFPEAFPEAFAFCFBFOEMEKEGEHEJEIEJEHEDEGELEBFCFCFDFBFNEMEAFFFHFGFHFHFIFKFLFLFLFMFMFMFMFMFMFLFJFIFGFBFPB",
"LCMEBFEFEFCFAFPEBFCFBFOEMELEKEGEHEIEFEFEIEKENEPEBFCFBFBFPELEHEMEBFEFGFHFHFHFIFLFLFLFLFMFMFNFNFMFLFJFIFGFEFEC",
"GDBFEFFFHFFFEFDFDFDFAFOEMELELEKEHEGEFEIEMEAFBFCFDFCFBFAFNEKEHEIEKEOECFDFEFGFJFKFKFJFJFKFLFNFMFMFKFIFGFEFDFFC",
"KDEFGFHFJFJFHFHFGFEFCFAFPELELELEGEBEEEJEOEBFCFDFEFCFAFBFOEJEFEDEFEKEOEOECFFFHFJFIFIFHFIFKFKFKFKFJFHFFFDFCFBC",
"FDHFIFJFKFJFHFHFFFFFEFDFBFNELEJEDECECEGEOECFCFDFDFCFCFCFOEHEBEPDEEIELENEBFCFCFEFEFEFFFGFGFHFJFJFHFFFEFEFEFPB",
"OCJFJFJFJFIFIFIFHFGFHFGFEFAFLEIEEECEPDEEMEBFDFDFDFDFDFBFOEIEAEMDAEEEJELEMEPEOENEOEAFBFDFBFBFDFEFFFEFEFFFFFPB",
"JCKFIFHFIFJFKFKFJFJFKFJFGFDFNEGEFEDEPDEEKEAFDFEFEFFFEFBFPEJECEMDODAEDEFEEEGEHEFEHEMENEOEOELEKELEOEBFDFEFEFDC",
"LCKFJFJFJFKFLFMFLFLFLFKFHFFFOEGEHEEEBEFELENEAFAFBFDFCFNELEKEFEBEODNDMDLDIDJDMDODDEFEIEJEIEFEEEAECEHENEAFAFJC",
"MCJFKFKFJFKFLFLFMFMFLFLFJFFFOEHEGEIEHEHEJELEOEAFBFDFAFJEFEIEGECEPDJDEDDDOCNCDDIDODODBEDEAEPDODIDKDAEFEJENENC",
"LCJFLFLFKFKFLFKFKFLFMFLFKFGFAFJEGEKEMELEIEKEOEAFCFCFOEFEEEHEEEAEMDEDOCOCMCMCOCGDLDNDMDODNDLDKDGDHDNDAEHEMEBD",
"NCKFLFLFKFKFKFJFKFKFKFKFKFHFDFLEIEKEMEMELELEMEOEAFCFOEIEGEHEDEODKDEDOCLCMCBDFDMDAEAEAEPDAEBEAEIDJDODBEEEMEPC",
"KCJFKFLFKFKFJFHFIFJFJFKFJFIFDFNEKEKEKELELELEMEPEAFCFAFNEKEIEBEKDKDIDFDEDFDJDPDPDCEEEGEFEFEHEHECENDPDDEHELEMC",
"FCIFIFKFIFIFHFEFGFIFIFJFJFHFDFPENEKEIEIEIEKENEAFAFBFAFOEMEIEAEMDMDLDODODPDDEEECECEHELELELEMELELEGECEGELELEKC",
"ECIFHFHFFFGFFFEFGFJFIFIFIFHFGFDFPELEIEGEIEMEOEOEPEOENELEKEHEEEAEAECEDEDEGEHEHEFEGEHEJEPEAFPENEOELEKEMENEOEIC",
"ACHFEFCFBFCFDFEFGFHFHFIFIFIFHFFFCFMEFECEHEKELEKEKEJEIEGEGEHEHEFEFEIEKEKELEIEGEIEJEHEKEPEBFBFAFPEPEPEPEAFOEEC",
"IBEFPEMEOEOEPECFFFGFGFIFJFJFJFHFDFLEFECEEEHEHEGEHEGEFECECEFEGEHEHELEPEOENELEJEKEKEIEKEOEPEBFDFCFCFPEBFAFNEAC",
"FBAFLEKEJEIEKEPEDFFFHFJFKFLFKFIFCFLEFECEEEHEGEHEJEHEGECEBEEEGEKEMEPEAFPEAFAFNEMEKEHEIEKEMEAFBFCFDFAFPEOELELB",
"ABJEJEHEDECEGEMEAFEFHFKFMFMFLFJFEFMEGEFEEEFEFEHEIEIEGEDEDEGEKEOEAFBFAFPEAFCFAFOELEIEFEEEJEPEAFBFBFBFOELELEEB",
"MAGEDEBEODPDDEHENEDFIFLFMFMFLFJFFFCFLEIEFEDECEEEEEGEFEEEHEOEPEAFBFDFEFBFAFAFBFCFOEKEEEBEHENEPEOEPEOENEMENEBB",
"JAEEBEMDLDHDJDAEIEBFIFLFMFMFKFGFDFAFNEIEBEPDPDPDODAEBEEEJEOEAFDFFFGFGFFFCFCFCFCFPELEDEBEIENEOEPEPEMELEMEMEKA",
"FAAENDLDJDEDDDNDIEAFHFLFMFLFHFBFNENEJEDEODMDKDHDGDFDJDDEIELEAFDFIFIFIFIFHFEFDFAFOEKEFEEEIELENEAFOENEIEHEHECA",
"EAPDODLDLDFDIDCELEEFIFKFMFKFFFPENEKEEEPDLDIDCDNCNCADHDAEHELEOECFGFKFLFLFIFFFDFAFOEKEIEGEGEIELEMENEMEIEEECEAA",
"FAPDAEODLDJDNDDENEDFHFJFLFKFHFBFMEGEBEPDKDBDNCOCLCPCIDAEFEKEOEDFIFLFMFLFKFHFEFBFOEOEKEIEEEEEDEDEHEJEHEBEODBA",
"HAAEBEBEODPDCEGENECFGFJFKFLFJFCFMEFEODNDJDPCADPCJCCDKDMDDEIEOEDFIFLFMFLFLFKFGFDFAFAFNEIEEEODJDNDBEBEDENDIDHA",
"IAEEDEFEGEGEHEJEMEAFFFJFKFJFHFDFNEGEBEJDEDPCADPCPCFDKDNDCEIEMEBFHFKFMFLFMFLFIFFFBFOEOEKEDEKDHDIDODAEJDBDBDNA",
"MAKEIEHEKEJEJEMEPEEFGFJFKFKFIFEFPEGEAEGDDDFDGDEDGDIDLDNDDEHEKEAFEFKFMFMFMFMFKFHFEFBFNEIEODHDEDCDHDHDPCKCOCDB",
"CBBFPEOEMEKEKENECFGFIFKFKFLFJFFFPEFELDGDIDKDLDLDPDNDODCEBEEEKEOEEFKFMFMFNFMFLFJFHFDFNEEEJDFDEDMCFCICDCHCADGB",
"ACDFEFDFOEJEIEOECFFFIFJFIFIFGFCFPEFEIDIDKDLDPDAEEEEEBEDEEEGEGELEDFHFKFLFNFNFMFKFHFDFJEAEIDIDGDICKBJBOBFCBDIB",
"KCIFHFGFCFMELEPECFFFIFJFJFHFEFPELEDEHDFDJDPDCEFEGEHEFEEEBECEDEIEPEFFJFLFNFNFMFKFGFAFFEMDHDHDFDJCJBDBLBGCBDAC",
"CDLFKFIFFFBFAFBFCFEFGFIFJFHFCFLEGEPDKDGDJDCEFEEEFEGEEEAEODODCEIEMEDFHFKFLFLFLFIFCFMEEEODGDDDDDMCECOBACGCADFC",
"DDMFLFLFJFGFEFBFAFAFBFEFGFEFPEGEBENDMDLDODAECECEEECEAEODPDPDAEFELEAFEFIFJFKFIFFFAFLEIEGEMDFDBDCDCDBDMCKCCDHC",
"HDLFMFLFJFJFGFCFOEMEMEPEAFPEJECEAEPDNDAEBEODPDNDNDLDJDJDLDODAEFEKENEBFFFHFIFFFDFAFLEJEIEBEKDHDIDKDLDCDNCDDOC",
"PDMFLFJFJFHFHFEFOELEKEJEIEIEEEODBECEAECEDECEPDJDEDFDHDIDJDMDDEFEJEPEBFBFFFGFEFDFBFOEKEHEFEBEBEAEAENDCDOCEDFD",
"BEMFKFJFHFGFFFEFAFKEFEBEAEPDPDAEBECEDEEEFEBELDEDLCMCFDKDMDBEGEJELEOEAFBFDFEFDFEFCFNEKEIEIEGEEEHEEELDGDEDGDND",
"DEKFKFJFHFFFEFBFOEKEGEAELDKDODDEDEDEGEEEDENDFDNCLCKCCDHDODFEMEOEMEMEOEBFAFBFCFCFBFMEKEKEJEGEDEFECENDLDLDJDAE",
"DEKFKFKFIFFFBFNEMELEJEEEKDKDNDAEAEBEEEBELDEDOCKCJCKCOCDDLDGENENELEJEKEOEOELEMENEMEIEKEJEGEDEPDODODODPDNDLDCE",
"NDLFKFIFGFBFPENENEMEKEFEPDPDAEPDODMDKDGDDDPCMCLCLCKCNCDDNDGENEOEMEJEHEKEKEIEIEFEDECEEEFEBELDGDIDIDHDMDNDPDBE",
"JDKFJFGFCFPEOENENEMEIEDECEAECEBENDGDPCNCNCNCADCDADOCADGDPDFELENELEKEIEHEJEJEHEPDJDLDNDODJDPCLCPCPCOCHDMDBEBE",
"JDGFFFCFAFOEOEOENELEEEPDODODPDPDJDDDHCHCLCLCEDFDFDGDMDNDAEFEIEIEHEIEKEKELELEGEBEMDHDGDFDNCHCFCECFCNCGDMDAEAE",
"CDBFMEKELEOEAFPEOEKEBELDKDMDMDJDDDMCECDCJCOCJDLDODAEDEEEGEHEGEHEFEHELENENENEJEDEMDPCLCICDCACLBACECJCPCGDLDMD",
"MCLEHEJEJENEPEOELEIEBEKDJDLDLDHDPCGCCCCCKCCDNDCEFEHEIEJEJEJEGEHEIEKENEPEPENELEFEMDPCGCECBCMBJBPBGCHCMCPCEDID",
"GCIEIEKEKEJEIEHEEEEEBEPDMDKDJDIDNCGCECHCOCFDODFEJELEJEKEKEIECEFEJEMEOEBFPENEMEHEPDGDNCJCHCFCCCNBACDCMCBDGDGD",
"LBLEMEJEHEAEAEBEBECEBEPDNDKDIDFDMCGCHCFCOCHDAEIENENEKEIEHEHEEEGEKEMEMEMELELEKELEIEAEHDBDADADMCECMBMBHCOCEDED",
"DBNEKEGECEMDLDODBEDEBEPDLDKDGDOCICGCKCLCOCIDBEJELELEIEEEEEGEJEJEJELELEIEIEKEMEOEMEHEAELDLDIDPCLCCCLBDCKCNCCD",
"EBIEEEBEMDKDIDGDMDAEAEPDMDKDFDMCGCGCPCDDIDODCEHEIELEKEFEFEHEIEKENENEMEKEJELEMENEMEIEFEGEDEKDPCKCECNBDCHCLCMC",
"GBLDNDPDMDJDHDEDDDIDAEBEMDMDHDPCHCGCCDIDODDEGEKEIEJEJEKELEMEJEJEMENEMENEMEMENELELEMEMEKEHELDBDKCHCFCICKCMCEC",
"IBEDFDKDKDJDIDIDCDBDLDNDNDMDLDCDKCMCFDKDBEGEMENEKEIEKENEPEOENEMENENEPEAFOEOEAFMELEPEAFPEKEBEGDMCJCGCLCOCPCPB",
"IBFDDDEDGDKDKDIDEDDDGDHDNDHDGDGDBDDDODBEEEHEJEHEGEHELEPEPEPEPEPEAFCFBFDFBFCFCFPEOEDFCFAFMEGEODFDMCLCKCOCFDKB",
"HBIDEDEDGDKDMDIDHDKDBDDDKDHDIDJDIDMDBEEEEEEEFECECEHELEOEAFBFCFEFFFFFEFFFEFEFEFAFAFCFDFCFOEKEFENDEDCDADFDNDGB",
"GBJDIDJDKDJDLDGDIDMDDDDDIDIDKDODPDAECEAEAECEBEAEBEGEKEMEAFDFFFHFIFGFGFHFGFFFDFCFBFBFDFDFCFOEIECEODNDMDCEHEEB",
"OAJBLBHBNAFAEAGADABABAAAAABAIADBGBKBPBLBLBBCECCCMBNBNBLBMBLBIBJBLBPBECFCLCKCFCDCDCCCCCCCACBCGCPCFDFDNCECMBIA"};
