/* XPM */
static char *kdd560[] = {
/* width height ncolors chars_per_pixel */
"54 54 213 2",
/* colors */
"AA c #FFFFFFFFFFFF",
"BA c #FEFEFEFEFEFE",
"CA c #FDFDFDFDFDFD",
"DA c #FCFCFCFCFCFC",
"EA c #FBFBFBFBFBFB",
"FA c #FAFAFAFAFAFA",
"GA c #F9F9F9F9F9F9",
"HA c #F8F8F8F8F8F8",
"IA c #F7F7F7F7F7F7",
"JA c #F6F6F6F6F6F6",
"KA c #F5F5F5F5F5F5",
"LA c #F4F4F4F4F4F4",
"MA c #F3F3F3F3F3F3",
"NA c #F2F2F2F2F2F2",
"OA c #F1F1F1F1F1F1",
"PA c #F0F0F0F0F0F0",
"AB c #EFEFEFEFEFEF",
"BB c #EEEEEEEEEEEE",
"CB c #EDEDEDEDEDED",
"DB c #ECECECECECEC",
"EB c #EAEAEAEAEAEA",
"FB c #E9E9E9E9E9E9",
"GB c #E8E8E8E8E8E8",
"HB c #E7E7E7E7E7E7",
"IB c #E6E6E6E6E6E6",
"JB c #E5E5E5E5E5E5",
"KB c #E4E4E4E4E4E4",
"LB c #E3E3E3E3E3E3",
"MB c #E2E2E2E2E2E2",
"NB c #E1E1E1E1E1E1",
"OB c #DFDFDFDFDFDF",
"PB c #DEDEDEDEDEDE",
"AC c #DDDDDDDDDDDD",
"BC c #DBDBDBDBDBDB",
"CC c #D9D9D9D9D9D9",
"DC c #D8D8D8D8D8D8",
"EC c #D6D6D6D6D6D6",
"FC c #D1D1D1D1D1D1",
"GC c #D0D0D0D0D0D0",
"HC c #CFCFCFCFCFCF",
"IC c #CECECECECECE",
"JC c #CDCDCDCDCDCD",
"KC c #CCCCCCCCCCCC",
"LC c #CBCBCBCBCBCB",
"MC c #C9C9C9C9C9C9",
"NC c #C8C8C8C8C8C8",
"OC c #C6C6C6C6C6C6",
"PC c #C5C5C5C5C5C5",
"AD c #C2C2C2C2C2C2",
"BD c #BEBEBEBEBEBE",
"CD c #BCBCBCBCBCBC",
"DD c #BABABABABABA",
"ED c #B9B9B9B9B9B9",
"FD c #B7B7B7B7B7B7",
"GD c #B6B6B6B6B6B6",
"HD c #B5B5B5B5B5B5",
"ID c #B4B4B4B4B4B4",
"JD c #B3B3B3B3B3B3",
"KD c #B2B2B2B2B2B2",
"LD c #B0B0B0B0B0B0",
"MD c #AEAEAEAEAEAE",
"ND c #ADADADADADAD",
"OD c #ACACACACACAC",
"PD c #ABABABABABAB",
"AE c #A9A9A9A9A9A9",
"BE c #A8A8A8A8A8A8",
"CE c #A7A7A7A7A7A7",
"DE c #A6A6A6A6A6A6",
"EE c #A5A5A5A5A5A5",
"FE c #A4A4A4A4A4A4",
"GE c #A3A3A3A3A3A3",
"HE c #A2A2A2A2A2A2",
"IE c #A1A1A1A1A1A1",
"JE c #A0A0A0A0A0A0",
"KE c #9F9F9F9F9F9F",
"LE c #9E9E9E9E9E9E",
"ME c #9C9C9C9C9C9C",
"NE c #9B9B9B9B9B9B",
"OE c #989898989898",
"PE c #8F8F8F8F8F8F",
"AF c #8E8E8E8E8E8E",
"BF c #8D8D8D8D8D8D",
"CF c #898989898989",
"DF c #888888888888",
"EF c #878787878787",
"FF c #828282828282",
"GF c #808080808080",
"HF c #7F7F7F7F7F7F",
"IF c #7E7E7E7E7E7E",
"JF c #7D7D7D7D7D7D",
"KF c #7C7C7C7C7C7C",
"LF c #7B7B7B7B7B7B",
"MF c #797979797979",
"NF c #787878787878",
"OF c #777777777777",
"PF c #767676767676",
"AG c #757575757575",
"BG c #747474747474",
"CG c #737373737373",
"DG c #727272727272",
"EG c #717171717171",
"FG c #707070707070",
"GG c #6E6E6E6E6E6E",
"HG c #6D6D6D6D6D6D",
"IG c #6C6C6C6C6C6C",
"JG c #6B6B6B6B6B6B",
"KG c #6A6A6A6A6A6A",
"LG c #696969696969",
"MG c #686868686868",
"NG c #676767676767",
"OG c #666666666666",
"PG c #656565656565",
"AH c #646464646464",
"BH c #636363636363",
"CH c #626262626262",
"DH c #616161616161",
"EH c #606060606060",
"FH c #5F5F5F5F5F5F",
"GH c #5E5E5E5E5E5E",
"HH c #5D5D5D5D5D5D",
"IH c #5C5C5C5C5C5C",
"JH c #5B5B5B5B5B5B",
"KH c #5A5A5A5A5A5A",
"LH c #595959595959",
"MH c #585858585858",
"NH c #575757575757",
"OH c #565656565656",
"PH c #555555555555",
"AI c #545454545454",
"BI c #535353535353",
"CI c #525252525252",
"DI c #515151515151",
"EI c #505050505050",
"FI c #4F4F4F4F4F4F",
"GI c #4E4E4E4E4E4E",
"HI c #4D4D4D4D4D4D",
"II c #4C4C4C4C4C4C",
"JI c #4B4B4B4B4B4B",
"KI c #4A4A4A4A4A4A",
"LI c #494949494949",
"MI c #484848484848",
"NI c #474747474747",
"OI c #464646464646",
"PI c #454545454545",
"AJ c #444444444444",
"BJ c #434343434343",
"CJ c #424242424242",
"DJ c #414141414141",
"EJ c #404040404040",
"FJ c #3F3F3F3F3F3F",
"GJ c #3E3E3E3E3E3E",
"HJ c #3D3D3D3D3D3D",
"IJ c #3C3C3C3C3C3C",
"JJ c #3B3B3B3B3B3B",
"KJ c #3A3A3A3A3A3A",
"LJ c #393939393939",
"MJ c #383838383838",
"NJ c #373737373737",
"OJ c #363636363636",
"PJ c #353535353535",
"AK c #343434343434",
"BK c #333333333333",
"CK c #323232323232",
"DK c #313131313131",
"EK c #303030303030",
"FK c #2F2F2F2F2F2F",
"GK c #2E2E2E2E2E2E",
"HK c #2D2D2D2D2D2D",
"IK c #2C2C2C2C2C2C",
"JK c #2B2B2B2B2B2B",
"KK c #2A2A2A2A2A2A",
"LK c #292929292929",
"MK c #282828282828",
"NK c #272727272727",
"OK c #262626262626",
"PK c #252525252525",
"AL c #242424242424",
"BL c #232323232323",
"CL c #222222222222",
"DL c #212121212121",
"EL c #202020202020",
"FL c #1F1F1F1F1F1F",
"GL c #1E1E1E1E1E1E",
"HL c #1D1D1D1D1D1D",
"IL c #1C1C1C1C1C1C",
"JL c #1B1B1B1B1B1B",
"KL c #1A1A1A1A1A1A",
"LL c #191919191919",
"ML c #181818181818",
"NL c #171717171717",
"OL c #161616161616",
"PL c #151515151515",
"AM c #141414141414",
"BM c #131313131313",
"CM c #121212121212",
"DM c #111111111111",
"EM c #101010101010",
"FM c #0F0F0F0F0F0F",
"GM c #0E0E0E0E0E0E",
"HM c #0D0D0D0D0D0D",
"IM c #0C0C0C0C0C0C",
"JM c #0B0B0B0B0B0B",
"KM c #0A0A0A0A0A0A",
"LM c #090909090909",
"MM c #080808080808",
"NM c #070707070707",
"OM c #060606060606",
"PM c #050505050505",
"AN c #040404040404",
"BN c #030303030303",
"CN c #020202020202",
"DN c #010101010101",
"EN c #000000000000",
/* pixels */
"IIPIIICIDIDICIAIEIGIDIHIJIGICICIJIDJLJBKAKOJOJJJCJFJNJAKAKLJDJDJIJJJHJCJHIBIBIDIEIHIHIHIDINHJHNHCIDICIDIKIGI",
"DJOKBLFLLLLLMLPLDMFMFMIMIMGMCMBMDMBMMLJLHLFLGLLLOLBMBMDMFMHMJMLMMMMMNMNMNMPMANCNCNCNDNCNCNCNBNBNANOMLMGMBMIJ",
"GJGLKLOLBMBMCMDMFMGMHMIMHMEMPLPLPLPLNLNLKLGLHLOLFMFMFMHMHMFMFMKMNMNMMMNMNMOMBNBNCNCNCNCNCNCNBNBNBNANNMJMDMFJ",
"JJKLBMGMGMFMGMFMGMGMIMHMEMCMAMMLNLPLOLPLNLJLMLBMFMFMDMDMDMBMBMGMLMNMMMNMNMOMANBNBNBNCNCNCNCNCNCNBNPMOMMMHMFJ",
"BKCMHMKMKMIMGMFMHMIMHMEMCMBMAMMLNLOLLLLLOLAMCMDMPLJLDLDLGLKLLLBMHMKMMMNMNMNMOMBNBNBNBNCNCNDNDNCNBNPMOMMMKMKJ",
"MKHMKMLMNMLMKMJMJMJMGMEMCMBMBMAMNLMLLLOLCMFMEMAMFLEKFJFJAKNKFLLLPLEMIMJMKMMMPMANANPMPMANBNDNCNCNANOMMMKMJMLJ",
"ALKMMMNMPMPMNMNMMMKMIMGMFMBMBMBMMLHLKLPLDMEMPLDLPJJJKMKMGJGJGKALHLPLEMEMIMLMNMPMOMOMNMOMANANANANPMNMLMJMIMHJ",
"LKNMOMPMANPMNMNMLMLMKMJMHMDMBMPLJLILILMLBMOLALKJLHMHENENKHDHLIPJALKLBMDMHMIMIMKMKMKMLMMMMMNMPMPMNMLMKMKMKMFJ",
"EKPMPMPMPMOMOMOMNMMMNMMMKMGMBMOLKLILFLJLNLFLBKAKJIOIENENOIFIIJPIFKFLOLBMCMFMEMDMEMGMHMJMHMHMJMKMLMKMKMLMLMFJ",
"PJANOMNMOMPMANANPMPMANPMMMJMDMMLLLJLFLJLJLOKJJENENENENENENENENIIOJALILLLKLMLNLLLNLCMDMEMEMBMAMBMEMHMJMKMKMJJ",
"BKANPMPMPMANBNCNBNBNBNANNMLMEMMLNLKLHLKLKLNKJJENENENENENENENENOIPJNKBLBLOKPKCLELJLLLOLPLOLLLKLGLILNLDMGMGMPJ",
"CKPMANANPMANBNBNCNCNBNBNPMLMEMNLMLOLNLMLKLBLPJMILGBHENENNGGGGIGJGKLKJKJKEKDKIKOKELELHLJLGLFLELOKALGLLLPLDMDK",
"BKPMBNBNANANBNANANBNBNPMNMIMAMKLILNLAMPLLLILALLJIHFHENENAHBHBJDKLKIKDKCKPJOJAKIKNKBLALDLDLBLALMKNKDLGLNLCMHK",
"DKANBNBNANANANPMPMNMKMFMPLHLALJKJKALHLMLNLNLHLGKEIMHENENHHNHMJKKMKGKOJHJEJEJGJMJCKHKMKALDLGLGLOKPKELHLKLCMFK",
"AKPMANBNANANOMLMHMBMGLKKMJPIHICIEIPIMJKKELHLBLOJIHCHENENAHDHCJAKHKAKGJJIOHIHHHIHAILIKJFKPKHLLLHLDLFLJLNLBMCK",
"LJOMOMANOMNMJMBMILHKAJMHNIEKBLDLGKLICHDIHJBKLJBIDHGLENENELOGGHNIEJLILHLGGIEKCLOKPJEIDHHINJPKJLOLLLILMLBMBMAK",
"KJOMNMNMLMIMAMBLMJAIDJGMENENENENENENHMMINGLHEHOHPMENMMMMENOMIHLGDHJGMIHMENENENENENENEMNIKHHJLKKLOLAMCMDMEMOJ",
"GJNMKMIMEMOLOKDJMHFLENENHKLFEECEGFDKENENPKGFBGOMENBIJBLBEIENNMMFGFBLENENAKFFBEEELFJKENENCLJHBJLKMLCMEMGMEMKJ",
"OIKMFMAMMLMKPIMHFMENNLHEMAGAEAEAGAKAEEMLENPLILENFILAEDCDMAJIENHLBMENILAEKAFAEAEAGALAKEPLENDMLHDJALNLFMGMDMGJ",
"LIGMBMMLOKDJGHEMENDKACGACAMBFEFENBCAFANBAKENENGKBBPCOMNMMCCBJKENENMJLBFACAOBGEEEKBCAGABCGKENCMKHNJFLAMDMBMBJ",
"GIPLNLDLMJGHKKENFKKBEAABDHBNENENCNAHMACACBNJENCJFAOEENENNEGAFJENKJBBDAPAFHCNENENANOGOAEAMBIKENKKCIJKLLPLBMKI",
"BILLFLHKIIJHENJMECEAIBLKENENENENENENDKDBAAEBMLENAFCACKNJBAEFENJLDBAAGBIKENENENENENENGKFBDAFCKMDNOHGJELOLDMHI",
"OHJLBLMJHHFKENNFHAHACKENENENENENENENENDKNAAAMDENHMFBEDBDJBKMENKDAAABIKENENENENENENENENLJGAGABGENHKEIKKLLBMPH",
"JHFLLKEJJGJMENECDALEENENENENENENENENENENAHAAAABJENIFAAAANFENLIAAAAGHENENENENENENENENENENEEDAFCENIMGHAKFLMLFH",
"IHELLKAJLGENAMLACAAIENENENENENENENENENENCNICAAPCENFLCADAKLENNCAAKCDNENENENENENENENENENENLHCAMADMENFHLJALGLBH",
"JHELMKBJAHENPKKABAJJENENENENENENENENENENENMIAAAAEJENDDHDENPIAAAACJENENENENENENENENENENENIJBAKAALENHHIJNKCLEH",
"MHFLNKEJNGENHLLABAMIENENENENENENENENENENENENFCAAODENEHHHENJDAALCENENENENENENENENENENENENJICAKAJLENOGGJJKNKMH",
"NHJLALMJPGMMBNHBCAMFENENENENENENENENENENENENCGAAHAEMLLNLPLEAAAKGENENENENENENENENENENENENKFCAIBCNJMMGCJPJGKCI",
"BIPLHLEKNHPKENHEFAHCENENENENENENENENENENENENNLFAAAIHENENBHAAIACMENENENENENENENENENENENDNFCEAJEENJKAHOILJEKJI",
"IIGMBMBLNILIENGJJABAGIENENENENENENENENENENENENLDAABEENENLDAACEENENENENENENENENENENENENDIBAJAIJENKHBHKIJJGKMI",
"GJJMIMNLNJAHLMENFDEAPBHMENENENENENENENENENENENKHAAEBDNANOAAADIENENENENENENENENENENENGMOBEAGDENIMFFBHLIJJHKOI",
"AKOMMMFMOKEIJJENMKCBCANDCNENENENENENENENENENENDMDAAADKJJAAGAIMENENENENENENENENENENCNLDCACBOKENMIAGGHMILJHKGJ",
"IKBNPMKMMLOJGHHMENHGHABAJFENENENENENENENENENENENGCAAGGOFAANCENENENENENENENENENENENHFCAGAJGENDMBGJHJIEJLJGKLJ",
"JKCNBNPMIMELAJDICNCNFEGADAEHENENENENENENENENENENEEAAIEAEAAKEENENENENENENENENENENBHDAFAHECNCNDHHHEJBKBKAKIKNJ",
"NKBNCNANNMCMKKBIHJENMMCDFACAJHENENENENENENENENENBFAAMCHCAACFENENENENENENENENENJHDAFADDNMENOIOGBJGKPKIKDKJKEK",
"FLCNBNPMOMIMLLPJFHOKENDMICEAGAPHENENJMDJMFBEICDBBAAAKBFBAABADBJCDEOFEJKMENENNHGAEAKCDMENLKNGAJHKCLCLIKEKKKLK",
"HLCNANPMNMKMEMELHJDHHLENILFCEADAMEADFAAAAAAAAAAAAAAAKAGAAAAAAAAAAAAAAAGAADMEDAFAHCILENGLCHAJHKGLILBLMKKKMKDL",
"JLANANPMNMLMHMOLOKPINGFLENPLLCDAAAAAAAAAHBJDDFOGHIKJFKEKKJHIOGCFIDGBAAAAAAAADAMCAMENELPGPIHKCLJLILDLBLBLPKGL",
"JLANANANOMLMGMBMJLJKLIIGBLENAMOCGAGDNGPKENENENENENENENENENENENENENENOKMGFDFAPCBMENBLMGMIFKALCLELELELFLDLBLIL",
"DLBNANOMMMHMFMCMAMILFKCIIFNKENLMCMENENENENENENENENKMIFLFMMENENENENENENENENBMMMENMKJFCIBKOKOKLKOKOKNKCLDLFLHL",
"PKANPMMMIMFMEMDMDMOLALCJDGHKENCMENENENENENENENENOIACAAAADCIJENENENENENENENENCMENFKPFNIGKMKEKBKFKFKEKNKCLHLHL",
"PKMMLMIMGMEMEMEMDMAMPKDJFGCMENCCBFDMENENENENENHJOAAAAAAAAALAIJENENENENENCMPEECENBMAGLIBKCKNJLJKJLJDKMKCLGLGL",
"IKHMCMAMBMEMGMFMEMOLMKMIEGENBMJABACCEMENENENENENLLLDAAAAIDGLENENENENENDMBCBAKAEMDNNFPHEJHJGJBJGJKJPJFKMKBLCL",
"CKBMNLPLPLDMFMEMBMLLIKGICHENNJHAAEILENENENENENENENENNHNHENENENENENENENENHLPDIAAKENMGGHNIFJCJPIFJMJNJCKFKKKOK",
"MJOLOLAMAMPLOLNLKLGLEKCIEIENAKMJENENENENENENENENENENENENENENENENENENENENENENMJCKENAIEHPIJJLJIJDJGJJJCKHKMKMK",
"BJBMCMPLNLGLGLHLHLDLAKKHGJENFHAEPDPDPDPDPDPDPDPDPDPDPDPDPDPDPDPDPDPDPDPDPDPDAEHHENFJFHCJCKGKCKKJCJCJNJEKKKKK",
"JIDMAMMLILCLBLELHLDLNJFHJKENCEJAGAGAGAGAGAHAHAHAHAHAHAHAHAHAHAHAHAHAHAHAHAHAKAFEENJKGHJJLKNKFKBKIJBJJJAKDKIK",
"KIOLKLHLCLALOKMKBLPKLJGHPLENGKJJIJIJIJIJIJIJJJJJJJJJJJJJJJJJJJJJJJJJJJJJJJJJJJHKENPLLHBKCLPKFKAKKJDJJJNJBKCK",
"MIBLDLFLCLPKNKKKJKIKPJEICNENENENENENENENENENENENENENENENENENENENENENENENENENENENENBNNIJKHLALHKAKNJLJOJAKCKKJ",
"OIKKLKALALPKOKOKHKDKCKDJPIPHHHAHLGNGBHEHHHJHMHMHKHKHLHNHNHNHNHMHMHNHNHOHNHNHOHPHIIKJDKFLLLHLMKCKPJMJBKEKFKFJ",
"OILKJKKKMKALALOKKKGKFKNJIJKIEIDIPHBIJILIOIAJCJAJAJBJEJHJHJHJHJHJIJKJJJKJJJJJKJJJOJLKHLOLPLMLELLKCKBKAKEKLKAJ",
"NIOKKKKKMKALCLOKNKPKFKEKIKCKBKCKBKFKJKMKMKMKMKKKKKOKDLFLHLILJLLLMLMLLLMLKLKLLLILJLOLDMFMDMAMLLDLKKIKGKLKDLMI",
"MIPKOKPKALPKBLMKOKCLIKIKNKMKOKCLDLELFLELELGLELELFLJLOLPLEMHMJMLMLMKMKMLMJMIMHMGMFMGMIMJMIMEMOLILELDLCLILNLKI",
"DIPIBJNICIJHIHKHGHEHEHBHBHEHNHJIMIAJFJBJBJHJKJIJCJDJDJBJCJBJOIPIBJFJKJLJBKAKLJJJJJIJIJIJGJHJMJFKLKLKDKKJCJNH"};
