/* XPM */
static char *kdl560[] = {
/* width height ncolors chars_per_pixel */
"54 54 86 2",
/* colors */
"AA c #FFFFFFFFFFFF",
"BA c #F4F4F4F4F4F4",
"CA c #F3F3F3F3F3F3",
"DA c #F2F2F2F2F2F2",
"EA c #F1F1F1F1F1F1",
"FA c #F0F0F0F0F0F0",
"GA c #EFEFEFEFEFEF",
"HA c #EEEEEEEEEEEE",
"IA c #EDEDEDEDEDED",
"JA c #ECECECECECEC",
"KA c #EBEBEBEBEBEB",
"LA c #EAEAEAEAEAEA",
"MA c #E9E9E9E9E9E9",
"NA c #E8E8E8E8E8E8",
"OA c #E7E7E7E7E7E7",
"PA c #E6E6E6E6E6E6",
"AB c #E5E5E5E5E5E5",
"BB c #E4E4E4E4E4E4",
"CB c #E3E3E3E3E3E3",
"DB c #E2E2E2E2E2E2",
"EB c #E1E1E1E1E1E1",
"FB c #E0E0E0E0E0E0",
"GB c #DFDFDFDFDFDF",
"HB c #DEDEDEDEDEDE",
"IB c #DDDDDDDDDDDD",
"JB c #DCDCDCDCDCDC",
"KB c #DBDBDBDBDBDB",
"LB c #DADADADADADA",
"MB c #D9D9D9D9D9D9",
"NB c #D8D8D8D8D8D8",
"OB c #D7D7D7D7D7D7",
"PB c #D6D6D6D6D6D6",
"AC c #D5D5D5D5D5D5",
"BC c #D4D4D4D4D4D4",
"CC c #D3D3D3D3D3D3",
"DC c #D2D2D2D2D2D2",
"EC c #D1D1D1D1D1D1",
"FC c #D0D0D0D0D0D0",
"GC c #CFCFCFCFCFCF",
"HC c #CECECECECECE",
"IC c #CDCDCDCDCDCD",
"JC c #CCCCCCCCCCCC",
"KC c #CBCBCBCBCBCB",
"LC c #CACACACACACA",
"MC c #C7C7C7C7C7C7",
"NC c #C6C6C6C6C6C6",
"OC c #C5C5C5C5C5C5",
"PC c #C4C4C4C4C4C4",
"AD c #C3C3C3C3C3C3",
"BD c #C2C2C2C2C2C2",
"CD c #C1C1C1C1C1C1",
"DD c #BFBFBFBFBFBF",
"ED c #BDBDBDBDBDBD",
"FD c #BCBCBCBCBCBC",
"GD c #BBBBBBBBBBBB",
"HD c #BABABABABABA",
"ID c #B8B8B8B8B8B8",
"JD c #B7B7B7B7B7B7",
"KD c #B6B6B6B6B6B6",
"LD c #B5B5B5B5B5B5",
"MD c #B4B4B4B4B4B4",
"ND c #B3B3B3B3B3B3",
"OD c #B2B2B2B2B2B2",
"PD c #AFAFAFAFAFAF",
"AE c #A5A5A5A5A5A5",
"BE c #9F9F9F9F9F9F",
"CE c #969696969696",
"DE c #8F8F8F8F8F8F",
"EE c #878787878787",
"FE c #7F7F7F7F7F7F",
"GE c #787878787878",
"HE c #6F6F6F6F6F6F",
"IE c #686868686868",
"JE c #5F5F5F5F5F5F",
"KE c #595959595959",
"LE c #4F4F4F4F4F4F",
"ME c #4A4A4A4A4A4A",
"NE c #3F3F3F3F3F3F",
"OE c #3B3B3B3B3B3B",
"PE c #2F2F2F2F2F2F",
"AF c #2C2C2C2C2C2C",
"BF c #1F1F1F1F1F1F",
"CF c #1D1D1D1D1D1D",
"DF c #0F0F0F0F0F0F",
"EF c #0E0E0E0E0E0E",
"FF c #000000000000",
/* pixels */
"KBNBNBPBBCBCACBCDCCCECHCKCHCHCGCDCCCDCPBLBIBDBABPAPABBHBJBJBLBOBCCDCFCGCFCECECACMBKBKBKBHBFBCBCBBBABOALAJALA",
"GBFAFAFAFAFAFAFAFAFAFAFAFAFAFAFAFAFAFAFAFAFAFAFAFAFAFAFAFAFAFAFAFAFAFAFAFAFAFAFAFAFAFAFAFAFAFAFAFAFAFAFAFAMA",
"FBFAFAFAFAFAFAFAFAFAFAFAFAFAFAFAFAFAFAFAFAFAFAFAFAFAFAFAFAFAFAFAFAFAFAFAFAFAFAFAFAFAFAFAFAFAFAFAFAFAFAFAFANA",
"CBFAFAFAFAFAFAFAFAFAFAFAFAFAFAFAFAFAFAFAFAFAFAFAFAFAFAFAFAFAFAFAFAFAFAFAFAFAFAFAFAFAFAFAFAFAFAFAFAFAFAFAFAOA",
"ABFAFAFAFAFAFAFAFAFAFAFAFAFAFAFAFAFAFAFAFAFAFAFAFAFAFAFAFAFAFAFAFAFAFAFAFAFAFAFAFAFAFAFAFAFAFAFAFAFAFAFAFAPA",
"ABFAFAFAFAFAFAFAFAFAFAFAFAFAFAFAFAFAFAFAFAFAFAFAFAFAFAFAFAFAFAFAFAFAFAFAFAFAFAFAFAFAFAFAFAFAFAFAFAFAFAFAFAOA",
"BBFAFAFAFAFAFAFAFAFAFAFAFAFAFAFAFAFAFAFAFAFAFAFAFAFDPEPEEDFAFAFAFAFAFAFAFAFAFAFAFAFAFAFAFAFAFAFAFAFAFAFAFAPA",
"BBFAFAFAFAFAFAFAFAFAFAFAFAFAFAFAFAFAFAFAFAFAFAFAFAPDFFFFPDFAFAFAFAFAFAFAFAFAFAFAFAFAFAFAFAFAFAFAFAFAFAFAFABB",
"CBFAFAFAFAFAFAFAFAFAFAFAFAFAFAFAFAFAFAFAFAFALAPDPDFEFFFFFEPDPDMAFAFAFAFAFAFAFAFAFAFAFAFAFAFAFAFAFAFAFAFAFAEB",
"DBFAFAFAFAFAFAFAFAFAFAFAFAFAFAFAFAFAFAFAFAFALBFFFFFFFFFFFFFFFFLBFAFAFAFAFAFAFAFAFAFAFAFAFAFAFAFAFAFAFAFAFAGB",
"CBFAFAFAFAFAFAFAFAFAFAFAFAFAFAFAFAFAFAFAFAFALBFFFFFFFFFFFFFFFFLBFAFAFAFAFAFAFAFAFAFAFAFAFAFAFAFAFAFAFAFAFAGB",
"CBFAFAFAFAFAFAFAFAFAFAFAFAFAFAFAFAFAFAFAFAFAKAHDHDEEFFFFEEHDHDKAFAFAFAFAFAFAFAFAFAFAFAFAFAFAFAFAFAFAFAFAFAKB",
"DBFAFAFAFAFAFAFAFAFAFAFAFAFAFAFAFAFAFAFAFAFAFAFAFAPDFFFFPDFAFAFAFAFAFAFAFAFAFAFAFAFAFAFAFAFAFAFAFAFAFAFAFAPB",
"EBFAFAFAFAFAFAFAFAFAFAFAFAFAFAFAFAFAFAFAFAFAFAFAFAPDFFFFPDFAFAFAFAFAFAFAFAFAFAFAFAFAFAFAFAFAFAFAFAFAFAFAFABC",
"FBFAFAFAFAFAFAFAFAFAFAFAFAFAFAFAFAFAFAFAFAFAFAFAFAPDFFFFPDFAFAFAFAFAFAFAFAFAFAFAFAFAFAFAFAFAFAFAFAFAFAFAFACC",
"GBFAFAFAFAFAFAFAFAFAFAFACDFEJEKEGEKDGAFAFAFAFAFAACNEFFFFMEACFAFAFAFAFAGANDGEKEJEFEBDFAFAFAFAFAFAFAFAFAFAFABC",
"GBFAFAFAFAFAFAFAFAFAPDPEFFFFFFFFFFFFAFAEDAFAFADDDFFFFFFFFFDFPCFAFAFAAEAFFFFFFFFFFFFFPEODFAFAFAFAFAFAFAFAFAAC",
"HBFAFAFAFAFAFAFADBKEFFFFCFHEBECEGEBFFFFFKEBBHCDFFFMEEBDBNEFFDFGCBBLEFFFFBFHEBECEHECFFFFFKEOAFAFAFAFAFAFAFAMB",
"IBFAFAFAFAFAFAMBAFFFEFCEAAAAAAAAAAAACEEFFFAFPEFFNEBAECECAANEFFPEAFFFDFBEAAAAAAAAAAAADEEFFFPEHBFAFAFAFAFAFAHB",
"JBFAFAFAFAFABBAFFFAFLBAAAAEAFDEDGAAAAAMBAFFFFFBFFAPBEFDFACHABFFFFFAFDBAAAAEAEDDDBAAAAAKBBFFFPENAFAFAFAFAFAEB",
"MBFAFAFAFAFAJEFFAFFBAABAGEEFFFFFEFGEAAAABBAFFFLEAADEFFFFCEAAMEFFAFLAAABAGEEFFFFFEFGEAAAAABBFFFIEFAFAFAFAFAEB",
"PBFAFAFAFANCFFEFCCAAFAOEFFFFFFFFFFFFNECAAAFBDFFFBEAABFAFAACEFFDFDBAAEANEFFFFFFFFFFFFNEDAAACCEFFFICFAFAFAFACB",
"CCFAFAFAFAJEFFHEAAAANEFFFFFFFFFFFFFFFFNEBAAABEFFDFFAPDPDLADFFFAEAABAOEFFFFFFFFFFFFFFFFMEAAAAHEFFIEGAFAFAFABB",
"HCFAFAFAIACFFFKBAAAEFFFFFFFFFFFFFFFFFFFFGEAAAAOEFFEEAAAAEEFFOEAAAAHEFFFFFFFFFFFFFFFFFFFFPDAAOBFFCFFAFAFAFAAB",
"MCFAFAFADBFFDFAAAAKEFFFFFFFFFFFFFFFFFFFFFFKBAAKDFFAFAAAABFFFEDAAOBFFFFFFFFFFFFFFFFFFFFFFJEAAAADFFFABFAFAFAPA",
"ADFAFAFAACFFAFAAAAOEFFFFFFFFFFFFFFFFFFFFFFLEAAAAOEFFBDEDFFOEAAAALEFFFFFFFFFFFFFFFFFFFFFFOEAAAAAFFFOBFAFAFAOA",
"BDFAFAFAIBFFBFAAAAMEFFFFFFFFFFFFFFFFFFFFFFFFJBAABEFFIEIEFFAEAAACFFFFFFFFFFFFFFFFFFFFFFFFMEAAAACFFFFBFAFAFAAB",
"OCFAFAFAJAEFEFBAAAHEFFFFFFFFFFFFFFFFFFFFFFFFGEAACAEFCFCFDFBAAAGEFFFFFFFFFFFFFFFFFFFFFFFFGEAABAFFDFFAFAFAFAOA",
"LCFAFAFAFANEFFJDAANCFFFFFFFFFFFFFFFFFFFFFFFFBFAAAALEFFFFJEAABACFFFFFFFFFFFFFFFFFFFFFFFFFNCAALDFFMEGAFAFAFAOA",
"ICFAFAFAEADEFFLEAAAANEFFFFFFFFFFFFFFFFFFFFFFFFIDAAAEFFFFAEAANDFFFFFFFFFFFFFFFFFFFFFFFFNEAAAAMEFFCEFAFAFAFAOA",
"DCFAFAFAFACBEFFFGCAABCFFFFFFFFFFFFFFFFFFFFFFFFJEAAABFFFFGAAAKEFFFFFFFFFFFFFFFFFFFFFFEFBCAAICFFDFBBFAFAFAFANA",
"ACFAFAFAFAGAHEFFPEAAAABEFFFFFFFFFFFFFFFFFFFFFFCFAAAAPEPEAAAADFFFFFFFFFFFFFFFFFFFFFFFBEAABAOEFFHEFAFAFAFAFAMA",
"OBFAFAFAFAFAIBDFFFEEAAAAIEFFFFFFFFFFFFFFFFFFFFFFBCAAIEGEAALCFFFFFFFFFFFFFFFFFFFFFFHEAAAAEEFFDFPAFAFAFAFAFALA",
"NBFAFAFAFAFAFAAEFFFFGDAAAALEFFFFFFFFFFFFFFFFFFFFAEAABEAEAABEFFFFFFFFFFFFFFFFFFFFLEBAAAEDFFFFAEFAFAFAFAFAFALA",
"LBFAFAFAFAFAFAEAHEFFDFBCAABAMEFFFFFFFFFFFFFFFFFFDEAAADKCAADEFFFFFFFFFFFFFFFFFFMEAAAADCDFFFHECAFAFAFAFAFAFANA",
"KBFAFAFAFAFAFAFAKAOEFFCFCBAABANEFFFFFFAFJEDEMDBCDAAADBOAAAEADCODDEJEAFFFFFFFNECAAADBCFFFNEGAFAFAFAFAFAFAFANA",
"LBFAFAFAFAFAFAFAFAJBAFFFAFABAABAEEPDMAAAAAAAAAAAAAAABABAAAAAAAAAAAAAAAKAAEEEAAAADBAFFFAFHBFAFAFAFAFAFAFAFAOA",
"LBFAFAFAFAFAFAFAFAFAMBAFFFBFFBAAAAAAAAAABAICBEFEIELEMELELEIEFEAEGCBAAAAAAAAAAAGBBFFFAFHBFAFAFAFAFAFAFAFAFANA",
"NBFAFAFAFAFAFAFAFAFAFAJBAFFFBFJBAAFCFENEEFFFFFFFFFFFFFFFFFFFFFFFFFEFNEFEDCAANBBFFFPEHBFAFAFAFAFAFAFAFAFAFAMA",
"MBFAFAFAFAFAFAFAFAFAFAFADBPEFFDFBFFFFFFFFFFFFFFFFFFFIEIEFFFFFFFFFFFFFFFFFFAFDFFFPEFBFAFAFAFAFAFAFAFAFAFAFANA",
"MBFAFAFAFAFAFAFAFAFAFAFAFALEFFEFFFFFFFFFFFFFFFFFPEICAAAAOCAFFFFFFFFFFFFFFFFFEFFFLEFAFAFAFAFAFAFAFAFAFAFAFAOA",
"PBFAFAFAFAFAFAFAFAFAFAFAFABFFFDCGEEFFFFFFFFFFFNEBAAAAAAAAABAOEFFFFFFFFFFEFGEDCFFBFFAFAFAFAFAFAFAFAFAFAFAFANA",
"ACFAFAFAFAFAFAFAFAFAFAFAPAFFDFAAAAHCDFFFFFFFFFFFAFMCAAAALCPEFFFFFFFFFFDFDCAAAADFFFLAFAFAFAFAFAFAFAFAFAFAFAPA",
"PBFAFAFAFAFAFAFAFAFAFAFAPCFFOEAAADAFFFFFFFFFFFFFFFFFHEHEFFFFFFFFFFFFFFFFPEPCAAPEFFOCFAFAFAFAFAFAFAFAFAFAFADB",
"ACFAFAFAFAFAFAFAFAFAFAFABEFFOELEFFFFFFFFFFFFFFFFFFFFFFFFFFFFFFFFFFFFFFFFFFFFLENEFFBEFAFAFAFAFAFAFAFAFAFAFAIB",
"DCFAFAFAFAFAFAFAFAFAFAGAGEFFKECEDECECEDECECEDECECEDECECECECECEDECECEDECEDECECELEFFGEFAFAFAFAFAFAFAFAFAFAFAMB",
"DCFAFAFAFAFAFAFAFAFAFAFALEFFPDAAAAAAAAAAAAAAAAAAAAAAAAAAAAAAAAAAAAAAAAAAAAAAAAODFFKEHAFAFAFAFAFAFAFAFAFAFAOB",
"OBFAFAFAFAFAFAFAFAFAFAGAPEFFNEKEKEKEKEKEKELEKEKEKEKEKEKEKELEKEKEKELEKEKEKEKELEMEFFAFFAFAFAFAFAFAFAFAFAFAFAPB",
"JBFAFAFAFAFAFAFAFAFAFAHAEFFFFFFFFFFFFFFFFFFFFFFFFFFFFFFFFFFFFFFFFFFFFFFFFFFFFFFFFFEFJAFAFAFAFAFAFAFAFAFAFABC",
"GBFAFAFAFAFAFAFAFAFAFAKAAEAEAEPDAEAEPDAEAEPDAEPDAEAEPDAEAEPDAEAEPDAEPDAEAEPDAEPDAEAEKAFAFAFAFAFAFAFAFAFAFABC",
"HBFAFAFAFAFAFAFAFAFAFAFADACADAHACAEAHACAEAGAEAHACAEAHACADAGACAEAHADAHACAEAHADAHACAEAFAFAFAFAFAFAFAFAFAFAFANB",
"MBFAFAFAFAFAFAFAFAFAFAFAFAFAFAFAFAFAFAFAFAFAFAFAFAFAFAFAFAFAFAFAFAFAFAFAFAFAFAFAFAFAFAFAFAFAFAFAFAFAFAFAFAJB",
"OBFAFAFAFAFAFAFAFAFAFAFAFAFAFAFAFAFAFAFAFAFAFAFAFAFAFAFAFAFAFAFAFAFAFAFAFAFAFAFAFAFAFAFAFAFAFAFAFAFAFAFAFAFB",
"OBMBMBPBBCFCGCFCDCDCECHCJCGCECECECECCCNBHBDBPAPAPAPAPAABBBCBBBCBGBKBNBNBMBMBPBOBNBNBNBMBJBHBHBGBHBGBGBDBPAAB"};
