/* XPM */
static char *kld560[] = {
/* width height ncolors chars_per_pixel */
"54 54 196 2",
/* colors */
"AA c #FFFFFFFFFFFF",
"BA c #FEFEFEFEFEFE",
"CA c #FDFDFDFDFDFD",
"DA c #FCFCFCFCFCFC",
"EA c #FBFBFBFBFBFB",
"FA c #FAFAFAFAFAFA",
"GA c #F9F9F9F9F9F9",
"HA c #F8F8F8F8F8F8",
"IA c #F6F6F6F6F6F6",
"JA c #F5F5F5F5F5F5",
"KA c #F4F4F4F4F4F4",
"LA c #F3F3F3F3F3F3",
"MA c #F1F1F1F1F1F1",
"NA c #EFEFEFEFEFEF",
"OA c #EEEEEEEEEEEE",
"PA c #EDEDEDEDEDED",
"AB c #ECECECECECEC",
"BB c #EBEBEBEBEBEB",
"CB c #EAEAEAEAEAEA",
"DB c #E9E9E9E9E9E9",
"EB c #E7E7E7E7E7E7",
"FB c #E6E6E6E6E6E6",
"GB c #E5E5E5E5E5E5",
"HB c #E4E4E4E4E4E4",
"IB c #E3E3E3E3E3E3",
"JB c #E2E2E2E2E2E2",
"KB c #E1E1E1E1E1E1",
"LB c #DDDDDDDDDDDD",
"MB c #DCDCDCDCDCDC",
"NB c #DBDBDBDBDBDB",
"OB c #D7D7D7D7D7D7",
"PB c #D4D4D4D4D4D4",
"AC c #D2D2D2D2D2D2",
"BC c #D1D1D1D1D1D1",
"CC c #CECECECECECE",
"DC c #CDCDCDCDCDCD",
"EC c #CBCBCBCBCBCB",
"FC c #CACACACACACA",
"GC c #C7C7C7C7C7C7",
"HC c #C1C1C1C1C1C1",
"IC c #C0C0C0C0C0C0",
"JC c #BCBCBCBCBCBC",
"KC c #BABABABABABA",
"LC c #B9B9B9B9B9B9",
"MC c #B8B8B8B8B8B8",
"NC c #B7B7B7B7B7B7",
"OC c #B6B6B6B6B6B6",
"PC c #B5B5B5B5B5B5",
"AD c #B1B1B1B1B1B1",
"BD c #AFAFAFAFAFAF",
"CD c #AEAEAEAEAEAE",
"DD c #ACACACACACAC",
"ED c #A9A9A9A9A9A9",
"FD c #A8A8A8A8A8A8",
"GD c #A7A7A7A7A7A7",
"HD c #A5A5A5A5A5A5",
"ID c #A4A4A4A4A4A4",
"JD c #A3A3A3A3A3A3",
"KD c #A2A2A2A2A2A2",
"LD c #9F9F9F9F9F9F",
"MD c #9E9E9E9E9E9E",
"ND c #9C9C9C9C9C9C",
"OD c #979797979797",
"PD c #969696969696",
"AE c #949494949494",
"BE c #919191919191",
"CE c #909090909090",
"DE c #8F8F8F8F8F8F",
"EE c #8E8E8E8E8E8E",
"FE c #878787878787",
"GE c #858585858585",
"HE c #828282828282",
"IE c #818181818181",
"JE c #808080808080",
"KE c #7E7E7E7E7E7E",
"LE c #7D7D7D7D7D7D",
"ME c #7B7B7B7B7B7B",
"NE c #797979797979",
"OE c #787878787878",
"PE c #767676767676",
"AF c #757575757575",
"BF c #747474747474",
"CF c #737373737373",
"DF c #727272727272",
"EF c #717171717171",
"FF c #707070707070",
"GF c #6F6F6F6F6F6F",
"HF c #6E6E6E6E6E6E",
"IF c #6C6C6C6C6C6C",
"JF c #6B6B6B6B6B6B",
"KF c #696969696969",
"LF c #686868686868",
"MF c #676767676767",
"NF c #666666666666",
"OF c #656565656565",
"PF c #646464646464",
"AG c #636363636363",
"BG c #626262626262",
"CG c #616161616161",
"DG c #606060606060",
"EG c #5F5F5F5F5F5F",
"FG c #5E5E5E5E5E5E",
"GG c #5D5D5D5D5D5D",
"HG c #5C5C5C5C5C5C",
"IG c #5B5B5B5B5B5B",
"JG c #5A5A5A5A5A5A",
"KG c #595959595959",
"LG c #585858585858",
"MG c #575757575757",
"NG c #565656565656",
"OG c #555555555555",
"PG c #545454545454",
"AH c #535353535353",
"BH c #525252525252",
"CH c #515151515151",
"DH c #505050505050",
"EH c #4F4F4F4F4F4F",
"FH c #4E4E4E4E4E4E",
"GH c #4D4D4D4D4D4D",
"HH c #4C4C4C4C4C4C",
"IH c #4B4B4B4B4B4B",
"JH c #4A4A4A4A4A4A",
"KH c #494949494949",
"LH c #484848484848",
"MH c #474747474747",
"NH c #464646464646",
"OH c #454545454545",
"PH c #444444444444",
"AI c #434343434343",
"BI c #424242424242",
"CI c #414141414141",
"DI c #404040404040",
"EI c #3F3F3F3F3F3F",
"FI c #3E3E3E3E3E3E",
"GI c #3D3D3D3D3D3D",
"HI c #3C3C3C3C3C3C",
"II c #3B3B3B3B3B3B",
"JI c #3A3A3A3A3A3A",
"KI c #393939393939",
"LI c #383838383838",
"MI c #373737373737",
"NI c #363636363636",
"OI c #353535353535",
"PI c #343434343434",
"AJ c #333333333333",
"BJ c #323232323232",
"CJ c #313131313131",
"DJ c #303030303030",
"EJ c #2F2F2F2F2F2F",
"FJ c #2E2E2E2E2E2E",
"GJ c #2D2D2D2D2D2D",
"HJ c #2C2C2C2C2C2C",
"IJ c #2B2B2B2B2B2B",
"JJ c #2A2A2A2A2A2A",
"KJ c #292929292929",
"LJ c #282828282828",
"MJ c #272727272727",
"NJ c #262626262626",
"OJ c #252525252525",
"PJ c #242424242424",
"AK c #232323232323",
"BK c #222222222222",
"CK c #212121212121",
"DK c #202020202020",
"EK c #1F1F1F1F1F1F",
"FK c #1E1E1E1E1E1E",
"GK c #1D1D1D1D1D1D",
"HK c #1C1C1C1C1C1C",
"IK c #1B1B1B1B1B1B",
"JK c #1A1A1A1A1A1A",
"KK c #191919191919",
"LK c #181818181818",
"MK c #171717171717",
"NK c #161616161616",
"OK c #151515151515",
"PK c #141414141414",
"AL c #131313131313",
"BL c #121212121212",
"CL c #111111111111",
"DL c #101010101010",
"EL c #0F0F0F0F0F0F",
"FL c #0E0E0E0E0E0E",
"GL c #0D0D0D0D0D0D",
"HL c #0C0C0C0C0C0C",
"IL c #0B0B0B0B0B0B",
"JL c #0A0A0A0A0A0A",
"KL c #090909090909",
"LL c #080808080808",
"ML c #070707070707",
"NL c #060606060606",
"OL c #050505050505",
"PL c #040404040404",
"AM c #030303030303",
"BM c #020202020202",
"CM c #010101010101",
"DM c #000000000000",
/* pixels */
"HHOHHHBHCHCHBHPGDHFHCHGHIHFHBHBHIHCIKIAJPININIIIBIEIMIPIPIKICICIHIIIGIBIGHAHAHCHDHGHGHGHCHMGIGMGBHCHBHCHJHFH",
"CINJAKEKKKKKLKOKCLELELHLHLFLBLALCLALLKIKGKEKFKKKNKALALCLELGLILKLLLLLMLMLMLOLPLBMBMBMCMBMBMBMAMAMPLNLKLFLALHI",
"FIFKJKNKALALBLCLELFLGLHLGLDLOKOKOKOKMKMKJKFKGKNKELELELGLGLELELJLMLMLLLMLMLNLAMAMBMBMBMBMBMBMAMAMAMPLMLILCLEI",
"IIJKALFLFLELFLELFLFLHLGLDLBLPKLKMKOKNKOKMKIKLKALELELCLCLCLALALFLKLMLLLMLMLNLPLAMAMAMBMBMBMBMBMBMAMOLNLLLGLEI",
"AJBLGLJLJLHLFLELGLHLGLDLBLALPKLKMKNKKKKKNKPKBLCLOKIKCKCKFKJKKKALGLJLLLMLMLMLNLAMAMAMAMBMBMCMCMBMAMOLNLLLJLJI",
"LJGLJLKLMLKLJLILILILFLDLBLALALPKMKLKKKNKBLELDLPKEKDJEIEIPIMJEKKKOKDLHLILJLLLOLPLPLOLOLPLAMCMBMBMPLNLLLJLILKI",
"PJJLLLMLOLOLMLMLLLJLHLFLELALALALLKGKJKOKCLDLOKCKOIIIJLJLFIFIFJPJGKOKDLDLHLKLMLOLNLNLMLNLPLPLPLPLOLMLKLILHLGI",
"KJMLNLOLPLOLMLMLKLKLJLILGLCLALOKIKHKHKLKALNKPJJIKGLGDMDMJGCGKHOIPJJKALCLGLHLHLJLJLJLKLLLLLMLOLOLMLKLJLJLJLEI",
"DJOLOLOLOLNLNLNLMLLLMLLLJLFLALNKJKHKEKIKMKEKAJPIIHNHDMDMNHEHHIOHEJEKNKALBLELDLCLDLFLGLILGLGLILJLKLJLJLKLKLEI",
"OIPLNLMLNLOLPLPLOLOLPLOLLLILCLLKKKIKEKIKIKNJIIDMDMDMDMDMDMDMDMHHNIPJHKKKJKLKMKKKMKBLCLDLDLALPKALDLGLILJLJLII",
"AJPLOLOLOLPLAMBMAMAMAMPLMLKLDLLKMKJKGKJKJKMJIIDMDMDMDMDMDMDMDMNHOIMJAKAKNJOJBKDKIKKKNKOKNKKKJKFKHKMKCLFLFLOI",
"BJOLPLPLOLPLAMAMBMBMAMAMOLKLDLMKLKNKMKLKJKAKOILHKFAGDMDMMFHFFHFIFJKJIJIJDJCJHJNJDKDKGKIKFKEKDKNJPJFKKKOKCLCJ",
"AJOLAMAMPLPLAMPLPLAMAMOLMLHLPKJKHKMKPKOKKKHKPJKIHGEGDMDMPFAGAICJKJHJCJBJOINIPIHJMJAKPJCKCKAKPJLJMJCKFKMKBLGJ",
"CJPLAMAMPLPLPLOLOLMLJLELOKGKPJIJIJPJGKLKMKMKGKFJDHLGDMDMGGMGLIJJLJFJNIGIDIDIFILIBJGJLJPJCKFKFKNJOJDKGKJKBLEJ",
"PIOLPLAMPLPLNLKLGLALFKJJLIOHGHBHDHOHLIJJDKGKAKNIHGBGDMDMPFCGBIPIGJPIFIIHNGHGGGHGPGKHJIEJOJGKKKGKCKEKIKMKALBJ",
"KINLNLPLNLMLILALHKGJPHLGMHDJAKCKFJKHBGCHGIAJKIAHCGFKDMDMDKNFFGMHDIKHKGKFFHDJBKNJOIDHCGGHMIOJIKNKKKHKLKALALPI",
"JINLMLMLKLHLPKAKLIPGCIFLDMDMDMDMDMDMGLLHMFKGDGNGOLDMLLLLDMNLHGKFCGJFLHGLDMDMDMDMDMDMDLMHJGGIKJJKNKPKBLCLDLNI",
"FIMLJLHLDLNKNJCILGEKDMDMGJMEHDGDIEBJDMDMOJJEBFNLDMAHGBIBDHDMMLNEJEAKDMDMOIHEFDHDMEIJDMDMBKIGAIKJLKBLDLFLDLJI",
"NHJLELPKLKLJOHLGELDMMKKDLAGAEAEAGAJAGDKKDMOKHKDMEHKADADALAIHDMGKALDMHKDDJAFAEAEAGAKALDOKDMCLKGCIPJMKELFLCLFI",
"KHFLALLKNJCIFGDLDMCJLBGACAAAAAAAAACAFAKBPIDMDMFJOADAAAAADAPAIJDMDMKIHBFACAAAAAAAAACAGANBFJDMBLJGMIEKPKCLALAI",
"FHOKMKCKLIFGJJDMEJHBEABAAAAAAAAAAAAABACAABMIDMBIFAAAAAAAAAGAEIDMHIOADABAAAAAAAAAAAAABAEAJBHJDMJJBHIJKKOKALJH",
"AHKKEKGJHHIGDMHLPBEABAAAAAAAAAAAAAAAAAAAAACBKKDMEEAAAAAAAAFEDMHKPAAAAAAAAAAAAAAAAAAAAABAEAACJLCMNGFIDKNKCLGH",
"NGIKAKLIGGEJDMOEGABAAAAAAAAAAAAAAAAAAAAAAAAAHDDMGLDBAAAAGBJLDMEDAAAAAAAAAAAAAAAAAAAAAAAABAGABFDMGJDHJJKKALOG",
"IGEKKJDIJFILDMPBDAAAAAAAAAAAAAAAAAAAAAAAAAAABAHIDMKEAAAAOEDMDIBAAAAAAAAAAAAAAAAAAAAAAAAAAADABCDMHLFGPIEKLKEG",
"HGDKKJPHKFDMPKJACAAAAAAAAAAAAAAAAAAAAAAAAAAAAAHCDMEKCADAJKDMGCAAAAAAAAAAAAAAAAAAAAAAAAAAAACALACLDMEGKIPJFKAG",
"IGDKLJAIPFDMOJJABAAAAAAAAAAAAAAAAAAAAAAAAAAAAAAAPIDMKCPCDMHIAAAAAAAAAAAAAAAAAAAAAAAAAAAAAABAJAPJDMGGHIMJBKDG",
"LGEKMJDIMFDMGKKABAAAAAAAAAAAAAAAAAAAAAAAAAAAAAAAPDDMDGGGDMMDAAAAAAAAAAAAAAAAAAAAAAAAAAAAAACAJAJKDMNFFIIJMJLG",
"MGIKPJLIOFLLAMFBCAAAAAAAAAAAAAAAAAAAAAAAAAAAAAAAGBCMKKMKAMABAAAAAAAAAAAAAAAAAAAAAAAAAAAAAACAGBBMILLFBIOIFJBH",
"AHOKGKDJMGOJDMMDFAAAAAAAAAAAAAAAAAAAAAAAAAAAAAAAAAFJDMDMNIAAAAAAAAAAAAAAAAAAAAAAAAAAAAAAAAEANDDMIJPFNHKIDJIH",
"HHFLALAKMHKHDMLIIABAAAAAAAAAAAAAAAAAAAAAAAAAAAAAAAMFDMDMGFAAAAAAAAAAAAAAAAAAAAAAAAAAAAAABAIANIDMJGAGJHIIFJLH",
"FIILHLMKMIPFKLDMADEAAAAAAAAAAAAAAAAAAAAAAAAAAAAAAAAEDMDMNDAAAAAAAAAAAAAAAAAAAAAAAAAAAAAAEACDDMHLHEAGKHIIGJNH",
"PINLLLELNJDHIIDMPJBBCAAAAAAAAAAAAAAAAAAAAAAAAAAAAAKCDMDMHCAAAAAAAAAAAAAAAAAAAAAAAAAAAACABBCKDMLHAFFGLHKIGJFI",
"HJAMOLJLLKNIFGGLDMJFHABAAAAAAAAAAAAAAAAAAAAAAAAAAAOBDMDMMBAAAAAAAAAAAAAAAAAAAAAAAAAACAGANFDMCLBFIGIHDIKIFJKI",
"IJBMAMOLHLDKPHCHBMBMGDGABAAAAAAAAAAAAAAAAAAAAAAAAACBDMDMNAAAAAAAAAAAAAAAAAAAAAAAAABAFAKDCMBMCGGGDIAJAJPIHJMI",
"MJAMBMPLMLBLJJAHGIDMJLICFABAAAAAAAAAAAAAAAAAAAAAAAIADMDMGAAAAAAAAAAAAAAAAAAAAAAABAFAJCLLDMNHNFAIFJOJHJCJIJDJ",
"EKBMAMOLNLHLKKOIEGNJDMPKBCEABAAAAAAAAAAABBKCBEEFKGLHDMDMLHJGEFBEKCABAAAAAAAAAABAEADCBLDMKJMFPHGJBKBKHJDJJJKJ",
"GKBMPLOLMLJLDLDKGICGGKDMHKCCEABAOAIDEGPJCMDMDMDMDMDMDMDMDMDMDMDMDMCMOJEGHDOABAFAECJKDMFKBGPHGJFKHKAKLJJJLJCK",
"IKPLPLOLMLKLGLNKNJOHMFEKDMDLBEGHOLDMDMDMPKLHCFPDBDHCFCFCICBDPDCFMHALDMDMDMNLFHCEELDMDKOFOHGJBKIKHKCKAKAKOJFK",
"IKPLPLPLNLKLFLALIKIJKHIFAKDMDMDMBMEIDEACBAAAAAAAAAAAAAAAAAAAAAAAAABAACDEFICMDMDMDMAKLFLHEJPJBKDKDKDKEKCKAKHK",
"CKAMPLNLLLGLELBLPKHKEJBHKEMJDMDGHBAAAAAAAAAAAAAAAALAKEBFMAAAAAAAAAAAAAAAAAIBGGDMLJLEBHAJNJNJKJNJNJMJBKCKEKGK",
"OJPLOLLLHLELDLCLCLNKPJBIDFGJDMMDCAAAAAAAAAAAAAAAADEKDMDMFKOCAAAAAAAAAAAAAACANDDMEJPEMHFJLJDJAJEJEJDJMJBKGKGK",
"OJLLKLHLFLDLDLDLCLPKOJCIFFBLDMPLMFDBAAAAAAAAAAPCKLDMDMDMDMLLNCAAAAAAAAAADBOFPLDMALAFKHAJBJMIKIJIKICJLJBKFKFK",
"HJGLBLPKALDLFLELDLNKLJLHEFDMDMDMDMGKEBAAAAAAAAAALBCIDMDMNHLBAAAAAAAAAAFBIKDMDMDMCMOEOGDIGIFIAIFIJIOIEJLJAKBK",
"BJALMKOKOKCLELDLALKKHJFHBGDMDMDMIHMBAAAAAAAAAAAAAACAODHDBAAAAAAAAAAAAAAANBJHDMDMDMLFFGMHEIBIOHEILIMIBJEJJJNJ",
"LINKNKPKPKOKNKMKJKFKDJBHDHDMNJLCAAAAAAAAAAAAAAAAAAAAAAAAAAAAAAAAAAAAAAAAAAAAMCOJDMPGDGOHIIKIHICIFIIIBJGJLJLJ",
"AIALBLOKMKFKFKGKGKCKPIJGFIDMGEEABABABABABABABABABABABABABABABABABABABABABABAFAHEDMEIEGBIBJFJBJJIBIBIMIDJJJJJ",
"IHCLPKLKHKBKAKDKGKCKMIEGIJDMGDIAGAGAGAGAGAHAHAHAHAHAHAHAHAHAHAHAHAHAHAHAHAHAJAJDDMIJFGIIKJMJEJAJHIAIIIPICJHJ",
"JHNKJKGKBKPJNJLJAKOJKIFGOKDMFJIIHIHIHIHIHIHIIIIIIIIIIIIIIIIIIIIIIIIIIIIIIIIIIIGJDMOKKGAJBKOJEJPIJICIIIMIAJBJ",
"LHAKCKEKBKOJMJJJIJHJOIDHBMDMDMDMDMDMDMDMDMDMDMDMDMDMDMDMDMDMDMDMDMDMDMDMDMDMDMDMDMAMMHIJGKPJGJPIMIKINIPIBJJI",
"NHJJKJPJPJOJNJNJGJCJBJCIOHOGGGPFKFMFAGDGGGIGLGLGJGJGKGMGMGMGMGLGLGMGMGNGMGMGNGOGHHJICJEKKKGKLJBJOILIAJDJEJEI",
"NHKJIJJJLJPJPJNJJJFJEJMIHIJHDHCHOGAHIHKHNHPHBIPHPHAIDIGIGIGIGIGIHIJIIIJIIIIIJIIINIKJGKNKOKLKDKKJBJAJPIDJKJPH",
"MHNJJJJJLJPJBKNJMJOJEJDJHJBJAJBJAJEJIJLJLJLJLJJJJJNJCKEKGKHKIKKKLKLKKKLKJKJKKKHKIKNKCLELCLPKKKCKJJHJFJKJCKLH",
"LHOJNJOJPJOJAKLJNJBKHJHJMJLJNJBKCKDKEKDKDKFKDKDKEKIKNKOKDLGLILKLKLJLJLKLILHLGLFLELFLHLILHLDLNKHKDKCKBKHKMKJH",
"CHOHAIMHBHIGHGJGFGDGDGAGAGDGMGIHLHPHEIAIAIGIJIHIBICICIAIBIAINHOHAIEIJIKIAJPIKIIIIIHIHIHIFIGILIEJKJKJCJJIBIMG"};
