/* XPM */
static char *ndd560[] = {
/* width height ncolors chars_per_pixel */
"54 54 183 2",
/* colors */
"AA c #FFFFFFFFFFFF",
"BA c #FEFEFEFEFEFE",
"CA c #FDFDFDFDFDFD",
"DA c #FCFCFCFCFCFC",
"EA c #FBFBFBFBFBFB",
"FA c #F9F9F9F9F9F9",
"GA c #F7F7F7F7F7F7",
"HA c #F3F3F3F3F3F3",
"IA c #F2F2F2F2F2F2",
"JA c #F1F1F1F1F1F1",
"KA c #F0F0F0F0F0F0",
"LA c #EFEFEFEFEFEF",
"MA c #EBEBEBEBEBEB",
"NA c #DEDEDEDEDEDE",
"OA c #D9D9D9D9D9D9",
"PA c #D8D8D8D8D8D8",
"AB c #D7D7D7D7D7D7",
"BB c #D5D5D5D5D5D5",
"CB c #D0D0D0D0D0D0",
"DB c #CCCCCCCCCCCC",
"EB c #C8C8C8C8C8C8",
"FB c #C3C3C3C3C3C3",
"GB c #C0C0C0C0C0C0",
"HB c #BFBFBFBFBFBF",
"IB c #BEBEBEBEBEBE",
"JB c #BABABABABABA",
"KB c #B9B9B9B9B9B9",
"LB c #B7B7B7B7B7B7",
"MB c #B4B4B4B4B4B4",
"NB c #B1B1B1B1B1B1",
"OB c #AEAEAEAEAEAE",
"PB c #ABABABABABAB",
"AC c #A8A8A8A8A8A8",
"BC c #A7A7A7A7A7A7",
"CC c #A6A6A6A6A6A6",
"DC c #A3A3A3A3A3A3",
"EC c #A0A0A0A0A0A0",
"FC c #9F9F9F9F9F9F",
"GC c #9E9E9E9E9E9E",
"HC c #9C9C9C9C9C9C",
"IC c #9A9A9A9A9A9A",
"JC c #989898989898",
"KC c #979797979797",
"LC c #959595959595",
"MC c #949494949494",
"NC c #939393939393",
"OC c #929292929292",
"PC c #919191919191",
"AD c #8F8F8F8F8F8F",
"BD c #8E8E8E8E8E8E",
"CD c #8D8D8D8D8D8D",
"DD c #8B8B8B8B8B8B",
"ED c #8A8A8A8A8A8A",
"FD c #898989898989",
"GD c #878787878787",
"HD c #858585858585",
"ID c #848484848484",
"JD c #828282828282",
"KD c #818181818181",
"LD c #808080808080",
"MD c #7F7F7F7F7F7F",
"ND c #7C7C7C7C7C7C",
"OD c #7B7B7B7B7B7B",
"PD c #7A7A7A7A7A7A",
"AE c #797979797979",
"BE c #787878787878",
"CE c #777777777777",
"DE c #747474747474",
"EE c #737373737373",
"FE c #727272727272",
"GE c #717171717171",
"HE c #707070707070",
"IE c #6F6F6F6F6F6F",
"JE c #6E6E6E6E6E6E",
"KE c #6D6D6D6D6D6D",
"LE c #6C6C6C6C6C6C",
"ME c #6B6B6B6B6B6B",
"NE c #6A6A6A6A6A6A",
"OE c #696969696969",
"PE c #686868686868",
"AF c #676767676767",
"BF c #656565656565",
"CF c #646464646464",
"DF c #636363636363",
"EF c #626262626262",
"FF c #616161616161",
"GF c #606060606060",
"HF c #5F5F5F5F5F5F",
"IF c #5E5E5E5E5E5E",
"JF c #5D5D5D5D5D5D",
"KF c #5C5C5C5C5C5C",
"LF c #5B5B5B5B5B5B",
"MF c #5A5A5A5A5A5A",
"NF c #595959595959",
"OF c #585858585858",
"PF c #575757575757",
"AG c #565656565656",
"BG c #555555555555",
"CG c #545454545454",
"DG c #535353535353",
"EG c #525252525252",
"FG c #515151515151",
"GG c #505050505050",
"HG c #4F4F4F4F4F4F",
"IG c #4E4E4E4E4E4E",
"JG c #4D4D4D4D4D4D",
"KG c #4C4C4C4C4C4C",
"LG c #4B4B4B4B4B4B",
"MG c #4A4A4A4A4A4A",
"NG c #494949494949",
"OG c #484848484848",
"PG c #474747474747",
"AH c #464646464646",
"BH c #454545454545",
"CH c #444444444444",
"DH c #434343434343",
"EH c #424242424242",
"FH c #414141414141",
"GH c #404040404040",
"HH c #3F3F3F3F3F3F",
"IH c #3E3E3E3E3E3E",
"JH c #3D3D3D3D3D3D",
"KH c #3C3C3C3C3C3C",
"LH c #3B3B3B3B3B3B",
"MH c #3A3A3A3A3A3A",
"NH c #393939393939",
"OH c #383838383838",
"PH c #373737373737",
"AI c #363636363636",
"BI c #353535353535",
"CI c #343434343434",
"DI c #333333333333",
"EI c #323232323232",
"FI c #313131313131",
"GI c #303030303030",
"HI c #2F2F2F2F2F2F",
"II c #2E2E2E2E2E2E",
"JI c #2D2D2D2D2D2D",
"KI c #2C2C2C2C2C2C",
"LI c #2B2B2B2B2B2B",
"MI c #2A2A2A2A2A2A",
"NI c #292929292929",
"OI c #282828282828",
"PI c #272727272727",
"AJ c #262626262626",
"BJ c #252525252525",
"CJ c #242424242424",
"DJ c #232323232323",
"EJ c #222222222222",
"FJ c #212121212121",
"GJ c #202020202020",
"HJ c #1F1F1F1F1F1F",
"IJ c #1E1E1E1E1E1E",
"JJ c #1D1D1D1D1D1D",
"KJ c #1C1C1C1C1C1C",
"LJ c #1B1B1B1B1B1B",
"MJ c #1A1A1A1A1A1A",
"NJ c #191919191919",
"OJ c #181818181818",
"PJ c #171717171717",
"AK c #161616161616",
"BK c #151515151515",
"CK c #141414141414",
"DK c #131313131313",
"EK c #121212121212",
"FK c #111111111111",
"GK c #101010101010",
"HK c #0F0F0F0F0F0F",
"IK c #0E0E0E0E0E0E",
"JK c #0D0D0D0D0D0D",
"KK c #0C0C0C0C0C0C",
"LK c #0B0B0B0B0B0B",
"MK c #0A0A0A0A0A0A",
"NK c #090909090909",
"OK c #080808080808",
"PK c #070707070707",
"AL c #060606060606",
"BL c #050505050505",
"CL c #040404040404",
"DL c #030303030303",
"EL c #020202020202",
"FL c #010101010101",
"GL c #000000000000",
/* pixels */
"KGBHKGEGFGFGEGCGGGIGFGJGLGIGEGEGLGFHNHDICIAIAILHEHHHPHCICINHFHFHKHLHJHEHJGDGDGFGGGJGJGJGFGPFLFPFEGFGEGFGMGIG",
"FHAJDJHJNJNJOJBKFKHKHKKKKKIKEKDKFKDKOJLJJJHJIJNJAKDKDKFKHKJKLKNKOKOKPKPKPKBLCLELELELFLELELELDLDLCLALNKIKDKKH",
"IHIJMJAKDKDKEKFKHKIKJKKKJKGKBKBKBKBKPJPJMJIJJJAKHKIKIKJKJKGKHKLKPKPKOKPKPKALDLDLELELELELELELDLDLDLCLPKLKFKHH",
"LHMJDKIKIKHKIKHKIKIKKKJKGKEKCKOJPJBKAKBKPJLJOJDKJKKKKKJKGKBKAKFKMKOKOKPKPKALCLDLDLDLELELELELELELDLBLALOKJKHH",
"DIEKJKMKMKKKIKHKJKKKJKGKEKDKCKOJPJAKNJNJAKCKFKHKJKKKHKDKLJFJCJLJFKMKOKPKPKPKALDLDLDLDLELELFLFLELDLBLALOKMKMH",
"OIJKMKNKPKNKMKLKLKLKIKGKEKDKDKCKPJOJNJAKEKIKJKKKLKJKBKHJHIDIOHKIIJEKKKLKMKOKBLCLCLBLBLCLDLFLELELCLALOKMKLKNH",
"CJMKOKPKBLBLPKPKOKMKKKIKHKDKDKDKOJJJMJBKGKJKKKLKLKFKGJCIJGDKDIPGJIMJFKGKKKNKPKBLALALPKALCLCLCLCLBLPKNKLKKKJH",
"NIPKALBLCLBLPKPKNKNKMKLKJKFKDKBKLJKJKJOJGKKKKKKKGKKJDICGEIGLGKDFJHEJBKFKJKKKKKMKMKMKNKOKOKPKBLBLPKNKMKMKMKHH",
"GIBLBLBLBLALALALPKOKPKOKMKIKDKAKMJKJHJMJEKIKIKEKKJGIFGPFFLGLGLAGEGIILJCKEKHKGKFKGKIKJKLKJKJKLKMKNKMKMKNKNKHH",
"BICLALPKALBLCLCLBLBLCLBLOKLKFKOJNJLJHJLJAKDKAKEJAICGFFKKGLGLGLOILEDHMIHJKJOJPJNJPJEKFKGKGKDKCKDKGKJKLKMKMKLH",
"DICLBLBLBLCLDLELDLDLDLCLPKNKGKOJPJMJIJKJLJFJHIAHEFIHELGLGLGLGLFLEEEFBHBIHIOIDJGJLJNJAKBKAKNJMJIJKJPJFKIKIKBI",
"EIBLCLCLBLCLDLDLELELDLDLBLNKGKPJOJOJLJEJKIJHAGJFKJGLGLGLGLGLGLGLFJLEJEAGOGJHFIOIFJGJJJLJIJHJGJAJCJIJNJBKFKFI",
"DIBLDLDLCLCLDLCLCLDLELDLCLOKIKBKNJMJFJDIJGBFLHDLGLGLGLGLGLGLGLGLGLFLDIIEOEEGFHHIBJFJEJGJFJDJCJOIPIFJIJPJEKJI",
"FICLDLDLCLCLCLBLCLCLCLCLCLPKKKBKKJBJOHBGAGEKGLGLGLGLGLGLGLGLGLGLFLLJGLALGGFECGNHOIFJHJHJIJJJIJAJBJGJJJMJEKHI",
"CIBLCLDLCLCLBLPKALBLBLCLBLPKJKOJPIIHJFNHELGLGLGLGLGLGLGLGLGLGLGLGLOJBENHGLNIAFDGPHBJLJMJNJPJPJKJFJHJLJPJDKEI",
"NHALALCLALALPKMKOKALALBLPKLKAKPIIHEFDIGLGLGLGLGLAJEJGLGLGLGLGLGLGLGLPKDCADMKIKGFDGDIIJPJDKEKDKDKOJKJOJDKDKCI",
"MHALPKPKNKOKNKMKOKBLPKOKJKAKOIEHCFKGELGLGLGLGLIHJALALIGLGLGLGLGLGLGLGLALMBIBJJJKFFJGIINJFKGKFKGKDKCKEKFKGKAI",
"IHPKMKKKJKKKLKMKOKOKLKFKJJGIJGNFGJGLGLGLGLGLHGGAAAAAABNKGLGLGLGLGLGLGLGLCKBBCBEJIKHFCHBJCKHKIKHKHKHKHKIKGKMH",
"AHMKHKEKGKGKHKJKKKHKOJAJJHLFIHDLGLGLGLGLGLAJMBKBJBHBHBAIGLGLGLGLGLGLGLGLGLOHHAGBPKKJFFNHIJFKKKKKKKHKJKIKFKIH",
"NGIKDKCKBKAKBKDKBKHJFIMGNFJJGLGLGLGLGLGLGLGLGLGLGLGLGLGLGLGLGLGLGLGLGLGLGLGLGCIAIEGLFHDGJIAKHKKKLKIKHKGKDKDH",
"IGBKBKPJLJJJJJGJLIGHLFGHPKGLGLGLGLGLGLGLGLGLGLGLGLGLGLGLGLGLGLGLGLGLGLGLGLGLAJFANAOKALEFFHHJEKIKJKJKGKDKDKMG",
"DGOJLJJJGJDJOIPHIGNFMJGLGLGLGLGLGLGLGLGLGLGLGLGLGLGLGLGLGLGLGLGLGLGLGLGLGLGLGLDBGAOGGLAIAGMIAKFKHKGKFKEKFKJG",
"AGMJJJEJCJJIKHEGMHBLGLGLGLGLGLGLGLGLGLGLGLGLGLGLGLGLGLGLGLGLGLGLGLIHGLGLGLGLGLLCDACDGLOKCFPHLJFKHKEKDKEKEKBG",
"LFIJFJDJPICIKGOGGLGLGLBJFGPKGLGLGLGLGLGLGLGLGLGLGLGLGLGLGLGLGLGLGLBCJKGLGLGLGLKEBAEBGLGLFGCHDJEKGKFKAKPJPJHF",
"KFHJGJDJBJBIHGEGGLGLGLHBBAICGLGLGLGLGLGLGLGLGLGLGLGLGLGLGLGLGLGLIJLBKKGLGLGLGLJGAAHACLGLOHDGLIOJFKEKAKMJKJDF",
"LFHJIJGJBJEIJGLFGLGLBLDDGBLJGLGLGLGLGLGLGLGLGLGLGLGLGLGLGLGLGLGLFFFCGLGLGLGLGLCIAADADJGLHJEFNHEJOJBKPJJJGJGF",
"OFIJJJJJEJJIOGHFGLGLGLGLGLGLGLGLGLGLGLGLGLGLGLGLGLGLGLGLGLGLGLFKMCCEGLGLGLGLGLFJAACAHHGLPKIEOGLIHJJJLJFJAJOF",
"PFMJLJNJMJBJEHIFGLGLGLGLGLGLGLGLGLGLGLGLGLGLGLGLGLGLGLGLGLGLGLJFNCOGGLGLGLGLGLBKAABAHGGLGLMEHGEIEJIJBJJIJIEG",
"DGCKAKPJAKFJLHOFGLGLBLNJGLGLGLGLGLGLGLGLGLGLGLGLGLGLGLGLGLGLKHOCGDNKGLGLGLGLGLFKAABABGGLGLGFAGMHMIPIHICIGILG",
"KGJKHKGKDKIJDIKGGLAKIDACDJGLGLGLGLGLGLGLGLGLGLGLGLGLGLGLMKLFKCBDLJGLGLGLGLGLGLCKAAAAGGGLGLAGMFFHKHAILHPHIIOG",
"IHLKMKLKFKLJMILHIJAFGDPDDKGLGLGLGLGLGLGLGLNKHKBLGLFLHJCGNCHCDDJJGLGLGLGLGLGLGLIJAAAADHGLGLIGLFAHPGBHGHNHJIAH",
"CIALPKOKJKBKIJOIOHJGGIFLGLGLGLGLGLGLJJPFBEJDFDMCNCECBCCCEDMGALGLGLGLGLGLGLGLGLGIAAAADIGLGLLGIFAHOGLGDHOHJIIH",
"KIDLCLALNKIKEKOJBJCILJGLGLGLGLGLGLDHNDLECFAFAEHFFGNGCICKGLGLGLGLGLGLGLGLGLGLGLBHAAAADJGLGLKGHFDHJHGHIHOHIINH",
"LIELDLDLBLOKLKEKLJJINGJGJJGLGLGLEHFEKFPFIFEEBGFLGLGLGLGLGLGLGLGLGLGLGLGLGLGLGLPFAAAAFKGLGLJGGFJHHIJIEICIKIPH",
"PIDLELDLBLBLOKJKBKGJHIDHKFMGHKFJOEOFPFEFIEFHFLGLGLGLGLGLGLGLGLGLGLGLGLGLGLGLGLAFAAEAFLGLGLGGMFPHPIDJKIFILIGI",
"HJELDLBLBLPKPKMKFKOJHJMIMHNGGGIGFGBGNEJHDLGLGLGLGLGLGLGLGLGLGLGLGLGLGLGLGLGLGLFEAAMAGLGLGLCGGGIIFJFJKIGIMINI",
"JJELCLBLPKOKNKMKIKBKLJEJNIFINHFHHGOEDIGLGLGLGLGLGLGLGLGLGLGLGLGLGLGLGLGLGLGLGLNDAAPAGLGLGLMFMGPIJJDJOIMIOIFJ",
"LJCLCLBLPKNKMKJKGKCKOJHJAJLIFIFHFFLHGLGLGLGLGLGLGLGLGLGLGLGLGLGLGLGLGLGLGLGLGLLDAAFBGLGLGLCFAHAJIJFJDJDJBJIJ",
"LJCLCLCLALNKJKFKEKDKBKMJAJLINHAGAGFLGLGLGLGLGLGLGLGLGLGLGLGLGLGLGLGLGLGLGLGLGLHDAAOBGLGLELHEPGLIFJGJHJFJDJKJ",
"FJDLCLALOKJKHKFKFKEKCKNJEJJIAHAFKKGLGLGLGLGLGLGLGLGLGLGLGLGLGLGLGLGLGLGLGLGLGLKDAAJCGLGLJKDEKGGIOIPIEJFJHJJJ",
"BJCLBLOKKKHKGKFKFKEKAKKJDJBINFPHGLGLGLGLGLGLGLGLGLGLGLGLGLGLGLGLGLGLGLGLGLGLGLODAADDGLGLCKAEDGOHGIGIPIEJJJJJ",
"BJOKNKKKIKGKGKGKFKDKMJFJLIDHPEPKGLGLGLGLGLGLGLGLGLGLGLGLGLGLGLGLGLGLGLGLGLGLGLLFAAPCGLGLCKMDOFEHMHFIOIEJIJIJ",
"KIJKEKCKDKGKIKHKGKCKJJAJCIFGEGGLGLGLGLGLGLGLGLGLGLGLGLGLGLGLGLGLGLGLGLGLGLGLGLKJCAPBGLGLKKGDDFOGLHBIHIOIDJEJ",
"EIDKPJBKBKFKHKGKDKAKIJOINHKFMHGLGLGLGLGLGLGLGLGLGLGLGLGLGLGLGLGLGLGLGLGLGLGLGLGLNBOAGLGLFLGDPEMGMHPHEIHIMIAJ",
"OHAKAKCKCKBKAKPJMJMJIJBJLHBFBJGLGLGLGLGLGLGLGLGLGLGLGLGLGLGLGLGLGLGLGLGLGLGLGLGLDJKAPIGLGLMEPEHGFHKHEIJIOIOI",
"DHDKEKBKPJIJIJJJJJKJIJAJIHLEBKGLGLGLGLGLGLGLGLGLGLGLGLGLGLGLGLGLGLGLGLGLGLGLGLGLGLCGMCGLGLOGNEHGPGEHPHGIMIMI",
"LGFKCKOJKJEJDJGJJJLJIJPIFHJELKGLGLGLGLGLGLGLGLGLGLGLGLGLGLGLGLGLGLGLGLGLGLGLGLGLGLGLMFEJGLCJGEIGDHCHLHCIFIKI",
"MGAKMJJJEJCJAJOIEJIJHJAJGHOEALGLGLGLGLGLGLGLGLGLGLGLGLGLGLGLGLGLGLGLGLGLGLGLGLGLGLGLGLJKGLELNEEGEHEHLHPHDIEI",
"OGDJFJHJEJBJPIMILIAJHJCJNHMFALGLGLGLGLGLGLGLGLGLGLGLGLGLGLGLGLGLGLGLGLGLGLGLGLGLGLGLGLGLGLGLMHGGHHLHAICIEIMH",
"AHMINICJCJBJAJAJKIJICJBJGIAHEHFGKFJFNFPFCGEGGGGGFGEGFGHGHGHGHGGGGGEGFGGGFGFGFGEGDGGGGGHGLGDHFHAHKHNHDIGIHIHH",
"AHNILIMIOICJCJAJMILIOININIPHCHIGPFPFHGJGMGOGAHOGNGPGBHEHFHFHFHFHGHIHHHIHHHIHIHFHFHJHIHIHIHLHAICIBICICIGINICH",
"PGAJMIMIOICJEJAJPICJJIKIAJKIGIEIBIFIJIMIMILIMIKIKIOIDJFJHJHJJJLJMJMJLJMJLJLJLJIJHJJJKJJJHJGJFJBJLIKIIINIFJOG",
"OGBJAJBJCJBJDJOIAJEJLILIAJPIAJDJEJGJHJFJFJIJGJFJGJLJPJBKFKIKKKMKNKLKLKMKLKKKIKHKGKGKIKIKHKEKOJJJGJFJEJKJPJMG",
"FGBHDHPGEGLFKFMFIFGFGFDFDFGFPFLGOGCHHHDHDHJHMHKHEHFHFHDHEHDHAHBHDHHHMHNHDICINHLHLHKHKHKHIHJHOHHININIFIMHEHPF"};
