/* XPM */
static char *nld560[] = {
/* width height ncolors chars_per_pixel */
"54 54 198 2",
/* colors */
"AA c #FFFFFFFFFFFF",
"BA c #FEFEFEFEFEFE",
"CA c #FDFDFDFDFDFD",
"DA c #FCFCFCFCFCFC",
"EA c #FBFBFBFBFBFB",
"FA c #FAFAFAFAFAFA",
"GA c #F9F9F9F9F9F9",
"HA c #F8F8F8F8F8F8",
"IA c #F7F7F7F7F7F7",
"JA c #F6F6F6F6F6F6",
"KA c #F5F5F5F5F5F5",
"LA c #F4F4F4F4F4F4",
"MA c #F3F3F3F3F3F3",
"NA c #F2F2F2F2F2F2",
"OA c #F1F1F1F1F1F1",
"PA c #F0F0F0F0F0F0",
"AB c #ECECECECECEC",
"BB c #EBEBEBEBEBEB",
"CB c #EAEAEAEAEAEA",
"DB c #E9E9E9E9E9E9",
"EB c #E8E8E8E8E8E8",
"FB c #E6E6E6E6E6E6",
"GB c #E4E4E4E4E4E4",
"HB c #E2E2E2E2E2E2",
"IB c #E1E1E1E1E1E1",
"JB c #E0E0E0E0E0E0",
"KB c #DFDFDFDFDFDF",
"LB c #DEDEDEDEDEDE",
"MB c #DDDDDDDDDDDD",
"NB c #DCDCDCDCDCDC",
"OB c #D7D7D7D7D7D7",
"PB c #D5D5D5D5D5D5",
"AC c #D4D4D4D4D4D4",
"BC c #D3D3D3D3D3D3",
"CC c #D2D2D2D2D2D2",
"DC c #D1D1D1D1D1D1",
"EC c #D0D0D0D0D0D0",
"FC c #CFCFCFCFCFCF",
"GC c #CDCDCDCDCDCD",
"HC c #CACACACACACA",
"IC c #C7C7C7C7C7C7",
"JC c #C3C3C3C3C3C3",
"KC c #C2C2C2C2C2C2",
"LC c #BCBCBCBCBCBC",
"MC c #B9B9B9B9B9B9",
"NC c #B7B7B7B7B7B7",
"OC c #B5B5B5B5B5B5",
"PC c #B1B1B1B1B1B1",
"AD c #AFAFAFAFAFAF",
"BD c #AEAEAEAEAEAE",
"CD c #ADADADADADAD",
"DD c #ABABABABABAB",
"ED c #A9A9A9A9A9A9",
"FD c #A8A8A8A8A8A8",
"GD c #A4A4A4A4A4A4",
"HD c #A3A3A3A3A3A3",
"ID c #A2A2A2A2A2A2",
"JD c #A1A1A1A1A1A1",
"KD c #9C9C9C9C9C9C",
"LD c #9B9B9B9B9B9B",
"MD c #989898989898",
"ND c #909090909090",
"OD c #8E8E8E8E8E8E",
"PD c #8C8C8C8C8C8C",
"AE c #888888888888",
"BE c #878787878787",
"CE c #858585858585",
"DE c #848484848484",
"EE c #838383838383",
"FE c #828282828282",
"GE c #808080808080",
"HE c #7F7F7F7F7F7F",
"IE c #7E7E7E7E7E7E",
"JE c #7D7D7D7D7D7D",
"KE c #7C7C7C7C7C7C",
"LE c #7A7A7A7A7A7A",
"ME c #797979797979",
"NE c #787878787878",
"OE c #777777777777",
"PE c #767676767676",
"AF c #757575757575",
"BF c #747474747474",
"CF c #737373737373",
"DF c #727272727272",
"EF c #717171717171",
"FF c #707070707070",
"GF c #6F6F6F6F6F6F",
"HF c #6E6E6E6E6E6E",
"IF c #6D6D6D6D6D6D",
"JF c #6C6C6C6C6C6C",
"KF c #6B6B6B6B6B6B",
"LF c #6A6A6A6A6A6A",
"MF c #696969696969",
"NF c #686868686868",
"OF c #676767676767",
"PF c #666666666666",
"AG c #656565656565",
"BG c #646464646464",
"CG c #636363636363",
"DG c #626262626262",
"EG c #616161616161",
"FG c #606060606060",
"GG c #5F5F5F5F5F5F",
"HG c #5E5E5E5E5E5E",
"IG c #5D5D5D5D5D5D",
"JG c #5C5C5C5C5C5C",
"KG c #5B5B5B5B5B5B",
"LG c #5A5A5A5A5A5A",
"MG c #595959595959",
"NG c #585858585858",
"OG c #575757575757",
"PG c #565656565656",
"AH c #555555555555",
"BH c #545454545454",
"CH c #535353535353",
"DH c #525252525252",
"EH c #515151515151",
"FH c #505050505050",
"GH c #4F4F4F4F4F4F",
"HH c #4E4E4E4E4E4E",
"IH c #4D4D4D4D4D4D",
"JH c #4C4C4C4C4C4C",
"KH c #4B4B4B4B4B4B",
"LH c #4A4A4A4A4A4A",
"MH c #494949494949",
"NH c #484848484848",
"OH c #474747474747",
"PH c #464646464646",
"AI c #454545454545",
"BI c #444444444444",
"CI c #434343434343",
"DI c #424242424242",
"EI c #414141414141",
"FI c #404040404040",
"GI c #3F3F3F3F3F3F",
"HI c #3E3E3E3E3E3E",
"II c #3D3D3D3D3D3D",
"JI c #3C3C3C3C3C3C",
"KI c #3B3B3B3B3B3B",
"LI c #3A3A3A3A3A3A",
"MI c #393939393939",
"NI c #383838383838",
"OI c #373737373737",
"PI c #363636363636",
"AJ c #353535353535",
"BJ c #343434343434",
"CJ c #333333333333",
"DJ c #323232323232",
"EJ c #313131313131",
"FJ c #303030303030",
"GJ c #2F2F2F2F2F2F",
"HJ c #2E2E2E2E2E2E",
"IJ c #2D2D2D2D2D2D",
"JJ c #2C2C2C2C2C2C",
"KJ c #2B2B2B2B2B2B",
"LJ c #2A2A2A2A2A2A",
"MJ c #292929292929",
"NJ c #282828282828",
"OJ c #272727272727",
"PJ c #262626262626",
"AK c #252525252525",
"BK c #242424242424",
"CK c #232323232323",
"DK c #222222222222",
"EK c #212121212121",
"FK c #202020202020",
"GK c #1F1F1F1F1F1F",
"HK c #1E1E1E1E1E1E",
"IK c #1D1D1D1D1D1D",
"JK c #1C1C1C1C1C1C",
"KK c #1B1B1B1B1B1B",
"LK c #1A1A1A1A1A1A",
"MK c #191919191919",
"NK c #181818181818",
"OK c #171717171717",
"PK c #161616161616",
"AL c #151515151515",
"BL c #141414141414",
"CL c #131313131313",
"DL c #121212121212",
"EL c #111111111111",
"FL c #101010101010",
"GL c #0F0F0F0F0F0F",
"HL c #0E0E0E0E0E0E",
"IL c #0D0D0D0D0D0D",
"JL c #0C0C0C0C0C0C",
"KL c #0B0B0B0B0B0B",
"LL c #0A0A0A0A0A0A",
"ML c #090909090909",
"NL c #080808080808",
"OL c #070707070707",
"PL c #060606060606",
"AM c #050505050505",
"BM c #040404040404",
"CM c #030303030303",
"DM c #020202020202",
"EM c #010101010101",
"FM c #000000000000",
/* pixels */
"JHAIJHDHEHEHDHBHFHHHEHIHKHHHDHDHKHEIMICJBJPIPIKIDIGIOIBJBJMIEIEIJIKIIIDIIHCHCHEHFHIHIHIHEHOGKGOGDHEHDHEHLHHH",
"EIPJCKGKMKMKNKALELGLGLJLJLHLDLCLELCLNKKKIKGKHKMKPKCLCLELGLILKLMLNLNLOLOLOLAMBMDMDMDMEMDMDMDMCMCMBMPLMLHLCLJI",
"HIHKLKPKCLCLDLELGLHLILJLILFLALALALALOKOKLKHKIKPKGLHLHLILILFLGLKLOLOLNLOLOLPLCMCMDMDMDMDMDMDMCMCMCMBMOLKLELGI",
"KILKCLHLHLGLHLGLHLHLJLILFLDLBLNKOKALPKALOKKKNKCLILJLJLILFLALPKELLLNLNLOLOLPLBMCMCMCMDMDMDMDMDMDMCMAMPLNLILGI",
"CJDLILLLLLJLHLGLILJLILFLDLCLBLNKOKPKMKMKPKBLELGLILJLGLCLKKEKBKKKELLLNLOLOLOLPLCMCMCMCMDMDMEMEMDMCMAMPLNLLLLI",
"NJILLLMLOLMLLLKLKLKLHLFLDLCLCLBLOKNKMKPKDLHLILJLKLILALGKGJCJNIJJHKDLJLKLLLNLAMBMBMAMAMBMCMEMDMDMBMPLNLLLKLMI",
"BKLLNLOLAMAMOLOLNLLLJLHLGLCLCLCLNKIKLKALFLILJLKLKLELFKBJIHCLCJOHIJLKELFLJLMLOLAMPLPLOLPLBMBMBMBMAMOLMLKLJLII",
"MJOLPLAMBMAMOLOLMLMLLLKLILELCLALKKJKJKNKFLJLJLJLFLJKCJBHDJFMFLCGIIDKALELILJLJLLLLLLLMLNLNLOLAMAMOLMLLLLLLLGI",
"FJAMAMAMAMPLPLPLOLNLOLNLLLHLCLPKLKJKGKLKDLHLHLDLJKFJEHOGEMFMFMPGDHHJKKBLDLGLFLELFLHLILKLILILKLLLMLLLLLMLMLGI",
"AJBMPLOLPLAMBMBMAMAMBMAMNLKLELNKMKKKGKKKPKCLPKDKPIBHEGJLFMCJFMNJJFCILJGKJKNKOKMKOKDLELFLFLCLBLCLFLILKLLLLLKI",
"CJBMAMAMAMBMCMDMCMCMCMBMOLMLFLNKOKLKHKJKKKEKGJPHDGHIDMFMNHKBILEMCFDGAIAJGJNJCKFKKKMKPKALPKMKLKHKJKOKELHLHLAJ",
"DJAMBMBMAMBMCMCMDMDMCMCMAMMLFLOKNKNKKKDKJJIIPGIGJKFMFMJHHBIAJFFMEKJFHFPGNHIIEJNJEKFKIKKKHKGKFKPJBKHKMKALELEJ",
"CJAMCMCMBMBMCMBMBMCMDMCMBMNLHLALMKLKEKCJIHAGKICMFMCKBDHACADANBLLFMEMCJGFMFDHEIGJAKEKDKFKEKCKBKNJOJEKHKOKDLIJ",
"EJBMCMCMBMBMBMAMBMBMBMBMBMOLJLALJKAKNIAHPGDLFMBMGFABEABAAAAADAJBNFAMFMPLFHDFBHMINJEKGKGKHKIKHKPJAKFKIKLKDLGJ",
"BJAMBMCMBMBMAMOLPLAMAMBMAMOLILNKOJHIIGMIDMFMKIHCHACAAAAAAAAAAACAFAFCDIFMFMMJOFCHOIAKKKLKMKOKOKJKEKGKKKOKCLDJ",
"MIPLPLBMPLPLOLLLNLPLPLAMOLKLPKOJHIDGCJFMCMFELAEABCOBAAAAAAAAAAAABADAIANDAMFMHLFGCHCJHKOKCLDLCLCLNKJKNKCLCLBJ",
"LIPLOLOLMLNLMLLLNLAMOLNLILPKNJDIBGJHDMDMJDHACAEDNLLLKCAAAAAAAAAAAAAACAFAEDBMFMILEGIHHJMKELFLELFLCLBLDLELFLPI",
"HIOLLLJLILJLKLLLNLNLKLELIKFJIHMGFKFMFMGEGACACEEMFMFMALEBAAAAAAAAAAAAAABAEAIDDMFMHLGGBIAKBLGLHLGLGLGLGLHLFLLI",
"PHLLGLDLFLFLGLILJLGLNKPJIIKGHICMFMNKCDFACABCJEMEMEBFCFDCAAAAAAAAAAAAAAAAAADABFFMFMJKEGMIHKELJLJLJLGLILHLELHI",
"MHHLCLBLALPKALCLALGKEJLHMGIKFMFMGHIBEABAAAAAAAAAAAAAAAAAAAAAAAAAAAAAAAAAAAAAJANJFMFMEICHIJPKGLJLKLHLGLFLCLCI",
"HHALALOKKKIKIKFKKJFIKGFIOLFMIKEDIADABAAAAAAAAAAAAAAAAAAAAAAAAAAAAAAAAAAAAAAABANCFMFMPLDGEIGKDLHLILILFLCLCLLH",
"CHNKKKIKFKCKNJOIHHMGLKFMEMJGFBFABAAAAAAAAAAAAAAAAAAAAAAAAAAAAAAAAAAAAAAAAAAAAABAMHFMFMPIPGLJPKELGLFLELDLELIH",
"PGLKIKDKBKIJJIDHLIAMFMGKBDIADAAAAAAAAAAAAAAAAAAAAAAAAAAAAAAAAAAAAAADAAAAAAAAAAAAGCEMFMNLBGOIKKELGLDLCLDLDLAH",
"KGHKEKCKOJBJJHNHFMDMMFDBADMAAAAAAAAAAAAAAAAAAAAAAAAAAAAAAAAAAAAAAAFJIAAAAAAAAAAABADIFMFMEHBICKDLFLELPKOKOKGG",
"JGGKFKCKAKAJGHDHFMEINAKDFMNGAAAAAAAAAAAAAAAAAAAAAAAAAAAAAAAAAAAAACDMFAAAAAAAAAAAAAODFMFMNICHKJNKELDLPKLKJKCG",
"KGGKHKFKAKDJIHKGFMIIJAGDHILBAAAAAAAAAAAAAAAAAAAAAAAAAAAAAAAAAAAAHGMJAAAAAAAAAAAAAAHCFMFMGKDGMIDKNKALOKIKFKFG",
"NGHKIKIKDKIJNHGGFMPIECAFKACAAAAAAAAAAAAAAAAAAAAAAAAAAAAAAAAAAAICDMOEAAAAAAAAAAAAAAHAOLFMOLGFNHKJGKIKKKEKPJNG",
"OGLKKKMKLKAKDIHGFMHLMLFMLGHACAAAAAAAAAAABABABABAAAAAAAAAAAAAHBDKNLJBAAAAAAAAAAAAAABAGJFMFMKFGHDJDKHKAKIJIJDH",
"CHBLPKOKPKEKKINGFMFMAMMKFMCGGAAAAACADAGAJBJCADADACCACACCPCPEELEMKDAAAAAAAAAAAAAAAABABHFMFMFGPGLILJOJGJBJFJKH",
"JHILGLFLCLHKCJJHFMPKDEFDCKFMFFCAEAOCMHFLFMFMFMFMFMEJPIFMFMFMFLIDAAAAAAAAAAAAAAAAAAAAIFFMFMPGLGEIJIPIKIOIHJNH",
"HIKLLLKLELKKLJKIHKOFBELECLFMKGOAPFFMFMFMFMMLFLPLFMFMFMIIHDMCLAAAAAAAAAAAAAAAAAAAAAAANEFMFMHHKGPHOHAIFIMIIJPH",
"BJPLOLNLILALHKNJNIIHFJEMFMGFGBHIFMFMIKOGNEBEMDDDALFMBJMAAAAAAAAAAAAAAAAAAAAAAAAAAAAANEFMFMKHHGPHNHKHCINIIJHI",
"JJCMBMPLMLHLDLNKAKBJKKFMFMBLCJFMFMCIKEJFBGLFBEEIFMJLMBAAAAAAAAAAAAAAAAAAAAAAAAAAAAAACFFMFMJHGGCIIIFIHINIHJMI",
"KJDMCMCMAMNLKLDLKKIJMHIHIKFMFMFMDIDFJGPGHGAFDGFMFMEECAAAAAAAAAAAAAAAAAAAAAAAAAAAAAAANFFMFMIHFGIIGJIJDJBJJJOI",
"OJCMDMCMAMAMNLILALFKGJCIJGLHGLEKMFNGOGEGFFMHBMFMFKPABAAAAAAAAAAAAAAAAAAAAAAAAAAAAAAAMGFMFMFHLGOIOJCKJJEJKJFJ",
"GKDMCMAMAMOLOLLLELNKGKLJLIMHFHHHEHAHLFIICMFMFMLJPBCAAAAAAAAAAAAAAAAAAAAAAAAAAAAAAAAAPHFMFMBHFHHJEKEKJJFJLJMJ",
"IKDMBMAMOLNLMLLLHLALKKDKMJEJMIEIGHMFCJFMEMEILDKACAAAAAAAAAAAAAAAAAAAAAAAAAAAAAAAAABAIJFMFMLGLHOJIKCKNJLJNJEK",
"KKBMBMAMOLMLLLILFLBLNKGKPJKJEJEIEGKIFMFMPDIADABAAAAAAAAAAAAAAAAAAAAAAAAAAAAAAAAAAABAOKFMFMBGPHPJHKEKCKCKAKHK",
"KKBMBMBMPLMLILELDLCLALLKPJKJMIPGPGEMFMKEGACAAAAAAAAAAAAAAAAAAAAAAAAAAAAAAAAAAAAAAABAPLFMDMFFOHKJEKFKGKEKCKJK",
"EKCMBMPLNLILGLELELDLBLMKDKIJPHOFJLFMGGGACAAAAAAAAAAAAAAAAAAAAAAAAAAAAAAAAAAAAAAAAAKAFMFMILBFJHFJNJOJDKEKGKIK",
"AKBMAMNLJLGLFLELELDLPKJKCKAJMGOIFMAKPACAAAAAAAAAAAAAAAAAAAAAAAAAAAAAAAAAAAAAAAAAAACBFMFMBLMECHNIFJFJOJDKIKIK",
"AKNLMLJLHLFLFLFLELCLLKEKKJCINFOLFMDDDAAAAAAAAAAAAAAAAAAAAAAAAAAAAAAAAAAAAAAAAAAAAAGBFMFMBLHENGDILIEJNJDKHKHK",
"JJILDLBLCLFLHLGLFLBLIKPJBJEHDHFMLJIABAAAAAAAAAAAAAAAAAAAAAAAAAAAAAAAAAAAAAAAAAAAAABBFMFMJLBECGNHKIAJGJNJCKDK",
"DJCLOKALALELGLFLCLPKHKNJMIJGLIFMIEFAAAAAAAAAAAAAAAAAAAAAAAAAAAAAAAAAAAAAAAAAAAAAAAEACMFMEMAENFLHLIOIDJGJLJPJ",
"NIPKPKBLBLALPKOKLKLKHKAKKIAGAKFMLCDAAAAAAAAAAAAAAAAAAAAAAAAAAAAAAAAAAAAAAAAAAAAAAABADKFMFMJFNFGHEIJIDJIJNJNJ",
"CICLDLALOKHKHKIKIKJKHKPJHIJFALFMJBCAAAAAAAAAAAAAAAAAAAAAAAAAAAAAAAAAAAAAAAAAAAAAAABAEHFMFMMHLFHHOHDIOIFJLJLJ",
"KHELBLNKJKDKCKFKIKKKHKOJEIHFKLFMDBHAFAFAFAGAGAGAGAGAGAGAGAGAGAGAGAGAGAGAGAGAGAGAGAGACEFMFMAKEFHHDIBIKIBJEJJJ",
"LHPKLKIKDKBKPJNJDKHKGKPJFIMFPLFMIHDHDHDHDHDHEHEHEHEHEHEHEHEHEHEHEHEHEHEHEHEHEHEHEHEHMIFMFMCMLFDHDIDIKIOICJDJ",
"NHCKEKGKDKAKOJLJKJPJGKBKMILGPLFMFMFMFMFMFMFMFMFMFMFMFMFMFMFMFMFMFMFMFMFMFMFMFMFMFMFMFMFMFMFMKIFHGIKIPIBJDJLI",
"PHLJMJBKBKAKPJPJJJIJBKAKFJPHDIEHJGIGMGOGBHDHFHFHEHDHEHGHGHGHGHFHGHGHGHHHGHGHHHFHFHHHHHIHMHEIFIOHJIMICJFJGJGI",
"PHMJKJLJNJBKBKPJLJKJNJMJMJOIBIHHOGOGGHIHLHNHPHNHMHOHAIDIEIEIEIEIFIGIFIHIFIGIGIEIDIHIGIGIGIKIOIBJAJBJBJFJMJBI",
"OHPJLJLJNJBKDKPJOJBKIJJJPJJJFJDJAJEJIJLJLJKJLJJJJJNJCKEKGKGKIKKKLKLKKKKKJKJKJKGKGKIKJKIKGKFKEKAKKJJJHJMJEKNH",
"NHAKPJAKBKAKCKNJPJDKKJKJPJOJPJCKDKFKGKEKEKHKFKEKFKKKOKALELHLJLLLMLKLKLLLKLJLHLGLFLFLHLHLGLDLNKIKFKEKDKJKOKLH",
"EHAICIOHDHKGJGLGHGFGFGCGCGFGOGKHNHBIGICICIIILIJIDIEIEICIDICIPHAICIGILIMICJBJMIKIKIJIJIJIHIIINIGJMJMJEJLIDIOG"};
