/* XPM */
static char *nll560[] = {
/* width height ncolors chars_per_pixel */
"54 54 83 2",
/* colors */
"AA c #FFFFFFFFFFFF",
"BA c #F4F4F4F4F4F4",
"CA c #F3F3F3F3F3F3",
"DA c #F2F2F2F2F2F2",
"EA c #F1F1F1F1F1F1",
"FA c #F0F0F0F0F0F0",
"GA c #EFEFEFEFEFEF",
"HA c #EEEEEEEEEEEE",
"IA c #EDEDEDEDEDED",
"JA c #ECECECECECEC",
"KA c #EBEBEBEBEBEB",
"LA c #EAEAEAEAEAEA",
"MA c #E9E9E9E9E9E9",
"NA c #E8E8E8E8E8E8",
"OA c #E7E7E7E7E7E7",
"PA c #E6E6E6E6E6E6",
"AB c #E5E5E5E5E5E5",
"BB c #E4E4E4E4E4E4",
"CB c #E3E3E3E3E3E3",
"DB c #E2E2E2E2E2E2",
"EB c #E1E1E1E1E1E1",
"FB c #E0E0E0E0E0E0",
"GB c #DFDFDFDFDFDF",
"HB c #DEDEDEDEDEDE",
"IB c #DDDDDDDDDDDD",
"JB c #DCDCDCDCDCDC",
"KB c #DBDBDBDBDBDB",
"LB c #DADADADADADA",
"MB c #D9D9D9D9D9D9",
"NB c #D8D8D8D8D8D8",
"OB c #D7D7D7D7D7D7",
"PB c #D6D6D6D6D6D6",
"AC c #D5D5D5D5D5D5",
"BC c #D4D4D4D4D4D4",
"CC c #D3D3D3D3D3D3",
"DC c #D2D2D2D2D2D2",
"EC c #D1D1D1D1D1D1",
"FC c #D0D0D0D0D0D0",
"GC c #CFCFCFCFCFCF",
"HC c #CECECECECECE",
"IC c #CDCDCDCDCDCD",
"JC c #CCCCCCCCCCCC",
"KC c #CBCBCBCBCBCB",
"LC c #CACACACACACA",
"MC c #C9C9C9C9C9C9",
"NC c #C7C7C7C7C7C7",
"OC c #C6C6C6C6C6C6",
"PC c #C5C5C5C5C5C5",
"AD c #C3C3C3C3C3C3",
"BD c #C2C2C2C2C2C2",
"CD c #C0C0C0C0C0C0",
"DD c #BFBFBFBFBFBF",
"ED c #BEBEBEBEBEBE",
"FD c #BCBCBCBCBCBC",
"GD c #BABABABABABA",
"HD c #B9B9B9B9B9B9",
"ID c #B7B7B7B7B7B7",
"JD c #B6B6B6B6B6B6",
"KD c #B3B3B3B3B3B3",
"LD c #B2B2B2B2B2B2",
"MD c #AFAFAFAFAFAF",
"ND c #A5A5A5A5A5A5",
"OD c #9F9F9F9F9F9F",
"PD c #969696969696",
"AE c #8F8F8F8F8F8F",
"BE c #878787878787",
"CE c #7F7F7F7F7F7F",
"DE c #787878787878",
"EE c #6F6F6F6F6F6F",
"FE c #686868686868",
"GE c #5F5F5F5F5F5F",
"HE c #595959595959",
"IE c #4F4F4F4F4F4F",
"JE c #4A4A4A4A4A4A",
"KE c #3F3F3F3F3F3F",
"LE c #3B3B3B3B3B3B",
"ME c #2F2F2F2F2F2F",
"NE c #2C2C2C2C2C2C",
"OE c #1F1F1F1F1F1F",
"PE c #1D1D1D1D1D1D",
"AF c #0F0F0F0F0F0F",
"BF c #0E0E0E0E0E0E",
"CF c #000000000000",
/* pixels */
"KBNBNBPBBCBCACBCDCCCECHCKCHCHCGCDCCCDCPBLBIBDBABPAPABBHBJBJBLBOBCCDCFCGCFCECECACMBKBKBKBHBFBCBCBBBABOALAJALA",
"GBFAFAFAFAFAFAFAFAFAFAFAFAFAFAFAFAFAFAFAFAFAFAFAFAFAFAFAFAFAFAFAFAFAFAFAFAFAFAFAFAFAFAFAFAFAFAFAFAFAFAFAFAMA",
"FBFAFAFAFAFAFAFAFAFAFAFAFAFAFAFAFAFAFAFAFAFAFAFAFAFAFAFAFAFAFAFAFAFAFAFAFAFAFAFAFAFAFAFAFAFAFAFAFAFAFAFAFANA",
"CBFAFAFAFAFAFAFAFAFAFAFAFAFAFAFAFAFAFAFAFAFAFAFAFAFAFAFAFAFAFAFAFAFAFAFAFAFAFAFAFAFAFAFAFAFAFAFAFAFAFAFAFAOA",
"ABFAFAFAFAFAFAFAFAFAFAFAFAFAFAFAFAFAFAFAFAFAFAFAFAFAFAFAFAFAFAFAFAFAFAFAFAFAFAFAFAFAFAFAFAFAFAFAFAFAFAFAFAPA",
"ABFAFAFAFAFAFAFAFAFAFAFAFAFAFAFAFAFAFAFAFAFAFAFAFAFAFAFAFAJAFAFAFAFAFAFAFAFAFAFAFAFAFAFAFAFAFAFAFAFAFAFAFAOA",
"BBFAFAFAFAFAFAFAFAFAFAFAFAFAFAFAFAFAFAFAFAFAFAFAFAFAFAFAKAKEPBFAFAFAFAFAFAFAFAFAFAFAFAFAFAFAFAFAFAFAFAFAFAPA",
"BBFAFAFAFAFAFAFAFAFAFAFAFAFAFAFAFAFAFAFAFAFAFAFAFAFAFAHADECFEEFAFAFAFAFAFAFAFAFAFAFAFAFAFAFAFAFAFAFAFAFAFABB",
"CBFAFAFAFAFAFAFAFAFAFAFAFAFAFAFAFAFAFAFAFAFAFAFAFAFAFAHDCFCFAFABFAFAFAFAFAFAFAFAFAFAFAFAFAFAFAFAFAFAFAFAFAEB",
"DBFAFAFAFAFAFAFAFAFAFAFAFAFAFAFAFAFAFAFAFAFAFAFAFAFACCPECFAFCFAEFAFAFAFAFAFAFAFAFAFAFAFAFAFAFAFAFAFAFAFAFAGB",
"CBFAFAFAFAFAFAFAFAFAFAFAFAFAFAFAFAFAFAFAFAFAFAFAFANDAFCFJEMDCFNEHAFAFAFAFAFAFAFAFAFAFAFAFAFAFAFAFAFAFAFAFAGB",
"CBFAFAFAFAFAFAFAFAFAFAFAFAFAFAFAFAFAFAFAFAFAFAEBHECFCFNEEBAAOECFAEGAFAFAFAFAFAFAFAFAFAFAFAFAFAFAFAFAFAFAFAKB",
"DBFAFAFAFAFAFAFAFAFAFAFAFAFAFAFAFAFAFAFAFAFAPDPECFAFAEBAAAAAPDCFCFMEKDFAFAFAFAFAFAFAFAFAFAFAFAFAFAFAFAFAFAPB",
"EBFAFAFAFAFAFAFAFAFAFAFAFAFAFAFAFAFAFAFAACKECFCFJECBAAAAAAAABAAEAFCFCFIEJBFAFAFAFAFAFAFAFAFAFAFAFAFAFAFAFABC",
"FBFAFAFAFAFAFAFAFAFAFAFAFAFAFAFAFAFAFAPDBFCFOELDAAAAAAAAAAAAAAAABACECFCFPENDEAFAFAFAFAFAFAFAFAFAFAFAFAFAFACC",
"GBFAFAFAFAFAFAFAFAFAFAFAFAFAFAFAFAGAEECFCFFEBAAAAAAAAAAAAAAAAAAAAAAANBMECFCFEEGAFAFAFAFAFAFAFAFAFAFAFAFAFABC",
"GBFAFAFAFAFAFAFAFAFAFAFAFAFAFAFAFAMDCFCFAEAAAABDAFIEAAAAAAAAAAAAAAAAAABAJECFCFFEGAFAFAFAFAFAFAFAFAFAFAFAFAAC",
"HBFAFAFAFAFAFAFAFAFAFAFAFAFAFAFBGECFCFCEAAAAODBFCFCFGEAAAAAAAAAAAAAAAAAACAKECFCFFEFAFAFAFAFAFAFAFAFAFAFAFAMB",
"IBFAFAFAFAFAFAFAFAFAFAFAFAFANDPECFBFBEAAAALDMENEMENEOEJAAAAAAAAAAAAAAAAAAAIAOECFCFAEEAFAFAFAFAFAFAFAFAFAFAHB",
"JBFAFAFAFAFAFAFAFAFAFAFAABGECFCFMEGCAAAAAAAAAAAAAAAAAAAAAAAAAAAAAAAAAAAAAAAACDCFCFBFBCFAFAFAFAFAFAFAFAFAFAEB",
"MBFAFAFAFAFAFAFAFAFAFAMDOECFAFAEBAAAAAAAAAAAAAAAAAAAAAAAAAAAAAAAAAAAAAAAAAAAAAGECFCFJEGAFAFAFAFAFAFAFAFAFAEB",
"PBFAFAFAFAFAFAFAFAGBHECFCFLELBAAAAAAAAAAAAAAAAAAAAAAAAAAAAAAAAAAAAAAAAAAAAAAAAPABFCFCFIDFAFAFAFAFAFAFAFAFACB",
"CCFAFAFAFAFAFAFANDPECFBFAEAAAAAAAAAAAAAAAAAAAAAAAAAAAAAAAAAAAAAAAAECAAAAAAAAAAAADECFCFIEFAFAFAFAFAFAFAFAFABB",
"HCFAFAFAFAFAFABECFCFJEGBAAAAAAAAAAAAAAAAAAAAAAAAAAAAAAAAAAAAAAAAAAIEAAAAAAAAAAAANABFCFBFBBFAFAFAFAFAFAFAFAAB",
"NCFAFAFAFAFAFACECFGEAAPDCFMDAAAAAAAAAAAAAAAAAAAAAAAAAAAAAAAAAAAAFDOEAAAAAAAAAAAAAAJECFCFNDDAFAFAFAFAFAFAFAPA",
"ADFAFAFAFAFAGABECFEEAAIEAFACAAAAAAAAAAAAAAAAAAAAAAAAAAAAAAAAAAAAIEJEAAAAAAAAAAAAAAAECFCFDEFAFAFAFAFAFAFAFAOA",
"BDFAFAFAFAFAFAAECFEEDAHCDAAAAAAAAAAAAAAAAAAAAAAAAAAAAAAAAAAAAAOCCFAEAAAAAAAAAAAAAAADCFCFKEEAFAFAFAFAFAFAFAAB",
"PCFAFAFAFAFAHAODCFMEPEBFPCAAAAAAAAAAAAAAAAAAAAAAAAAAAAAAAAAAHANEBFABAAAAAAAAAAAAAAFACFCFOEFAFAFAFAFAFAFAFAOA",
"LCFAFAFAFAFAFANDCFCFCFCFAFHCAAAAAAAAAAAAAAAABAAAAAAAAAAAHANDNECFPDAAAAAAAAAAAAAAAAAAPECFCFHAFAFAFAFAFAFAFAOA",
"ICFAFAFAFAFAFAMDCFAFNDPDCFAFCCAAAABBBEIENEBFCFCFMEAEFEAFCFCFCFCEAAAAAAAAAAAAAAAAAAAAMECFCFOBFAFAFAFAFAFAFAOA",
"DCFAFAFAFAFAFAIDLEOBDAJCPECFGEAAAEBFCFCFCFCFCFCFCFCFCFOEHEDEHCAAAAAAAAAAAAAAAAAAAAAAJECFCFOCFAFAFAFAFAFAFANA",
"ACFAFAFAFAFAFAOAIAJABEBFCFFEGAHECFCFAFGEODEDBDNDCFCFMEFAAAAAAAAAAAAAAAAAAAAAAAAAAAAAKECFCFFDFAFAFAFAFAFAFAMA",
"OBFAFAFAFAFAFAFAFANDCFCFCFDEHECFCFIEABDAEAFAFAHECFBFHBAAAAAAAAAAAAAAAAAAAAAAAAAAAAAAJECFCFGDFAFAFAFAFAFAFALA",
"NBFAFAFAFAFAFAFAFAEAOBFECFCFCFCFFEEAFAFAFAHAMDCFCFBEAAAAAAAAAAAAAAAAAAAAAAAAAAAAAAAALECFCFGDFAFAFAFAFAFAFALA",
"LBFAFAFAFAFAFAFAFAFAFAGAICKECFJEHAFAFAFAFANDBFCFOEAAAAAAAAAAAAAAAAAAAAAAAAAAAAAAAAAANECFCFBDFAFAFAFAFAFAFANA",
"KBFAFAFAFAFAFAFAFAFAFAFAFACANDBCFAFADAPDMECFCFAFJCAAAAAAAAAAAAAAAAAAAAAAAAAAAAAAAAAAPECFCFGCFAFAFAFAFAFAFANA",
"LBFAFAFAFAFAFAFAFAFAFAFAFAFAEAFAFAFADECFCFAFDELAAAAAAAAAAAAAAAAAAAAAAAAAAAAAAAAAAAAACFCFCFDBFAFAFAFAFAFAFAOA",
"LBFAFAFAFAFAFAFAFAFAFAFAFAFAFAFAGACECFCFDEAAAAAAAAAAAAAAAAAAAAAAAAAAAAAAAAAAAAAAAAMACFCFBFFAFAFAFAFAFAFAFANA",
"NBFAFAFAFAFAFAFAFAFAFAFAFAFAFAFALDCFCFEEAAAAAAAAAAAAAAAAAAAAAAAAAAAAAAAAAAAAAAAAAAMBCFCFOEFAFAFAFAFAFAFAFAMA",
"MBFAFAFAFAFAFAFAFAFAFAFAFAFAFAMBPECFHEAAAAAAAAAAAAAAAAAAAAAAAAAAAAAAAAAAAAAAAAAAAAKCCFCFLEFAFAFAFAFAFAFAFANA",
"MBFAFAFAFAFAFAFAFAFAFAFAFAFAFAGECFNEBAAAAAAAAAAAAAAAAAAAAAAAAAAAAAAAAAAAAAAAAAAAAADDCFCFJEFAFAFAFAFAFAFAFAOA",
"PBFAFAFAFAFAFAFAFAFAFAFAFAFALBCFCFHDAAAAAAAAAAAAAAAAAAAAAAAAAAAAAAAAAAAAAAAAAAAAAAIDCFCFIEFAFAFAFAFAFAFAFANA",
"ACFAFAFAFAFAFAFAFAFAFAFAFAFABECFKEAAAAAAAAAAAAAAAAAAAAAAAAAAAAAAAAAAAAAAAAAAAAAAAAGDCFCFKEEAFAFAFAFAFAFAFAPA",
"PBFAFAFAFAFAFAFAFAFAFAFAFADAIECFODAAAAAAAAAAAAAAAAAAAAAAAAAAAAAAAAAAAAAAAAAAAAAAAAMCCFCFMEFAFAFAFAFAFAFAFADB",
"ACFAFAFAFAFAFAFAFAFAFAFAFAFAOECFIAAAAAAAAAAAAAAAAAAAAAAAAAAAAAAAAAAAAAAAAAAAAAAAAAPACFCFBFLAFAFAFAFAFAFAFAIB",
"DCFAFAFAFAFAFAFAFAFAFAFAFAGACFPEAAAAAAAAAAAAAAAAAAAAAAAAAAAAAAAAAAAAAAAAAAAAAAAAAAAAAFCFCFDDFAFAFAFAFAFAFAMB",
"DCFAFAFAFAFAFAFAFAFAFAFAFALBCFNEAAAAAAAAAAAAAAAAAAAAAAAAAAAAAAAAAAAAAAAAAAAAAAAAAAAAJECFCFCEDAFAFAFAFAFAFAOB",
"OBFAFAFAFAFAFAFAFAFAFAFAFAHCCFPEODPDODODPDODODPDODODPDODODPDODODPDODODPDODODPDODODPDJECFCFLEFAFAFAFAFAFAFAPB",
"JBFAFAFAFAFAFAFAFAFAFAFAFAJCCFCFCFCFCFCFCFCFCFCFCFCFCFCFCFCFCFCFCFCFCFCFCFCFCFCFCFCFCFCFCFCFCCFAFAFAFAFAFABC",
"GBFAFAFAFAFAFAFAFAFAFAFAFAGBFEFEFEFEFEFEFEFEFEFEFEFEFEFEFEFEFEFEFEFEFEFEFEFEFEFEFEFEFEFEFEFEJDFAFAFAFAFAFABC",
"HBFAFAFAFAFAFAFAFAFAFAFAFAFAFAFAFAEAFAFAEAFAFAEAFAFAEAFAFAEAFAFAEAFAFAEAFAFAEAFAFAEAFAFAFAEAFAFAFAFAFAFAFANB",
"MBFAFAFAFAFAFAFAFAFAFAFAFAFAFAFAFAFAFAFAFAFAFAFAFAFAFAFAFAFAFAFAFAFAFAFAFAFAFAFAFAFAFAFAFAFAFAFAFAFAFAFAFAJB",
"OBFAFAFAFAFAFAFAFAFAFAFAFAFAFAFAFAFAFAFAFAFAFAFAFAFAFAFAFAFAFAFAFAFAFAFAFAFAFAFAFAFAFAFAFAFAFAFAFAFAFAFAFAFB",
"OBMBMBPBBCFCGCFCDCDCECHCJCGCECECECECCCNBHBDBPAPAPAPAPAABBBCBBBCBGBKBNBNBMBMBPBOBNBNBNBMBJBHBHBGBHBGBGBDBPAAB"};
