/* XPM */
static char *pdd560[] = {
/* width height ncolors chars_per_pixel */
"54 54 119 2",
/* colors */
"AA c #909090909090",
"BA c #8F8F8F8F8F8F",
"CA c #888888888888",
"DA c #7F7F7F7F7F7F",
"EA c #787878787878",
"FA c #767676767676",
"GA c #717171717171",
"HA c #707070707070",
"IA c #6F6F6F6F6F6F",
"JA c #6E6E6E6E6E6E",
"KA c #6C6C6C6C6C6C",
"LA c #6B6B6B6B6B6B",
"MA c #6A6A6A6A6A6A",
"NA c #696969696969",
"OA c #686868686868",
"PA c #676767676767",
"AB c #666666666666",
"BB c #656565656565",
"CB c #646464646464",
"DB c #636363636363",
"EB c #626262626262",
"FB c #616161616161",
"GB c #606060606060",
"HB c #5F5F5F5F5F5F",
"IB c #5E5E5E5E5E5E",
"JB c #5D5D5D5D5D5D",
"KB c #5C5C5C5C5C5C",
"LB c #5B5B5B5B5B5B",
"MB c #5A5A5A5A5A5A",
"NB c #595959595959",
"OB c #585858585858",
"PB c #575757575757",
"AC c #565656565656",
"BC c #555555555555",
"CC c #545454545454",
"DC c #535353535353",
"EC c #525252525252",
"FC c #515151515151",
"GC c #505050505050",
"HC c #4F4F4F4F4F4F",
"IC c #4E4E4E4E4E4E",
"JC c #4D4D4D4D4D4D",
"KC c #4C4C4C4C4C4C",
"LC c #4B4B4B4B4B4B",
"MC c #4A4A4A4A4A4A",
"NC c #494949494949",
"OC c #484848484848",
"PC c #474747474747",
"AD c #464646464646",
"BD c #454545454545",
"CD c #444444444444",
"DD c #434343434343",
"ED c #424242424242",
"FD c #414141414141",
"GD c #404040404040",
"HD c #3F3F3F3F3F3F",
"ID c #3E3E3E3E3E3E",
"JD c #3D3D3D3D3D3D",
"KD c #3C3C3C3C3C3C",
"LD c #3B3B3B3B3B3B",
"MD c #3A3A3A3A3A3A",
"ND c #393939393939",
"OD c #383838383838",
"PD c #373737373737",
"AE c #363636363636",
"BE c #353535353535",
"CE c #343434343434",
"DE c #333333333333",
"EE c #323232323232",
"FE c #313131313131",
"GE c #303030303030",
"HE c #2F2F2F2F2F2F",
"IE c #2E2E2E2E2E2E",
"JE c #2D2D2D2D2D2D",
"KE c #2C2C2C2C2C2C",
"LE c #2B2B2B2B2B2B",
"ME c #2A2A2A2A2A2A",
"NE c #292929292929",
"OE c #282828282828",
"PE c #272727272727",
"AF c #262626262626",
"BF c #252525252525",
"CF c #242424242424",
"DF c #232323232323",
"EF c #222222222222",
"FF c #212121212121",
"GF c #202020202020",
"HF c #1F1F1F1F1F1F",
"IF c #1E1E1E1E1E1E",
"JF c #1D1D1D1D1D1D",
"KF c #1C1C1C1C1C1C",
"LF c #1B1B1B1B1B1B",
"MF c #1A1A1A1A1A1A",
"NF c #191919191919",
"OF c #181818181818",
"PF c #171717171717",
"AG c #161616161616",
"BG c #151515151515",
"CG c #141414141414",
"DG c #131313131313",
"EG c #121212121212",
"FG c #111111111111",
"GG c #101010101010",
"HG c #0F0F0F0F0F0F",
"IG c #0E0E0E0E0E0E",
"JG c #0D0D0D0D0D0D",
"KG c #0C0C0C0C0C0C",
"LG c #0B0B0B0B0B0B",
"MG c #0A0A0A0A0A0A",
"NG c #090909090909",
"OG c #080808080808",
"PG c #070707070707",
"AH c #060606060606",
"BH c #050505050505",
"CH c #040404040404",
"DH c #030303030303",
"EH c #020202020202",
"FH c #010101010101",
"GH c #000000000000",
/* pixels */
"KCBDKCECFCFCECCCGCICFCJCLCICECECLCFDNDDECEAEAELDEDHDPDCECENDFDFDKDLDJDEDJCDCDCFCGCJCJCJCFCPBLBPBECFCECFCMCIC",
"FDAFDFHFNFNFOFBGFGHGHGKGKGIGEGDGFGDGOFLFJFHFIFNFAGDGDGFGHGJGLGNGOGOGPGPGPGBHCHEHEHEHFHEHEHEHDHDHCHAHNGIGDGKD",
"IDIFMFAGDGDGEGFGHGIGJGKGJGGGBGBGBGBGPFPFMFIFJFAGHGIGIGJGJGHGHGMGPGPGOGPGPGAHDHDHEHEHEHEHEHEHDHDHDHCHPGLGFGHD",
"LDMFDGIGIGHGIGHGIGIGKGJGGGEGCGOFPFBGAGBGPFLFOFDGJGKGKGLGJGFGEGIGNGPGOGPGPGAHCHDHDHDHEHEHEHEHEHEHDHBHAHOGJGHD",
"DEEGJGMGMGKGIGHGJGKGJGGGEGDGCGOFPFAGNFNFAGCGFGHGJGKGJGJGHGDGPFEGJGMGOGPGPGPGAHDHDHDHDHEHEHFHFHEHDHBHAHOGMGMD",
"OEJGMGNGPGNGMGLGLGLGIGGGEGDGDGCGPFOFNFAGEGIGJGKGLGKGJGIGFGCGPFAGCGGGKGLGMGOGBHCHCHBHBHCHDHFHEHEHCHAHOGMGLGND",
"CFMGOGPGBHBHPGPGOGMGKGIGHGDGDGDGOFJFMFBGGGJGKGKGLGJGGGHGFGAGNFLFNFCGGGGGKGNGPGBHAHAHPGAHCHCHCHCHBHPGNGLGKGJD",
"NEPGAHBHCHBHPGPGNGNGMGLGJGFGDGBGLFKFKFOFGGJGIGGGDGPFNFNFLFIFEFFFLFPFDGFGJGKGKGMGMGMGNGOGOGPGBHBHPGNGMGMGMGHD",
"GEBHBHBHBHAHAHAHPGOGPGOGMGIGDGAGMFKFHFMFDGFGBGJFOEGEBEAECEFEHEMEEFLFBGDGEGHGGGFGGGIGJGLGJGJGLGMGNGMGMGNGNGHD",
"BECHAHPGAHBHCHCHBHBHCHBHOGLGFGOFNFLFHFKFMFKFNEKDGCCCKCJCOBPBMCJDJEEFKFMFMFOFPFNFPFEGFGGGGGDGCGDGGGJGLGMGMGLD",
"DECHBHBHBHCHDHEHDHDHDHCHPGNGGGOFPFMFIFJFEFCEHCKCMFGHGHGHGHKFCCNBGDIEAFCFAFBFEFGFLFNFAGBGAGNFMFIFKFPFFGIGIGBE",
"EEBHCHCHBHCHDHDHEHEHDHDHBHNGGGPFOFAGMFFFCEDCHDFHGHGHGHGHGHGHFHBDLBFDCEJEGEFELEAFGFGFJFLFIFHFGFAFCFIFNFBGFGFE",
"DEBHDHDHCHCHDHCHCHDHEHDHCHOGIGBGOFBGOFNELCMCFHGHGHGHGHGHGHGHGHFHECMBEDBEDEEEGEOEDFFFEFGFFFDFCFOEPEFFIFPFEGJE",
"FECHDHDHCHCHCHBHCHCHCHCHCHPGLGDGAGAGJFCEKBMGGHGHGHGHGHGHGHGHGHGHKGLAICJDDEJENEEFIFIFIFHFIFJFIFAFBFGFJFMFEGHE",
"CEBHCHDHCHCHBHPGAHBHBHCHBHAHLGFGCGOFCFFDPCGHGHGHGHGHGHGHGHGHGHGHGHFCECODLEBFHFHFKFMFOFNFNFPFPFKFFFHFLFPFDGEE",
"NDAHAHCHAHAHPGMGOGAHAHBHBHPGLGHGFGOFNELCPDGHGHGHGHGHGHGHGHGHGHGHGHLDDCEEEFLFMFKFKFPFDGDGDGEGDGDGOFKFOFDGDGCE",
"MDAHPGPGNGOGNGMGOGBHAHAHAHPGOGLGHGPFLEHCDEGHGHGHGHGHGHGHGHGHGHGHGHCEFCIEKFPFPFNFOFPFBGHGIGHGFGGGDGCGEGFGGGAE",
"IDPGMGKGJGKGLGMGOGPGPGAHAHAHPGNGKGAGKEICLDGHGHGHGHGHGHGHGHGHGHGHGHLDOCPEPFAGOFAGBGPFCGHGJGJGIGHGHGHGHGIGGGMD",
"ADMGHGEGGGGGHGKGNGOGOGAHBHBHBHPGLGAGPEADFCGHGHGHGHGHGHGHGHGHGHGHGHICLDHFCGDGBGCGCGAGCGGGHGJGLGKGKGHGJGIGFGID",
"NCIGDGCGBGAGCGHGLGNGPGBHCHDHCHAHKGBGDFLDDBAGGHGHGHGHGHGHGHGHGHGHAGLBGEMFGGIGFGEGCGPFAGCGEGIGJGKGLGIGHGGGDGDD",
"ICBGBGPFLFKFOFEGIGMGPGCHEHEHDHBHMGCGGFDENBIAMGGHGHGHGHGHGHGHGHMGMAHCNEPFHGKGIGGGDGAGNFMFBGHGIGJGJGJGGGDGDGMC",
"DCOFLFJFGFHFLFPFFGLGAHDHEHEHDHBHMGGGHFAEIBBAKDGHGHGHGHGHGHGHGHKDCADCKENFEGIGJGKGGGCGMFJFPFFGHGGGHGGGFGEGFGJC",
"ACMFJFEFDFPEBFIFAGJGAHDHEHEHCHNGGGLFIEICHALEGHGHGHGHGHGHGHGHGHGHMECBDDPEOFFGJGKGHGDGLFJFAGFGGGHGHGEGDGEGEGBC",
"LBIFFFDFBFMELEFFAGIGPGDHEHDHNGDGHFEEECPAPFGHGHGHGHGHGHGHGHGHGHGHGHAGKBADNENFFGHGGGCGNFMFAGDGFGIGGGFGAGPFPFHB",
"KBHFGFDFDFNEAFKFDGMGAHCHEHBHIGIFEEECKBJGGHGHGHGHGHGHGHGHGHGHGHGHGHGHKGECPCLEMFDGFGCGAGOFOFAGDGEGFGEGAGMFKFDB",
"LBHFIFGFDFBFFFLFFGLGPGBHDHPGDGMENCCDCHGHGHGHGHGHGHGHGHGHGHGHGHGHGHGHGHCHJDGDPEOFDGFGCGAGMFMFLFLFPFBGPFJFGFGB",
"OBIFJFJFGFHFKFOFFGKGOGBHCHOGAGFEPEGHGHGHGHGHGHGHGHGHGHGHGHGHGHGHGHGHGHGHGHDFIEMFDGHGFGAGMFGFBFFFJFJFLFFFAFOB",
"PBMFLFNFOFOFPFBGEGIGNGBHBHMGAGIFLFBFKEEEODGDEEGHGHGHGHGHGHGHGHGEMDGELEAFHFPFKFOFEGGGGGCGLFCFPEAFGFIFBFJEJEEC",
"DCCGAGPFCGBGBGEGHGMGOGBHCHOGFGFFBEMCOBABFAAAEBGHGHGHGHGHGHGHGHIBDAJBLCDDNDLEKFEGJGIGFGAGGFPEMEKEPEPEHECEGELC",
"KCJGHGGGEGCGCGFGKGOGAHCHCHBHMGCGHFJENDCDBCEAAEGHGHGHGHGHGHGHGHBEPAMDDFKFPFDGIGMGNGLGFGMFBFNEMEEENDAELDPDIEOC",
"IDLGMGLGGGBGAGGGKGNGAHBHAHAHNGHGDGIFJEBELCFADGGHGHGHGHGHGHGHGHBGABEEBGMGPGBHBHAHPGLGBGIFAFAFOEAECDBDGDNDJEAD",
"CEAHPGOGKGEGDGHGKGNGAHBHBHPGMGHGDGLFLEODECOAGHGHGHGHGHGHGHGHGHGHEBLDAGPGEHFHEHCHOGIGNFEFPEPENEBEBDLCDDODJEID",
"KEDHCHAHNGJGIGJGKGMGOGAHBHPGKGDGOFHFLEHDGBEDGHGHGHGHGHGHGHGHGHGHFDJCGFLGDHDHDHAHKGEGMFGFOELELEEEMDGDIDODIEND",
"LEEHDHDHBHOGMGJGIGIGJGMGOGMGHGOFJFCFIEADIAEGGHGHGHGHGHGHGHGHGHGHCGEBFEDGPGBHAHNGIGDGAGOFEFNEJEKEKEJEEECEKEPD",
"PEDHEHDHBHBHOGKGGGEGEGHGIGHGBGKFGFBFPDCCMBGHGHGHGHGHGHGHGHGHGHGHGHACADFFJGPGNGLGIGDGBGAGJFCFPEAFCFDFKEFELEGE",
"HFEHDHBHBHPGPGMGGGDGCGBGAGAGMFFFGFNEDDMAOEGHGHGHGHGHGHGHGHGHGHGHGHOEHBCEPFKGMGLGJGGGCGPFNFJFJFIFIFFFKEGEMENE",
"JFEHCHBHPGOGNGMGIGCGNFJFIFHFGFFFPEODMBLBGHGHGHGHGHGHGHGHGHGHGHGHGHFHPBHCNECGIGLGKGFGCGAGAGOFMFPFMFDFOEMEOEFF",
"LFCHCHBHPGNGMGJGGGCGOFIFDFBFCFBFBEFCLAJGGHGHGHGHGHGHGHGHGHGHGHGHGHGHJGBBPCOEPFGGIGEGCGCGBGOFLFNFKFFFDFDFBFIF",
"LFCHCHCHAHNGJGFGEGDGBGMFAFOEKENDGCIAKFGHGHGHGHGHGHGHGHGHGHGHGHGHGHGHGHKFPAPCIEJFAGPFCGBGOFLFHFGFGFGFHFFFDFKF",
"FFDHCHAHOGJGHGFGFGEGCGLFCFJEJDPBIAEFGHGHGHGHGHGHGHGHGHGHGHGHGHGHGHGHGHGHFFNAGCODNEFFLFNFJFDFOEAFAFPEEFFFHFJF",
"BFCHBHOGKGHGGGFGFGEGOFFFKEFDJBJBEGGHGHGHGHGHGHGHGHGHGHGHGHGHGHGHGHGHGHGHGHEGLBIBADEEAFEFBFHEDEHEHEGEPEEFJFJF",
"BFOGNGKGIGGGGGGGFGCGHFJECDDBFDEHGHGHGHGHGHGHGHGHGHGHGHGHGHGHGHGHGHGHGHGHGHGHEHDDCBNCAEJEEEPDNDMDNDFEOEEFIFIF",
"KEJGEGCGDGGGIGHGGGPFOEGDEBODGHGHGHGHGHGHGHGHGHGHGHGHGHGHGHGHGHGHGHGHGHGHGHGHGHGHKDMAICHDIDHDDDIDMDBEHEOEDFEF",
"EEDGPFBGBGFGHGGGCGLFFEDCICGHGHGHGHGHGHGHGHGHGHGHGHGHGHGHGHGHGHGHGHGHGHGHGHGHGHGHGHPBEBMCFDDDBDHDODPDEEHEMEAF",
"ODAGAGCGCGBGAGPFLFDFMDEBBGGHGHGHGHGHGHGHGHGHGHGHGHGHGHGHGHGHGHGHGHGHGHGHGHGHGHGHGHMFJAICIDMDKDFDIDLDEEJEOEOE",
"DDDGEGBGPFIFIFJFIFAFEDEBGHGHGHGHGHGHGHGHGHGHGHGHGHGHGHGHGHGHGHGHGHGHGHGHGHGHGHGHGHGHMAICPDHEEEMDEDEDPDGEMEME",
"LCFGCGOFKFEFDFGFHFPEDDLBGHGHGHGHGHGHGHGHGHGHGHGHGHGHGHGHGHGHGHGHGHGHGHGHGHGHGHGHGHGHKBOCIEOEHEDEKDDDLDCEFEKE",
"MCAGMFJFEFCFAFOECFNEFDECGHGHGHGHGHGHGHGHGHGHGHGHGHGHGHGHGHGHGHGHGHGHGHGHGHGHGHGHGHGHFCLDAFAFHECEMDFDLDPDDEEE",
"OCDFFFHFEFBFPEMEKEJEPDBDKFEFBFOENENEPEAFBFCFCFDFCFCFCFDFDFDFCFCFDFDFDFDFDFDFDFDFGFNFIDJEHFCFJECEPDNDAECEEEMD",
"ADMENECFCFBFAFAFJEFEGEJDICJBCBKAGAHANAABFBIBMBNBKBKBLBNBOBOBNBNBNBNBOBPBOBOBPBPBFCHDKEJFNFJFOEEEBEODDEGEHEHD",
"ADNELEMEOECFCFAFMEJEJEEEDEJDGDFDADDDMDPDBEEEGEEEDEFEIELEMELEMEMENEOENEPENEOEOEMEOEIFOFCGCGOFGFNEEEDECEGENECD",
"PCAFMEMEOECFEFAFPEBFIEIEOEKEKELEKEOEDFFFGFFFGFEFEFIFNFPFBGCGDGFGGGGGFGGGEGEGFGBGCGFGIGIGGGCGNFFFMEKEIENEFFOC",
"OCBFAFBFCFBFDFOEAFEFLELEAFAFBFFFGFIFJFIFIFKFIFHFIFNFCGDGIGLGNGOGPGOGNGPGNGMGKGKGJGJGLGLGKGGGAGKFGFFFEFKFPFMC",
"FCBDDDPCECLBKBMBIBGBGBDBDBGBPBLCOCCDHDDDDDJDMDKDEDFDFDDDEDDDADBDDDHDMDNDDECENDLDLDKDKDKDIDJDODHENENEFEMDEDPB"};
