/* XPM */
static char *pdl560[] = {
/* width height ncolors chars_per_pixel */
"54 54 69 2",
/* colors */
"AA c #F4F4F4F4F4F4",
"BA c #F3F3F3F3F3F3",
"CA c #F2F2F2F2F2F2",
"DA c #F1F1F1F1F1F1",
"EA c #F0F0F0F0F0F0",
"FA c #EFEFEFEFEFEF",
"GA c #EEEEEEEEEEEE",
"HA c #EDEDEDEDEDED",
"IA c #ECECECECECEC",
"JA c #EAEAEAEAEAEA",
"KA c #E9E9E9E9E9E9",
"LA c #E8E8E8E8E8E8",
"MA c #E7E7E7E7E7E7",
"NA c #E6E6E6E6E6E6",
"OA c #E5E5E5E5E5E5",
"PA c #E4E4E4E4E4E4",
"AB c #E3E3E3E3E3E3",
"BB c #E2E2E2E2E2E2",
"CB c #E1E1E1E1E1E1",
"DB c #E0E0E0E0E0E0",
"EB c #DFDFDFDFDFDF",
"FB c #DEDEDEDEDEDE",
"GB c #DDDDDDDDDDDD",
"HB c #DCDCDCDCDCDC",
"IB c #DBDBDBDBDBDB",
"JB c #DADADADADADA",
"KB c #D9D9D9D9D9D9",
"LB c #D8D8D8D8D8D8",
"MB c #D7D7D7D7D7D7",
"NB c #D6D6D6D6D6D6",
"OB c #D5D5D5D5D5D5",
"PB c #D4D4D4D4D4D4",
"AC c #D3D3D3D3D3D3",
"BC c #D2D2D2D2D2D2",
"CC c #D1D1D1D1D1D1",
"DC c #D0D0D0D0D0D0",
"EC c #CFCFCFCFCFCF",
"FC c #CECECECECECE",
"GC c #CDCDCDCDCDCD",
"HC c #CCCCCCCCCCCC",
"IC c #CBCBCBCBCBCB",
"JC c #CACACACACACA",
"KC c #C7C7C7C7C7C7",
"LC c #C6C6C6C6C6C6",
"MC c #C5C5C5C5C5C5",
"NC c #C4C4C4C4C4C4",
"OC c #C3C3C3C3C3C3",
"PC c #C2C2C2C2C2C2",
"AD c #C1C1C1C1C1C1",
"BD c #BDBDBDBDBDBD",
"CD c #BBBBBBBBBBBB",
"DD c #BABABABABABA",
"ED c #B9B9B9B9B9B9",
"FD c #B7B7B7B7B7B7",
"GD c #B5B5B5B5B5B5",
"HD c #B3B3B3B3B3B3",
"ID c #B2B2B2B2B2B2",
"JD c #A5A5A5A5A5A5",
"KD c #969696969696",
"LD c #878787878787",
"MD c #787878787878",
"ND c #686868686868",
"OD c #595959595959",
"PD c #4A4A4A4A4A4A",
"AE c #3B3B3B3B3B3B",
"BE c #2C2C2C2C2C2C",
"CE c #1D1D1D1D1D1D",
"DE c #0E0E0E0E0E0E",
"EE c #000000000000",
/* pixels */
"IBLBLBNBPBPBOBPBBCACCCFCICFCFCECBCACBCNBJBGBBBOANANAPAFBHBHBJBMBACBCDCECDCCCCCOBKBIBIBIBFBDBABABPAOAMAJAIAJA",
"EBEAEAEAEAEAEAEAEAEAEAEAEAEAEAEAEAEAEAEAEAEAEAEAEAEAEAEAEAEAEAEAEAEAEAEAEAEAEAEAEAEAEAEAEAEAEAEAEAEAEAEAEAKA",
"DBEAEAEAEAEAEAEAEAEAEAEAEAEAEAEAEAEAEAEAEAEAEAEAEAEAEAEAEAEAEAEAEAEAEAEAEAEAEAEAEAEAEAEAEAEAEAEAEAEAEAEAEALA",
"ABEAEAEAEAEAEAEAEAEAEAEAEAEAEAEAEAEAEAEAEAEAEAEAEAEAEAEAEAEAEAEAEAEAEAEAEAEAEAEAEAEAEAEAEAEAEAEAEAEAEAEAEAMA",
"OAEAEAEAEAEAEAEAEAEAEAEAEAEAEAEAEAEAEAEAEAEAEAEAEAEAEAEAEAEAEAEAEAEAEAEAEAEAEAEAEAEAEAEAEAEAEAEAEAEAEAEAEANA",
"OAEAEAEAEAEAEAEAEAEAEAEAEAEAEAEAEAEAEAEAEAEAEAEAEAEAEAEAEAEAEAEAEAEAEAEAEAEAEAEAEAEAEAEAEAEAEAEAEAEAEAEAEAMA",
"PAEAEAEAEAEAEAEAEAEAEAEAEAEAEAEAEAEAEAEAEAEAEAEAEAEAEAEAEAEAEAEAEAEAEAEAEAEAEAEAEAEAEAEAEAEAEAEAEAEAEAEAEANA",
"PAEAEAEAEAEAEAEAEAEAEAEAEAEAEAEAEAEAEAEAEAEAEAEAEAEAEAEAEAEAEAEAEAEAEAEAEAEAEAEAEAEAEAEAEAEAEAEAEAEAEAEAEAPA",
"ABEAEAEAEAEAEAEAEAEAEAEAEAEAEAEAEAEAEAEAEAEAEAEAEAEAEAEAEAEAEAEAEAEAEAEAEAEAEAEAEAEAEAEAEAEAEAEAEAEAEAEAEACB",
"BBEAEAEAEAEAEAEAEAEAEAEAEAEAEAEAEAEAEAEAEAEAEAEAEAJBEDDDJBEAEAEAEAEAEAEAEAEAEAEAEAEAEAEAEAEAEAEAEAEAEAEAEAEB",
"ABEAEAEAEAEAEAEAEAEAEAEAEAEAEAEAEAEAEAEAEAEAEAIDAEEEEEEEEEAEGDEAEAEAEAEAEAEAEAEAEAEAEAEAEAEAEAEAEAEAEAEAEAEB",
"ABEAEAEAEAEAEAEAEAEAEAEAEAEAEAEAEAEAEAEAEADALDEEEEEEEEEEEEEEEELDEAEAEAEAEAEAEAEAEAEAEAEAEAEAEAEAEAEAEAEAEAIB",
"BBEAEAEAEAEAEAEAEAEAEAEAEAEAEAEAEAEAEAEAEAJDEEEEEEEEEEEEEEEEEEEEJDCAEAEAEAEAEAEAEAEAEAEAEAEAEAEAEAEAEAEAEANB",
"CBEAEAEAEAEAEAEAEAEAEAEAEAEAEAEAEAEAEAEAKADEEEEEEEEEEEEEEEEEEEEECELAEAEAEAEAEAEAEAEAEAEAEAEAEAEAEAEAEAEAEAPB",
"DBEAEAEAEAEAEAEAEAEAEAEAEAEAEAEAEAEAEAEAJDEEEEEEEEEEEEEEEEEEEEEEEEJDFAEAEAEAEAEAEAEAEAEAEAEAEAEAEAEAEAEAEAAC",
"EBEAEAEAEAEAEAEAEAEAEAEAEAEAEAEAEAEAEAIAMDEEEEEEEEEEEEEEEEEEEEEEEEMDEAEAEAEAEAEAEAEAEAEAEAEAEAEAEAEAEAEAEAPB",
"EBEAEAEAEAEAEAEAEAEAEAEAEAEAEAEAEAEAEAEANDEEEEEEEEEEEEEEEEEEEEEEEENDEAEAEAEAEAEAEAEAEAEAEAEAEAEAEAEAEAEAEAOB",
"FBEAEAEAEAEAEAEAEAEAEAEAEAEAEAEAEAEAEADAMDEEEEEEEEEEEEEEEEEEEEEEEEMDEAEAEAEAEAEAEAEAEAEAEAEAEAEAEAEAEAEAEAKB",
"GBEAEAEAEAEAEAEAEAEAEAEAEAEAEAEAEAEAEAEAGDEEEEEEEEEEEEEEEEEEEEEEEEDDEAEAEAEAEAEAEAEAEAEAEAEAEAEAEAEAEAEAEAFB",
"HBEAEAEAEAEAEAEAEAEAEAEAEAEAEAEAEAEAEAEAIABEEEEEEEEEEEEEEEEEEEEEBEGAEAEAEAEAEAEAEAEAEAEAEAEAEAEAEAEAEAEAEACB",
"KBEAEAEAEAEAEAEAEAEAEAEAEAEAEAEAEAEAEAEAEAADDEEEEEEEEEEEEEEEEEDENCEAEAEAEAEAEAEAEAEAEAEAEAEAEAEAEAEAEAEAEACB",
"NBEAEAEAEAEAEAEAEAEAEAEAEAEAEAEAEAEAEAEAEADAPDEEEEEEEEEEEEEEEEODFAEAEAEAEAEAEAEAEAEAEAEAEAEAEAEAEAEAEAEAEAAB",
"ACEAEAEAEAEAEAEAEAEAEAEAEAEAEAEAEAEAEAEADBPDEEEEEEEEEEEEEEEEEEEEPDEBEAEAEAEAEAEAEAEAEAEAEAEAEAEAEAEAEAEAEAPA",
"FCEAEAEAEAEAEAEAEAEAEAEAEAEAEAEAEAEAEAACBEEEEEEEEEEEEEEEEEEEEEEEEEBEOBEAEAEAEAEAEAEAEAEAEAEAEAEAEAEAEAEAEAOA",
"KCEAEAEAEAEAEAEAEAEAEAEAEAEAEAEAEAEABDCEEEEEEEEEEEEEEEEEEEEEEEEEEEEECECDEAEAEAEAEAEAEAEAEAEAEAEAEAEAEAEAEANA",
"OCEAEAEAEAEAEAEAEAEAEAEAEAEAEAEAEAKDDEEEEEEEEEEEEEEEEEEEEEEEEEEEEEEEEEDEKDEAEAEAEAEAEAEAEAEAEAEAEAEAEAEAEAMA",
"PCEAEAEAEAEAEAEAEAEAEAEAEAEAEAFAMDEEEEEEEEEEEEEEEEEEEEEEEEEEEEEEEEEEEEEEEEMDFAEAEAEAEAEAEAEAEAEAEAEAEAEAEAOA",
"MCEAEAEAEAEAEAEAEAEAEAEAEAEADAJDODODODODODODAEEEEEEEEEEEEEEEEEAEODODODODODODJDEAEAEAEAEAEAEAEAEAEAEAEAEAEAMA",
"JCEAEAEAEAEAEAEAEAEAEAEAEAEAEACADADADADADACALDEEEEEEEEEEEEEEEEKDHADADACABACABAEAEAEAEAEAEAEAEAEAEAEAEAEAEAMA",
"GCEAEAEAEAEAEAEAEAEAEAEAEAEAEAEAEAEAEAEAEAFAODEEEEEEEEEEEEEEEEODEAEAEAEAEAEAEAEAEAEAEAEAEAEAEAEAEAEAEAEAEAMA",
"BCEAEAEAEAEAEAEAEAEAEAEAEAEAEAEAEAEAEAEAEAEACEEEEEEEEEEEEEEEEECEBAEAEAEAEAEAEAEAEAEAEAEAEAEAEAEAEAEAEAEAEALA",
"OBEAEAEAEAEAEAEAEAEAEAEAEAEAEAEAEAEAEAEAEAJCEEEEEEEEEEEEEEEEEEEEDCEAEAEAEAEAEAEAEAEAEAEAEAEAEAEAEAEAEAEAEAKA",
"MBEAEAEAEAEAEAEAEAEAEAEAEAEAEAEAEAEAEAEAEAMDEEEEEEEEEEEEEEEEEEEELDIAEAEAEAEAEAEAEAEAEAEAEAEAEAEAEAEAEAEAEAJA",
"LBEAEAEAEAEAEAEAEAEAEAEAEAEAEAEAEAEAEAEAFACEEEEEEEEEEEEEEEEEEEEECEFAEAEAEAEAEAEAEAEAEAEAEAEAEAEAEAEAEAEAEAJA",
"JBEAEAEAEAEAEAEAEAEAEAEAEAEAEAEAEAEAEAEAIDEEEEEEEEEEEEEEEEEEEEEEEEHDEAEAEAEAEAEAEAEAEAEAEAEAEAEAEAEAEAEAEALA",
"IBEAEAEAEAEAEAEAEAEAEAEAEAEAEAEAEAEAEAHAPDEEEEEEEEEEEEEEEEEEEEEEEEPDEAEAEAEAEAEAEAEAEAEAEAEAEAEAEAEAEAEAEALA",
"JBEAEAEAEAEAEAEAEAEAEAEAEAEAEAEAEAEAEAIDEEEEEEEEEEEEEEEEEEEEEEEEEEEEIDFAEAEAEAEAEAEAEAEAEAEAEAEAEAEAEAEAEAMA",
"JBEAEAEAEAEAEAEAEAEAEAEAEAEAEAEAEAEAIBDEEEEEEEEEEEEEEEEEEEEEEEEEEEEECEJBEAEAEAEAEAEAEAEAEAEAEAEAEAEAEAEAEALA",
"LBEAEAEAEAEAEAEAEAEAEAEAEAEAEAEAEAOABEEEEEEEEEEEEEEEEEEEEEEEEEEEEEEEEEBELAEAEAEAEAEAEAEAEAEAEAEAEAEAEAEAEAKA",
"KBEAEAEAEAEAEAEAEAEAEAEAEAEAEAEACBAEEEEEEEEEEEEEEEEEEEEEEEEEEEEEEEEEEEEEAEDBEAEAEAEAEAEAEAEAEAEAEAEAEAEAEALA",
"KBEAEAEAEAEAEAEAEAEAEAEAEAEAEAFDCEEEEEEEEEEEEEEEEEEEEEEEEEEEEEEEEEEEEEEEEECECDEAEAEAEAEAEAEAEAEAEAEAEAEAEAMA",
"NBEAEAEAEAEAEAEAEAEAEAEAEAIALDEEEEEEEEEEEEEEEEEEEEEEEEEEEEEEEEEEEEEEEEEEEEEEEELDEAEAEAEAEAEAEAEAEAEAEAEAEALA",
"OBEAEAEAEAEAEAEAEAEAEAEAEANDEEEEEEEEEEEEEEEEEEEEEEEEEEEEEEEEEEEEEEEEEEEEEEEEEEEEMDGAEAEAEAEAEAEAEAEAEAEAEANA",
"NBEAEAEAEAEAEAEAEAEAEAHAJDEEEEEEEEEEEEEEEEEEEEEEEEEEEEEEEEEEEEEEEEEEEEEEEEEEEEEEEEJDEAEAEAEAEAEAEAEAEAEAEABB",
"OBEAEAEAEAEAEAEAEAEAEAEABEEEEEEEEEEEEEEEEEEEEEEEEEEEEEEEEEEEEEEEEEEEEEEEEEEEEEEEEEBECAEAEAEAEAEAEAEAEAEAEAGB",
"BCEAEAEAEAEAEAEAEAEAEAJBEEEEEEEEEEEEEEEEEEEEEEEEEEEEEEEEEEEEEEEEEEEEEEEEEEEEEEEEEEEEEBEAEAEAEAEAEAEAEAEAEAKB",
"BCEAEAEAEAEAEAEAEAEAEALCEEEEEEEEEEEEEEEEEEEEEEEEEEEEEEEEEEEEEEEEEEEEEEEEEEEEEEEEEEEEGCEAEAEAEAEAEAEAEAEAEAMB",
"MBEAEAEAEAEAEAEAEAEAEALCEEEEEEEEEEEEEEEEEEEEEEEEEEEEEEEEEEEEEEEEEEEEEEEEEEEEEEEEEEEEHCEAEAEAEAEAEAEAEAEAEANB",
"HBEAEAEAEAEAEAEAEAEAEABCAEPDAEPDAEPDAEPDAEPDAEPDAEPDAEPDAEPDAEPDAEPDAEPDAEPDAEPDAEPDPBEAEAEAEAEAEAEAEAEAEAPB",
"EBEAEAEAEAEAEAEAEAEAEAEAAAGABAGABAGABAGABAGABAGABAGABAGABAGABAGABAGABAGABAGABAGABAGAEAEAEAEAEAEAEAEAEAEAEAPB",
"FBEAEAEAEAEAEAEAEAEAEAEAEAEAEAEAEAEAEAEAEAEAEAEAEAEAEAEAEAEAEAEAEAEAEAEAEAEAEAEAEAEAEAEAEAEAEAEAEAEAEAEAEALB",
"KBEAEAEAEAEAEAEAEAEAEAEAEAEAEAEAEAEAEAEAEAEAEAEAEAEAEAEAEAEAEAEAEAEAEAEAEAEAEAEAEAEAEAEAEAEAEAEAEAEAEAEAEAHB",
"MBEAEAEAEAEAEAEAEAEAEAEAEAEAEAEAEAEAEAEAEAEAEAEAEAEAEAEAEAEAEAEAEAEAEAEAEAEAEAEAEAEAEAEAEAEAEAEAEAEAEAEAEADB",
"MBKBKBNBPBDCECDCBCBCCCFCHCECCCCCCCCCACLBFBBBNANANANANAOAPAABPAABEBIBLBLBKBKBNBMBLBLBLBKBHBFBFBEBFBEBEBBBNAOA"};
