/* XPM */
static char *pld560[] = {
/* width height ncolors chars_per_pixel */
"54 54 180 2",
/* colors */
"AA c #FFFFFFFFFFFF",
"BA c #FEFEFEFEFEFE",
"CA c #FDFDFDFDFDFD",
"DA c #FCFCFCFCFCFC",
"EA c #FBFBFBFBFBFB",
"FA c #FAFAFAFAFAFA",
"GA c #F9F9F9F9F9F9",
"HA c #F8F8F8F8F8F8",
"IA c #F7F7F7F7F7F7",
"JA c #F6F6F6F6F6F6",
"KA c #F5F5F5F5F5F5",
"LA c #F4F4F4F4F4F4",
"MA c #F3F3F3F3F3F3",
"NA c #EEEEEEEEEEEE",
"OA c #EDEDEDEDEDED",
"PA c #ECECECECECEC",
"AB c #EBEBEBEBEBEB",
"BB c #E4E4E4E4E4E4",
"CB c #E3E3E3E3E3E3",
"DB c #E2E2E2E2E2E2",
"EB c #E1E1E1E1E1E1",
"FB c #DFDFDFDFDFDF",
"GB c #DDDDDDDDDDDD",
"HB c #D9D9D9D9D9D9",
"IB c #D8D8D8D8D8D8",
"JB c #D7D7D7D7D7D7",
"KB c #D6D6D6D6D6D6",
"LB c #D5D5D5D5D5D5",
"MB c #D4D4D4D4D4D4",
"NB c #D2D2D2D2D2D2",
"OB c #D1D1D1D1D1D1",
"PB c #CDCDCDCDCDCD",
"AC c #CBCBCBCBCBCB",
"BC c #C5C5C5C5C5C5",
"CC c #C4C4C4C4C4C4",
"DC c #C3C3C3C3C3C3",
"EC c #C0C0C0C0C0C0",
"FC c #BDBDBDBDBDBD",
"GC c #BCBCBCBCBCBC",
"HC c #BBBBBBBBBBBB",
"IC c #BABABABABABA",
"JC c #B8B8B8B8B8B8",
"KC c #B6B6B6B6B6B6",
"LC c #B4B4B4B4B4B4",
"MC c #B1B1B1B1B1B1",
"NC c #AEAEAEAEAEAE",
"OC c #A2A2A2A2A2A2",
"PC c #9F9F9F9F9F9F",
"AD c #9A9A9A9A9A9A",
"BD c #989898989898",
"CD c #969696969696",
"DD c #949494949494",
"ED c #929292929292",
"FD c #919191919191",
"GD c #909090909090",
"HD c #8F8F8F8F8F8F",
"ID c #8A8A8A8A8A8A",
"JD c #888888888888",
"KD c #868686868686",
"LD c #838383838383",
"MD c #818181818181",
"ND c #7F7F7F7F7F7F",
"OD c #7E7E7E7E7E7E",
"PD c #7B7B7B7B7B7B",
"AE c #787878787878",
"BE c #777777777777",
"CE c #767676767676",
"DE c #717171717171",
"EE c #707070707070",
"FE c #6F6F6F6F6F6F",
"GE c #6E6E6E6E6E6E",
"HE c #6C6C6C6C6C6C",
"IE c #6B6B6B6B6B6B",
"JE c #6A6A6A6A6A6A",
"KE c #696969696969",
"LE c #686868686868",
"ME c #676767676767",
"NE c #666666666666",
"OE c #656565656565",
"PE c #646464646464",
"AF c #636363636363",
"BF c #626262626262",
"CF c #616161616161",
"DF c #606060606060",
"EF c #5F5F5F5F5F5F",
"FF c #5E5E5E5E5E5E",
"GF c #5D5D5D5D5D5D",
"HF c #5C5C5C5C5C5C",
"IF c #5B5B5B5B5B5B",
"JF c #5A5A5A5A5A5A",
"KF c #595959595959",
"LF c #585858585858",
"MF c #575757575757",
"NF c #565656565656",
"OF c #555555555555",
"PF c #545454545454",
"AG c #535353535353",
"BG c #525252525252",
"CG c #515151515151",
"DG c #505050505050",
"EG c #4F4F4F4F4F4F",
"FG c #4E4E4E4E4E4E",
"GG c #4D4D4D4D4D4D",
"HG c #4C4C4C4C4C4C",
"IG c #4B4B4B4B4B4B",
"JG c #4A4A4A4A4A4A",
"KG c #494949494949",
"LG c #484848484848",
"MG c #474747474747",
"NG c #464646464646",
"OG c #454545454545",
"PG c #444444444444",
"AH c #434343434343",
"BH c #424242424242",
"CH c #414141414141",
"DH c #404040404040",
"EH c #3F3F3F3F3F3F",
"FH c #3E3E3E3E3E3E",
"GH c #3D3D3D3D3D3D",
"HH c #3C3C3C3C3C3C",
"IH c #3B3B3B3B3B3B",
"JH c #3A3A3A3A3A3A",
"KH c #393939393939",
"LH c #383838383838",
"MH c #373737373737",
"NH c #363636363636",
"OH c #353535353535",
"PH c #343434343434",
"AI c #333333333333",
"BI c #323232323232",
"CI c #313131313131",
"DI c #303030303030",
"EI c #2F2F2F2F2F2F",
"FI c #2E2E2E2E2E2E",
"GI c #2D2D2D2D2D2D",
"HI c #2C2C2C2C2C2C",
"II c #2B2B2B2B2B2B",
"JI c #2A2A2A2A2A2A",
"KI c #292929292929",
"LI c #282828282828",
"MI c #272727272727",
"NI c #262626262626",
"OI c #252525252525",
"PI c #242424242424",
"AJ c #232323232323",
"BJ c #222222222222",
"CJ c #212121212121",
"DJ c #202020202020",
"EJ c #1F1F1F1F1F1F",
"FJ c #1E1E1E1E1E1E",
"GJ c #1D1D1D1D1D1D",
"HJ c #1C1C1C1C1C1C",
"IJ c #1B1B1B1B1B1B",
"JJ c #1A1A1A1A1A1A",
"KJ c #191919191919",
"LJ c #181818181818",
"MJ c #171717171717",
"NJ c #161616161616",
"OJ c #151515151515",
"PJ c #141414141414",
"AK c #131313131313",
"BK c #121212121212",
"CK c #111111111111",
"DK c #101010101010",
"EK c #0F0F0F0F0F0F",
"FK c #0E0E0E0E0E0E",
"GK c #0D0D0D0D0D0D",
"HK c #0C0C0C0C0C0C",
"IK c #0B0B0B0B0B0B",
"JK c #0A0A0A0A0A0A",
"KK c #090909090909",
"LK c #080808080808",
"MK c #070707070707",
"NK c #060606060606",
"OK c #050505050505",
"PK c #040404040404",
"AL c #030303030303",
"BL c #020202020202",
"CL c #010101010101",
"DL c #000000000000",
/* pixels */
"HGOGHGBGCGCGBGPFDGFGCGGGIGFGBGBGIGCHKHAIPHNHNHIHBHEHMHPHPHKHCHCHHHIHGHBHGGAGAGCGDGGGGGGGCGMFIFMFBGCGBGCGJGFG",
"CHNIAJEJKJKJLJOJCKEKEKHKHKFKBKAKCKAKLJIJGJEJFJKJNJAKAKCKEKGKIKKKLKLKMKMKMKOKPKBLBLBLCLBLBLBLALALPKNKKKFKAKHH",
"FHFJJJNJAKAKBKCKEKFKGKHKGKDKOJOJOJOJMJMJJJFJGJNJEKFKFKGKGKEKEKJKMKMKLKMKMKNKALALBLBLBLBLBLBLALALALPKMKIKCKEH",
"IHJJAKFKFKEKFKEKFKFKHKGKDKBKPJLJMJOJNJOJMJIJLJAKGKHKHKIKGKCKBKFKKKMKLKMKMKNKPKALALALBLBLBLBLBLBLALOKNKLKGKEH",
"AIBKGKJKJKHKFKEKGKHKGKDKBKAKPJLJMJNJKJKJNJPJCKEKGKHKGKGKEKAKMJBKGKJKLKMKMKMKNKALALALALBLBLCLCLBLALOKNKLKJKJH",
"LIGKJKKKMKKKJKIKIKIKFKDKBKAKAKPJMJLJKJNJBKFKGKHKIKHKGKFKCKPJMJNJPJDKHKIKJKLKOKPKPKOKOKPKALCLBLBLPKNKLKJKIKKH",
"PIJKLKMKOKOKMKMKLKJKHKFKEKAKAKAKLJGJJJOJDKGKHKHKIKGKDKEKCKNJKJIJKJPJDKDKHKKKMKOKNKNKMKNKPKPKPKPKOKMKKKIKHKGH",
"KIMKNKOKPKOKMKMKKKKKJKIKGKCKAKOJIJHJHJLJDKGKFKDKAKMJKJKJIJFJBJCJIJMJAKCKGKHKHKJKJKJKKKLKLKMKOKOKMKKKJKJKJKEH",
"DIOKOKOKOKNKNKNKMKLKMKLKJKFKAKNJJJHJEJJJAKCKOJGJLIDIOHNHPHCIEIJIBJIJOJAKBKEKDKCKDKFKGKIKGKGKIKJKKKJKJKKKKKEH",
"OHPKNKMKNKOKPKPKOKOKPKOKLKIKCKLJKJIJEJHJJJHJKIHHDGPFHGGGLFMFJGGHGIBJHJJJJJLJMJKJMJBKCKDKDKAKPJAKDKGKIKJKJKIH",
"AIPKOKOKOKPKALBLALALALPKMKKKDKLJMJJJFJGJBJPHEGHGJJDLDLDLDLHJPFKFDHFINIPINIOIBJDJIJKJNJOJNJKJJJFJHJMJCKFKFKOH",
"BIOKPKPKOKPKALALBLBLALALOKKKDKMJLJNJJJCJPHAGEHCLDLLKGIGIMKDLCLOGIFCHPHGIDICIIINIDJDJGJIJFJEJDJNIPIFJKJOJCKCI",
"AIOKALALPKPKALPKPKALBLALPKLKFKOJLJOJLJKIIGJGCLNKPDBBLAKACBBEOKCLBGJFBHOHAIBIDILIAJCJBJDJCJAJPILIMICJFJMJBKGI",
"CIPKALALPKPKPKOKPKPKPKPKPKMKIKAKNJNJGJPHHFJKCLOCJADABABADAJAPCDLHKIEFGGHAIGIKIBJFJFJFJEJFJGJFJNIOIDJGJJJBKEI",
"PHOKPKALPKPKOKMKNKOKOKPKOKNKIKCKPJLJPICHMGDLOGLACAAAAAAAAACALAAHDLCGBGLHIIOIEJEJHJJJLJKJKJMJMJHJCJEJIJMJAKBI",
"KHNKNKPKNKNKMKJKLKNKNKOKOKMKIKEKCKLJKIIGMHDLJDGAAAAAAAAAAAAAGAKDDLIHAGBIBJIJJJHJHJMJAKAKAKBKAKAKLJHJLJAKAKPH",
"JHNKMKMKKKLKKKJKLKOKNKNKNKMKLKIKEKMJIIEGAIDLBDFAAAAAAAAAAAAAFACDDLPHCGFIHJMJMJKJLJMJOJEKFKEKCKDKAKPJBKCKDKNH",
"FHMKJKHKGKHKIKJKLKMKMKNKNKNKMKKKHKNJHIFGIHDLMDHABAAAAAAAAABAHANDDLIHLGMIMJNJLJNJOJMJPJEKGKGKFKEKEKEKEKFKDKJH",
"NGJKEKBKDKDKEKHKKKLKLKNKOKOKOKMKIKNJMINGCGDLHHLACAAAAAAAAADAMAIHDLFGIHEJPJAKOJPJPJNJPJDKEKGKIKHKHKEKGKFKCKFH",
"KGFKAKPJOJNJPJEKIKKKMKOKPKALPKNKHKOJAJIHAFNJDLADFABAAAAABAFABDDLNJIFDIJJDKFKCKBKPJMJNJPJBKFKGKHKIKFKEKDKAKAH",
"FGOJOJMJIJHJLJBKFKJKMKPKBLBLALOKJKPJDJAIKFFEJKBLJFBCAAAACCLFCLJKJEEGKIMJEKHKFKDKAKNJKJJJOJEKFKGKGKGKDKAKAKJG",
"AGLJIJGJDJEJIJMJCKIKNKALBLBLALOKJKDKEJNHFFHDHHDLAKBCAAAACCBKDLHHJDAGHIKJBKFKGKHKDKPJJJGJMJCKEKDKEKDKCKBKCKGG",
"NFJJGJBJAJMIOIFJNJGKNKALBLBLPKKKDKIJFIFGEEIIDLDIHBBAAAAABAIBFIDLJIPEAHMILJCKGKHKEKAKIJGJNJCKDKEKEKBKAKBKBKOF",
"IFFJCJAJOIJIIICJNJFKMKALBLALKKAKEJBIBGMEMJDLKGOADAAAAAAAAADAABNGDLNJHFNGKIKJCKEKDKPJKJJJNJAKCKFKDKCKNJMJMJEF",
"HFEJDJAJAJKINIHJAKJKNKPKBLOKFKFJBIBGHFGKDLHFNAEABAAAAAAAAABAFAPAKFDLHKBGMGIIJJAKCKPJNJLJLJNJAKBKCKBKNJJJHJAF",
"IFEJFJDJAJOICJIJCKIKMKOKALMKAKJIKGPGPKDLNFDCPBNBLBKBKBKBKBMBOBACECBGDLPKGHDHMILJAKCKPJNJJJJJIJIJMJOJMJGJDJDF",
"LFFJGJGJDJEJHJLJCKHKLKOKPKLKNJCIMIDLDLDLDLDLDLDLDLDLDLDLDLDLDLDLDLDLDLDLDLAJFIJJAKEKCKNJJJDJOICJGJGJIJCJNILF",
"MFJJIJKJLJLJMJOJBKFKKKOKOKJKNJFJIJOIHIBILHDHBIDLCIEFDFDFEFDIDLDIJHDIIINIEJMJHJLJBKDKDKPJIJPIMINIDJFJOIGIGIBG",
"AGPJNJMJPJOJOJBKEKJKLKOKPKLKCKCJOHJGLFNECEGDBFDLDDDAAAAADAFDDLFFNDGFIGAHKHIIHJBKGKFKCKNJDJMIJIHIMIMIEIPHDIIG",
"HGGKEKDKBKPJPJCKHKLKNKPKPKOKJKPJEJGIKHPGOFAENHDLKCDAAAAADALCDLOHMEJHAJHJMJAKFKJKKKIKCKJJOIKIJIBIKHNHIHMHFILG",
"FHIKJKIKDKOJNJDKHKKKNKOKNKNKKKEKAKFJGIOHIGCEAKDLEBCAAAAACAFBDLOJNEBIOJJKMKOKOKNKMKIKOJFJNINILINHPGOGDHKHGING",
"PHNKMKLKHKBKAKEKHKKKNKOKOKMKJKEKAKIJIILHBGLEDLOIJABAAAAABAJAAJDLBFIHNJMKBLCLBLPKLKFKKJBJMIMIKIOHOGIGAHLHGIFH",
"HIALPKNKKKGKFKGKHKJKLKNKOKMKHKAKLJEJIIEHDFBHDLLEFAAAAAAAAAFANEDLCHGGDJIKALALALNKHKBKJJDJLIIIIIBIJHDHFHLHFIKH",
"IIBLALALOKLKJKGKFKFKGKJKLKJKEKLJGJPIFINGFEBKDLICDAAAAAAAAADAJCDLPJBFCIAKMKOKNKKKFKAKNJLJBJKIGIHIHIGIBIPHHIMH",
"MIALBLALOKOKLKHKDKBKBKEKFKEKOJHJDJOIMHPFJFDLCJJABAAAAAAAAABAJAEJDLNFNGCJGKMKKKIKFKAKOJNJGJPIMINIPIAJHICIIIDI",
"EJBLALOKOKMKMKJKDKAKPJOJNJNJJJCJDJKIAHJELIDLODEAAAAAAAAAAAAAEAPDDLLIEFPHMJHKJKIKGKDKPJMJKJGJGJFJFJCJHIDIJIKI",
"GJBLPKOKMKLKKKJKFKPJKJGJFJEJDJCJMILHJFIFDLDKBBCAAAAAAAAAAAAACADBEKCLMFEGKIPJFKIKHKCKPJNJNJLJJJMJJJAJLIJILICJ",
"IJPKPKOKMKKKJKGKDKPJLJFJAJOIPIOIOHCGIEGKDLEDEAAAAAAAAAAAAAAAAAFAHDDLGKOEMGLIMJDKFKBKPJPJOJLJIJKJHJCJAJAJOIFJ",
"IJPKPKPKNKKKGKCKBKAKOJJJNILIHIKHDGFEHJDLDHIACAAAAAAAAAAAAAAAAACAKAFHDLHJMEMGFIGJNJMJPJOJLJIJEJDJDJDJEJCJAJHJ",
"CJALPKNKLKGKEKCKCKBKPJIJPIGIGHMFFEBJDLCJFBDAAAAAAAAAAAAAAAAAAAAADAGBDJDLCJKEDGLHKICJIJKJGJAJLININIMIBJCJEJGJ",
"OIPKOKLKHKEKDKCKCKBKLJCJHICHGFGFBKDLAJHBDAAAAAAAAAAAAAAAAAAAAAAABAEAJBCJDLBKIFFFNGBINIBJOIEIAIEIEIDIMIBJGJGJ",
"OILKKKHKFKDKDKDKCKPJEJGIPGAFCHBLDLFHCBDABAAAAAAAAAAAAAAAAAAAAAAAAABAEAEBHHDLBLAHPEKGNHGIBIMHKHJHKHCILIBJFJFJ",
"HIGKBKPJAKDKFKEKDKMJLIDHBFLHDLOKLDKADAAAAAAAAAAAAAAAAAAAAAAAAAAAAAAABADAMANDPKDLHHJEFGEHFHEHAHFHJHOHEILIAJBJ",
"BIAKMJOJOJCKEKDKPJIJCIAGFGDLKKMCGACAAAAAAAAAAAAAAAAAAAAAAAAAAAAAAAAAAAAACAIANCMKDLMFBFJGCHAHOGEHLHMHBIEIJINI",
"LHNJNJPJPJOJNJMJIJAJJHBFOJDLGDHACAAAAAAAAAAAAAAAAAAAAAAAAAAAAAAAAAAAAAAAAACAHAIDDLJJGEFGFHJHHHCHFHIHBIGILILI",
"AHAKBKOJMJFJFJGJFJNIBHBFDLPJNAFADACACACACADADADADADADADADADADADADADADADADADAFAABDKDLJEFGMHEIBIJHBHBHMHDIJIJI",
"IGCKPJLJHJBJAJDJEJMIAHIFDLNIKCGCFCFCFCFCFCGCGCGCHCHCGCGCGCGCGCHCGCHCHCGCGCHCHCLCOIDLHFLGFILIEIAIHHAHIHPHCIHI",
"JGNJJJGJBJPINILIPIKICHBGDLDLDLDLDLDLDLDLDLDLDLDLDLDLDLDLDLDLDLDLDLDLDLDLDLDLDLDLDLDLCGIHNINIEIPHJHCHIHMHAIBI",
"LGAJCJEJBJOIMIJIHIGIMHOGHJBJOILIKIKIMINIOIPIPIAJPIPIPIAJAJAJPIPIAJAJAJAJAJAJAJAJDJKJFHGIEJPIGIPHMHKHNHPHBIJH",
"NGJIKIPIPIOININIGICIDIGHFGGFPEHEDEEEKENECFFFJFKFHFHFIFKFLFLFKFKFKFKFLFMFLFLFMFMFCGEHHIGJKJGJLIBIOHLHAIDIEIEH",
"NGKIIIJILIPIPINIJIGIGIBIAIGHDHCHNGAHJHMHOHBIDIBIAICIFIIIJIIIJIJIKILIKIMIKILILIJILIFJLJPJPJLJDJKIBIAIPHDIKIPG",
"MGNIJIJILIPIBJNIMIOIFIFILIHIHIIIHILIAJCJDJCJDJBJBJFJKJMJOJPJAKCKDKDKCKDKBKBKCKOJPJCKFKFKDKPJKJCJJIHIFIKICJLG",
"LGOINIOIPIOIAJLINIBJIIIININIOICJDJFJGJFJFJHJFJEJFJKJPJAKFKIKKKLKMKLKKKMKKKJKHKHKGKGKIKIKHKDKNJHJDJCJBJHJMJJG",
"CGOGAHMGBGIFHFJFFFDFDFAFAFDFMFIGLGPGEHAHAHGHJHHHBHCHCHAHBHAHNGOGAHEHJHKHAIPHKHIHIHHHHHHHFHGHLHEIKIKICIJHBHMF"};
