/* XPM */
static char *pll560[] = {
/* width height ncolors chars_per_pixel */
"54 54 82 2",
/* colors */
"AA c #FFFFFFFFFFFF",
"BA c #F4F4F4F4F4F4",
"CA c #F3F3F3F3F3F3",
"DA c #F2F2F2F2F2F2",
"EA c #F1F1F1F1F1F1",
"FA c #F0F0F0F0F0F0",
"GA c #EFEFEFEFEFEF",
"HA c #EEEEEEEEEEEE",
"IA c #EDEDEDEDEDED",
"JA c #ECECECECECEC",
"KA c #EAEAEAEAEAEA",
"LA c #E9E9E9E9E9E9",
"MA c #E8E8E8E8E8E8",
"NA c #E7E7E7E7E7E7",
"OA c #E6E6E6E6E6E6",
"PA c #E5E5E5E5E5E5",
"AB c #E4E4E4E4E4E4",
"BB c #E3E3E3E3E3E3",
"CB c #E2E2E2E2E2E2",
"DB c #E1E1E1E1E1E1",
"EB c #E0E0E0E0E0E0",
"FB c #DFDFDFDFDFDF",
"GB c #DEDEDEDEDEDE",
"HB c #DDDDDDDDDDDD",
"IB c #DCDCDCDCDCDC",
"JB c #DBDBDBDBDBDB",
"KB c #DADADADADADA",
"LB c #D9D9D9D9D9D9",
"MB c #D8D8D8D8D8D8",
"NB c #D7D7D7D7D7D7",
"OB c #D6D6D6D6D6D6",
"PB c #D5D5D5D5D5D5",
"AC c #D4D4D4D4D4D4",
"BC c #D3D3D3D3D3D3",
"CC c #D2D2D2D2D2D2",
"DC c #D1D1D1D1D1D1",
"EC c #D0D0D0D0D0D0",
"FC c #CFCFCFCFCFCF",
"GC c #CECECECECECE",
"HC c #CDCDCDCDCDCD",
"IC c #CCCCCCCCCCCC",
"JC c #CBCBCBCBCBCB",
"KC c #CACACACACACA",
"LC c #C7C7C7C7C7C7",
"MC c #C6C6C6C6C6C6",
"NC c #C5C5C5C5C5C5",
"OC c #C4C4C4C4C4C4",
"PC c #C3C3C3C3C3C3",
"AD c #C2C2C2C2C2C2",
"BD c #C1C1C1C1C1C1",
"CD c #BFBFBFBFBFBF",
"DD c #BDBDBDBDBDBD",
"ED c #BBBBBBBBBBBB",
"FD c #BABABABABABA",
"GD c #B9B9B9B9B9B9",
"HD c #B7B7B7B7B7B7",
"ID c #B5B5B5B5B5B5",
"JD c #B4B4B4B4B4B4",
"KD c #B2B2B2B2B2B2",
"LD c #AFAFAFAFAFAF",
"MD c #A5A5A5A5A5A5",
"ND c #9F9F9F9F9F9F",
"OD c #969696969696",
"PD c #8F8F8F8F8F8F",
"AE c #878787878787",
"BE c #7F7F7F7F7F7F",
"CE c #787878787878",
"DE c #6F6F6F6F6F6F",
"EE c #686868686868",
"FE c #5F5F5F5F5F5F",
"GE c #595959595959",
"HE c #4F4F4F4F4F4F",
"IE c #4A4A4A4A4A4A",
"JE c #3F3F3F3F3F3F",
"KE c #3B3B3B3B3B3B",
"LE c #2F2F2F2F2F2F",
"ME c #2C2C2C2C2C2C",
"NE c #1F1F1F1F1F1F",
"OE c #1D1D1D1D1D1D",
"PE c #0F0F0F0F0F0F",
"AF c #0E0E0E0E0E0E",
"BF c #000000000000",
/* pixels */
"JBMBMBOBACACPBACCCBCDCGCJCGCGCFCCCBCCCOBKBHBCBPAOAOAABGBIBIBKBNBBCCCECFCECDCDCPBLBJBJBJBGBEBBBBBABPANAKAJAKA",
"FBFAFAFAFAFAFAFAFAFAFAFAFAFAFAFAFAFAFAFAFAFAFAFAFAFAFAFAFAFAFAFAFAFAFAFAFAFAFAFAFAFAFAFAFAFAFAFAFAFAFAFAFALA",
"EBFAFAFAFAFAFAFAFAFAFAFAFAFAFAFAFAFAFAFAFAFAFAFAFAFAFAFAFAFAFAFAFAFAFAFAFAFAFAFAFAFAFAFAFAFAFAFAFAFAFAFAFAMA",
"BBFAFAFAFAFAFAFAFAFAFAFAFAFAFAFAFAFAFAFAFAFAFAFAFAFAFAFAFAFAFAFAFAFAFAFAFAFAFAFAFAFAFAFAFAFAFAFAFAFAFAFAFANA",
"PAFAFAFAFAFAFAFAFAFAFAFAFAFAFAFAFAFAFAFAFAFAFAFAFAFAFAFAFAFAFAFAFAFAFAFAFAFAFAFAFAFAFAFAFAFAFAFAFAFAFAFAFAOA",
"PAFAFAFAFAFAFAFAFAFAFAFAFAFAFAFAFAFAFAFAFAFAFAFAFAFAFAFAFAFAFAFAFAFAFAFAFAFAFAFAFAFAFAFAFAFAFAFAFAFAFAFAFANA",
"ABFAFAFAFAFAFAFAFAFAFAFAFAFAFAFAFAFAFAFAFAFAFAFAFAFAFAFAFAFAFAFAFAFAFAFAFAFAFAFAFAFAFAFAFAFAFAFAFAFAFAFAFAOA",
"ABFAFAFAFAFAFAFAFAFAFAFAFAFAFAFAFAFAFAFAFAFAFAFAFAFAFAFAFAFAFAFAFAFAFAFAFAFAFAFAFAFAFAFAFAFAFAFAFAFAFAFAFAAB",
"BBFAFAFAFAFAFAFAFAFAFAFAFAFAFAFAFAFAFAFAFAFAFAFAFAFAFAFAFAFAFAFAFAFAFAFAFAFAFAFAFAFAFAFAFAFAFAFAFAFAFAFAFADB",
"CBFAFAFAFAFAFAFAFAFAFAFAFAFAFAFAFAFAFAFAFAFAFAFAFAKBGDFDKBFAFAFAFAFAFAFAFAFAFAFAFAFAFAFAFAFAFAFAFAFAFAFAFAFB",
"BBFAFAFAFAFAFAFAFAFAFAFAFAFAFAFAFAFAFAFAFAFAFAKDKEBFBFBFBFKEIDFAFAFAFAFAFAFAFAFAFAFAFAFAFAFAFAFAFAFAFAFAFAFB",
"BBFAFAFAFAFAFAFAFAFAFAFAFAFAFAFAFAFAFAFAFAEAAEBFBFAFLELEAFBFBFPDFAFAFAFAFAFAFAFAFAFAFAFAFAFAFAFAFAFAFAFAFAJB",
"CBFAFAFAFAFAFAFAFAFAFAFAFAFAFAFAFAFAFAFAFANDBFAFBEEAAAAAHABEBFBFMDEAFAFAFAFAFAFAFAFAFAFAFAFAFAFAFAFAFAFAFAOB",
"DBFAFAFAFAFAFAFAFAFAFAFAFAFAFAFAFAFAFAFAABOEBFLDAAAAAAAAAAAALDBFOEMAFAFAFAFAFAFAFAFAFAFAFAFAFAFAFAFAFAFAFAAC",
"EBFAFAFAFAFAFAFAFAFAFAFAFAFAFAFAFAFAFAFANDBFHEAAAAAAAAAAAAAAAAIEBFMDGAFAFAFAFAFAFAFAFAFAFAFAFAFAFAFAFAFAFABC",
"FBFAFAFAFAFAFAFAFAFAFAFAFAFAFAFAFAFAFAHACEBFPDAAAAAAAAAAAAAAAAPDBFCEFAFAFAFAFAFAFAFAFAFAFAFAFAFAFAFAFAFAFAAC",
"FBFAFAFAFAFAFAFAFAFAFAFAFAFAFAFAFAFAFAFAEEBFMDAAAAAAAAAAAAAAAAMDBFEEFAFAFAFAFAFAFAFAFAFAFAFAFAFAFAFAFAFAFAPB",
"GBFAFAFAFAFAFAFAFAFAFAFAFAFAFAFAFAFAFAEACEBFPDAAAAAAAAAAAAAAAAAEBFBEFAFAFAFAFAFAFAFAFAFAFAFAFAFAFAFAFAFAFALB",
"HBFAFAFAFAFAFAFAFAFAFAFAFAFAFAFAFAFAFAFAIDBFJEAAAAAAAAAAAAAAAAJEBFIDFAFAFAFAFAFAFAFAFAFAFAFAFAFAFAFAFAFAFAGB",
"IBFAFAFAFAFAFAFAFAFAFAFAFAFAFAFAFAFAFAFAJAMEBFMDAAAAAAAAAAAANDBFMEHAFAFAFAFAFAFAFAFAFAFAFAFAFAFAFAFAFAFAFADB",
"LBFAFAFAFAFAFAFAFAFAFAFAFAFAFAFAFAFAFAFAFABDPEBFGEMCAAAANCGEBFPENCFAFAFAFAFAFAFAFAFAFAFAFAFAFAFAFAFAFAFAFADB",
"OBFAFAFAFAFAFAFAFAFAFAFAFAFAFAFAFAFAFAFAFAGAHEBFPEMCAAAAMCPEBFHEGAFAFAFAFAFAFAFAFAFAFAFAFAFAFAFAFAFAFAFAFABB",
"BCFAFAFAFAFAFAFAFAFAFAFAFAFAFAFAFAFAFAFAEBIEBFLECBAAAAAAAAFBLEBFIEEBFAFAFAFAFAFAFAFAFAFAFAFAFAFAFAFAFAFAFAAB",
"GCFAFAFAFAFAFAFAFAFAFAFAFAFAFAFAFAFAFABCMEBFHEBAAAAAAAAAAAAABAHEBFMEPBFAFAFAFAFAFAFAFAFAFAFAFAFAFAFAFAFAFAPA",
"LCFAFAFAFAFAFAFAFAFAFAFAFAFAFAFAFAFADDOEBFEEAAAAAAAAAAAAAAAAAAAAFEBFOEEDFAFAFAFAFAFAFAFAFAFAFAFAFAFAFAFAFAOA",
"PCFAFAFAFAFAFAFAFAFAFAFAFAFAFAFAFAODAFBFEEPBACOBOBOBOBOBOBOBOBACMBFEBFBFNDFAFAFAFAFAFAFAFAFAFAFAFAFAFAFAFANA",
"ADFAFAFAFAFAFAFAFAFAFAFAFAFAFAGACEBFBFBFBFBFBFBFBFBFBFBFBFBFBFBFBFBFBFBFBFCEHAFAFAFAFAFAFAFAFAFAFAFAFAFAFAPA",
"NCFAFAFAFAFAFAFAFAFAFAFAFAFAEAMDGEGEGEGEGEGEJEBFLEFEFEFEFELEBFJEGEGEGEFEGEGEMDFAFAFAFAFAFAFAFAFAFAFAFAFAFANA",
"KCFAFAFAFAFAFAFAFAFAFAFAFAFAFADAFAEAEAEAEAEAAEBFNDAAAAAAAAODBFPDGAEAEAGADADACAFAFAFAFAFAFAFAFAFAFAFAFAFAFANA",
"HCFAFAFAFAFAFAFAFAFAFAFAFAFAFAFAFAFAFAFAFAHAGEBFCDAAAAAAAACDBFGEFAFAFAFAFAFAFAFAFAFAFAFAFAFAFAFAFAFAFAFAFANA",
"CCFAFAFAFAFAFAFAFAFAFAFAFAFAFAFAFAFAFAFAFAFAOEBFIAAAAAAAAAKABFNEDAFAFAFAFAFAFAFAFAFAFAFAFAFAFAFAFAFAFAFAFAMA",
"PBFAFAFAFAFAFAFAFAFAFAFAFAFAFAFAFAFAFAFAFAKCBFMEAAAAAAAAAAAAMEBFECFAFAFAFAFAFAFAFAFAFAFAFAFAFAFAFAFAFAFAFALA",
"NBFAFAFAFAFAFAFAFAFAFAFAFAFAFAFAFAFAFAFAFACEBFDEAAAAAAAAAAAAEEBFBEFAFAFAFAFAFAFAFAFAFAFAFAFAFAFAFAFAFAFAFAKA",
"MBFAFAFAFAFAFAFAFAFAFAFAFAFAFAFAFAFAFAFAHANEBFBDAAAAAAAAAAAAOCBFNEGAFAFAFAFAFAFAFAFAFAFAFAFAFAFAFAFAFAFAFAKA",
"KBFAFAFAFAFAFAFAFAFAFAFAFAFAFAFAFAFAFAFALDBFNEAAAAAAAAAAAAAAAANEBFJDFAFAFAFAFAFAFAFAFAFAFAFAFAFAFAFAFAFAFAMA",
"JBFAFAFAFAFAFAFAFAFAFAFAFAFAFAFAFAFAFAIAIEBFAEAAAAAAAAAAAAAAAAAEBFIEFAFAFAFAFAFAFAFAFAFAFAFAFAFAFAFAFAFAFAMA",
"KBFAFAFAFAFAFAFAFAFAFAFAFAFAFAFAFAFAFALDBFPEJAAAAAAAAAAAAAAAAAKAPEBFKDGAFAFAFAFAFAFAFAFAFAFAFAFAFAFAFAFAFANA",
"KBFAFAFAFAFAFAFAFAFAFAFAFAFAFAFAFAFAJBPEBFODAAAAAAAAAAAAAAAAAAAAODBFOEKBFAFAFAFAFAFAFAFAFAFAFAFAFAFAFAFAFAMA",
"MBFAFAFAFAFAFAFAFAFAFAFAFAFAFAFAFAPALEBFIEAAAAAAAAAAAAAAAAAAAAAAAAJEBFLENAFAFAFAFAFAFAFAFAFAFAFAFAFAFAFAFALA",
"LBFAFAFAFAFAFAFAFAFAFAFAFAFAFAFAEBKEBFMEOAAAAAAAAAAAAAAAAAAAAAAAAAKANEBFKEEBFAFAFAFAFAFAFAFAFAFAFAFAFAFAFAMA",
"LBFAFAFAFAFAFAFAFAFAFAFAFAFAFAHDNEBFNECBAAAAAAAAAAAAAAAAAAAAAAAAAAAABBNEBFNEFDFAFAFAFAFAFAFAFAFAFAFAFAFAFANA",
"OBFAFAFAFAFAFAFAFAFAFAFAFAFABEBFBFJEHAAAAAAAAAAAAAAAAAAAAAAAAAAAAAAAAAGAJEBFBFBEFAFAFAFAFAFAFAFAFAFAFAFAFAMA",
"PBFAFAFAFAFAFAFAFAFAFAFAFADEBFAFAEAAAAAAAAAAAAAAAAAAAAAAAAAAAAAAAAAAAAAAAAAEAFBFCEHAFAFAFAFAFAFAFAFAFAFAFAOA",
"OBFAFAFAFAFAFAFAFAFAFAFANDBFAFGDAAAAAAAAAAAAAAAAAAAAAAAAAAAAAAAAAAAAAAAAAAAAIDAFBFMDFAFAFAFAFAFAFAFAFAFAFACB",
"PBFAFAFAFAFAFAFAFAFAFAFAMEBFODAAAAAAAAAAAAAAAAAAAAAAAAAAAAAAAAAAAAAAAAAAAAAAAAPDBFLEFAFAFAFAFAFAFAFAFAFAFAHB",
"CCFAFAFAFAFAFAFAFAFAFAKBBFPEAAAAAAAAAAAAAAAAAAAAAAAAAAAAAAAAAAAAAAAAAAAAAAAAAAAAPEBFFBFAFAFAFAFAFAFAFAFAFALB",
"CCFAFAFAFAFAFAFAFAFAFAMCBFLENCMCMCMCMCMCMCMCMCMCMCMCMCMCMCMCMCMCMCMCMCMCMCMCMCMCMEBFICFAFAFAFAFAFAFAFAFAFANB",
"NBFAFAFAFAFAFAFAFAFAFAMCBFBFBFBFBFBFBFBFBFBFBFBFBFBFBFBFBFBFBFBFBFBFBFBFBFBFBFBFBFBFICFAFAFAFAFAFAFAFAFAFAOB",
"IBFAFAFAFAFAFAFAFAFAFACCJEJEJEJEJEJEJEJEJEJEJEJEJEJEJEJEJEJEJEJEJEJEJEJEJEJEJEJEIEJEOBFAFAFAFAFAFAFAFAFAFAAC",
"FBFAFAFAFAFAFAFAFAFAFAFADADACACACACACACACACACACACACACACACACACACACACACACACACACACAHAEAFAFAFAFAFAFAFAFAFAFAFAAC",
"GBFAFAFAFAFAFAFAFAFAFAFAFAFAFAFAFAFAFAFAFAFAFAFAFAFAFAFAFAFAFAFAFAFAFAFAFAFAFAFAFAFAFAFAFAFAFAFAFAFAFAFAFAMB",
"LBFAFAFAFAFAFAFAFAFAFAFAFAFAFAFAFAFAFAFAFAFAFAFAFAFAFAFAFAFAFAFAFAFAFAFAFAFAFAFAFAFAFAFAFAFAFAFAFAFAFAFAFAIB",
"NBFAFAFAFAFAFAFAFAFAFAFAFAFAFAFAFAFAFAFAFAFAFAFAFAFAFAFAFAFAFAFAFAFAFAFAFAFAFAFAFAFAFAFAFAFAFAFAFAFAFAFAFAEB",
"NBLBLBOBACECFCECCCCCDCGCICFCDCDCDCDCBCMBGBCBOAOAOAOAOAPAABBBABBBFBJBMBMBLBLBOBNBMBMBMBLBIBGBGBFBGBFBFBCBOAPA"};
