/* XPM */
static char *qdd560[] = {
/* width height ncolors chars_per_pixel */
"54 54 161 2",
/* colors */
"AA c #FFFFFFFFFFFF",
"BA c #FDFDFDFDFDFD",
"CA c #FCFCFCFCFCFC",
"DA c #FBFBFBFBFBFB",
"EA c #FAFAFAFAFAFA",
"FA c #F7F7F7F7F7F7",
"GA c #F6F6F6F6F6F6",
"HA c #F5F5F5F5F5F5",
"IA c #F2F2F2F2F2F2",
"JA c #F0F0F0F0F0F0",
"KA c #EFEFEFEFEFEF",
"LA c #EEEEEEEEEEEE",
"MA c #EDEDEDEDEDED",
"NA c #ECECECECECEC",
"OA c #E9E9E9E9E9E9",
"PA c #E8E8E8E8E8E8",
"AB c #E7E7E7E7E7E7",
"BB c #E6E6E6E6E6E6",
"CB c #E3E3E3E3E3E3",
"DB c #CECECECECECE",
"EB c #CCCCCCCCCCCC",
"FB c #C9C9C9C9C9C9",
"GB c #C8C8C8C8C8C8",
"HB c #BCBCBCBCBCBC",
"IB c #BABABABABABA",
"JB c #B4B4B4B4B4B4",
"KB c #A5A5A5A5A5A5",
"LB c #9D9D9D9D9D9D",
"MB c #9B9B9B9B9B9B",
"NB c #989898989898",
"OB c #959595959595",
"PB c #949494949494",
"AC c #909090909090",
"BC c #8F8F8F8F8F8F",
"CC c #878787878787",
"DC c #828282828282",
"EC c #818181818181",
"FC c #808080808080",
"GC c #7F7F7F7F7F7F",
"HC c #7D7D7D7D7D7D",
"IC c #7A7A7A7A7A7A",
"JC c #777777777777",
"KC c #767676767676",
"LC c #757575757575",
"MC c #747474747474",
"NC c #737373737373",
"OC c #727272727272",
"PC c #717171717171",
"AD c #707070707070",
"BD c #6F6F6F6F6F6F",
"CD c #6E6E6E6E6E6E",
"DD c #6D6D6D6D6D6D",
"ED c #6C6C6C6C6C6C",
"FD c #6B6B6B6B6B6B",
"GD c #6A6A6A6A6A6A",
"HD c #696969696969",
"ID c #686868686868",
"JD c #676767676767",
"KD c #666666666666",
"LD c #656565656565",
"MD c #646464646464",
"ND c #636363636363",
"OD c #626262626262",
"PD c #616161616161",
"AE c #606060606060",
"BE c #5F5F5F5F5F5F",
"CE c #5E5E5E5E5E5E",
"DE c #5D5D5D5D5D5D",
"EE c #5C5C5C5C5C5C",
"FE c #5B5B5B5B5B5B",
"GE c #5A5A5A5A5A5A",
"HE c #595959595959",
"IE c #585858585858",
"JE c #575757575757",
"KE c #565656565656",
"LE c #555555555555",
"ME c #545454545454",
"NE c #535353535353",
"OE c #525252525252",
"PE c #515151515151",
"AF c #505050505050",
"BF c #4F4F4F4F4F4F",
"CF c #4E4E4E4E4E4E",
"DF c #4D4D4D4D4D4D",
"EF c #4C4C4C4C4C4C",
"FF c #4B4B4B4B4B4B",
"GF c #4A4A4A4A4A4A",
"HF c #494949494949",
"IF c #484848484848",
"JF c #474747474747",
"KF c #464646464646",
"LF c #454545454545",
"MF c #444444444444",
"NF c #434343434343",
"OF c #424242424242",
"PF c #414141414141",
"AG c #404040404040",
"BG c #3F3F3F3F3F3F",
"CG c #3E3E3E3E3E3E",
"DG c #3D3D3D3D3D3D",
"EG c #3C3C3C3C3C3C",
"FG c #3B3B3B3B3B3B",
"GG c #3A3A3A3A3A3A",
"HG c #393939393939",
"IG c #383838383838",
"JG c #373737373737",
"KG c #363636363636",
"LG c #353535353535",
"MG c #343434343434",
"NG c #333333333333",
"OG c #323232323232",
"PG c #313131313131",
"AH c #303030303030",
"BH c #2F2F2F2F2F2F",
"CH c #2E2E2E2E2E2E",
"DH c #2D2D2D2D2D2D",
"EH c #2C2C2C2C2C2C",
"FH c #2B2B2B2B2B2B",
"GH c #2A2A2A2A2A2A",
"HH c #292929292929",
"IH c #282828282828",
"JH c #272727272727",
"KH c #262626262626",
"LH c #252525252525",
"MH c #242424242424",
"NH c #232323232323",
"OH c #222222222222",
"PH c #212121212121",
"AI c #202020202020",
"BI c #1F1F1F1F1F1F",
"CI c #1E1E1E1E1E1E",
"DI c #1D1D1D1D1D1D",
"EI c #1C1C1C1C1C1C",
"FI c #1B1B1B1B1B1B",
"GI c #1A1A1A1A1A1A",
"HI c #191919191919",
"II c #181818181818",
"JI c #171717171717",
"KI c #161616161616",
"LI c #151515151515",
"MI c #141414141414",
"NI c #131313131313",
"OI c #121212121212",
"PI c #111111111111",
"AJ c #101010101010",
"BJ c #0F0F0F0F0F0F",
"CJ c #0E0E0E0E0E0E",
"DJ c #0D0D0D0D0D0D",
"EJ c #0C0C0C0C0C0C",
"FJ c #0B0B0B0B0B0B",
"GJ c #0A0A0A0A0A0A",
"HJ c #090909090909",
"IJ c #080808080808",
"JJ c #070707070707",
"KJ c #060606060606",
"LJ c #050505050505",
"MJ c #040404040404",
"NJ c #030303030303",
"OJ c #020202020202",
"PJ c #010101010101",
"AK c #000000000000",
/* pixels */
"EFLFEFOEPEPEOEMEAFCFPEDFFFCFOEOEFFPFHGNGMGKGKGFGOFBGJGMGMGHGPFPFEGFGDGOFDFNENEPEAFDFDFDFPEJEFEJEOEPEOEPEGFCF",
"PFKHNHBIHIHIIILIPIBJBJEJEJCJOINIPINIIIFIDIBICIHIKININIPIBJDJFJHJIJIJJJJJJJLJMJOJOJOJPJOJOJOJNJNJMJKJHJCJNIEG",
"CGCIGIKININIOIPIBJCJDJEJDJAJLILILILIJIJIGICIDIKIBJCJCJDJDJBJBJGJJJJJIJJJJJKJNJNJOJOJOJOJOJOJNJNJNJMJJJFJPIBG",
"FGGINICJCJBJCJBJCJCJEJDJAJOIMIIIJILIKILIJIFIIINIDJEJEJFJDJPIOICJHJJJIJJJJJKJMJNJNJNJOJOJOJOJOJOJNJLJKJIJDJBG",
"NGOIDJGJGJEJCJBJDJEJDJAJOINIMIIIJIJIHIGIKIMIOIBJDJEJDJDJBJNIJINICJGJHJJJIJJJKJNJNJNJNJOJOJPJPJOJNJLJKJIJGJGG",
"IHDJGJHJJJHJGJFJFJFJCJAJOININILIHIEIAIDIHIMIAJDJFJEJDJCJPIMIIIHIHIJIMIOICJGJKJMJMJLJLJMJNJPJOJOJMJKJIJGJFJHG",
"MHGJIJJJLJLJJJJJIJGJEJCJBJNIMIJIPHCHMGNGEHPHIIAJFJEJCJDJAJJICIKHDHAHBHFHBINIFJKJKJKJJJKJMJMJMJMJLJJJHJFJEJDG",
"HHJJKJLJMJLJJJJJHJHJGJFJDJOIJIPHLGGFFEFELEPFEHGIAJCJEJEJPIEIFHDGDFGEJENECGIHIICJFJGJHJIJIJJJLJLJJJHJGJGJGJBG",
"AHLJLJLJLJKJKJKJJJIJJJIJGJAJFIAHCFFFAJAKGJHGGFGHJICJFJDJNIPHFGGEBGGJAKBJKFLFHHGIOICJDJFJDJDJFJGJHJGJGJHJHJBG",
"LGMJKJJJKJLJMJMJLJLJMJLJIJBJAINFOEMJAKAKAKAKKGCGCIBJFJDJMIHHEFCGAKAKAKAKMJNEPFIHGIOIPIAJAJNIMINIAJDJFJGJGJFG",
"NGMJLJLJLJMJNJOJNJNJNJMJJJBJJHOEPHAKAKAKAKAKCJPEHHOIEJPIGIBHGEBJAKAKAKAKAKKHHELGAIGIKILIKIHIGICIEIJIPICJCJLG",
"OGLJMJMJLJMJNJNJOJOJNJNJLJBJHHJEBJAKAKAKAKAKOJIEEHNIBJKIPHMGBEPJAKAKAKAKAKNILDEGKHAIDIFICIBIAIKHMHCIHILIPIPG",
"NGLJNJNJMJMJNJMJMJNJOJNJMJDJLHAFOHAKAKAKAKAKMIMEHHMIPIGIPHNGCENIAKAKAKAKAKIHNDEGJHPHOHAIPHNHMHIHJHPHCIJIOIDH",
"PGMJNJNJMJMJMJLJMJMJMJMJMJGJEIPFKELJAKAKAKPJJEBFJHOIAJJICIBHIEFEPJAKAKAKKJMDOEAHOHBICIBICIDICIKHLHAIDIGIOIBH",
"MGLJMJNJMJMJKJJJJJLJLJMJLJHJLIPGEECDAKAKAKJJICDFKHOICJOIGICHIEDCKJAKAKAKKCJDDGIHCIGIIIHIHIIIJIDIPHBIFIJINIOG",
"HGKJKJLJJJHJEJBJEJHJJJKJLJIJPIJHCFKDAKAKAKAKAGKEDHKIBJOIGILGODNFAKAKAKAKFDLEPGPHDIJINILIKIJIJIIIFIDIHININIMG",
"GGKJJJGJPIJIDIBIGIOIDJHJKJJJCJOHEFHFAKAKAKAKEJKDEGAILIJINHNFDDFJAKAKAKAKEFOEDHCIHIIIJIKIFIOHKHNHAIEIKIPIAJKG",
"CGJJCJJIKHKGNFKFCGDHDIAJHJJJCJLHPEPGAKAKAKAKAKMFMEAHBIPHOGJEMFAKAKAKAKAKNGJEPGEIKIGIDIMHNGOFHFLFIGJHGIOIAJGG",
"JFEJHIEHKFEFLHFIFHEFIGDIDJJJBJGHFEGIAKAKAKAKAKEJHDOFGHDHKFGDFJAKAKAKAKAKEIAEKGDIKIDIGHBGAFFHFILHGFLFIHIINICG",
"HFNIMHAGGFNJAKAKAKDJEFCHOIIJPIPGLDLJAKAKAKAKAKAKKFLEJGFGGEJFAKAKAKAKAKAKLJKDGGBIHIMHEGMEDJAKAKAKNJJFDGOHIIMF",
"BFEIBHKELIAKAKAKAKAKIHCGHIGJLIGGJEAKAKAKAKAKAKAKCJHDDFBFEDDJAKAKAKAKAKAKAKHEAGAIGIGHBFEHAKAKAKAKAKMIAFDHGIFF",
"MEAIHGPDAKAKAKAKAKAKLIEFBICJFIMFNFAKAKAKAKAKAKAKAKCFFDEDCFAKAKAKAKAKAKAKAKKFGFNHFIBHDEJIAKAKAKAKAKAKIEPGHIDF",
"JEOHHGODIJAKAKAKAKAKLHGEGHKILHOECHAKAKAKAKAKAKAKAKJIACBCKIAKAKAKAKAKAKAKAKBHMEFHOHIGGDJHAKAKAKAKAKIJIEAHGILE",
"FENHLGLELGAKAKAKAKAKCFPCPFGHKGMDLIAKAKAKAKAKAKAKAKAKJCMCAKAKAKAKAKAKAKAKAKLINDEGMGCFHCAFAKAKAKAKAKAHFFEHEIBE",
"EEOHEHNFBEBHPJAKAKAKPJIGODEFNEOCPJAKAKAKAKAKAKAKAKAKLHMHAKAKAKAKAKAKAKAKAKPJPCKEMEDDFGAKAKAKAKPJGHNEIGJHAIND",
"FEAINHBHMFEEIDOCJIAKAKAKJIODHCEDAKAKAKAKAKAKAKAKAKAKAKAKAKAKAKAKAKAKAKAKAKAKDDGCJDIIAKAKAKIIOCLDOEIGJHOHOHAE",
"IECICIOHDHIGJFPDAEAKAKAKAKNJEECEAKAKAKAKAKAKAKAKAKAKAKAKAKAKAKAKAKAKAKAKAKAKBEEENJAKAKAKPJJDGDFFLGGHAINHKHIE",
"JEGIEIFIEIAIHHBGNDIHAKAKAKAKAKIJAKAKAKAKAKAKAKAKAKAKAKAKAKAKAKAKAKAKAKAKAKAKIJAKAKAKAKAKDHDDCFJGIHOHKHDHDHOE",
"NEMIKIJIMIJIFIJHNFGEOJAKAKAKAKAKAKAKAKAKAKAKAKAKAKAKAKAKAKAKAKAKAKAKAKAKAKAKAKAKAKAKAKOJJDKEDGPGHHJHBHMGAHFF",
"EFDJBJAJOILIJIFIEHMEDHAKAKAKAKAKAKAKAKAKAKAKAKAKAKAKAKAKAKAKAKAKAKAKAKAKAKAKAKAKAKAKAKLGJDLFNGMGHGKGFGJGCHIF",
"CGFJGJFJAJLIKIKIBIDGFEPJAKAKAKAKAKAKAKAKAKAKAKAKAKAKAKAKAKAKAKAKAKAKAKAKAKAKAKAKAKAKOJGDMEKGDHJGMFLFAGHGDHKF",
"MGKJJJIJEJOINIOIKIEHKEIHAKAKAKAKAKAKAKAKAKAKAKAKAKAKAKAKAKAKAKAKAKAKAKAKAKAKAKAKAKAKAHIDLFAHFHKGLFFFNFIGDHCG",
"EHNJMJKJHJDJCJCJPIBIPFLEAKAKAKAKAKAKAKAKAKAKAKAKAKAKAKAKAKAKAKAKAKAKAKAKAKAKAKAKAKAKPDNEGGBHEHOGGGAGCGIGCHHG",
"FHOJNJNJLJIJGJDJAJGILGAEMIAKAKAKAKAKAKAKAKAKAKAKAKAKAKAKAKAKAKAKAKAKAKAKAKAKAKAKAKIIJDDGDHFHDHEHEHDHOGMGEHJG",
"JHNJOJNJLJLJIJEJPIHIEHPEFGAKAKAKAKAKAKAKAKAKAKAKOIJHOGOGJHOIAKAKAKAKAKAKAKAKAKAKAKBGMEBHNHLHJHKHMHNHEHPGFHAH",
"BIOJNJLJLJJJJJGJAJJIKHJFFEAKAKAKAKAKAKLIJEOBFBIAAAAAAAAAAAAAIAGBPBKENIAKAKAKAKAKAKFELFIHDIDIDICICIPHEHAHGHHH",
"DIOJMJLJJJIJHJGJCJKILHPFBDGJAKAKBHDCDBBAAAAAAAAAAAAAAAAAAAAAAAAAAAAABAEBFCCHAKAKFJKDHGOHIIIIGIJIGINHIHGHIHPH",
"FIMJMJLJJJHJGJDJAJLIAIGGIDFHAKPBCAAAAAAAHAIBFCPEAHHIDJCJHIPGNEDCHBGAAAAAAACAACAKGHFEAHEIKIIIFIHIEIPHNHNHLHCI",
"FIMJMJMJKJHJDJPIOINIFIPGAEOFAKCCDAABPBIFIJAKAKAKAKAKAKAKAKAKAKAKAKGJFFNBPADAECAKAGLEFHGIIIFIBIAIAIAIBIPHNHEI",
"PHNJMJKJIJDJBJPIPIOIIIDHKEAFAKFGOFMJAKAKAKAKAKAKAKAKAGEGAKAKAKAKAKAKAKAKMJMFHGAKAFMEDHDIDINHIHKHKHJHOHPHBIDI",
"LHMJLJIJEJBJAJPIPIOIGIDHOEKEAKFHJIAKAKAKAKAKAKAKKIKBAAAAMBBJAKAKAKAKAKAKAKJIGHAKFEKEOGMHLHBHNGBHBHAHJHOHDIDI",
"LHIJHJEJCJAJAJAJPINICIPGLELEAKODNAOCLJAKAKAKAKDGJAAAAAAAAAPAFGAKAKAKAKLJMCNAEEAKIEGEHGEHPGJGHGGGHGPGIHOHCICI",
"EHDJOIMINIAJCJBJAJLIPHKGEEDFAKMCDAMAMFAKAKAKAKAKFFCBAAAAABIEAKAKAKAKAKKFLAEACDAKBFMDLFGGFGCGNFCGGGLGBHIHNHOH",
"OGNIJILILIPIBJAJNIKINHFGNDDGAKOBJBEIAKAKAKAKAKAKAKAJMBLBNIAKAKAKAKAKAKAKDIJBBCAKAGGDDFBGCGOFLFBGIGJGOGBHGHKH",
"IGKIKIMIMILIKIJIGIEIKHDGFDOHAKDHAKAKAKAKAKAKAKAKAKAKAKAKAKAKAKAKAKAKAKAKAKAKDHAKMHCDDFEGIGHGEGPFCGFGOGDHIHIH",
"NFNIOILIJICICIDIDICIGHKFADNJMIMAGAFAFAFAFAFAFAFAFAFAFAFAFAFAFAFAFAFAFAFAFAHANAPIMJBDDFHGAHCHOGGGOFOFJGAHGHGH",
"FFPIMIIIEIOHNHAIDIBICHBFOEAKMEOALAKAKAKAKALALALAMAMALALALALALAMALAMAMALALAMABBCFAKBFCFNGJHKHBHNGEGNFFGMGPGEH",
"GFKIGIDIOHMHKHIHNHNHOGPEMHAKAKAKAKAKAKAKAKAKAKAKAKAKAKAKAKAKAKAKAKAKAKAKAKAKAKAKAKNHEFDHAILHBHMGGGPFFGJGNGOG",
"IFNHPHBIOHLHJHGHFHFHPGAGHJHJGJFJFJEJFJFJFJGJGJGJGJGJGJGJGJGJGJGJGJGJGJGJGJGJGJGJHJIJIGKHEINHDHMGJGHGKGMGOGGG",
"KFGHHHMHMHLHKHKHDHAHBHEGBFPDEDLCICICNCADFDIDLDMDKDJDLDNDNDNDMDMDMDMDNDODNDNDPDAEKEAGFHEIIIDIIHOGLGIGNGAHBHBG",
"KFHHFHGHIHMHMHKHGHDHDHNGLGPFLFJFFFHFAGCGFGIGJGHGHGIGLGPGPGPGPGPGAHBHBHCHBHBHBHAHEHPHHIMIMIIIAIHHOGNGMGAHHHMF",
"JFKHGHGHIHMHOHKHJHLHCHBHHHCHBHDHCHGHKHNHNHNHOHLHMHPHEIHIJIJIKIMIOIOIMINIMIMIMIJIJINIBJCJAJMIHIPHGHEHCHHHPHIF",
"IFLHKHLHMHLHNHIHKHOHFHEHJHJHLHPHAIBIDIBIBIDICIBICIHILINIBJEJGJIJJJHJHJIJHJGJEJDJCJCJFJFJEJAJKIEIAIPHOHEIJIGF",
"PELFNFJFOEFEEEGECEAEAENDNDAEJEFFIFMFBGNFNFDGGGEGOFPFPFNFOFNFKFLFNFBGGGHGNGMGHGFGFGEGEGEGCGDGIGBHHHHHPGGGOFJE"};
