/* XPM */
static char *qld560[] = {
/* width height ncolors chars_per_pixel */
"54 54 209 2",
/* colors */
"AA c #FFFFFFFFFFFF",
"BA c #FEFEFEFEFEFE",
"CA c #FDFDFDFDFDFD",
"DA c #FCFCFCFCFCFC",
"EA c #FBFBFBFBFBFB",
"FA c #FAFAFAFAFAFA",
"GA c #F9F9F9F9F9F9",
"HA c #F8F8F8F8F8F8",
"IA c #F7F7F7F7F7F7",
"JA c #F6F6F6F6F6F6",
"KA c #F5F5F5F5F5F5",
"LA c #F4F4F4F4F4F4",
"MA c #F3F3F3F3F3F3",
"NA c #F2F2F2F2F2F2",
"OA c #F1F1F1F1F1F1",
"PA c #EFEFEFEFEFEF",
"AB c #EEEEEEEEEEEE",
"BB c #EDEDEDEDEDED",
"CB c #ECECECECECEC",
"DB c #EBEBEBEBEBEB",
"EB c #EAEAEAEAEAEA",
"FB c #E9E9E9E9E9E9",
"GB c #E8E8E8E8E8E8",
"HB c #E7E7E7E7E7E7",
"IB c #E6E6E6E6E6E6",
"JB c #E5E5E5E5E5E5",
"KB c #E4E4E4E4E4E4",
"LB c #E3E3E3E3E3E3",
"MB c #E0E0E0E0E0E0",
"NB c #DFDFDFDFDFDF",
"OB c #DDDDDDDDDDDD",
"PB c #DCDCDCDCDCDC",
"AC c #DBDBDBDBDBDB",
"BC c #D9D9D9D9D9D9",
"CC c #D4D4D4D4D4D4",
"DC c #D1D1D1D1D1D1",
"EC c #D0D0D0D0D0D0",
"FC c #CBCBCBCBCBCB",
"GC c #CACACACACACA",
"HC c #C8C8C8C8C8C8",
"IC c #C7C7C7C7C7C7",
"JC c #C6C6C6C6C6C6",
"KC c #C3C3C3C3C3C3",
"LC c #C2C2C2C2C2C2",
"MC c #C1C1C1C1C1C1",
"NC c #BFBFBFBFBFBF",
"OC c #BEBEBEBEBEBE",
"PC c #BDBDBDBDBDBD",
"AD c #BCBCBCBCBCBC",
"BD c #BBBBBBBBBBBB",
"CD c #BABABABABABA",
"DD c #B8B8B8B8B8B8",
"ED c #B7B7B7B7B7B7",
"FD c #B6B6B6B6B6B6",
"GD c #B5B5B5B5B5B5",
"HD c #B2B2B2B2B2B2",
"ID c #B1B1B1B1B1B1",
"JD c #B0B0B0B0B0B0",
"KD c #AFAFAFAFAFAF",
"LD c #AEAEAEAEAEAE",
"MD c #ADADADADADAD",
"ND c #ACACACACACAC",
"OD c #ABABABABABAB",
"PD c #AAAAAAAAAAAA",
"AE c #A8A8A8A8A8A8",
"BE c #A7A7A7A7A7A7",
"CE c #A6A6A6A6A6A6",
"DE c #A5A5A5A5A5A5",
"EE c #9F9F9F9F9F9F",
"FE c #9D9D9D9D9D9D",
"GE c #979797979797",
"HE c #959595959595",
"IE c #949494949494",
"JE c #929292929292",
"KE c #919191919191",
"LE c #909090909090",
"ME c #8F8F8F8F8F8F",
"NE c #8E8E8E8E8E8E",
"OE c #8D8D8D8D8D8D",
"PE c #8C8C8C8C8C8C",
"AF c #858585858585",
"BF c #848484848484",
"CF c #838383838383",
"DF c #828282828282",
"EF c #818181818181",
"FF c #7F7F7F7F7F7F",
"GF c #7D7D7D7D7D7D",
"HF c #7A7A7A7A7A7A",
"IF c #787878787878",
"JF c #777777777777",
"KF c #767676767676",
"LF c #757575757575",
"MF c #747474747474",
"NF c #737373737373",
"OF c #727272727272",
"PF c #717171717171",
"AG c #707070707070",
"BG c #6F6F6F6F6F6F",
"CG c #6E6E6E6E6E6E",
"DG c #6D6D6D6D6D6D",
"EG c #6C6C6C6C6C6C",
"FG c #6B6B6B6B6B6B",
"GG c #6A6A6A6A6A6A",
"HG c #696969696969",
"IG c #686868686868",
"JG c #676767676767",
"KG c #666666666666",
"LG c #656565656565",
"MG c #646464646464",
"NG c #636363636363",
"OG c #626262626262",
"PG c #616161616161",
"AH c #606060606060",
"BH c #5F5F5F5F5F5F",
"CH c #5E5E5E5E5E5E",
"DH c #5D5D5D5D5D5D",
"EH c #5C5C5C5C5C5C",
"FH c #5B5B5B5B5B5B",
"GH c #5A5A5A5A5A5A",
"HH c #595959595959",
"IH c #585858585858",
"JH c #575757575757",
"KH c #565656565656",
"LH c #555555555555",
"MH c #545454545454",
"NH c #535353535353",
"OH c #525252525252",
"PH c #515151515151",
"AI c #505050505050",
"BI c #4F4F4F4F4F4F",
"CI c #4E4E4E4E4E4E",
"DI c #4D4D4D4D4D4D",
"EI c #4C4C4C4C4C4C",
"FI c #4B4B4B4B4B4B",
"GI c #4A4A4A4A4A4A",
"HI c #494949494949",
"II c #484848484848",
"JI c #474747474747",
"KI c #464646464646",
"LI c #454545454545",
"MI c #444444444444",
"NI c #434343434343",
"OI c #424242424242",
"PI c #414141414141",
"AJ c #404040404040",
"BJ c #3F3F3F3F3F3F",
"CJ c #3E3E3E3E3E3E",
"DJ c #3D3D3D3D3D3D",
"EJ c #3C3C3C3C3C3C",
"FJ c #3B3B3B3B3B3B",
"GJ c #3A3A3A3A3A3A",
"HJ c #393939393939",
"IJ c #383838383838",
"JJ c #373737373737",
"KJ c #363636363636",
"LJ c #353535353535",
"MJ c #343434343434",
"NJ c #333333333333",
"OJ c #323232323232",
"PJ c #313131313131",
"AK c #303030303030",
"BK c #2F2F2F2F2F2F",
"CK c #2E2E2E2E2E2E",
"DK c #2D2D2D2D2D2D",
"EK c #2C2C2C2C2C2C",
"FK c #2B2B2B2B2B2B",
"GK c #2A2A2A2A2A2A",
"HK c #292929292929",
"IK c #282828282828",
"JK c #272727272727",
"KK c #262626262626",
"LK c #252525252525",
"MK c #242424242424",
"NK c #232323232323",
"OK c #222222222222",
"PK c #212121212121",
"AL c #202020202020",
"BL c #1F1F1F1F1F1F",
"CL c #1E1E1E1E1E1E",
"DL c #1D1D1D1D1D1D",
"EL c #1C1C1C1C1C1C",
"FL c #1B1B1B1B1B1B",
"GL c #1A1A1A1A1A1A",
"HL c #191919191919",
"IL c #181818181818",
"JL c #171717171717",
"KL c #161616161616",
"LL c #151515151515",
"ML c #141414141414",
"NL c #131313131313",
"OL c #121212121212",
"PL c #111111111111",
"AM c #101010101010",
"BM c #0F0F0F0F0F0F",
"CM c #0E0E0E0E0E0E",
"DM c #0D0D0D0D0D0D",
"EM c #0C0C0C0C0C0C",
"FM c #0B0B0B0B0B0B",
"GM c #0A0A0A0A0A0A",
"HM c #090909090909",
"IM c #080808080808",
"JM c #070707070707",
"KM c #060606060606",
"LM c #050505050505",
"MM c #040404040404",
"NM c #030303030303",
"OM c #020202020202",
"PM c #010101010101",
"AN c #000000000000",
/* pixels */
"EILIEIOHPHPHOHMHAICIPHDIFICIOHOHFIPIHJNJMJKJKJFJOIBJJJMJMJHJPIPIEJFJDJOIDINHNHPHAIDIDIDIPHJHFHJHOHPHOHPHGICI",
"PIKKNKBLHLHLILLLPLBMBMEMEMCMOLNLPLNLILFLDLBLCLHLKLNLNLPLBMDMFMHMIMIMJMJMJMLMMMOMOMOMPMOMOMOMNMNMMMKMHMCMNLEJ",
"CJCLGLKLNLNLOLPLBMCMDMEMDMAMLLLLLLLLJLJLGLCLDLKLBMCMCMDMDMBMBMGMJMJMIMJMJMKMNMNMOMOMOMOMOMOMNMNMNMMMJMFMPLBJ",
"FJGLNLCMCMBMCMBMCMCMEMDMAMOLMLILJLLLKLLLJLFLILNLDMEMEMFMDMPLOLCMHMJMIMJMJMKMMMNMNMNMOMOMOMOMOMOMNMLMKMIMDMBJ",
"NJOLDMGMGMEMCMBMDMEMDMAMOLNLMLILJLJLHLGLKLMLOLBMDMEMDMDMBMNLJLNLCMGMHMJMIMJMKMNMNMNMNMOMOMPMPMOMNMLMKMIMGMGJ",
"IKDMGMHMJMHMGMFMFMFMCMAMOLNLNLLLHLELALDLHLMLAMDMFMEMDMCMPLMLILHLHLJLMLOLCMGMKMMMMMLMLMMMNMPMOMOMMMKMIMGMFMHJ",
"MKGMIMJMLMLMJMJMIMGMEMCMBMNLMLJLPKCKMJNJEKPKILAMFMEMCMDMAMJLCLKKDKAKBKFKBLNLFMKMKMKMJMKMMMMMMMMMLMJMHMFMEMDJ",
"HKJMKMLMMMLMJMJMHMHMGMFMDMOLJLPKLJGIFHFHLHPIEKGLAMCMEMEMPLELFKDJDIGHJHNHCJIKILCMFMGMHMIMIMJMLMLMJMHMGMGMGMBJ",
"AKLMLMLMLMKMKMKMJMIMJMIMGMAMFLAKCIFIAMANGMHJGIGKJLCMFMDMNLPKFJGHBJGMANBMKILIHKGLOLCMDMFMDMDMFMGMHMGMGMHMHMBJ",
"LJMMKMJMKMLMMMMMLMLMMMLMIMBMALNIOHMMEMLJMLANKJCJCLBMFMDMMLHKEICJANLLKJFMMMNHPIIKGLOLPLAMAMNLMLNLAMDMFMGMGMFJ",
"NJMMLMLMLMMMNMOMNMNMNMMMJMBMJKOHPKPMPCFBDCFMCMPHHKOLEMPLGLBKGHBMEMCCEBADANKKHHLJALGLKLLLKLHLGLCLELJLPLCMCMLJ",
"OJLMMMMMLMMMNMNMOMOMNMNMLMBMHKJHBMHMHBLADBKKOMIHEKNLBMKLPKMJBHPMIKBBKAGBJMNLLGEJKKALDLFLCLBLALKKMKCLHLLLPLPJ",
"NJLMNMNMMMMMNMMMMMNMOMNMMMDMLKAIOKANLEHBKDMMMLMHHKMLPLGLPKNJCHNLLMIDGBMEANIKNGEJJKPKOKALPKNKMKIKJKPKCLJLOLDK",
"PJMMNMNMMMMMMMLMMMMMMMMMMMGMELPIKHLMANANANPMJHBIJKOLAMJLCLBKIHFHPMANANANKMMGOHAKOKBLCLBLCLDLCLKKLKALDLGLOLBK",
"MJLMMMNMMMMMKMJMJMLMLMMMLMHMLLPJEHCGANANLMJMHFDIKKOLCMOLGLCKIHDFKMLMANANKFJGDJIKCLGLILHLHLILJLDLPKBLFLJLNLOJ",
"HJKMKMLMJMHMEMBMEMHMJMKMLMIMPLJKCIKGANBLLHANAJKHDKKLBMOLGLLJOGNIANIHDLANFGLHPJPKDLJLNLLLKLJLJLILFLDLHLNLNLMJ",
"GJKMJMGMPLJLDLBLGLOLDMHMKMJMCMOKEIHIANAIOCANEMKGEJALLLJLNKNIDGFMANMCDIANEIOHDKCLHLILJLKLFLOKKKNKALELKLPLAMKJ",
"CJJMCMJLKKKJNIKICJDKDLAMHMJMCMLKPHPJANBFMAMIANMIMHAKBLPKOJJHMIANKIMAEFANNJJHPJELKLGLDLMKNJOIHILIIJJKGLOLAMGJ",
"JIEMHLEKKIEILKFLFKEIIJDLDMJMBMGKFHGLANCDGANCANEMHGOIGKDKKIGGFMANLCGAEDANELAHKJDLKLDLGKBJAIFKFLLKGILIIKILNLCJ",
"HINLMKAJGINMANANANDMEICKOLIMPLPJLGLMNMEBDAIAFJANKILHJJFJGHJIANDJIADAGBOMLMKGGJBLHLMKEJMHDMANANANNMJIDJOKILMI",
"BIELBKKHLLKMGEMCEGANIKCJHLGMLLGJJHANEKIABAEAODANCMHGDIBIEGDMANMDEABAJAGKANHHAJALGLGKBIEKANDGMCHELMMLAIDKGLFI",
"MHALHJPGANNJEBMAKBOMLLEIBLCMFLMINIANAHGAAABAKAEKANCIFGEGCIANCKKABAAAGADHANKIGINKFLBKDHJLNMJBMAFBPJANIHPJHLDI",
"JHOKHJOGIMILNBNAKCANLKGHGKKLLKOHCKANIEEAAAAAEACEANJLLEMEKLANAEFAAAAAEAJEANBKMHFKOKIJGGJKANJCOAACKLIMIHAKGLLH",
"FHNKLJLHLJANDLPIEMANCIPFPIGKKJMGLLANGCCAAAAABAJABKANJFMFANPJJACAAAAACAICANLLNGEJMJCIGFAIANDMPIFLANAKFIEKELBH",
"EHOKEKNIBHBKPMANANANPMIJOGEINHOFPMGMNABAAAAAAAEACEANLKMKANBEEAAAAAAABAOAHMPMPFKHMHDGFJANANANANPMGKNHIJJKALNG",
"FHALNKBKMIEHIGOFJLANANANJLOGGFEGANJJHABAAAAAAABAGAGKANANEKGABAAAAAAABAIAMJANDGFFJGILANANANILOFLGOHIJJKOKOKAH",
"IHCLCLOKDKIJJIPGAHANANILANNMEHCHANJGEAAAAAAAAAAABAFEANANEEBAAAAAAAAAAAEAMGANBHEHNMANILANPMJGGGFILJGKALNKKKIH",
"JHGLELFLELALHKBJNGIKANMHKGPMANIMANGECAAAAAAAAAAAAAHAHLGLHAAAAAAAAAAAAACAHEANIMANPMHGPHANDKDGCIJJIKOKKKDKDKOH",
"NHMLKLJLMLJLFLJKNIGHOMNMJCIDCLANANFCBAAAAAAAAAAAAAAAKEIEAAAAAAAAAAAAAABAHCANANBLHDKCOMOMJGKHDJPJHKJKBKMJAKFI",
"EIDMBMAMOLLLJLFLEKMHDKANGHJADBNHJMHAAAAAAAAAAAAAAAAAHAGAAAAAAAAAAAAAAAAAIALMLHDBJAMHANLJJGLINJMJHJKJFJJJCKII",
"CJFMGMFMAMLLKLKLBLDJFHPMJMNBDAAABDAAAAAAAAAAAAAAAAAAAAAAAAAAAAAAAAAAAAAAAABDAADABCLMOMGGMHKJDKJJMILIAJHJDKKI",
"MJKMJMIMEMOLNLOLKLEKKHIKANKFFAAAAAAAAAAAAAAAAAAAAAAAAAAAAAAAAAAAAAAAAAAAAAAAAAFADGANAKIGLIAKFKKJLIFINIIJDKCJ",
"EKNMMMKMHMDMCMCMPLBLPILHANLLNABAAAAAAAAAAAAAAAAAAAAAAAAAAAAAAAAAAAAAAAAAAAAABAABBMANPGNHGJBKEKOJGJAJCJIJCKHJ",
"FKOMNMNMLMIMGMDMAMGLLJAHMLANMDDAAAAAAAAAAAAAAAAAAAAAAAAAAAAAAAAAAAAAAAAAAAAADADEANILJGDJDKFKDKEKEKDKOJMJEKJJ",
"JKNMOMNMLMLMIMEMPLHLEKPHFJANOGFAAAAAAAAAAAAAAAAAAAAAAAAAAAAAAAAAAAAAAAAAAAAAGAFHANBJMHBKNKLKJKKKMKNKEKPJFKAK",
"BLOMNMLMLMJMJMGMAMJLKKJIFHANMKHABAAAAAAAIALCPEPGNIDKOKOKDKNIOGOELCHAAAAAAABAJACLANFHLIIKDLDLDLCLCLPKEKAKGKHK",
"DLOMMMLMJMIMHMGMCMKLLKPIBGGMANNBCAECBFPIHMANANANANANANANANANANANANHMOIAFECCABCANFMKGHJOKILILGLJLGLNKIKGKIKPK",
"FLMMMMLMJMHMGMDMAMLLALGJIGFKANNHKKANANANJMCJIFBEHCMBCBDBNBICDEKFEJKMANANANJKPHANGKFHAKELKLILFLHLELPKNKNKLKCL",
"FLMMMMMMKMHMDMPLOLNLFLPJAHOIANANANOLOGKDNAAAAAAAAAAAAAAAAAAAAAAAAAOANDBHPLANANANAJLHFKGLILFLBLALALALBLPKNKEL",
"PKNMMMKMIMDMBMPLPLOLILDKKHAIANBKJDHAAAAAAAAAAAAAAAAAFDCDAAAAAAAAAAAAAAAAIALDCKANAIMHDKDLDLNKIKKKKKJKOKPKBLDL",
"LKMMLMIMEMBMAMPLPLOLGLDKOHKHANOJOBAAAAAAAAAAAAAALBAIANANHHDBAAAAAAAAAAAAAAPBAKANFHKHOJMKLKBKNJBKBKAKJKOKDLDL",
"LKIMHMEMCMAMAMAMPLNLCLPJLHLHANANGMCFIAAAAAAAAAGDFMANANANANOLDDAAAAAAAAIADFGMANANIHGHHJEKPJJJHJGJHJPJIKOKCLCL",
"EKDMOLMLNLAMCMBMAMLLPKKJEHDIANANANDMKDAAAAAAAAAAPDJLANANNLFEBAAAAAAAAAMDDMANANANBIMGLIGJFJCJNICJGJLJBKIKNKOK",
"OJNLJLLLLLPLBMAMNLKLNKFJNGDJANANBJOBAAAAAAAAAAAAAAEBHHIHHBAAAAAAAAAAAAAAPBDJANANAJGGDIBJCJOILIBJIJJJOJBKGKKK",
"IJKLKLMLMLLLKLJLGLELKKDJFGOKANJEDAAAAAAAAAAAAAAAAAAAAAAAAAAAAAAAAAAAAAAAAAEANEANMKCGDIEJIJHJEJPICJFJOJDKIKIK",
"NINLOLLLJLCLCLDLDLCLGKKIAGNMLLMADABABABABACACACACACACACACACACACACACACACACADAOAOLMMBGDIHJAKCKOJGJOIOIJJAKGKGK",
"FIPLMLILELOKNKALDLBLCKBIOHANMHFBABPAPAPAPAABABABBBBBABABABABABBBABBBBBABABBBIBAIANBICINJJKKKBKNJEJNIFJMJPJEK",
"GIKLGLDLOKMKKKIKNKNKOJPHMKANANANANANANANANANANANANANANANANANANANANANANANANANANANANNKEIDKALLKBKMJGJPIFJJJNJOJ",
"IINKPKBLOKLKJKGKFKFKPJAJHMHMGMFMFMEMFMFMFMGMGMGMGMGMGMGMGMGMGMGMGMGMGMGMGMGMGMGMHMIMIJKKELNKDKMJJJHJKJMJOJGJ",
"KIGKHKMKMKLKKKKKDKAKBKEJBIPGEGLFHFHFNFAGFGIGLGMGKGJGLGNGNGNGMGMGMGMGNGOGNGNGPGAHKHAJFKELILDLIKOJLJIJNJAKBKBJ",
"KIHKFKGKIKMKMKKKGKDKDKNJLJPILIJIFIHIAJCJFJIJJJHJHJIJLJPJPJPJPJPJAKBKBKCKBKBKBKAKEKPKHLMLMLILALHKOJNJMJAKHKMI",
"JIKKGKGKIKMKOKKKJKLKCKBKHKCKBKDKCKGKKKNKNKNKOKLKMKPKELHLJLJLKLMLOLOLMLNLMLMLMLJLJLNLBMCMAMMLHLPKGKEKCKHKPKII",
"IILKKKLKMKLKNKIKKKOKFKEKJKJKLKPKALBLDLBLBLDLCLBLCLHLLLNLBMEMGMIMJMHMHMIMHMGMEMDMCMCMFMFMEMAMKLELALPKOKELJLGI",
"PHLINIJIOHFHEHGHCHAHAHNGNGAHJHFIIIMIBJNINIDJGJEJOIPIPINIOINIKILINIBJGJHJNJMJHJFJFJEJEJEJCJDJIJBKHKHKPJGJOIJH"};
