/* XPM */
static char *qll560[] = {
/* width height ncolors chars_per_pixel */
"54 54 89 2",
/* colors */
"AA c #FFFFFFFFFFFF",
"BA c #F4F4F4F4F4F4",
"CA c #F3F3F3F3F3F3",
"DA c #F2F2F2F2F2F2",
"EA c #F1F1F1F1F1F1",
"FA c #F0F0F0F0F0F0",
"GA c #EFEFEFEFEFEF",
"HA c #EEEEEEEEEEEE",
"IA c #EDEDEDEDEDED",
"JA c #ECECECECECEC",
"KA c #EBEBEBEBEBEB",
"LA c #EAEAEAEAEAEA",
"MA c #E9E9E9E9E9E9",
"NA c #E8E8E8E8E8E8",
"OA c #E7E7E7E7E7E7",
"PA c #E6E6E6E6E6E6",
"AB c #E5E5E5E5E5E5",
"BB c #E4E4E4E4E4E4",
"CB c #E3E3E3E3E3E3",
"DB c #E2E2E2E2E2E2",
"EB c #E1E1E1E1E1E1",
"FB c #E0E0E0E0E0E0",
"GB c #DFDFDFDFDFDF",
"HB c #DEDEDEDEDEDE",
"IB c #DDDDDDDDDDDD",
"JB c #DCDCDCDCDCDC",
"KB c #DBDBDBDBDBDB",
"LB c #DADADADADADA",
"MB c #D9D9D9D9D9D9",
"NB c #D8D8D8D8D8D8",
"OB c #D7D7D7D7D7D7",
"PB c #D6D6D6D6D6D6",
"AC c #D5D5D5D5D5D5",
"BC c #D4D4D4D4D4D4",
"CC c #D3D3D3D3D3D3",
"DC c #D2D2D2D2D2D2",
"EC c #D1D1D1D1D1D1",
"FC c #D0D0D0D0D0D0",
"GC c #CFCFCFCFCFCF",
"HC c #CECECECECECE",
"IC c #CDCDCDCDCDCD",
"JC c #CCCCCCCCCCCC",
"KC c #CBCBCBCBCBCB",
"LC c #CACACACACACA",
"MC c #C9C9C9C9C9C9",
"NC c #C8C8C8C8C8C8",
"OC c #C7C7C7C7C7C7",
"PC c #C6C6C6C6C6C6",
"AD c #C5C5C5C5C5C5",
"BD c #C4C4C4C4C4C4",
"CD c #C3C3C3C3C3C3",
"DD c #C2C2C2C2C2C2",
"ED c #C1C1C1C1C1C1",
"FD c #C0C0C0C0C0C0",
"GD c #BFBFBFBFBFBF",
"HD c #BEBEBEBEBEBE",
"ID c #BDBDBDBDBDBD",
"JD c #BCBCBCBCBCBC",
"KD c #BABABABABABA",
"LD c #B9B9B9B9B9B9",
"MD c #B8B8B8B8B8B8",
"ND c #B7B7B7B7B7B7",
"OD c #B6B6B6B6B6B6",
"PD c #B5B5B5B5B5B5",
"AE c #B4B4B4B4B4B4",
"BE c #B2B2B2B2B2B2",
"CE c #AFAFAFAFAFAF",
"DE c #A5A5A5A5A5A5",
"EE c #9F9F9F9F9F9F",
"FE c #969696969696",
"GE c #8F8F8F8F8F8F",
"HE c #878787878787",
"IE c #7F7F7F7F7F7F",
"JE c #787878787878",
"KE c #6F6F6F6F6F6F",
"LE c #686868686868",
"ME c #5F5F5F5F5F5F",
"NE c #595959595959",
"OE c #4F4F4F4F4F4F",
"PE c #4A4A4A4A4A4A",
"AF c #3F3F3F3F3F3F",
"BF c #3B3B3B3B3B3B",
"CF c #2F2F2F2F2F2F",
"DF c #2C2C2C2C2C2C",
"EF c #1F1F1F1F1F1F",
"FF c #1D1D1D1D1D1D",
"GF c #0F0F0F0F0F0F",
"HF c #0E0E0E0E0E0E",
"IF c #000000000000",
/* pixels */
"KBNBNBPBBCBCACBCDCCCECHCKCHCHCGCDCCCDCPBLBIBDBABPAPABBHBJBJBLBOBCCDCFCGCFCECECACMBKBKBKBHBFBCBCBBBABOALAJALA",
"GBFAFAFAFAFAFAFAFAFAFAFAFAFAFAFAFAFAFAFAFAFAFAFAFAFAFAFAFAFAFAFAFAFAFAFAFAFAFAFAFAFAFAFAFAFAFAFAFAFAFAFAFAMA",
"FBFAFAFAFAFAFAFAFAFAFAFAFAFAFAFAFAFAFAFAFAFAFAFAFAFAFAFAFAFAFAFAFAFAFAFAFAFAFAFAFAFAFAFAFAFAFAFAFAFAFAFAFANA",
"CBFAFAFAFAFAFAFAFAFAFAFAFAFAFAFAFAFAFAFAFAFAFAFAFAFAFAFAFAFAFAFAFAFAFAFAFAFAFAFAFAFAFAFAFAFAFAFAFAFAFAFAFAOA",
"ABFAFAFAFAFAFAFAFAFAFAFAFAFAFAFAFAFAFAFAFAFAFAFAFAFAFAFAFAFAFAFAFAFAFAFAFAFAFAFAFAFAFAFAFAFAFAFAFAFAFAFAFAPA",
"ABFAFAFAFAFAFAFAFAFAFAFAFAFAFAFAFAFAFAFAFAFAFAFAFAFAFAFAFAFAFAFAFAFAFAFAFAFAFAFAFAFAFAFAFAFAFAFAFAFAFAFAFAOA",
"BBFAFAFAFAFAFAFAFAFAFAFAFAFAFAFAFAFAFAFAFAFAFAFAFAFAFAFAFAFAFAFAFAFAFAFAFAFAFAFAFAFAFAFAFAFAFAFAFAFAFAFAFAPA",
"BBFAFAFAFAFAFAFAFAFAFAFAFAFAFAFAFAFAFAFAFAFAFAFAFAFAFAFAFAFAFAFAFAFAFAFAFAFAFAFAFAFAFAFAFAFAFAFAFAFAFAFAFABB",
"CBFAFAFAFAFAFAFAFAFAFAFAFAFAFAFAFAHDBFHFDFEEEAFAFAFAFAFAFAFAFAFAEEDFHFBFIDFAFAFAFAFAFAFAFAFAFAFAFAFAFAFAFAEB",
"DBFAFAFAFAFAFAFAFAFAFAFAFAFAFAFAKCGFIFEFHFIFFEFAFAFAFAFAFAFAFAFEIFHFDFIFGFGCFAFAFAFAFAFAFAFAFAFAFAFAFAFAFAGB",
"CBFAFAFAFAFAFAFAFAFAFAFAFAFAFAFAOEIFHCAADBHFEFCAFAFAFAFAFAFAFAEFHFEBAANCIFNEHAFAFAFAFAFAFAFAFAFAFAFAFAFAFAGB",
"CBFAFAFAFAFAFAFAFAFAFAFAFAFAFAFAEFHFAAAAAACFIFFAFAFAFAFAFAFADAIFDFAAAAAAHFEFFAFAFAFAFAFAFAFAFAFAFAFAFAFAFAKB",
"DBFAFAFAFAFAFAFAFAFAFAFAFAFAFAFAAFIFODAACCHFEFDAFAFAFAFAFAFAFAEFHFDCAABEIFPEHAFAFAFAFAFAFAFAFAFAFAFAFAFAFAPB",
"EBFAFAFAFAFAFAFAFAFAFAFAFAFAFAFAPDIFIFHFIFIFFEFAFAFAFAFAFAFAFAGEIFIFHFIFIFODFAFAFAFAFAFAFAFAFAFAFAFAFAFAFABC",
"FBFAFAFAFAFAFAFAFAFAFAFAFAFAFAFAFACEIFIFIFHFGBFAFAFAFAFAFAFAFAEBHFIFIFIFCEFAFAFAFAFAFAFAFAFAFAFAFAFAFAFAFACC",
"GBFAFAFAFAFAFAFAFAFAFAFAFAFAFAFAFAEDIFFFOEIFIEFAFAFAFAFAFAFAFAIEIFOEFFIFBDFAFAFAFAFAFAFAFAFAFAFAFAFAFAFAFABC",
"GBFAFAFAFAFAFAFAFAFAFAFAFAFAFAFAFAFEIFOEADIFFFJAFAFAFAFAFAFAKAFFIFADOEIFFEFAFAFAFAFAFAFAFAFAFAFAFAFAFAFAFAAC",
"HBFAFAFAFAFAFAFAFAFAFAFAFAFAFAFAHALEIFHEAABFIFGEFAFAFAFAFAFAGEIFAFAAHEIFLEFAFAFAFAFAFAFAFAFAFAFAFAFAFAFAFAMB",
"IBFAFAFAFAECKENEIEDBFAFAFAFAFAFAFACFIFFDAAGDIFFFKAFAFAFAFAKAFFIFFDAAKDIFBFHAFAFAFAFAFAFADBIENEKEDCFAFAFAFAHB",
"JBFAFAFAGDHFIFIFIFDFCBFAFAFAFAFAHAGFIFEAAAAACFIFFEFAFAFAHAFEIFBFAAAAGAIFHFHAFAFAFAFAFAEBDFIFIFIFHFEDFAFAFAEB",
"MBFAFAFACFIFFECDLEIFKEHAFAFAFAFAPCIFDFAAAAAACEIFEFIAFAFAKAFFIFDEAAAAAADFIFNCFAFAFAFAFALEIFLEDDFEIFBFHAFAFAEB",
"PBFAFAHAIFBFAAAABAIFCFFAFAFAFAEAGEIFMEAAAAAAAAEFIFEEFAEAFEIFDFAAAAAAAAMEIFFEFAFAFAFAFACFIFAAAAAABFIFIAFAFACB",
"CCFAFAGAHFEFAAAAEBIFAFFAFAFAFAFAMEIFFEAAAAAAAADEIFDFGAGACFIFDEAAAAAAAAFEIFMEEAFAFAFAFABFIFFBAABAEFGFGAFAFABB",
"HCFAFAEAMEIFCFMEFFIFIEFAFAFAFAFADFIFFCAAAAAAAAAADFIFDEDEIFDFAAAAAAAAAAKCIFCFFAFAFAFAGAIEIFFFMEBFIFMEFAFAFAAB",
"OCFAFAFAPAPEIFIFIFIFIFIEGAFAFAPAIFHFBAAAAAAAAAAAEEIFBFCFIFEEAAAAAAAAAABAHFIFOAFAFAHAIEIFIFIFIFIFPEABFAFAFAPA",
"CDFAFAFAFAHAOCCEFFIFIFIFBFDCFANDIFCFAAAAAAAAAAAAAAEFIFIFEFAAAAAAAAAAAAAACFIFMDFAECBFIFIFIFFFCEMCGAFAFAFAFAOA",
"DDFAFAFAFAFAFAFADEIFIFGFIFHFEEIEIFLEAAAAAAAAAAAAAAFEIFIFFEAAAAAAAAAAAAAALEIFHEFEHFIFGFIFIFCEGAFAFAFAFAFAFAAB",
"ADFAFAFAFAFAFAFACAAFIFKENEIFIFGFIFFEAAAAAAAAAAAAAABAGFGFBAAAAAAAAAAAAAAAFEIFGFIFIFNELEIFAFGAFAFAFAFAFAFAFAOA",
"LCFAFAFAFAFAFAFAFAFDIFIFCBDEGFIFIFLCAAAAAAAAAAAAAAAAHEHEAAAAAAAAAAAAAAAAADIFIFGFDEHBIFIFNCFAFAFAFAFAFAFAFAOA",
"ICFAFAFAFAFAFAFAFAFAOEIFKEAAOAAFIFBAAAAAAAAAAAAAAAAABABAAAAAAAAAAAAAAAAABAIFAFPAAALEIFNEFAFAFAFAFAFAFAFAFAOA",
"DCFAFAFAFAFAFAFAFAFACDIFHFGAAAAADEAAAAAAAAAAAAAAAAAAAAAAAAAAAAAAAAAAAAAAAADEAAAALAHFIFOCFAFAFAFAFAFAFAFAFANA",
"ACFAFAFAFAFAFAFAFAFAHAPEIFHEAAAAAAAAAAAAAAAAAAAAAAAAAAAAAAAAAAAAAAAAAAAAAAAAAAAAIEIFPEFAFAFAFAFAFAFAFAFAFAMA",
"OBFAFAFAFAFAFAFAFAFAFACEIFEFAAAAAAAAAAAAAAAAAAAAAAAAAAAAAAAAAAAAAAAAAAAAAAAAAABAFFIFNDFAFAFAFAFAFAFAFAFAFALA",
"NBFAFAFAFAFAFAFAFAFAFAGAEFIFJDAAAAAAAAAAAAAAAAAAAAAAAAAAAAAAAAAAAAAAAAAAAAAAAALDIFEFFAFAFAFAFAFAFAFAFAFAFALA",
"LBFAFAFAFAFAFAFAFAFAFAFAKEIFKEAAAAAAAAAAAAAAAAAAAAAAAAAAAAAAAAAAAAAAAAAAAAAAAALEIFJEFAFAFAFAFAFAFAFAFAFAFANA",
"KBFAFAFAFAFAFAFAFAFAFAFAAEIFDFAAAAAAAAAAAAJBDEJENEPEBFBFPEMEJEDEJBAAAAAAAAAAAAEFIFKDFAFAFAFAFAFAFAFAFAFAFANA",
"LBFAFAFAFAFAFAFAFAFAFAFALAHFIFIAAAABEENEFFIFIFIFIFIFIFIFIFIFIFIFIFFFNEEECBAANAIFGFIAFAFAFAFAFAFAFAFAFAFAFAOA",
"LBFAFAFAFAFAFAFAFAFAFAFADAAFIFKEAFIFIFIFIFEFMEGECEPCDCECADCEGEMEEFIFIFIFIFAFLEIFPEFAFAFAFAFAFAFAFAFAFAFAFANA",
"NBFAFAFAFAFAFAFAFAFAFAFAFAJEIFIFIFIFPEFEGBAAAAAAAAAAAAAAAAAAAAAAAAIBGEPEIFIFIFIFJEFAFAFAFAFAFAFAFAFAFAFAFAMA",
"MBFAFAFAFAFAFAFAFAFAFAFAFAGEIFDFEEEAAAAAAAAAAAAAAAAAKCHCAAAAAAAAAAAAAAAAJAEEDFIFFEFAFAFAFAFAFAFAFAFAFAFAFANA",
"MBFAFAFAFAFAFAFAFAFAFAFAFAEEIFAFIAAAAAAAAAAAAAAAFALEIFIFJEBAAAAAAAAAAAAAAAIABFIFDEFAFAFAFAFAFAFAFAFAFAFAFAOA",
"PBFAFAFAFAFAFAFAFAFAFAFAEAEEIFIFGFFEAAAAAAAAAAPDFFIFIFIFIFEFJDAAAAAAAAAAEEGFIFIFDEFAFAFAFAFAFAFAFAFAFAFAFANA",
"ACFAFAFAFAFAFAFAFAFAFAFAFAGEIFIFIFHFDEAAAAAAAAAAHEGFIFIFHFIEBAAAAAAAAADEIFIFIFIFGEEAFAFAFAFAFAFAFAFAFAFAFAPA",
"PBFAFAFAFAFAFAFAFAFAFAFAFAKEIFIFCFNCAAAAAAAAAAAAAAJBAFAFPBAAAAAAAAAAAAAAJCDFIFIFJEFAFAFAFAFAFAFAFAFAFAFAFADB",
"ACFAFAFAFAFAFAFAFAFAFAFAFAAFIFIEAAAAAAAAAAAAAAAAAAAAAAAAAAAAAAAAAAAAAAAAAAAAIEIFAFFAFAFAFAFAFAFAFAFAFAFAFAIB",
"DCFAFAFAFAFAFAFAFAFAFAFAPAHFGFAAAAAAAAAAAAAAAAAAAAAAAAAAAAAAAAAAAAAAAAAAAAAAAAHFHFMAFAFAFAFAFAFAFAFAFAFAFAMB",
"DCFAFAFAFAFAFAFAFAFAFAFACEIFNEAAAAAAAAAAAAAAAAAAAAAAAAAAAAAAAAAAAAAAAAAAAAAAAAOEIFCEGAFAFAFAFAFAFAFAFAFAFAOB",
"OBFAFAFAFAFAFAFAFAFAFADAOEIFHFGFGFGFGFGFGFGFGFGFGFGFGFGFGFGFGFGFGFGFGFGFGFGFHFHFIFNEFAFAFAFAFAFAFAFAFAFAFAPB",
"JBFAFAFAFAFAFAFAFAFAFALBHFIFIFIFIFIFIFIFIFIFIFIFIFIFIFIFIFIFIFIFIFIFIFIFIFIFIFIFIFIFHBFAFAFAFAFAFAFAFAFAFABC",
"GBFAFAFAFAFAFAFAFAFAFAGAMAKAKAJAJAJAIAIAIAIAIAIAIAIAIAIAIAIAIAIAIAIAJAJAJAJAKAKAKAGAGAFAFAFAFAFAFAFAFAFAFABC",
"HBFAFAFAFAFAFAFAFAFAFAFAFAFAFAFAFAFAFAFAFAFAFAFAFAFAFAFAFAFAFAFAFAFAFAFAFAFAFAFAFAFAFAFAFAFAFAFAFAFAFAFAFANB",
"MBFAFAFAFAFAFAFAFAFAFAFAFAFAFAFAFAFAFAFAFAFAFAFAFAFAFAFAFAFAFAFAFAFAFAFAFAFAFAFAFAFAFAFAFAFAFAFAFAFAFAFAFAJB",
"OBFAFAFAFAFAFAFAFAFAFAFAFAFAFAFAFAFAFAFAFAFAFAFAFAFAFAFAFAFAFAFAFAFAFAFAFAFAFAFAFAFAFAFAFAFAFAFAFAFAFAFAFAFB",
"OBMBMBPBBCFCGCFCDCDCECHCJCGCECECECECCCNBHBDBPAPAPAPAPAABBBCBBBCBGBKBNBNBMBMBPBOBNBNBNBMBJBHBHBGBHBGBGBDBPAAB"};
