/* XPM */
static char *rdd560[] = {
/* width height ncolors chars_per_pixel */
"54 54 138 2",
/* colors */
"AA c #FFFFFFFFFFFF",
"BA c #FEFEFEFEFEFE",
"CA c #FDFDFDFDFDFD",
"DA c #EEEEEEEEEEEE",
"EA c #E3E3E3E3E3E3",
"FA c #C8C8C8C8C8C8",
"GA c #B2B2B2B2B2B2",
"HA c #AFAFAFAFAFAF",
"IA c #A2A2A2A2A2A2",
"JA c #9F9F9F9F9F9F",
"KA c #868686868686",
"LA c #848484848484",
"MA c #828282828282",
"NA c #808080808080",
"OA c #7F7F7F7F7F7F",
"PA c #7E7E7E7E7E7E",
"AB c #7D7D7D7D7D7D",
"BB c #7C7C7C7C7C7C",
"CB c #7B7B7B7B7B7B",
"DB c #7A7A7A7A7A7A",
"EB c #797979797979",
"FB c #777777777777",
"GB c #767676767676",
"HB c #757575757575",
"IB c #747474747474",
"JB c #727272727272",
"KB c #717171717171",
"LB c #6F6F6F6F6F6F",
"MB c #6D6D6D6D6D6D",
"NB c #6C6C6C6C6C6C",
"OB c #6B6B6B6B6B6B",
"PB c #6A6A6A6A6A6A",
"AC c #696969696969",
"BC c #686868686868",
"CC c #676767676767",
"DC c #666666666666",
"EC c #656565656565",
"FC c #646464646464",
"GC c #636363636363",
"HC c #626262626262",
"IC c #616161616161",
"JC c #606060606060",
"KC c #5F5F5F5F5F5F",
"LC c #5E5E5E5E5E5E",
"MC c #5D5D5D5D5D5D",
"NC c #5C5C5C5C5C5C",
"OC c #5B5B5B5B5B5B",
"PC c #5A5A5A5A5A5A",
"AD c #595959595959",
"BD c #585858585858",
"CD c #575757575757",
"DD c #565656565656",
"ED c #555555555555",
"FD c #545454545454",
"GD c #535353535353",
"HD c #525252525252",
"ID c #515151515151",
"JD c #505050505050",
"KD c #4F4F4F4F4F4F",
"LD c #4E4E4E4E4E4E",
"MD c #4D4D4D4D4D4D",
"ND c #4C4C4C4C4C4C",
"OD c #4B4B4B4B4B4B",
"PD c #4A4A4A4A4A4A",
"AE c #494949494949",
"BE c #484848484848",
"CE c #474747474747",
"DE c #464646464646",
"EE c #454545454545",
"FE c #444444444444",
"GE c #434343434343",
"HE c #424242424242",
"IE c #414141414141",
"JE c #404040404040",
"KE c #3F3F3F3F3F3F",
"LE c #3E3E3E3E3E3E",
"ME c #3D3D3D3D3D3D",
"NE c #3C3C3C3C3C3C",
"OE c #3B3B3B3B3B3B",
"PE c #3A3A3A3A3A3A",
"AF c #393939393939",
"BF c #383838383838",
"CF c #373737373737",
"DF c #363636363636",
"EF c #353535353535",
"FF c #343434343434",
"GF c #333333333333",
"HF c #323232323232",
"IF c #313131313131",
"JF c #303030303030",
"KF c #2F2F2F2F2F2F",
"LF c #2E2E2E2E2E2E",
"MF c #2D2D2D2D2D2D",
"NF c #2C2C2C2C2C2C",
"OF c #2B2B2B2B2B2B",
"PF c #2A2A2A2A2A2A",
"AG c #292929292929",
"BG c #282828282828",
"CG c #272727272727",
"DG c #262626262626",
"EG c #252525252525",
"FG c #242424242424",
"GG c #232323232323",
"HG c #222222222222",
"IG c #212121212121",
"JG c #202020202020",
"KG c #1F1F1F1F1F1F",
"LG c #1E1E1E1E1E1E",
"MG c #1D1D1D1D1D1D",
"NG c #1C1C1C1C1C1C",
"OG c #1B1B1B1B1B1B",
"PG c #1A1A1A1A1A1A",
"AH c #191919191919",
"BH c #181818181818",
"CH c #171717171717",
"DH c #161616161616",
"EH c #151515151515",
"FH c #141414141414",
"GH c #131313131313",
"HH c #121212121212",
"IH c #111111111111",
"JH c #101010101010",
"KH c #0F0F0F0F0F0F",
"LH c #0E0E0E0E0E0E",
"MH c #0D0D0D0D0D0D",
"NH c #0C0C0C0C0C0C",
"OH c #0B0B0B0B0B0B",
"PH c #0A0A0A0A0A0A",
"AI c #090909090909",
"BI c #080808080808",
"CI c #070707070707",
"DI c #060606060606",
"EI c #050505050505",
"FI c #040404040404",
"GI c #030303030303",
"HI c #020202020202",
"II c #010101010101",
"JI c #000000000000",
/* pixels */
"NDEENDHDIDIDHDFDJDLDIDMDODLDHDHDODIEAFGFFFDFDFOEHEKECFFFFFAFIEIENEOEMEHEMDGDGDIDJDMDMDMDIDCDOCCDHDIDHDIDPDLD",
"IEDGGGKGAHAHBHEHIHKHKHNHNHLHHHGHIHGHBHOGMGKGLGAHDHGHGHIHKHMHOHAIBIBICICICIEIFIHIHIHIIIHIHIHIGIGIFIDIAILHGHNE",
"LELGPGDHGHGHHHIHKHLHMHNHMHJHEHEHEHEHCHCHPGLGMGDHKHLHLHMHMHKHKHPHCICIBICICIDIGIGIHIHIHIHIHIHIGIGIGIFICIOHIHKE",
"OEPGGHLHLHKHLHKHLHLHNHMHJHHHFHBHCHEHDHEHCHOGBHGHMHNHNHOHMHIHHHLHAICIBICICIDIFIGIGIGIHIHIHIHIHIHIGIEIDIBIMHKE",
"GFHHMHPHPHNHLHKHMHNHMHJHHHGHFHBHCHDHAHAHDHFHIHKHMHNHMHMHKHGHCHHHMHPHBICICICIDIGIGIGIGIHIHIIIIIHIGIEIDIBIPHPE",
"BGMHPHAICIAIPHOHOHOHLHIHGHFHFHEHBHAHOGCHGHKHLHMHMHMHKHKHHHEHBHCHFHJHNHNHOHAICIEIEIDIEIEIGIIIHIHIFIDIBIPHOHAF",
"FGPHBICIEIEICICIBIOHLHGHCHMGKGKGFGBGGGNGFHJHIHGHFHBHOGPGNGKGJGKGNGAHBHPGBHEHFHHHIHLHNHBIEIFIFIFIEICIAIOHNHME",
"AGCIDIEIFIEICICIAIOHIHPGCGEFNEKEGEHEOELFLGDHOGFGLFEFCFCFBFBFEFMFFGFGPFHFDFCFCFFFLFEGAHKHPHCIEIEICIAIPHPHPHKE",
"JFEIEIEIEIDIDIDICINHDHAGJEDDFCPBNBCCMCBEJFGGNFLEHDLCHCFCICADMDKEGFCFFEEDICECDCGCCDHEMFAHIHMHOHPHAIPHPHAIAIKE",
"EFFIDICIDIEIFIFIEIOHNGNEBIJIJIJIJIJIJIKGCEFFGEIHJIJIJIJIJIJIFHEDFEKDMGJIJIJIJIJIJIPHEECGDHFHFHGHJHMHOHPHPHOE",
"GFFIEIEIEIFIGIHIFIOHHGNDJHJIJIJIJIJIJIBGKCNDKCBHJIJIJIJIJIJIAHACBDACCGJIJIJIJIJIJIGHBDIFMGPGPGLGNGCHIHLHLHEF",
"HFEIFIFIEIFIGIGIGIPHFGHDCHJIJIJIJIJIJIIFABNBPALGJIJIJIJIJIJIKGLAIBKAJFJIJIJIJIJIJIOGGCAFEGJGJGDGFGLGAHEHIHIF",
"GFEIGIGIFIFIGIFIFIOHGGGDMGJIJIJIJIJIJIMFCBKBBBNGJIJIJIJIJIJINGNAGBMANFJIJIJIJIJIJIHGCCNEBGGGFGBGCGIGLGCHHHMF",
"IFFIGIGIFIFIFIEIEIOHGGIDGGJIJIJIJIJIJIJIJIJIJIJIJIJIJIJIJIJIJIJIJIJIJIJIJIJIJIJIJIBGHCPEFGMGLGDGEGJGMGPGHHKF",
"FFEIFIGIFIFIEICIDINHHGLDBGJIJIJIJIJIJIJIJIJIJIJIJIJIJIJIJIJIJIJIJIJIJIJIJIJIJIJIJIMFOCGFKGBHCHNGIGKGOGCHGHHF",
"AFDIDIFIDIDICIPHBINHIGPDNFJIJIJIJIJIJIJIJIJIJIJIJIJIJIJIJIJIJIJIJIJIJIJIJIJIJIJIJIIFFDNFBHGHGHGHBHNGBHGHGHFF",
"PEDICICIAIBIAIPHBIOHLGGELFJIJIJIJIJIJIJIJIJIJIJIJIJIJIJIJIJIJIJIJIJIJIJIJIJIJIJIJIGFLDEGGHKHIHJHGHFHHHIHJHDF",
"LECIPHNHMHNHOHPHBIOHAHCFNFJIJIJIJIJIJIJIJIJIJIJIJIJIJIJIJIJIJIJIJIJIJIJIJIJIJIJIJIHFHEJGIHMHLHKHKHKHKHLHJHPE",
"DEPHKHHHJHJHKHNHAIPHGHCGCEAGJIJIJIJIJIJIJIJIJIJIJIJIJIJIJIJIJIJIJIJIJIJIJIJIJIJILFGDHFOGHHMHOHNHNHKHMHLHIHLE",
"AELHGHFHEHDHFHKHOHPHMHCHMFJDBEEIJIJILGGFGFGFGFGFGFGFGFGFGFGFGFGFGFGFGFLGJIJIDILDNCLEDGAHGHLHMHNHOHLHKHJHGHGE",
"LDEHEHCHOGNGBHHHLHPHAIOHEHNFIDMBOGJIIACAAAAAAAAAAAAAAAAAAAAAAAAAAAAACAJAJINGKBADAFCGKGNGEHKHLHMHMHMHJHGHGHPD",
"GDBHOGMGJGKGOGCHIHOHCIEIBIDHFFBCJFJIGACAAAAAAAAAAAAAAAAAAAAAAAAAAAAACAHAJIGFNBOEHGPGNGMGCHIHKHJHKHJHIHHHIHMD",
"DDPGMGHGGGCGEGLGDHMHDIGIFIMHAGMCHGJIBIOHNHNHNHNHNHNHNHNHNHNHNHNHNHNHOHBIJIFGKCJFAHEHOGMGDHIHJHKHKHHHGHHHHHED",
"OCLGIGGGEGPFOFIGDHLHCIGIGINHPFKCBHJIJIJIJIJIJIJIJIJIJIJIJIJIJIJIJIJIJIJIJIBHLCKFBHFHAHPGDHGHIHLHJHIHDHCHCHKC",
"NCKGJGGGGGAGDGNGGHPHDIFIGILHMFFCLHJIJIJIJIJIJIJIJIJIJIJIJIJIJIJIJIJIJIJIJIKHICIFAHEHDHBHBHDHGHHHIHHHDHPGNGGC",
"OCKGLGJGGGEGIGOGIHOHCIEIFIKHKFCCFIJIJIJIJIJIJIJIJIJIJIJIJIJIJIJIJIJIJIJIJIEIECGFPGHHFHDHPGPGOGOGCHEHCHMGJGJC",
"BDLGMGMGJGKGNGBHIHNHBIEIEIJHIFGCJIJIJIJIJIJIJIJIJIJIJIJIJIJIJIJIJIJIJIJIJIJIHCEFPGJHIHDHPGJGEGIGMGMGOGIGDGBD",
"CDPGOGAHBHBHCHEHHHLHAIEIDIGHEFMCJIJIJIJIJIJIJIJIJIJIJIJIJIJIJIJIJIJIJIJIJIJIOCCFOGHHJHFHOGFGCGDGJGLGEGMFMFHD",
"GDFHDHCHFHEHEHHHKHPHBIEIDIFHCFDDJIJIJIJIJIJIJIJIJIJIJIJIJIJIJIJIJIJIJIJIJIJIFDBFAHJHIHDHJGCGPFNFCGCGKFFFJFOD",
"NDMHKHJHHHFHFHIHNHBIDIFICIEHPELDJIJIJIJIJIJIJIJIJIJIJIJIJIJIJIJIJIJIJIJIJIJIMDPEBHLHIHPGEGAGPFHFAFDFOECFLFBE",
"LEOHPHOHJHEHDHJHNHAIDIEIAIAHJEBEJIJIJIJIJIJIJIJIJIJIJIJIJIJIJIJIJIJIJIJIJIJIDEMEPGKHEHLGDGDGBGDFFEEEJEAFMFDE",
"FFDICIBINHHHGHKHNHAIDIEIAINGDEHEJIJIJIJIJIJIJIJIJIJIJIJIJIJIJIJIJIJIJIJIJIJIKEHEMGHHAHHGCGCGAGEFEEODGEBFMFLE",
"NFGIFIDIAIMHLHMHNHPHBIDIPHLGNDPEJIJIJIJIJIJIJIJIJIJIJIJIJIJIJIJIJIJIJIJIJIJICFCEHGCHPGJGBGOFOFHFPEJELEBFLFAF",
"OFHIGIGIEIBIPHMHLHLHMHPHLHGGHDHFJIJIJIJIJIJIJIJIJIJIJIJIJIJIJIJIJIJIJIJIJIJIJFMDCGBHCHBHHGAGMFNFNFMFHFFFNFCF",
"CGGIHIGIEIEIBINHJHHHHHJHFHPFPCPFJIJIJIJIJIJIJIJIJIJIJIJIJIJIJIJIJIJIJIJIJIJIBGGDAGAHEHDHMGFGCGDGFGGGNFIFOFJF",
"KGHIGIEIEICICIPHJHGHFHDHMGGFGCIGJIJIJIJIJIJIJIJIJIJIJIJIJIJIJIJIJIJIJIJIJIJIJGADNFBHEHCHAHMGMGLGLGIGNFJFPFAG",
"MGHIFIEICIBIAIPHLHFHAHJGPFFEKBCHJIKFPEPEPEPEPEPEPEPEPEPEPEPEPEPEPEPEPEPELFJICHGCFFLGCHCHDHBHPGCHPGGGBGPFBGIG",
"OGFIFIEICIAIPHMHJHEHNGBGNEOCKAMHJIEABAAAAAAAAAAAAAAAAAAAAAAAAAAAAAAAAAAAFAJILHCBPDMFLGBHDHBHOGAHNGIGGGGGEGLG",
"OGFIFIFIDIAIMHIHHHCHIGEFDDFBIEJIJIEABAAAAAAAAAAAAAAAAAAAAAAAAAAAAAAAAABADAJIJILENBODKFIGNGNGKGJGJGJGKGIGGGNG",
"IGGIFIDIBIMHKHHHEHLGHFIDFCMGJIJIJIIHIHIHIHIHIHIHIHIHIHIHIHIHIHIHIHIHIHIHJHJIJIJIMGHCIDEFBGDGAGDGDGCGHGIGKGMG",
"EGFIEIBINHKHJHHHCHBGODPDCIJIJIJIJIJIJIJIJIJIJIJIJIJIJIJIJIJIJIJIJIJIJIJIJIJIJIJIJIBINDGDPEEFFFKFKFJFCGHGMGMG",
"EGBIAINHLHJHJHHHNGDFEDJIJIJIJIJIJIJIJIJIJIJIJIJIJIJIJIJIJIJIJIJIJIJIJIJIJIJIJIJIJIJIJIKCKDJEOEPEAFIFBGHGLGLG",
"NFMHHHFHGHJHLHHHKGHEEDJIJIJIJIJIJIJIJIJIJIJIJIJIJIJIJIJIJIJIJIJIJIJIJIJIJIJIJIJIJIJIJIGCICPDEELEPEEFKFBGGGHG",
"HFGHCHEHEHIHKHFHEGPDLDJIJIJIJIJIJIJIJIJIJIJIJIJIJIJIJIJIJIJIJIJIJIJIJIJIJIJIJIJIJIJIJIPCACJDCEKEBFCFHFKFPFDG",
"BFDHDHFHFHEHDHNGLFFDHEJIJIJIJIJIJIJIJIJIJIJIJIJIJIJIJIJIJIJIJIJIJIJIJIJIJIJIJIJIJIJIJIODACPDJEIELEOEHFMFBGBG",
"GEGHHHEHCHLGLGHGHFCDGFJIJIJIJIJIJIJIJIJIJIJIJIJIJIJIJIJIJIJIJIJIJIJIJIJIJIJIJIJIJIJIJIBFFCIEDFPEHEHECFJFPFPF",
"ODIHFHBHNGHGGGEGHFGDHGJIJIJIJIJIJIJIJIJIJIJIJIJIJIJIJIJIJIJIJIJIJIJIJIJIJIJIJIJIJIJIJIEGADPEFFGFNEGEOEFFIFNF",
"PDDHPGMGHGFGDGMFGFPDHHJIJIJIJIJIJIJIJIJIJIJIJIJIJIJIJIJIJIJIJIJIJIJIJIJIJIJIJIJIJIJIJIHHCEEFGFFFPEIEOECFGFHF",
"BEGGIGKGHGEGCGMFEFJEMDKCMBJBGBDBOANAEBHBJBLBMBPBOBOBOBOBPBACOBOBACACACBCACACACPBACGCCDEEGFMFJFFFCFAFDFFFHFPE",
"DEPFAGFGFGEGDGBGIFBFBFLEFEDEBEKDDDFDNDBEGELEPEAFNEMEOEBFCFBFAFAFAFAFCFDFBFBFDFAFPEFFLFDGJGHGPFHFEFBFGFJFKFKE",
"DEAGOFPFBGFGFGCGOFKFMFKFOFIFHFHFCFEFPFBGEGHGJGHGGGIGLGPGPGPGPGPGAHCHBHCHBHBHCHPGOGDHEHEHDHPGJGAGHFGFFFJFAGFE",
"CEDGPFPFBGFGHGDGCGEGLFNFEGBGBGDGCGGGLGNGOGNGOGMGMGAHFHIHKHKHMHOHPHPHOHOHNHNHNHKHJHMHNHMHJHFHAHIGPFNFLFAGIGBE",
"BEEGDGEGFGEGGGBGDGHGOFOFDGDGFGJGKGLGNGLGLGNGMGLGMGBHFHHHLHOHAICIDIBIBICIBIAIOHNHMHMHOHOHNHJHDHNGJGIGHGNGCHPD",
"IDEEGECEHDOCNCPCLCJCJCGCGCJCCDODBEFEKEGEGEMEPENEHEIEIEGEHEGEDEEEGEKEPEAFGFFFAFOEOENENENELEMEBFKFAGAGIFPEHECD"};
