/* XPM */
static char *rdl560[] = {
/* width height ncolors chars_per_pixel */
"54 54 75 2",
/* colors */
"AA c #FFFFFFFFFFFF",
"BA c #F3F3F3F3F3F3",
"CA c #F2F2F2F2F2F2",
"DA c #F1F1F1F1F1F1",
"EA c #F0F0F0F0F0F0",
"FA c #EFEFEFEFEFEF",
"GA c #EEEEEEEEEEEE",
"HA c #EDEDEDEDEDED",
"IA c #ECECECECECEC",
"JA c #EBEBEBEBEBEB",
"KA c #EAEAEAEAEAEA",
"LA c #E9E9E9E9E9E9",
"MA c #E8E8E8E8E8E8",
"NA c #E7E7E7E7E7E7",
"OA c #E6E6E6E6E6E6",
"PA c #E5E5E5E5E5E5",
"AB c #E4E4E4E4E4E4",
"BB c #E3E3E3E3E3E3",
"CB c #E2E2E2E2E2E2",
"DB c #E1E1E1E1E1E1",
"EB c #E0E0E0E0E0E0",
"FB c #DFDFDFDFDFDF",
"GB c #DEDEDEDEDEDE",
"HB c #DDDDDDDDDDDD",
"IB c #DCDCDCDCDCDC",
"JB c #DBDBDBDBDBDB",
"KB c #DADADADADADA",
"LB c #D9D9D9D9D9D9",
"MB c #D8D8D8D8D8D8",
"NB c #D7D7D7D7D7D7",
"OB c #D6D6D6D6D6D6",
"PB c #D5D5D5D5D5D5",
"AC c #D4D4D4D4D4D4",
"BC c #D3D3D3D3D3D3",
"CC c #D2D2D2D2D2D2",
"DC c #D1D1D1D1D1D1",
"EC c #D0D0D0D0D0D0",
"FC c #CFCFCFCFCFCF",
"GC c #CECECECECECE",
"HC c #CDCDCDCDCDCD",
"IC c #CCCCCCCCCCCC",
"JC c #CBCBCBCBCBCB",
"KC c #CACACACACACA",
"LC c #C7C7C7C7C7C7",
"MC c #C5C5C5C5C5C5",
"NC c #C3C3C3C3C3C3",
"OC c #C2C2C2C2C2C2",
"PC c #C0C0C0C0C0C0",
"AD c #BDBDBDBDBDBD",
"BD c #B9B9B9B9B9B9",
"CD c #B7B7B7B7B7B7",
"DD c #B6B6B6B6B6B6",
"ED c #B4B4B4B4B4B4",
"FD c #AFAFAFAFAFAF",
"GD c #A5A5A5A5A5A5",
"HD c #9F9F9F9F9F9F",
"ID c #969696969696",
"JD c #878787878787",
"KD c #7F7F7F7F7F7F",
"LD c #787878787878",
"MD c #6F6F6F6F6F6F",
"ND c #686868686868",
"OD c #5F5F5F5F5F5F",
"PD c #595959595959",
"AE c #4F4F4F4F4F4F",
"BE c #4A4A4A4A4A4A",
"CE c #3F3F3F3F3F3F",
"DE c #3B3B3B3B3B3B",
"EE c #2F2F2F2F2F2F",
"FE c #2C2C2C2C2C2C",
"GE c #1F1F1F1F1F1F",
"HE c #1D1D1D1D1D1D",
"IE c #0F0F0F0F0F0F",
"JE c #0E0E0E0E0E0E",
"KE c #000000000000",
/* pixels */
"JBMBMBOBACACPBACCCBCDCGCJCGCGCFCCCBCCCOBKBHBCBPAOAOAABGBIBIBKBNBBCCCECFCECDCDCPBLBJBJBJBGBEBBBBBABPANAKAIAKA",
"FBEAEAEAEAEAEAEAEAEAEAEAEAEAEAEAEAEAEAEAEAEAEAEAEAEAEAEAEAEAEAEAEAEAEAEAEAEAEAEAEAEAEAEAEAEAEAEAEAEAEAEAEALA",
"EBEAEAEAEAEAEAEAEAEAEAEAEAEAEAEAEAEAEAEAEAEAEAEAEAEAEAEAEAEAEAEAEAEAEAEAEAEAEAEAEAEAEAEAEAEAEAEAEAEAEAEAEAMA",
"BBEAEAEAEAEAEAEAEAEAEAEAEAEAEAEAEAEAEAEAEAEAEAEAEAEAEAEAEAEAEAEAEAEAEAEAEAEAEAEAEAEAEAEAEAEAEAEAEAEAEAEAEANA",
"PAEAEAEAEAEAEAEAEAEAEAEAEAEAEAEAEAEAEAEAEAEAEAEAEAEAEAEAEAEAEAEAEAEAEAEAEAEAEAEAEAEAEAEAEAEAEAEAEAEAEAEAEAOA",
"PAEAEAEAEAEAEAEAEAEAEAEAEAEAEAEAEAEAEAEAEAEAEAEAEAEAEAEAEAEAEAEAEAEAEAEAEAEAEAEAEAEAEAEAEAEAEAEAEAEAEAEAEANA",
"ABEAEAEAEAEAEAEAEAEAEAEAEAEAEAEAEAEAEAEAEAEAEAEAEAEAEAEAEAEAEAEAEAEAEAEAEAEAEAEAEAEAEAEAEAEAEAEAEAEAEAEAEAOA",
"ABEAEAEAEAEAEAEAEAEAEAEAEAEAEAEAEAEAEAEAEAEAEAEAEAEAEAEAEAEAEAEAEAEAEAEAEAEAEAEAEAEAEAEAEAEAEAEAEAEAEAEAEAAB",
"BBEAEAEAEAEAEAEAEAEAEAEAPAABABABABABABMAEAEAEAOAABABABABABABOAEAEAEAMAABABABABABABPAEAEAEAEAEAEAEAEAEAEAEADB",
"CBEAEAEAEAEAEAEAEAEAEAHAHEKEKEKEKEKEKEAEEAEAEAEEKEKEKEKEKEKEEEEAEAFABEKEKEKEKEKEKEHEEAEAEAEAEAEAEAEAEAEAEAFB",
"BBEAEAEAEAEAEAEAEAEAEAEAGEKEKEKEKEKEKEAEFAEAEAEEKEKEKEKEKEKEEEDAEAEABEKEKEKEKEKEKEGEBAEAEAEAEAEAEAEAEAEAEAFB",
"BBEAEAEAEAEAEAEAEAEAEADAEEKEKEKEKEKEKEAEEAEADAEEKEKEKEKEKEKEEEEAEAGABEKEKEKEKEKEKEEEEAEAEAEAEAEAEAEAEAEAEAJB",
"CBEAEAEAEAEAEAEAEAEAEAEADEKEKEKEKEKEKEDEBDBDBDFEKEKEKEKEKEKEFEDDBDBDDEKEKEKEKEKEKECEEAEAEAEAEAEAEAEAEAEAEAOB",
"DBEAEAEAEAEAEAEAEAEAEAHABEKEKEKEKEKEKEKEKEKEKEKEKEKEKEKEKEKEKEKEKEKEKEKEKEKEKEKEKEBEEAEAEAEAEAEAEAEAEAEAEAAC",
"EBEAEAEAEAEAEAEAEAEAEAEAAEKEKEKEKEKEKEKEKEKEKEKEKEKEKEKEKEKEKEKEKEKEKEKEKEKEKEKEKEAEDAEAEAEAEAEAEAEAEAEAEABC",
"FBEAEAEAEAEAEAEAEAEAEADAPDKEKEKEKEKEKEKEKEKEKEKEKEKEKEKEKEKEKEKEKEKEKEKEKEKEKEKEKEODEAEAEAEAEAEAEAEAEAEAEAAC",
"FBEAEAEAEAEAEAEAEAEAEAEANDKEKEKEKEKEKEKEKEKEKEKEKEKEKEKEKEKEKEKEKEKEKEKEKEKEKEKEKENDDAEAEAEAEAEAEAEAEAEAEAPB",
"GBEAEAEAEAEAEAEAEAEAEAFALDKEKEKEKEKEKEKEKEKEKEKEKEKEKEKEKEKEKEKEKEKEKEKEKEKEKEKEKELDEAEAEAEAEAEAEAEAEAEAEALB",
"HBEAEAEAEAEAEAEAEAEAEAEAPAODKEKEKEKEKEKEKEKEKEKEKEKEKEKEKEKEKEKEKEKEKEKEKEKEKEKEODMAEAEAEAEAEAEAEAEAEAEAEAGB",
"IBEAEAEAEAEAEAEAEAEAEAEAEAFAIDJEKEKEGEEEEEDEEEEEEEDEEEEEEEDEEEEEDEEEEEGEKEKEJEHDEAEAEAEAEAEAEAEAEAEAEAEAEADB",
"LBEAEAEAEAEAEAEAEAEAEAEAEAEAEAJCFEKEGDAAAAAAAAAAAAAAAAAAAAAAAAAAAAAAAAGDKEFEKCGAEAEAEAEAEAEAEAEAEAEAEAEAEADB",
"OBEAEAEAEAEAEAEAEAEAEAEAEAEAEAEAAEKEBDAAAAAAAAAAAAAAAAAAAAAAAAAAAAAAAACDKEAEEAEAEAEAEAEAEAEAEAEAEAEAEAEAEABB",
"BCEAEAEAEAEAEAEAEAEAEAEAEAEAEAEACEKEJEJEJEJEJEJEJEJEJEJEJEJEJEJEJEJEJEKEKECECAEAEAEAEAEAEAEAEAEAEAEAEAEAEAAB",
"GCEAEAEAEAEAEAEAEAEAEAEAEAEAEAEAFEKEKEKEKEKEKEKEKEKEKEKEKEKEKEKEKEKEKEKEKEEEEAEAEAEAEAEAEAEAEAEAEAEAEAEAEAPA",
"LCEAEAEAEAEAEAEAEAEAEAEAEAEAEAEAHEKEKEKEKEKEKEKEKEKEKEKEKEKEKEKEKEKEKEKEKEHEEAEAEAEAEAEAEAEAEAEAEAEAEAEAEAOA",
"NCEAEAEAEAEAEAEAEAEAEAEAEAEAEACAKEKEKEKEKEKEKEKEKEKEKEKEKEKEKEKEKEKEKEKEKEJEEAEAEAEAEAEAEAEAEAEAEAEAEAEAEANA",
"OCEAEAEAEAEAEAEAEAEAEAEAEAEAEABBKEKEKEKEKEKEKEKEKEKEKEKEKEKEKEKEKEKEKEKEKEKEPAEAEAEAEAEAEAEAEAEAEAEAEAEAEAPA",
"MCEAEAEAEAEAEAEAEAEAEAEAEAEAEADCKEKEKEKEKEKEKEKEKEKEKEKEKEKEKEKEKEKEKEKEKEKEBCEAEAEAEAEAEAEAEAEAEAEAEAEAEANA",
"KCEAEAEAEAEAEAEAEAEAEAEAEAEAEAADKEKEKEKEKEKEKEKEKEKEKEKEKEKEKEKEKEKEKEKEKEKEPCEAEAEAEAEAEAEAEAEAEAEAEAEAEANA",
"HCEAEAEAEAEAEAEAEAEAEAEAEAEAGAFDKEKEKEKEKEKEKEKEKEKEKEKEKEKEKEKEKEKEKEKEKEKEFDEAEAEAEAEAEAEAEAEAEAEAEAEAEANA",
"CCEAEAEAEAEAEAEAEAEAEAEAEAEAEAIDKEKEKEKEKEKEKEKEKEKEKEKEKEKEKEKEKEKEKEKEKEKEIDDAEAEAEAEAEAEAEAEAEAEAEAEAEAMA",
"PBEAEAEAEAEAEAEAEAEAEAEAEAEAFAJDKEKEKEKEKEKEKEKEKEKEKEKEKEKEKEKEKEKEKEKEKEKEJDEAEAEAEAEAEAEAEAEAEAEAEAEAEALA",
"NBEAEAEAEAEAEAEAEAEAEAEAEAEAEAMDKEKEKEKEKEKEKEKEKEKEKEKEKEKEKEKEKEKEKEKEKEKELDGAEAEAEAEAEAEAEAEAEAEAEAEAEAKA",
"MBEAEAEAEAEAEAEAEAEAEAEAEAEAEAODKEKEKEKEKEKEKEKEKEKEKEKEKEKEKEKEKEKEKEKEKEKEODEAEAEAEAEAEAEAEAEAEAEAEAEAEAKA",
"KBEAEAEAEAEAEAEAEAEAEAEAEAEAEAAEKEKEKEKEKEKEKEKEKEKEKEKEKEKEKEKEKEKEKEKEKEKEAEEAEAEAEAEAEAEAEAEAEAEAEAEAEAMA",
"JBEAEAEAEAEAEAEAEAEAEAEAEAEAGADEKEKEKEKEKEKEKEKEKEKEKEKEKEKEKEKEKEKEKEKEKEKEDEEAEAEAEAEAEAEAEAEAEAEAEAEAEAMA",
"KBEAEAEAEAEAEAEAEAEAEAEAEAEAEAFEKEEEDEDEDEDEDEDEDEDEDEDEDEDEDEDEDEDEDEDEEEKEFEGAEAEAEAEAEAEAEAEAEAEAEAEAEANA",
"KBEAEAEAEAEAEAEAEAEAEAEAEAEAEAIEKEEBAAAAAAAAAAAAAAAAAAAAAAAAAAAAAAAAAAAAGBKEIEEAEAEAEAEAEAEAEAEAEAEAEAEAEAMA",
"MBEAEAEAEAEAEAEAEAEAEAEAEAIANDKEKEGAAAAAAAAAAAAAAAAAAAAAAAAAAAAAAAAAAAAAIAKEKEMDKAEAEAEAEAEAEAEAEAEAEAEAEALA",
"LBEAEAEAEAEAEAEAEAEAEAEAFCEEKEKEKEIEIEIEIEIEIEIEIEIEIEIEIEIEIEIEIEIEIEIEIEKEKEKEEEGCEAEAEAEAEAEAEAEAEAEAEAMA",
"LBEAEAEAEAEAEAEAEAEAEAHDIEKEKEKEKEKEKEKEKEKEKEKEKEKEKEKEKEKEKEKEKEKEKEKEKEKEKEKEKEIEGDFAEAEAEAEAEAEAEAEAEANA",
"OBEAEAEAEAEAEAEAEAEAECKEKEKEKEKEKEKEKEKEKEKEKEKEKEKEKEKEKEKEKEKEKEKEKEKEKEKEKEKEKEKEKEBCEAEAEAEAEAEAEAEAEAMA",
"PBEAEAEAEAEAEAEAEAEAEDKEKEKEKEKEKEKEKEKEKEKEKEKEKEKEKEKEKEKEKEKEKEKEKEKEKEKEKEKEKEKEKEDDEAEAEAEAEAEAEAEAEAOA",
"OBEAEAEAEAEAEAEAEACAIDKEKEKEKEKEKEKEKEKEKEKEKEKEKEKEKEKEKEKEKEKEKEKEKEKEKEKEKEKEKEKEKEHDEAEAEAEAEAEAEAEAEACB",
"PBEAEAEAEAEAEAEAEAEAKDKEKEKEKEKEKEKEKEKEKEKEKEKEKEKEKEKEKEKEKEKEKEKEKEKEKEKEKEKEKEKEKEKDFAEAEAEAEAEAEAEAEAHB",
"CCEAEAEAEAEAEAEAEAGANDKEKEKEKEKEKEKEKEKEKEKEKEKEKEKEKEKEKEKEKEKEKEKEKEKEKEKEKEKEKEKEKENDEAEAEAEAEAEAEAEAEALB",
"CCEAEAEAEAEAEAEAEAEABEKEKEKEKEKEKEKEKEKEKEKEKEKEKEKEKEKEKEKEKEKEKEKEKEKEKEKEKEKEKEKEKEBEFAEAEAEAEAEAEAEAEANB",
"NBEAEAEAEAEAEAEAEAFAFEKEKEKEKEKEKEKEKEKEKEKEKEKEKEKEKEKEKEKEKEKEKEKEKEKEKEKEKEKEKEKEKEFEEAEAEAEAEAEAEAEAEAOB",
"IBEAEAEAEAEAEAEAEAEAKAJAJAJAJAJAJAJAJAJAJAJAJAJAJAJAJAJAJAJAJAJAJAJAJAJAJAJAJAJAJAJAJAIAEAEAEAEAEAEAEAEAEAAC",
"FBEAEAEAEAEAEAEAEAEAEAEAEAEAEAEAEAEAEAEAEAEAEAEAEAEAEAEAEAEAEAEAEAEAEAEAEAEAEAEAEAEAEAEAEAEAEAEAEAEAEAEAEAAC",
"GBEAEAEAEAEAEAEAEAEAEAEAEAEAEAEAEAEAEAEAEAEAEAEAEAEAEAEAEAEAEAEAEAEAEAEAEAEAEAEAEAEAEAEAEAEAEAEAEAEAEAEAEAMB",
"LBEAEAEAEAEAEAEAEAEAEAEAEAEAEAEAEAEAEAEAEAEAEAEAEAEAEAEAEAEAEAEAEAEAEAEAEAEAEAEAEAEAEAEAEAEAEAEAEAEAEAEAEAIB",
"NBEAEAEAEAEAEAEAEAEAEAEAEAEAEAEAEAEAEAEAEAEAEAEAEAEAEAEAEAEAEAEAEAEAEAEAEAEAEAEAEAEAEAEAEAEAEAEAEAEAEAEAEAEB",
"NBLBLBOBACECFCECCCCCDCGCICFCDCDCDCDCBCMBGBCBOAOAOAOAOAPAABBBABBBFBJBMBMBLBLBOBNBMBMBMBLBIBGBGBFBGBFBFBCBOAPA"};
