/* XPM */
static char *rld560[] = {
/* width height ncolors chars_per_pixel */
"54 54 178 2",
/* colors */
"AA c #FFFFFFFFFFFF",
"BA c #FEFEFEFEFEFE",
"CA c #FDFDFDFDFDFD",
"DA c #FCFCFCFCFCFC",
"EA c #FBFBFBFBFBFB",
"FA c #FAFAFAFAFAFA",
"GA c #F9F9F9F9F9F9",
"HA c #F8F8F8F8F8F8",
"IA c #F7F7F7F7F7F7",
"JA c #F6F6F6F6F6F6",
"KA c #F5F5F5F5F5F5",
"LA c #F4F4F4F4F4F4",
"MA c #F3F3F3F3F3F3",
"NA c #F2F2F2F2F2F2",
"OA c #F1F1F1F1F1F1",
"PA c #EAEAEAEAEAEA",
"AB c #E8E8E8E8E8E8",
"BB c #E7E7E7E7E7E7",
"CB c #E6E6E6E6E6E6",
"DB c #E5E5E5E5E5E5",
"EB c #D9D9D9D9D9D9",
"FB c #D8D8D8D8D8D8",
"GB c #D3D3D3D3D3D3",
"HB c #CBCBCBCBCBCB",
"IB c #C9C9C9C9C9C9",
"JB c #C8C8C8C8C8C8",
"KB c #C5C5C5C5C5C5",
"LB c #C3C3C3C3C3C3",
"MB c #C2C2C2C2C2C2",
"NB c #C0C0C0C0C0C0",
"OB c #BCBCBCBCBCBC",
"PB c #BBBBBBBBBBBB",
"AC c #B8B8B8B8B8B8",
"BC c #B3B3B3B3B3B3",
"CC c #B2B2B2B2B2B2",
"DC c #B0B0B0B0B0B0",
"EC c #AEAEAEAEAEAE",
"FC c #ABABABABABAB",
"GC c #AAAAAAAAAAAA",
"HC c #A9A9A9A9A9A9",
"IC c #A8A8A8A8A8A8",
"JC c #A2A2A2A2A2A2",
"KC c #A0A0A0A0A0A0",
"LC c #9D9D9D9D9D9D",
"MC c #9C9C9C9C9C9C",
"NC c #9B9B9B9B9B9B",
"OC c #9A9A9A9A9A9A",
"PC c #8E8E8E8E8E8E",
"AD c #8B8B8B8B8B8B",
"BD c #8A8A8A8A8A8A",
"CD c #868686868686",
"DD c #848484848484",
"ED c #828282828282",
"FD c #808080808080",
"GD c #7F7F7F7F7F7F",
"HD c #7E7E7E7E7E7E",
"ID c #7D7D7D7D7D7D",
"JD c #7C7C7C7C7C7C",
"KD c #7B7B7B7B7B7B",
"LD c #7A7A7A7A7A7A",
"MD c #797979797979",
"ND c #777777777777",
"OD c #767676767676",
"PD c #757575757575",
"AE c #747474747474",
"BE c #727272727272",
"CE c #717171717171",
"DE c #6F6F6F6F6F6F",
"EE c #6D6D6D6D6D6D",
"FE c #6C6C6C6C6C6C",
"GE c #6B6B6B6B6B6B",
"HE c #6A6A6A6A6A6A",
"IE c #696969696969",
"JE c #686868686868",
"KE c #676767676767",
"LE c #666666666666",
"ME c #656565656565",
"NE c #646464646464",
"OE c #636363636363",
"PE c #626262626262",
"AF c #616161616161",
"BF c #606060606060",
"CF c #5F5F5F5F5F5F",
"DF c #5E5E5E5E5E5E",
"EF c #5D5D5D5D5D5D",
"FF c #5C5C5C5C5C5C",
"GF c #5B5B5B5B5B5B",
"HF c #5A5A5A5A5A5A",
"IF c #595959595959",
"JF c #585858585858",
"KF c #575757575757",
"LF c #565656565656",
"MF c #555555555555",
"NF c #545454545454",
"OF c #535353535353",
"PF c #525252525252",
"AG c #515151515151",
"BG c #505050505050",
"CG c #4F4F4F4F4F4F",
"DG c #4E4E4E4E4E4E",
"EG c #4D4D4D4D4D4D",
"FG c #4C4C4C4C4C4C",
"GG c #4B4B4B4B4B4B",
"HG c #4A4A4A4A4A4A",
"IG c #494949494949",
"JG c #484848484848",
"KG c #474747474747",
"LG c #464646464646",
"MG c #454545454545",
"NG c #444444444444",
"OG c #434343434343",
"PG c #424242424242",
"AH c #414141414141",
"BH c #404040404040",
"CH c #3F3F3F3F3F3F",
"DH c #3E3E3E3E3E3E",
"EH c #3D3D3D3D3D3D",
"FH c #3C3C3C3C3C3C",
"GH c #3B3B3B3B3B3B",
"HH c #3A3A3A3A3A3A",
"IH c #393939393939",
"JH c #383838383838",
"KH c #373737373737",
"LH c #363636363636",
"MH c #353535353535",
"NH c #343434343434",
"OH c #333333333333",
"PH c #323232323232",
"AI c #313131313131",
"BI c #303030303030",
"CI c #2F2F2F2F2F2F",
"DI c #2E2E2E2E2E2E",
"EI c #2D2D2D2D2D2D",
"FI c #2C2C2C2C2C2C",
"GI c #2B2B2B2B2B2B",
"HI c #2A2A2A2A2A2A",
"II c #292929292929",
"JI c #282828282828",
"KI c #272727272727",
"LI c #262626262626",
"MI c #252525252525",
"NI c #242424242424",
"OI c #232323232323",
"PI c #222222222222",
"AJ c #212121212121",
"BJ c #202020202020",
"CJ c #1F1F1F1F1F1F",
"DJ c #1E1E1E1E1E1E",
"EJ c #1D1D1D1D1D1D",
"FJ c #1C1C1C1C1C1C",
"GJ c #1B1B1B1B1B1B",
"HJ c #1A1A1A1A1A1A",
"IJ c #191919191919",
"JJ c #181818181818",
"KJ c #171717171717",
"LJ c #161616161616",
"MJ c #151515151515",
"NJ c #141414141414",
"OJ c #131313131313",
"PJ c #121212121212",
"AK c #111111111111",
"BK c #101010101010",
"CK c #0F0F0F0F0F0F",
"DK c #0E0E0E0E0E0E",
"EK c #0D0D0D0D0D0D",
"FK c #0C0C0C0C0C0C",
"GK c #0B0B0B0B0B0B",
"HK c #0A0A0A0A0A0A",
"IK c #090909090909",
"JK c #080808080808",
"KK c #070707070707",
"LK c #060606060606",
"MK c #050505050505",
"NK c #040404040404",
"OK c #030303030303",
"PK c #020202020202",
"AL c #010101010101",
"BL c #000000000000",
/* pixels */
"FGMGFGPFAGAGPFNFBGDGAGEGGGDGPFPFGGAHIHOHNHLHLHGHPGCHKHNHNHIHAHAHFHGHEHPGEGOFOFAGBGEGEGEGAGKFGFKFPFAGPFAGHGDG",
"AHLIOICJIJIJJJMJAKCKCKFKFKDKPJOJAKOJJJGJEJCJDJIJLJOJOJAKCKEKGKIKJKJKKKKKKKMKNKPKPKPKALPKPKPKOKOKNKLKIKDKOJFH",
"DHDJHJLJOJOJPJAKCKDKEKFKEKBKMJMJMJMJKJKJHJDJEJLJCKDKDKEKEKCKCKHKKKKKJKKKKKLKOKOKPKPKPKPKPKPKOKOKOKNKKKGKAKCH",
"GHHJOJDKDKCKDKCKDKDKFKEKBKPJNJJJKJMJLJMJKJGJJJOJEKFKFKGKEKAKPJDKIKKKJKKKKKLKNKOKOKOKPKPKPKPKPKPKOKMKLKJKEKCH",
"OHPJEKHKHKFKDKCKEKFKEKBKPJOJNJJJKJLJIJIJLJNJAKCKEKFKEKEKCKOJKJPJEKHKJKKKKKKKLKOKOKOKOKPKPKALALPKOKMKLKJKHKHH",
"JIEKHKIKKKIKHKGKGKGKDKAKOJNJNJMJJJIJGJKJOJCKDKEKEKEKCKCKPJMJJJKJNJBKFKFKGKIKKKMKMKLKMKMKOKALPKPKNKLKJKHKGKIH",
"NIHKJKKKMKMKKKKKJKGKDKOJKJEJCJCJNIJIOIFJNJBKAKOJNJJJGJHJFJCJBJCJFJIJJJHJJJMJNJPJAKDKFKJKMKNKNKNKMKKKIKGKFKEH",
"IIKKLKMKNKMKKKKKIKGKAKHJKIMHFHCHOGPGGHDIDJLJGJNIDIMHKHKHJHJHMHEININIHIPHLHKHKHNHDIMIIJCKHKKKMKMKKKIKHKHKHKCH",
"BIMKMKMKMKLKLKLKKKFKLJIIBHLFNEHEFEKEEFJGBIOIFIDHPFDFPENEAFIFEGCHOHKHNGMFAFMELEOEKFPGEIIJAKEKGKHKIKHKHKIKIKCH",
"MHNKLKKKLKMKNKNKMKGKFJFHJKBLBLBLBLBLBLCJKGNHOGAKBLBLBLBLBLBLNJMFNGCGEJBLBLBLBLBLBLHKMGKILJNJNJOJBKEKGKHKHKGH",
"OHNKMKMKMKNKOKPKNKGKPIFGBKBLDJOIOIKJBLJICFFGCFJJBLGJOIOIGJBLIJIEJFIEKIBLKJOIOIDJBLOJJFAIEJHJHJDJFJKJAKDKDKMH",
"PHMKNKNKMKNKOKOKOKHKNIPFKJBLHBLAMAKCBLAIIDFEHDDJBLPBMALAOBBLCJDDAECDBIBLJCKAKAHBBLGJOEIHMIBJBJLINIDJIJMJAKAI",
"OHMKOKOKNKNKOKNKNKGKOIOFEJBLKBDADAICBLEIKDCEJDFJBLLBDADALBBLFJFDODEDFIBLHCCADALBBLPIKEFHJIOINIJIKIAJDJKJPJEI",
"AINKOKOKNKNKNKMKMKGKOIAGOIBLACDABAFCBLBLBLBLBLBLBLJBBABAIBBLBLBLBLBLBLBLFCBACAACBLJIPEHHNIEJDJLIMIBJEJHJPJCI",
"NHMKNKOKNKNKMKKKLKFKPIDGJIBLFCDAAAKBHGIGJGKGJGIGHGEBAAAAEBHGIGJGJGJGIGHGKBAADAGCBLEIGFOHCJJJKJFJAJCJGJKJOJPH",
"IHLKLKNKLKLKKKHKJKFKAJHGFIBLLCEAAAAABADAFAFAFADABAAAAAAAAABADAEAFAEADABAAAAAEANCBLAINFFIJJOJOJOJJJFJJJOJOJNH",
"HHLKKKKKIKJKIKHKJKGKDJOGDIBLADIACAAAAAAAAAAAAAAAAAAAAAAAAAAAAAAAAAAAAAAAAACAIABDBLOHDGMIOJCKAKBKOJNJPJAKBKLH",
"DHKKHKFKEKFKGKHKJKGKIJKHFIBLBKNCIADAAAAAAAAAAAAAAAAAAAAAAAAAAAAAAAAAAAAADAIAOCBKBLPHPGBJAKEKDKCKCKCKCKDKBKHH",
"LGHKCKPJBKBKCKFKIKHKOJKIKGIIBLBLCGABCAAAAAAAAAAAAAAAAAAAAAAAAAAAAAAAAACABBDGBLBLDIOFPHGJPJEKGKFKFKCKEKDKAKDH",
"IGDKOJNJMJLJNJCKGKHKEKKJEIBGJGMKBLNIBCKBKBKBKBKBKBKBKBKBKBKBKBKBKBKBKBCCPIBLLKDGFFDHLIIJOJDKEKFKGKDKCKBKOJOG",
"DGMJMJKJGJFJJJPJDKHKIKGKMJFIAGEEGJBLBLBLALALALALALALALALALALALALALALBLBLBLFJCEIFIHKICJFJMJCKDKEKEKEKBKOJOJHG",
"OFJJGJEJBJCJGJKJAKGKKKMKJKLJNHJEBIBLJHFGEGEGEGEGEGEGEGEGEGEGEGEGEGEGFGKHBLOHFEGHPIHJFJEJKJAKCKBKCKBKAKPJAKEG",
"LFHJEJPIOIKIMIDJLJEKLKOKNKEKIIEFPIBLKBCAAAAAAAAAAAAAAAAAAAAAAAAAAAAADAMBBLNICFBIIJMJGJEJLJAKBKCKCKPJOJPJPJMF",
"GFDJAJOIMIHIGIAJLJDKKKOKOKFKHICFJJBLFBCAAAAAAAAAAAAAAAAAAAAAAAAAAAAACAGBBLJJDFCIJJNJIJHJLJOJAKDKBKAKLJKJKJCF",
"FFCJBJOIOIIILIFJOJHKLKNKOKDKEINEDKBLPACAAAAAAAAAAAAAAAAAAAAAAAAAAAAACABBBLCKAFAIIJMJLJJJJJLJOJPJAKPJLJHJFJOE",
"GFCJDJBJOIMIAJGJAKGKKKMKNKCKCIKENKJKKABAAAAAAAAAAAAAAAAAAAAAAAAAAAAABAMALKMKMEOHHJPJNJLJHJHJGJGJKJMJKJEJBJBF",
"JFDJEJEJBJCJFJJJAKFKJKMKMKBKAIOEBLIJJABAAAAAAAAAAAAAAAAAAAAAAAAAAAAABALAKJBLPEMHHJBKAKLJHJBJMIAJEJEJGJAJLIJF",
"KFHJGJIJJJJJKJMJPJDKIKMKLKOJMHEFBLIIIABAAAAAAAAAAAAAAAAAAAAAAAAAAAAABAJALIBLGFKHGJPJBKNJGJNIKILIBJDJMIEIEIPF",
"OFNJLJKJNJMJMJPJCKHKJKMKLKNJKHLFBLIHHABAAAAAAAAAAAAAAAAAAAAAAAAAAAAABAIAKHBLNFJHIJBKAKLJBJKIHIFIKIKICINHBIGG",
"FGEKCKBKPJNJNJAKFKJKLKNKKKMJHHDGBLHGGAAAAAAAAAAAAAAAAAAAAAAAAAAAAAAAAAHAJGBLEGHHJJDKAKHJMIIIHIPHIHLHGHKHDIJG",
"DHGKHKGKBKMJLJBKFKIKLKMKIKIJBHJGBLGFFAAAAAAAAAAAAAAAAAAAAAAAAAAAAAAAAAGAJFBLLGEHHJCKMJDJLILIJILHNGMGBHIHEILG",
"NHLKKKJKFKPJOJCKFKIKLKMKIKFJLGPGBLFEFAAAAAAAAAAAAAAAAAAAAAAAAAAAAAAAAAFAIEBLCHPGEJPJIJPIKIKIIIMHMGGGOGJHEIDH",
"FIOKNKLKIKEKDKEKFKHKJKLKHKDJFGHHBLIDEAAAAAAAAAAAAAAAAAAAAAAAAAAAAAAAAAFALDBLKHKGPIKJHJBJJIGIGIPHHHBHDHJHDIIH",
"GIPKOKOKMKJKHKEKDKDKEKHKDKOIPFPHBLPCDAAAAAAAAAAAAAAAAAAAAAAAAAAAAAAAAAEAADBLBIEGKIJJKJJJPIIIEIFIFIEIPHNHFIKH",
"KIOKPKOKMKMKJKFKBKPJPJBKNJHIHFHIBLKCDAAAAAAAAAAAAAAAAAAAAAAAAAAAAAAAAADAMCBLJIOFIIIJMJLJEJNIKILINIOIFIAIGIBI",
"CJPKOKMKMKKKKKHKBKOJNJLJEJOHOEAJBLDCCAAAAAAAAAAAAAAAAAAAAAAAAAAAAAAAAADAECBLBJIFFIJJMJKJIJEJEJDJDJAJFIBIHIII",
"EJPKNKMKKKJKIKHKDKNJIJBJHINGCEKJBLMBCAAAAAAAAAAAAAAAAAAAAAAAAAAAAAAAAACANBBLKJOENHDJKJKJLJJJHJKJHJOIJIHIJIAJ",
"GJNKNKMKKKIKHKEKBKMJFJJIFHGFCDEKBLBKOJOJOJOJOJOJOJOJOJOJOJOJOJOJOJOJOJOJCKBLDKKDHGEIDJJJLJJJGJIJFJAJOIOIMIDJ",
"GJNKNKNKLKIKEKAKPJKJAJMHLFNDAHBLBLBLBLBLBLBLBLBLBLBLBLBLBLBLBLBLBLBLBLBLBLBLBLDHFEGGCIAJFJFJCJBJBJBJCJAJOIFJ",
"AJOKNKLKJKEKCKPJMJDJPHAGNEEJBLJKCDDBABABABABABABABABABABABABABABABABABABDBDDKKBLEJPEAGMHJILIIILILIKIPIAJCJEJ",
"MINKMKJKFKCKBKPJKJJIGGHGKKBLOIIBEABAAAAAAAAAAAAAAAAAAAAAAAAAAAAAAAAAAAAABAFAJBPIBLJKFGOFHHMHNHCICIBIKIPIEJEJ",
"MIJKIKFKDKBKBKPJFJLHMFBLBLJFBBEABAAAAAAAAAAAAAAAAAAAAAAAAAAAAAAAAAAAAAAAAABAEACBLFBLBLCFCGBHGHHHIHAIJIPIDJDJ",
"FIEKPJNJOJBKDKPJCJPGMFBLGHMADAAAAAAAAAAAAAAAAAAAAAAAAAAAAAAAAAAAAAAAAAAAAAAAAADAMAIHBLOEAFHGMGDHHHMHCIJIOIPI",
"PHOJKJMJMJAKCKNJMIHGDGBLMFGABAAAAAAAAAAAAAAAAAAAAAAAAAAAAAAAAAAAAAAAAAAAAAAAAABAGAOFBLHFIEBGKGCHJHKHPHCIHILI",
"JHLJLJNJNJMJLJFJDINFPGBLEEGABABABABABABABABABABABABABABABABABABABABABABABABABABAGAGEBLGGIEHGBHAHDHGHPHEIJIJI",
"OGOJPJMJKJDJDJPIPHKFOHBLFDNAJAJAJAJAJAIAJAJAKAKAKAKAKAKAKAKAKAKAKAKAKAKAKAKAKAKAOAIDBLJHNEAHLHHHPGPGKHBIHIHI",
"GGAKNJJJFJPIOIMIPHOFPIBLHKPJPJPJPJPJPJPJPJPJPJPJPJPJPJPJPJPJPJPJPJPJPJPJPJPJPJPJAKHKBLMIIFHHNHOHFHOGGHNHAIFI",
"HGLJHJEJPINILIEIOHHGPJBLBLBLBLBLBLBLBLBLBLBLBLBLBLBLBLBLBLBLBLBLBLBLBLBLBLBLBLBLBLBLBLPJKGMHOHNHHHAHGHKHOHPH",
"JGOIAJCJPIMIKIEIMHBHEGCFEEBEODLDGDFDMDPDBEDEEEHEGEGEGEGEHEIEGEGEIEIEIEJEIEIEIEHEIEOEKFMGOHEIBINHKHIHLHNHPHHH",
"LGHIIININIMILIJIAIJHJHDHNGLGJGCGLFNFFGJGOGDHHHIHFHEHGHJHKHJHIHIHIHIHKHLHJHJHLHIHHHNHDILIBJPIHIPHMHJHOHBICICH",
"LGIIGIHIJININIKIGICIEICIGIAIPHPHKHMHHIJIMIPIBJPIOIAJDJHJHJHJHJHJIJKJJJKJJJJJKJHJGJLJMJMJLJHJBJIIPHOHNHBIIING",
"KGLIHIHIJINIPILIKIMIDIFIMIJIJILIKIOIDJFJGJFJGJEJEJIJNJAKCKCKEKGKHKHKGKGKFKFKFKCKBKEKFKEKBKNJIJAJHIFIDIIIAJJG",
"JGMILIMINIMIOIJILIPIGIGILILINIBJCJDJFJDJDJFJEJDJEJJJNJPJDKGKIKKKLKJKJKKKJKIKGKFKEKEKGKGKFKBKLJFJBJAJPIFJKJHG",
"AGMGOGKGPFGFFFHFDFBFBFOEOEBFKFGGJGNGCHOGOGEHHHFHPGAHAHOGPGOGLGMGOGCHHHIHOHNHIHGHGHFHFHFHDHEHJHCIIIIIAIHHPGKF"};
