/* XPM */
static char *rll560[] = {
/* width height ncolors chars_per_pixel */
"54 54 81 2",
/* colors */
"AA c #FFFFFFFFFFFF",
"BA c #F4F4F4F4F4F4",
"CA c #F3F3F3F3F3F3",
"DA c #F2F2F2F2F2F2",
"EA c #F1F1F1F1F1F1",
"FA c #F0F0F0F0F0F0",
"GA c #EFEFEFEFEFEF",
"HA c #EEEEEEEEEEEE",
"IA c #EDEDEDEDEDED",
"JA c #ECECECECECEC",
"KA c #EBEBEBEBEBEB",
"LA c #EAEAEAEAEAEA",
"MA c #E9E9E9E9E9E9",
"NA c #E8E8E8E8E8E8",
"OA c #E7E7E7E7E7E7",
"PA c #E6E6E6E6E6E6",
"AB c #E5E5E5E5E5E5",
"BB c #E4E4E4E4E4E4",
"CB c #E3E3E3E3E3E3",
"DB c #E2E2E2E2E2E2",
"EB c #E1E1E1E1E1E1",
"FB c #E0E0E0E0E0E0",
"GB c #DFDFDFDFDFDF",
"HB c #DEDEDEDEDEDE",
"IB c #DDDDDDDDDDDD",
"JB c #DCDCDCDCDCDC",
"KB c #DBDBDBDBDBDB",
"LB c #DADADADADADA",
"MB c #D9D9D9D9D9D9",
"NB c #D8D8D8D8D8D8",
"OB c #D7D7D7D7D7D7",
"PB c #D6D6D6D6D6D6",
"AC c #D5D5D5D5D5D5",
"BC c #D4D4D4D4D4D4",
"CC c #D3D3D3D3D3D3",
"DC c #D2D2D2D2D2D2",
"EC c #D1D1D1D1D1D1",
"FC c #D0D0D0D0D0D0",
"GC c #CFCFCFCFCFCF",
"HC c #CECECECECECE",
"IC c #CDCDCDCDCDCD",
"JC c #CCCCCCCCCCCC",
"KC c #CBCBCBCBCBCB",
"LC c #CACACACACACA",
"MC c #C9C9C9C9C9C9",
"NC c #C7C7C7C7C7C7",
"OC c #C6C6C6C6C6C6",
"PC c #C5C5C5C5C5C5",
"AD c #C3C3C3C3C3C3",
"BD c #C2C2C2C2C2C2",
"CD c #C1C1C1C1C1C1",
"DD c #C0C0C0C0C0C0",
"ED c #BDBDBDBDBDBD",
"FD c #BBBBBBBBBBBB",
"GD c #B9B9B9B9B9B9",
"HD c #B7B7B7B7B7B7",
"ID c #B6B6B6B6B6B6",
"JD c #B4B4B4B4B4B4",
"KD c #B3B3B3B3B3B3",
"LD c #AFAFAFAFAFAF",
"MD c #A5A5A5A5A5A5",
"ND c #9F9F9F9F9F9F",
"OD c #969696969696",
"PD c #878787878787",
"AE c #7F7F7F7F7F7F",
"BE c #787878787878",
"CE c #6F6F6F6F6F6F",
"DE c #686868686868",
"EE c #5F5F5F5F5F5F",
"FE c #595959595959",
"GE c #4F4F4F4F4F4F",
"HE c #4A4A4A4A4A4A",
"IE c #3F3F3F3F3F3F",
"JE c #3B3B3B3B3B3B",
"KE c #2F2F2F2F2F2F",
"LE c #2C2C2C2C2C2C",
"ME c #1F1F1F1F1F1F",
"NE c #1D1D1D1D1D1D",
"OE c #0F0F0F0F0F0F",
"PE c #0E0E0E0E0E0E",
"AF c #000000000000",
/* pixels */
"KBNBNBPBBCBCACBCDCCCECHCKCHCHCGCDCCCDCPBLBIBDBABPAPABBHBJBJBLBOBCCDCFCGCFCECECACMBKBKBKBHBFBCBCBBBABOALAJALA",
"GBFAFAFAFAFAFAFAFAFAFAFAFAFAFAFAFAFAFAFAFAFAFAFAFAFAFAFAFAFAFAFAFAFAFAFAFAFAFAFAFAFAFAFAFAFAFAFAFAFAFAFAFAMA",
"FBFAFAFAFAFAFAFAFAFAFAFAFAFAFAFAFAFAFAFAFAFAFAFAFAFAFAFAFAFAFAFAFAFAFAFAFAFAFAFAFAFAFAFAFAFAFAFAFAFAFAFAFANA",
"CBFAFAFAFAFAFAFAFAFAFAFAFAFAFAFAFAFAFAFAFAFAFAFAFAFAFAFAFAFAFAFAFAFAFAFAFAFAFAFAFAFAFAFAFAFAFAFAFAFAFAFAFAOA",
"ABFAFAFAFAFAFAFAFAFAFAFAFAFAFAFAFAFAFAFAFAFAFAFAFAFAFAFAFAFAFAFAFAFAFAFAFAFAFAFAFAFAFAFAFAFAFAFAFAFAFAFAFAPA",
"ABFAFAFAFAFAFAFAFAFAFAFAFAFAFAFAFAFAFAFAFAFAFAFAFAFAFAFAFAFAFAFAFAFAFAFAFAFAFAFAFAFAFAFAFAFAFAFAFAFAFAFAFAOA",
"BBFAFAFAFAFAFAFAFAFAFAFAFAFAFAFAFAFAFAFAFAFAFAFAFAFAFAFAFAFAFAFAFAFAFAFAFAFAFAFAFAFAFAFAFAFAFAFAFAFAFAFAFAPA",
"BBFAFAFAFAFAFAFAFAFAFAFAFAFAFAFAFAFAFAFAFAFAFAFAFAFAFAFAFAFAFAFAFAFAFAFAFAFAFAFAFAFAFAFAFAFAFAFAFAFAFAFAFABB",
"CBFAFAFAFAFAFAFAFAFAFAFAABBBBBBBBBBBBBNAFAFAFAPABBBBBBBBBBBBPAFAFAFANABBBBBBBBBBBBABFAFAFAFAFAFAFAFAFAFAFAEB",
"DBFAFAFAFAFAFAFAFAFAFAIANEAFAFAFAFAFAFGEFAFAFAKEAFAFAFAFAFAFKEFAFAGAHEAFAFAFAFAFAFNEFAFAFAFAFAFAFAFAFAFAFAGB",
"CBFAFAFAFAFAFAFAFAFAFAFAMEAFMELEMENEAFGEGAFAFAKEAFNELEMEMEAFKEEAFAFAHEAFNEMELEMEAFMECAFAFAFAFAFAFAFAFAFAFAGB",
"CBFAFAFAFAFAFAFAFAFAFAEAKEAFGBAAAALDAFGEFAFAEAKEAFLCAAAAJCAFKEFAFAHAHEAFLDAAAAHBAFKEFAFAFAFAFAFAFAFAFAFAFAKB",
"DBFAFAFAFAFAFAFAFAFAFAFAJEAFFCAAAALDAFJEGDGDGDLEAFKCAAAALCAFLEIDGDGDJEAFLDAAAAICAFIEFAFAFAFAFAFAFAFAFAFAFAPB",
"EBFAFAFAFAFAFAFAFAFAFAIAHEAFCDAAAALDAFAFAFAFAFAFAFKCAAAAKCAFAFAFAFAFAFAFLDAAAADDAFHEFAFAFAFAFAFAFAFAFAFAFABC",
"FBFAFAFAFAFAFAFAFAFAFAFAGEAFJDAAAAPCHEHEHEHEHEHEHEKBAAAALBHEHEHEHEHEHEHEOCAAAAKDAFGEEAFAFAFAFAFAFAFAFAFAFACC",
"GBFAFAFAFAFAFAFAFAFAFAGAEEAFMDAAAAAAAAAAAAAAAAAAAAAAAAAAAAAAAAAAAAAAAAAAAAAAAAMDAFEEFAFAFAFAFAFAFAFAFAFAFABC",
"GBFAFAFAFAFAFAFAFAFAFAFADEAFODAAAAAAAAAAAAAAAAAAAAAAAAAAAAAAAAAAAAAAAAAAAAAAAAODAFDEEAFAFAFAFAFAFAFAFAFAFAAC",
"HBFAFAFAFAFAFAFAFAFAFAHABEAFOEMDAAAAAAAAAAAAAAAAAAAAAAAAAAAAAAAAAAAAAAAAAAAAMDOEAFBEFAFAFAFAFAFAFAFAFAFAFAMB",
"IBFAFAFAFAFAFAFAFAFAFAFAABEEAFAFGEEAAAAAAAAAAAAAAAAAAAAAAAAAAAAAAAAAAAAAGAGEAFAFEENAFAFAFAFAFAFAFAFAFAFAFAHB",
"JBFAFAFAFAFAFAFAFAFAFAFAFAEAODPEAFMEIDOCOCOCOCOCOCOCOCOCOCOCOCOCOCOCOCHDMEAFPENDEAFAFAFAFAFAFAFAFAFAFAFAFAEB",
"MBFAFAFAFAFAFAFAFAFAFAFAFAFAEAICLEAFAFAFAFAFAFAFAFAFAFAFAFAFAFAFAFAFAFAFAFLEKCGAFAFAFAFAFAFAFAFAFAFAFAFAFAEB",
"PBFAFAFAFAFAFAFAFAFAFAFAFAFAFAEAGEAFJEHEGEHEGEHEGEHEGEHEGEHEGEHEGEHEGEJEAFGEFAFAFAFAFAFAFAFAFAFAFAFAFAFAFACB",
"CCFAFAFAFAFAFAFAFAFAFAFAFAFAFAFAIEAFECAAAAAAAAAAAAAAAAAAAAAAAAAAAAAAAAJCAFIEDAFAFAFAFAFAFAFAFAFAFAFAFAFAFABB",
"HCFAFAFAFAFAFAFAFAFAFAFAFAFAFAFALEAFDBAAAAAAAAAAAAAAAAAAAAAAAAAAAAAAAAEBAFKEFAFAFAFAFAFAFAFAFAFAFAFAFAFAFAAB",
"NCFAFAFAFAFAFAFAFAFAFAFAFAFAFAFANEAFBAAAAAAAAAAAAAAAAAAAAAAAAAAAAAAAAACAAFNEGAFAFAFAFAFAFAFAFAFAFAFAFAFAFAPA",
"ADFAFAFAFAFAFAFAFAFAFAFAFAFAFAFAAFPEAAAAAAAAAAAAAAAAAAAAAAAAAAAAAAAAAAAAAFPEFAFAFAFAFAFAFAFAFAFAFAFAFAFAFAOA",
"BDFAFAFAFAFAFAFAFAFAFAFAFAFAFACBAFNEAAAAAAAAAAAAAAAAAAAAAAAAAAAAAAAAAAAANEAFABFAFAFAFAFAFAFAFAFAFAFAFAFAFAAB",
"PCFAFAFAFAFAFAFAFAFAFAFAFAFAFAECAFLEAAAAAAAAAAAAAAAAAAAAAAAAAAAAAAAAAAAALEAFCCFAFAFAFAFAFAFAFAFAFAFAFAFAFAOA",
"LCFAFAFAFAFAFAFAFAFAFAFAFAFAFAEDAFJEAAAAAAAAAAAAAAAAAAAAAAAAAAAAAAAAAAAAJEAFDDFAFAFAFAFAFAFAFAFAFAFAFAFAFAOA",
"ICFAFAFAFAFAFAFAFAFAFAFAFAFAHALDAFGEAAAAAAAAAAAAAAAAAAAAAAAAAAAAAAAAAAAAHEAFLDFAFAFAFAFAFAFAFAFAFAFAFAFAFAOA",
"DCFAFAFAFAFAFAFAFAFAFAFAFAFAFAODAFEEAAAAAAAAAAAAAAAAAAAAAAAAAAAAAAAAAAAAEEAFODEAFAFAFAFAFAFAFAFAFAFAFAFAFANA",
"ACFAFAFAFAFAFAFAFAFAFAFAFAFAGAPDAFCEAAAAAAAAAAAAAAAAAAAAAAAAAAAAAAAAAAAACEAFPDFAFAFAFAFAFAFAFAFAFAFAFAFAFAMA",
"OBFAFAFAFAFAFAFAFAFAFAFAFAFAFACEAFPDAAAAAAAAAAAAAAAAAAAAAAAAAAAAAAAAAAAAAEAFBEGAFAFAFAFAFAFAFAFAFAFAFAFAFALA",
"NBFAFAFAFAFAFAFAFAFAFAFAFAFAEAEEAFODAAAAAAAAAAAAAAAAAAAAAAAAAAAAAAAAAAAAODAFEEFAFAFAFAFAFAFAFAFAFAFAFAFAFALA",
"LBFAFAFAFAFAFAFAFAFAFAFAFAFAFAGEAFMDAAAAAAAAAAAAAAAAAAAAAAAAAAAAAAAAAAAAMDAFGEFAFAFAFAFAFAFAFAFAFAFAFAFAFANA",
"KBFAFAFAFAFAFAFAFAFAFAFAFAFAHAJEAFFDAAAAAAAAAAAAAAAAAAAAAAAAAAAAAAAAAAAAGDAFJEFAFAFAFAFAFAFAFAFAFAFAFAFAFANA",
"LBFAFAFAFAFAFAFAFAFAFAFAFAFAFALEAFKCAAAAAAAAAAAAAAAAAAAAAAAAAAAAAAAAAAAAMCAFLEHAFAFAFAFAFAFAFAFAFAFAFAFAFAOA",
"LBFAFAFAFAFAFAFAFAFAFAFAFAFAEAOEAFOEOEOEOEOEOEOEOEOEOEOEOEOEOEOEOEOEOEOEOEAFOEFAFAFAFAFAFAFAFAFAFAFAFAFAFANA",
"NBFAFAFAFAFAFAFAFAFAFAFAFAJADEAFAFAFAFAFAFAFAFAFAFAFAFAFAFAFAFAFAFAFAFAFAFAFAFCELAFAFAFAFAFAFAFAFAFAFAFAFAMA",
"MBFAFAFAFAFAFAFAFAFAFAFAGCKEAFPEPDMAKAKAJAJAJAJAJAJAJAJAJAJAJAJAJAJAKAKAJAPDPEAFKEHCFAFAFAFAFAFAFAFAFAFAFANA",
"MBFAFAFAFAFAFAFAFAFAFANDOEAFLEHCAAAAAAAAAAAAAAAAAAAAAAAAAAAAAAAAAAAAAAAAAAAAFCMEAFOEMDGAFAFAFAFAFAFAFAFAFAOA",
"PBFAFAFAFAFAFAFAFAFAFCAFAFEEIAAAAAAAAAAAAAAAAAAAAAAAAAAAAAAAAAAAAAAAAAAAAAAAAACAEEAFAFCCFAFAFAFAFAFAFAFAFANA",
"ACFAFAFAFAFAFAFAFAFAJDAFIEAAAAAAAAAAAAAAAAAAAAAAAAAAAAAAAAAAAAAAAAAAAAAAAAAAAAAAAAIEAFIDFAFAFAFAFAFAFAFAFAPA",
"PBFAFAFAFAFAFAFAFADAODAFFEAAAAAAAAAAAAAAAAAAAAAAAAAAAAAAAAAAAAAAAAAAAAAAAAAAAAAAAAFEAFNDFAFAFAFAFAFAFAFAFADB",
"ACFAFAFAFAFAFAFAFAFAAEAFBEAAAAAAAAAAAAAAAAAAAAAAAAAAAAAAAAAAAAAAAAAAAAAAAAAAAAAAAACEAFAEGAFAFAFAFAFAFAFAFAIB",
"DCFAFAFAFAFAFAFAFAHADEAFPDAAAAAAAAAAAAAAAAAAAAAAAAAAAAAAAAAAAAAAAAAAAAAAAAAAAAAAAAPDAFDEFAFAFAFAFAFAFAFAFAMB",
"DCFAFAFAFAFAFAFAFAFAHEAFPEOEOEOEOEOEOEOEOEOEOEOEOEOEOEOEOEOEOEOEOEOEOEOEOEOEOEOEOEOEAFHEGAFAFAFAFAFAFAFAFAOB",
"OBFAFAFAFAFAFAFAFAGALEAFAFAFAFAFAFAFAFAFAFAFAFAFAFAFAFAFAFAFAFAFAFAFAFAFAFAFAFAFAFAFAFLEFAFAFAFAFAFAFAFAFAPB",
"JBFAFAFAFAFAFAFAFAFALAKAKAIAIAIAHAHAHAHAHAHAHAHAHAHAHAHAHAHAHAHAHAHAHAHAHAHAHAIAJAKALAJAFAFAFAFAFAFAFAFAFABC",
"GBFAFAFAFAFAFAFAFAFAFAFAFAFAFAFAFAFAFAFAFAFAFAFAFAFAFAFAFAFAFAFAFAFAFAFAFAFAFAFAFAFAFAFAFAFAFAFAFAFAFAFAFABC",
"HBFAFAFAFAFAFAFAFAFAFAFAFAFAFAFAFAFAFAFAFAFAFAFAFAFAFAFAFAFAFAFAFAFAFAFAFAFAFAFAFAFAFAFAFAFAFAFAFAFAFAFAFANB",
"MBFAFAFAFAFAFAFAFAFAFAFAFAFAFAFAFAFAFAFAFAFAFAFAFAFAFAFAFAFAFAFAFAFAFAFAFAFAFAFAFAFAFAFAFAFAFAFAFAFAFAFAFAJB",
"OBFAFAFAFAFAFAFAFAFAFAFAFAFAFAFAFAFAFAFAFAFAFAFAFAFAFAFAFAFAFAFAFAFAFAFAFAFAFAFAFAFAFAFAFAFAFAFAFAFAFAFAFAFB",
"OBMBMBPBBCFCGCFCDCDCECHCJCGCECECECECCCNBHBDBPAPAPAPAPAABBBCBBBCBGBKBNBNBMBMBPBOBNBNBNBMBJBHBHBGBHBGBGBDBPAAB"};
